<svg width="20" height="20" viewBox="0 0 21 22" fill="none" xmlns="http://www.w3.org/2000/svg">
<path d="M10.6366 15.5C9.77354 15.5 8.92988 15.2361 8.21228 14.7416C7.49468 14.2471 6.93539 13.5443 6.60511 12.7221C6.27484 11.8998 6.18843 10.995 6.3568 10.1221C6.52517 9.24918 6.94076 8.44736 7.55103 7.81802C8.1613 7.18868 8.93882 6.7601 9.78528 6.58647C10.6317 6.41283 11.5091 6.50195 12.3065 6.84254C13.1038 7.18314 13.7853 7.75991 14.2648 8.49994C14.7443 9.23996 15.0002 10.11 15.0002 11C15.0065 11.5927 14.8978 12.1808 14.6808 12.7297C14.4637 13.2785 14.1425 13.7772 13.736 14.1963C13.3296 14.6155 12.8461 14.9467 12.3138 15.1705C11.7816 15.3944 11.2114 15.5064 10.6366 15.5ZM10.6366 8C10.2522 7.99098 9.86996 8.06241 9.51306 8.20998C9.15616 8.35755 8.83196 8.5782 8.56007 8.85859C8.28817 9.13899 8.07421 9.47331 7.93111 9.84136C7.78801 10.2094 7.71875 10.6036 7.7275 11C7.71875 11.3964 7.78801 11.7906 7.93111 12.1586C8.07421 12.5267 8.28817 12.861 8.56007 13.1414C8.83196 13.4218 9.15616 13.6425 9.51306 13.79C9.86996 13.9376 10.2522 14.009 10.6366 14C11.021 14.009 11.4032 13.9376 11.7601 13.79C12.117 13.6425 12.4412 13.4218 12.7131 13.1414C12.985 12.861 13.199 12.5267 13.3421 12.1586C13.4852 11.7906 13.5544 11.3964 13.5457 11C13.5544 10.6036 13.4852 10.2094 13.3421 9.84136C13.199 9.47331 12.985 9.13899 12.7131 8.85859C12.4412 8.5782 12.117 8.35755 11.7601 8.20998C11.4032 8.06241 11.021 7.99098 10.6366 8Z" fill="white"/>
<path d="M20.3128 7.283L18.5965 4.217C18.4285 3.91639 18.1645 3.68521 17.8496 3.56293C17.5348 3.44065 17.1885 3.43485 16.8699 3.5465L15.0998 4.16375C14.7947 3.95194 14.4759 3.762 14.1456 3.59525L13.7798 1.706C13.7138 1.36583 13.5356 1.05975 13.2754 0.839855C13.0153 0.619964 12.6892 0.499863 12.3528 0.5H8.92012C8.58374 0.499863 8.2577 0.619964 7.99754 0.839855C7.73737 1.05975 7.55914 1.36583 7.49321 1.706L7.12739 3.59525C6.79337 3.76017 6.4709 3.94887 6.1623 4.16L4.4023 3.5465C4.08393 3.43524 3.738 3.44125 3.42345 3.56351C3.10889 3.68577 2.84517 3.91671 2.67721 4.217L0.960847 7.283C0.79271 7.58322 0.730607 7.93423 0.785102 8.27634C0.839597 8.61845 1.00732 8.93053 1.25976 9.1595L2.66412 10.4323C2.65176 10.6213 2.63648 10.8088 2.63648 11C2.63648 11.1935 2.64376 11.3848 2.65685 11.5745L1.26048 12.8405C1.00782 13.0693 0.839809 13.3813 0.785048 13.7234C0.730287 14.0655 0.792152 14.4166 0.96012 14.717L2.67648 17.783C2.84439 18.0837 3.1083 18.3151 3.42318 18.4375C3.73806 18.5599 4.08439 18.5658 4.40303 18.4543L6.17321 17.8363C6.47817 18.0485 6.79699 18.2387 7.12739 18.4055L7.49321 20.294C7.55914 20.6342 7.73737 20.9403 7.99754 21.1601C8.2577 21.38 8.58374 21.5001 8.92012 21.5H12.091V20H8.92012L8.40376 17.3375C7.68945 17.0639 7.02636 16.665 6.44376 16.1585L3.93685 17.033L2.22048 13.967L4.2023 12.1708C4.06671 11.3952 4.06499 10.601 4.19721 9.82475L2.22048 8.033L3.93685 4.967L6.42921 5.837C7.01597 5.3298 7.68422 4.93231 8.40376 4.6625L8.92012 2H12.3528L12.8692 4.6625C13.5835 4.93618 14.2466 5.33505 14.8292 5.8415L17.3361 4.967L19.0525 8.033L17.0176 9.872L17.9761 11L20.0125 9.1595C20.2652 8.93072 20.4332 8.61873 20.4879 8.27662C20.5427 7.9345 20.4808 7.58338 20.3128 7.283Z" fill="white"/>
<path d="M15.7275 18.635L13.8438 16.6925L12.8184 17.75L15.7275 20.75L20.8184 15.5L19.7929 14.4425L15.7275 18.635Z" fill="white"/>
</svg>
