<svg width="24" height="24" viewBox="0 0 24 24" fill="none" xmlns="http://www.w3.org/2000/svg">
<g opacity="0.89">
<path fill-rule="evenodd" clip-rule="evenodd" d="M2 12C2 17.5228 6.47715 22 12 22C17.5228 22 22 17.5228 22 12C22 6.47715 17.5228 2 12 2C6.47715 2 2 6.47715 2 12ZM4 12C4 7.58172 7.58172 4 12 4C16.4183 4 20 7.58172 20 12C20 16.4183 16.4183 20 12 20C7.58172 20 4 16.4183 4 12ZM16.4273 10.131C17.2302 8.36456 15.413 6.54733 13.6465 7.35027L10.0344 8.99218C9.57213 9.20228 9.20168 9.57273 8.99157 10.035L7.34967 13.6471C6.54672 15.4136 8.36395 17.2308 10.1304 16.4279L13.7426 14.786C14.2048 14.5759 14.5753 14.2054 14.7854 13.7432L16.4273 10.131ZM10.3187 11.9485L10.8123 10.8626C10.8223 10.8406 10.84 10.8229 10.862 10.8129L11.9479 10.3193L12.7427 9.95805L14.3947 9.20712L14.4741 9.17101C14.5583 9.13277 14.6448 9.21931 14.6066 9.30342L14.5704 9.38287L13.8195 11.0349L13.4583 11.8297L12.9647 12.9156C12.9547 12.9376 12.937 12.9553 12.915 12.9653L11.8291 13.4589L11.0343 13.8201L9.38227 14.5711L9.30282 14.6072C9.2187 14.6454 9.13217 14.5589 9.1704 14.4747L9.20652 14.3953L9.95744 12.7433L10.3187 11.9485Z" fill="#FFA801"/>
</g>
</svg>
