<svg width="24" height="24" viewBox="0 0 24 24" fill="none" xmlns="http://www.w3.org/2000/svg">
<path d="M9.75 19.5H8.25C8.24881 18.5058 7.85334 17.5527 7.15034 16.8497C6.44733 16.1467 5.4942 15.7512 4.5 15.75V14.25C5.8919 14.2516 7.22633 14.8052 8.21056 15.7894C9.19478 16.7737 9.74841 18.1081 9.75 19.5Z" fill="white"/>
<path d="M13.5 19.5H12C11.9978 17.5115 11.2069 15.6052 9.80089 14.1991C8.39484 12.7931 6.48845 12.0022 4.5 12V10.5C6.8861 10.5028 9.17367 11.4519 10.8609 13.1391C12.5481 14.8263 13.4972 17.1139 13.5 19.5Z" fill="white"/>
<path d="M19.5 9.75C18.1081 9.74841 16.7737 9.19478 15.7894 8.21056C14.8052 7.22633 14.2516 5.8919 14.25 4.5H15.75C15.7512 5.4942 16.1467 6.44733 16.8497 7.15034C17.5527 7.85334 18.5058 8.24881 19.5 8.25V9.75Z" fill="white"/>
<path d="M19.5 13.5C17.1139 13.4972 14.8263 12.5481 13.1391 10.8609C11.4519 9.17367 10.5028 6.8861 10.5 4.5H12C12.0022 6.48845 12.7931 8.39484 14.1991 9.80089C15.6052 11.2069 17.5115 11.9978 19.5 12V13.5Z" fill="white"/>
<path d="M5.78025 18.2198C5.6396 18.0792 5.44887 18.0002 5.25 18.0002C5.05113 18.0002 4.8604 18.0792 4.71975 18.2198L1.5 21.4396L2.5605 22.5001L5.78025 19.2803C5.92085 19.1397 5.99984 18.949 5.99984 18.7501C5.99984 18.5512 5.92085 18.3605 5.78025 18.2198Z" fill="white"/>
<path d="M21.4396 1.5L18.2198 4.71975C18.0832 4.8612 18.0076 5.05065 18.0093 5.2473C18.011 5.44395 18.0899 5.63206 18.2289 5.77111C18.368 5.91017 18.5561 5.98905 18.7528 5.99076C18.9494 5.99246 19.1389 5.91687 19.2803 5.78025L22.5001 2.5605L21.4396 1.5Z" fill="white"/>
</svg>
