<svg width="24" height="24" viewBox="0 0 24 24" fill="none" xmlns="http://www.w3.org/2000/svg">
<g opacity="0.89">
<path fill-rule="evenodd" clip-rule="evenodd" d="M12 22C6.47715 22 2 17.5228 2 12C2 6.47715 6.47715 2 12 2C17.5228 2 22 6.47715 22 12C22 17.5228 17.5228 22 12 22ZM12 4C7.58172 4 4 7.58172 4 12C4 16.4183 7.58172 20 12 20C16.4183 20 20 16.4183 20 12C20 7.58172 16.4183 4 12 4ZM10.5 11H13C13.5523 11 14 10.5523 14 10C14 9.44772 13.5523 9 13 9H10.5V11ZM15.2361 12C15.7111 11.4692 16 10.7684 16 10C16 8.34315 14.6569 7 13 7V6C13 5.44772 12.5523 5 12 5C11.4477 5 11 5.44772 11 6V7H9.55446C8.9721 7 8.5 7.4721 8.5 8.05446V12V16C8.5 16.5523 8.94772 17 9.5 17H11V18C11 18.5523 11.4477 19 12 19C12.5523 19 13 18.5523 13 18V17C14.6569 17 16 15.6569 16 14C16 13.2316 15.7111 12.5308 15.2361 12ZM13 13H10.5V15H13C13.5523 15 14 14.5523 14 14C14 13.4477 13.5523 13 13 13Z" fill="white"/>
</g>
</svg>
