<svg width="24" height="24" viewBox="0 0 24 24" fill="none" xmlns="http://www.w3.org/2000/svg">
<path fill-rule="evenodd" clip-rule="evenodd" d="M19.5 2H15.5C14.1193 2 13 3.11929 13 4.5V8.5C13 9.88071 14.1193 11 15.5 11H19.5C20.8807 11 22 9.88071 22 8.5V4.5C22 3.11929 20.8807 2 19.5 2ZM15 4.5C15 4.22386 15.2239 4 15.5 4H19.5C19.7761 4 20 4.22386 20 4.5V8.5C20 8.77614 19.7761 9 19.5 9H15.5C15.2239 9 15 8.77614 15 8.5V4.5ZM4.73223 2.93934L2.93934 4.73223C1.96303 5.70854 1.96303 7.29145 2.93934 8.26777L4.73223 10.0607C5.70854 11.037 7.29145 11.037 8.26777 10.0607L10.0607 8.26777C11.037 7.29146 11.037 5.70855 10.0607 4.73223L8.26777 2.93934C7.29146 1.96303 5.70855 1.96303 4.73223 2.93934ZM4.35355 6.85355C4.15829 6.65829 4.15829 6.34171 4.35355 6.14645L6.14645 4.35355C6.34171 4.15829 6.65829 4.15829 6.85355 4.35355L8.64645 6.14645C8.84171 6.34171 8.84171 6.65829 8.64645 6.85355L6.85355 8.64645C6.65829 8.84171 6.34171 8.84171 6.14645 8.64645L4.35355 6.85355ZM8.5 13H4.5C3.11929 13 2 14.1193 2 15.5V19.5C2 20.8807 3.11929 22 4.5 22H8.5C9.88071 22 11 20.8807 11 19.5V15.5C11 14.1193 9.88071 13 8.5 13ZM4 15.5C4 15.2239 4.22386 15 4.5 15H8.5C8.77614 15 9 15.2239 9 15.5V19.5C9 19.7761 8.77614 20 8.5 20H4.5C4.22386 20 4 19.7761 4 19.5V15.5ZM17.5 22C15.0147 22 13 19.9853 13 17.5C13 15.0147 15.0147 13 17.5 13C19.9853 13 22 15.0147 22 17.5C22 19.9853 19.9853 22 17.5 22ZM17.5 15C16.1193 15 15 16.1193 15 17.5C15 18.8807 16.1193 20 17.5 20C18.8807 20 20 18.8807 20 17.5C20 16.1193 18.8807 15 17.5 15Z" fill="white"/>
</svg>
