<svg width="24" height="20" viewBox="0 0 24 20" fill="none" xmlns="http://www.w3.org/2000/svg">
<path d="M20.3171 2.36976C18.7874 1.6679 17.1471 1.15078 15.4319 0.854575C15.4007 0.848857 15.3695 0.863153 15.3534 0.8917C15.1424 1.26693 14.9088 1.7564 14.7451 2.14115C12.9005 1.86497 11.0652 1.86497 9.25837 2.14115C9.09468 1.74787 8.85252 1.26693 8.6406 0.8917C8.62452 0.864091 8.5933 0.849794 8.56208 0.854575C6.84796 1.14979 5.20762 1.66692 3.67696 2.36976C3.66369 2.37548 3.65235 2.385 3.6448 2.39737C0.533426 7.04573 -0.318949 11.5799 0.099176 16.0577C0.101051 16.0796 0.113379 16.1006 0.130395 16.1139C2.18319 17.6215 4.17172 18.5367 6.12327 19.1433C6.15449 19.1528 6.18758 19.1414 6.20746 19.1157C6.66908 18.4853 7.0806 17.8206 7.43343 17.1215C7.45424 17.0806 7.43437 17.032 7.3918 17.0158C6.73907 16.7682 6.11755 16.4663 5.51966 16.1235C5.47237 16.0959 5.46857 16.0282 5.51212 15.9959C5.63793 15.9016 5.76379 15.8035 5.88393 15.7044C5.90568 15.6863 5.93596 15.6825 5.96151 15.6939C9.88926 17.4872 14.1415 17.4872 18.0229 15.6939C18.0485 15.6816 18.0787 15.6854 18.1014 15.7034C18.2216 15.8025 18.3474 15.9015 18.4742 15.9958C18.5177 16.0282 18.5148 16.0958 18.4676 16.1234C17.8697 16.4729 17.2482 16.7682 16.5945 17.0148C16.5519 17.031 16.533 17.0805 16.5539 17.1215C16.9143 17.8195 17.3258 18.4843 17.7789 19.1147C17.7978 19.1414 17.8319 19.1528 17.8631 19.1433C19.8241 18.5367 21.8126 17.6214 23.8654 16.1139C23.8834 16.1006 23.8948 16.0806 23.8966 16.0587C24.3971 10.8817 23.0585 6.38479 20.3482 2.39831C20.3416 2.385 20.3303 2.37548 20.3171 2.36976ZM8.02007 13.3312C6.83755 13.3312 5.86316 12.2455 5.86316 10.9122C5.86316 9.57895 6.81861 8.49328 8.02007 8.49328C9.2309 8.49328 10.1959 9.58846 10.1769 10.9122C10.1769 12.2455 9.22143 13.3312 8.02007 13.3312ZM15.9948 13.3312C14.8123 13.3312 13.8379 12.2455 13.8379 10.9122C13.8379 9.57895 14.7934 8.49328 15.9948 8.49328C17.2057 8.49328 18.1706 9.58846 18.1517 10.9122C18.1517 12.2455 17.2057 13.3312 15.9948 13.3312Z" fill="#5865F2"/>
</svg>
