<?xml version="1.0" encoding="UTF-8"?>
<svg xmlns="http://www.w3.org/2000/svg" xmlns:xlink="http://www.w3.org/1999/xlink" width="20pt" height="20pt" viewBox="0 0 20 20" version="1.1">
<g id="surface1">
<path style=" stroke:none;fill-rule:nonzero;fill:rgb(100%,100%,100%);fill-opacity:1;" d="M 16.929688 3.742188 C 15.65625 3.167969 14.289062 2.742188 12.859375 2.5 C 12.847656 2.5 12.835938 2.5 12.824219 2.507812 C 12.808594 2.511719 12.800781 2.519531 12.792969 2.53125 C 12.621094 2.839844 12.425781 3.238281 12.289062 3.558594 C 10.773438 3.332031 9.230469 3.332031 7.714844 3.558594 C 7.5625 3.207031 7.390625 2.863281 7.199219 2.53125 C 7.195312 2.519531 7.183594 2.511719 7.171875 2.503906 C 7.160156 2.5 7.148438 2.496094 7.136719 2.5 C 5.707031 2.742188 4.339844 3.167969 3.0625 3.742188 C 3.054688 3.746094 3.042969 3.753906 3.039062 3.765625 C 0.445312 7.578125 -0.265625 11.296875 0.0820312 14.96875 C 0.0820312 14.976562 0.0859375 14.984375 0.0898438 14.992188 C 0.09375 15 0.101562 15.007812 0.109375 15.011719 C 1.621094 16.117188 3.308594 16.953125 5.101562 17.496094 C 5.113281 17.5 5.128906 17.5 5.140625 17.496094 C 5.152344 17.492188 5.164062 17.484375 5.171875 17.476562 C 5.558594 16.957031 5.902344 16.414062 6.195312 15.839844 C 6.210938 15.804688 6.195312 15.765625 6.160156 15.753906 C 5.621094 15.550781 5.101562 15.304688 4.601562 15.019531 C 4.589844 15.015625 4.582031 15.007812 4.578125 15 C 4.574219 14.992188 4.570312 14.980469 4.570312 14.96875 C 4.566406 14.960938 4.570312 14.949219 4.574219 14.941406 C 4.578125 14.929688 4.585938 14.921875 4.59375 14.917969 C 4.699219 14.839844 4.804688 14.757812 4.902344 14.675781 C 4.914062 14.671875 4.921875 14.664062 4.933594 14.664062 C 4.945312 14.664062 4.957031 14.664062 4.96875 14.667969 C 8.242188 16.140625 11.785156 16.140625 15.019531 14.667969 C 15.03125 14.664062 15.042969 14.664062 15.054688 14.664062 C 15.066406 14.664062 15.074219 14.667969 15.085938 14.675781 C 15.183594 14.757812 15.289062 14.839844 15.394531 14.917969 C 15.402344 14.921875 15.410156 14.929688 15.414062 14.941406 C 15.417969 14.949219 15.421875 14.960938 15.421875 14.96875 C 15.421875 14.980469 15.417969 14.992188 15.410156 15 C 15.40625 15.007812 15.398438 15.015625 15.390625 15.019531 C 14.890625 15.308594 14.375 15.550781 13.828125 15.75 C 13.820312 15.753906 13.8125 15.757812 13.808594 15.765625 C 13.800781 15.773438 13.796875 15.78125 13.792969 15.789062 C 13.789062 15.796875 13.789062 15.804688 13.789062 15.8125 C 13.789062 15.824219 13.789062 15.832031 13.796875 15.839844 C 14.09375 16.410156 14.4375 16.957031 14.816406 17.472656 C 14.824219 17.484375 14.835938 17.492188 14.847656 17.496094 C 14.859375 17.5 14.875 17.5 14.886719 17.496094 C 16.679688 16.957031 18.371094 16.117188 19.886719 15.011719 C 19.894531 15.007812 19.902344 15 19.90625 14.992188 C 19.910156 14.984375 19.914062 14.976562 19.914062 14.96875 C 20.332031 10.722656 19.214844 7.035156 16.957031 3.765625 C 16.949219 3.757812 16.941406 3.746094 16.929688 3.742188 Z M 6.683594 12.730469 C 5.699219 12.730469 4.886719 11.839844 4.886719 10.75 C 4.886719 9.65625 5.683594 8.765625 6.683594 8.765625 C 7.691406 8.765625 8.496094 9.664062 8.480469 10.75 C 8.480469 11.839844 7.683594 12.730469 6.683594 12.730469 Z M 13.328125 12.730469 C 12.34375 12.730469 11.53125 11.839844 11.53125 10.75 C 11.53125 9.65625 12.328125 8.765625 13.328125 8.765625 C 14.335938 8.765625 15.140625 9.664062 15.125 10.75 C 15.125 11.839844 14.339844 12.730469 13.328125 12.730469 Z M 13.328125 12.730469 "/>
</g>
</svg>
