<svg width="24" height="24" viewBox="0 0 24 24" fill="none" xmlns="http://www.w3.org/2000/svg">
<g opacity="0.89">
<path fill-rule="evenodd" clip-rule="evenodd" d="M11.4513 3.10775C11.8036 2.96408 12.1965 2.96408 12.5487 3.10775L21.0714 6.58411C22.3096 7.08916 22.3095 8.87647 21.0714 9.38151L19.5761 9.99141L21.0714 10.6013C22.3096 11.1064 22.3095 12.8937 21.0714 13.3987L19.5761 14.0086L21.0714 14.6185C22.3096 15.1235 22.3095 16.9109 21.0714 17.4159L12.5487 20.8923C12.1964 21.0359 11.8035 21.0359 11.4513 20.8923L2.92864 17.4159C1.69045 16.9108 1.69045 15.1235 2.92864 14.6185L4.42387 14.0086L2.92864 13.3987C1.69045 12.8936 1.69045 11.1063 2.92864 10.6013L4.42387 9.9914L2.92864 9.3815C1.69045 8.87646 1.69045 7.08915 2.92864 6.5841L11.4513 3.10775ZM7.07569 11.0731L4.8032 12L12 14.9355L19.1968 12L16.9243 11.0731L12.5487 12.8579C12.1964 13.0015 11.8035 13.0015 11.4513 12.8579L7.07569 11.0731ZM7.07569 15.0903L4.8032 16.0172L12 18.9527L19.1968 16.0172L16.9243 15.0903L12.5487 16.8751C12.1964 17.0187 11.8035 17.0187 11.4513 16.8751L7.07569 15.0903ZM12 5.04728L4.8032 7.9828L12 10.9183L19.1968 7.98281L12 5.04728Z" fill="white"/>
</g>
</svg>
