<svg width="24" height="24" viewBox="0 0 24 24" fill="none" xmlns="http://www.w3.org/2000/svg">
<mask id="path-1-inside-1_803_20270" fill="white">
<path fill-rule="evenodd" clip-rule="evenodd" d="M12.952 8.98624C10.394 9.76768 8.45831 11.9748 8.07096 14.6814C8.04735 14.6817 8.02369 14.6819 8 14.6819C5.23858 14.6819 3 12.4433 3 9.68188C3 6.92046 5.23858 4.68188 8 4.68188C10.5254 4.68188 12.6135 6.55409 12.952 8.98624Z"/>
</mask>
<path fill-rule="evenodd" clip-rule="evenodd" d="M12.952 8.98624C10.394 9.76768 8.45831 11.9748 8.07096 14.6814C8.04735 14.6817 8.02369 14.6819 8 14.6819C5.23858 14.6819 3 12.4433 3 9.68188C3 6.92046 5.23858 4.68188 8 4.68188C10.5254 4.68188 12.6135 6.55409 12.952 8.98624Z" fill="#121415"/>
<path d="M8.07096 14.6814L8.08485 15.6813L8.93975 15.6694L9.06087 14.8231L8.07096 14.6814ZM12.952 8.98624L13.2442 9.94261L14.0601 9.69336L13.9424 8.84837L12.952 8.98624ZM9.06087 14.8231C9.39249 12.5059 11.0517 10.6124 13.2442 9.94261L12.6598 8.02987C9.73637 8.92297 7.52413 11.4437 7.08105 14.5397L9.06087 14.8231ZM8.05707 13.6815C8.03807 13.6818 8.01905 13.6819 8 13.6819V15.6819C8.02833 15.6819 8.05662 15.6817 8.08485 15.6813L8.05707 13.6815ZM8 13.6819C5.79086 13.6819 4 11.891 4 9.68188H2C2 12.9956 4.68629 15.6819 8 15.6819V13.6819ZM4 9.68188C4 7.47275 5.79086 5.68188 8 5.68188V3.68188C4.68629 3.68188 2 6.36818 2 9.68188H4ZM8 5.68188C10.0195 5.68188 11.6908 7.17935 11.9615 9.12411L13.9424 8.84837C13.5361 5.92884 11.0313 3.68188 8 3.68188V5.68188Z" fill="white" mask="url(#path-1-inside-1_803_20270)"/>
<circle cx="15" cy="15.6819" r="5.5" fill="#121415" stroke="white"/>
<path fill-rule="evenodd" clip-rule="evenodd" d="M18.1716 2.14645L21.3536 5.32843C21.5488 5.52369 21.5488 5.84027 21.3536 6.03553L18.1716 9.21751C17.9763 9.41278 17.6597 9.41278 17.4645 9.21751C17.2692 9.02225 17.2692 8.70567 17.4645 8.51041L19.7929 6.18198H13.5C13.2239 6.18198 13 5.95812 13 5.68198V5.68198C13 5.40584 13.2239 5.18198 13.5 5.18198H19.7929L17.4645 2.85355C17.2692 2.65829 17.2692 2.34171 17.4645 2.14645C17.6597 1.95118 17.9763 1.95118 18.1716 2.14645Z" fill="white"/>
</svg>
