<?xml version="1.0" encoding="UTF-8"?>
<svg xmlns="http://www.w3.org/2000/svg" xmlns:xlink="http://www.w3.org/1999/xlink" width="20pt" height="20pt" viewBox="0 0 20 20" version="1.1">
<g id="surface1">
<path style=" stroke:none;fill-rule:nonzero;fill:rgb(100%,100%,100%);fill-opacity:1;" d="M 11.085938 18.75 L 10 18.125 L 12.5 13.75 L 16.25 13.75 C 16.582031 13.75 16.898438 13.617188 17.132812 13.382812 C 17.367188 13.148438 17.5 12.832031 17.5 12.5 L 17.5 5 C 17.5 4.667969 17.367188 4.351562 17.132812 4.117188 C 16.898438 3.882812 16.582031 3.75 16.25 3.75 L 3.75 3.75 C 3.417969 3.75 3.101562 3.882812 2.867188 4.117188 C 2.632812 4.351562 2.5 4.667969 2.5 5 L 2.5 12.5 C 2.5 12.832031 2.632812 13.148438 2.867188 13.382812 C 3.101562 13.617188 3.417969 13.75 3.75 13.75 L 9.375 13.75 L 9.375 15 L 3.75 15 C 3.085938 15 2.449219 14.738281 1.980469 14.269531 C 1.511719 13.800781 1.25 13.164062 1.25 12.5 L 1.25 5 C 1.25 4.335938 1.511719 3.699219 1.980469 3.230469 C 2.449219 2.761719 3.085938 2.5 3.75 2.5 L 16.25 2.5 C 16.914062 2.5 17.550781 2.761719 18.019531 3.230469 C 18.488281 3.699219 18.75 4.335938 18.75 5 L 18.75 12.5 C 18.75 13.164062 18.488281 13.800781 18.019531 14.269531 C 17.550781 14.738281 16.914062 15 16.25 15 L 13.226562 15 Z M 11.085938 18.75 "/>
<path style=" stroke:none;fill-rule:nonzero;fill:rgb(100%,100%,100%);fill-opacity:1;" d="M 5 6.25 L 15 6.25 L 15 7.5 L 5 7.5 Z M 5 6.25 "/>
<path style=" stroke:none;fill-rule:nonzero;fill:rgb(100%,100%,100%);fill-opacity:1;" d="M 5 10 L 11.25 10 L 11.25 11.25 L 5 11.25 Z M 5 10 "/>
</g>
</svg>
