<?xml version="1.0" encoding="UTF-8"?>
<svg xmlns="http://www.w3.org/2000/svg" xmlns:xlink="http://www.w3.org/1999/xlink" width="20pt" height="20pt" viewBox="0 0 20 20" version="1.1">
<g id="surface1">
<path style=" stroke:none;fill-rule:nonzero;fill:rgb(100%,100%,100%);fill-opacity:1;" d="M 18.609375 6.992188 C 18.609375 8.164062 18.449219 9.167969 18.125 10 C 17.800781 10.832031 17.332031 11.472656 16.714844 11.921875 C 16.09375 12.367188 15.476562 12.691406 14.859375 12.894531 C 14.242188 13.09375 13.519531 13.242188 12.683594 13.332031 C 13.273438 13.828125 13.566406 14.613281 13.566406 15.695312 L 13.566406 19.859375 L 7.128906 19.859375 L 7.128906 16.851562 C 6.636719 16.945312 6.179688 16.992188 5.765625 16.992188 C 5.347656 16.992188 4.992188 16.953125 4.699219 16.875 C 4.40625 16.796875 4.144531 16.699219 3.910156 16.574219 C 3.679688 16.449219 3.496094 16.320312 3.355469 16.179688 C 3.21875 16.042969 3.101562 15.910156 3.007812 15.785156 C 2.917969 15.664062 2.855469 15.554688 2.824219 15.464844 L 2.777344 15.324219 C 2.59375 14.890625 2.382812 14.523438 2.152344 14.214844 C 1.921875 13.90625 1.726562 13.703125 1.574219 13.609375 L 1.34375 13.472656 C 1.003906 13.195312 0.832031 13 0.832031 12.894531 C 0.832031 12.785156 0.941406 12.714844 1.15625 12.683594 L 1.433594 12.683594 C 1.804688 12.714844 2.160156 12.839844 2.5 13.054688 C 2.839844 13.273438 3.070312 13.488281 3.195312 13.703125 L 3.425781 13.980469 C 4.257812 15.433594 5.507812 15.785156 7.175781 15.046875 C 7.269531 14.304688 7.546875 13.734375 8.007812 13.332031 C 7.175781 13.242188 6.449219 13.09375 5.832031 12.894531 C 5.214844 12.691406 4.605469 12.367188 4.003906 11.921875 C 3.402344 11.472656 2.933594 10.832031 2.59375 10 C 2.253906 9.167969 2.082031 8.164062 2.082031 6.992188 C 2.082031 5.664062 2.53125 4.523438 3.425781 3.566406 C 3.023438 2.546875 3.070312 1.40625 3.566406 0.140625 C 3.65625 0.167969 3.78125 0.160156 3.933594 0.117188 C 4.089844 0.0703125 4.476562 0.160156 5.09375 0.394531 C 5.710938 0.625 6.390625 0.988281 7.128906 1.480469 C 8.148438 1.203125 9.226562 1.050781 10.371094 1.019531 C 11.480469 1.050781 12.5625 1.203125 13.609375 1.480469 C 14.320312 0.988281 14.976562 0.632812 15.578125 0.417969 C 16.179688 0.199219 16.589844 0.09375 16.804688 0.09375 L 17.128906 0.140625 C 17.65625 1.40625 17.699219 2.546875 17.269531 3.566406 C 18.164062 4.523438 18.609375 5.664062 18.609375 6.992188 Z M 2.316406 13.265625 C 2.34375 13.1875 2.308594 13.125 2.199219 13.078125 C 2.089844 13.03125 2.023438 13.046875 1.992188 13.125 C 1.960938 13.203125 2 13.265625 2.105469 13.308594 C 2.214844 13.355469 2.285156 13.339844 2.316406 13.265625 Z M 2.847656 13.84375 C 2.925781 13.78125 2.910156 13.695312 2.800781 13.589844 C 2.691406 13.480469 2.601562 13.457031 2.523438 13.519531 C 2.445312 13.582031 2.460938 13.664062 2.570312 13.773438 C 2.675781 13.882812 2.769531 13.90625 2.847656 13.84375 Z M 3.332031 14.582031 C 3.425781 14.523438 3.425781 14.421875 3.332031 14.28125 C 3.242188 14.144531 3.148438 14.105469 3.054688 14.167969 C 2.964844 14.226562 2.964844 14.328125 3.054688 14.46875 C 3.148438 14.605469 3.242188 14.644531 3.332031 14.582031 Z M 4.050781 15.324219 C 4.128906 15.230469 4.105469 15.117188 3.980469 14.976562 C 3.859375 14.839844 3.75 14.816406 3.65625 14.90625 C 3.566406 15 3.589844 15.117188 3.726562 15.253906 C 3.867188 15.394531 3.972656 15.417969 4.050781 15.324219 Z M 5 15.71875 C 5.03125 15.609375 4.960938 15.523438 4.792969 15.464844 C 4.621094 15.402344 4.523438 15.433594 4.492188 15.554688 C 4.460938 15.679688 4.53125 15.765625 4.699219 15.808594 C 4.867188 15.855469 4.96875 15.824219 5 15.71875 Z M 5.785156 15.972656 C 5.972656 15.972656 6.066406 15.910156 6.066406 15.785156 C 6.066406 15.664062 5.972656 15.601562 5.785156 15.601562 C 5.601562 15.601562 5.507812 15.664062 5.507812 15.785156 C 5.507812 15.910156 5.601562 15.972656 5.785156 15.972656 Z M 6.804688 15.878906 C 6.898438 15.847656 6.96875 15.808594 7.015625 15.765625 C 7.058594 15.71875 7.066406 15.679688 7.035156 15.648438 C 7.035156 15.492188 6.945312 15.433594 6.757812 15.464844 C 6.667969 15.492188 6.597656 15.53125 6.550781 15.578125 C 6.503906 15.625 6.496094 15.679688 6.527344 15.742188 C 6.527344 15.863281 6.621094 15.910156 6.804688 15.878906 Z M 6.804688 15.878906 "/>
</g>
</svg>
