<svg width="24" height="24" viewBox="0 0 24 24" fill="none" xmlns="http://www.w3.org/2000/svg">
<path d="M12 0C5.40894 0 0 5.40894 0 12C0 17.6245 3.94666 22.7336 9.1875 24V20.0299C8.66821 20.1436 8.19031 20.1469 7.66168 19.9911C6.95251 19.7818 6.37628 19.3094 5.94855 18.5891C5.6759 18.1291 5.19269 17.6303 4.6886 17.6669L4.565 16.2662C5.65503 16.1728 6.59802 16.9303 7.15778 17.8707C7.40643 18.2889 7.69263 18.5341 8.05994 18.6425C8.41498 18.7471 8.7962 18.6969 9.24042 18.54C9.35193 17.6506 9.75934 17.3177 10.0671 16.849V16.8483C6.94153 16.3821 5.69586 14.7239 5.20148 13.415C4.54633 11.6772 4.89789 9.5061 6.0564 8.13409C6.07892 8.10736 6.11957 8.03741 6.10382 7.98853C5.57263 6.38397 6.21991 5.05664 6.24371 4.91583C6.85675 5.09711 6.95636 4.73346 8.90662 5.91833L9.24371 6.12085C9.3847 6.2049 9.34039 6.15692 9.48138 6.1463C10.2957 5.92511 11.1541 5.80298 11.9998 5.79199C12.852 5.80298 13.7049 5.92511 14.5529 6.15527L14.662 6.16626C14.6525 6.16479 14.6917 6.1593 14.7574 6.12012C17.1936 4.64447 17.1061 5.12677 17.7594 4.91437C17.783 5.05536 18.4217 6.4043 17.8962 7.98853C17.8253 8.20679 20.0083 10.2057 18.7983 13.4145C18.304 14.7239 17.0585 16.3821 13.9329 16.8483V16.849C14.3335 17.4597 14.8149 17.7845 14.8123 19.0443V24C20.0533 22.7336 23.9998 17.6245 23.9998 12C24 5.40894 18.5911 0 12 0V0Z" fill="#E0E0E0"/>
</svg>
