<?xml version="1.0" encoding="UTF-8"?>
<svg xmlns="http://www.w3.org/2000/svg" xmlns:xlink="http://www.w3.org/1999/xlink" width="20pt" height="20pt" viewBox="0 0 20 20" version="1.1">
<g id="surface1">
<path style=" stroke:none;fill-rule:nonzero;fill:rgb(100%,100%,100%);fill-opacity:1;" d="M 7.5 4.167969 C 6.617188 4.167969 5.769531 4.519531 5.144531 5.144531 C 4.519531 5.769531 4.167969 6.617188 4.167969 7.5 C 4.167969 8.382812 4.519531 9.230469 5.144531 9.855469 C 5.769531 10.480469 6.617188 10.832031 7.5 10.832031 C 8.382812 10.832031 9.230469 10.480469 9.855469 9.855469 C 10.480469 9.230469 10.832031 8.382812 10.832031 7.5 C 10.832031 6.617188 10.480469 5.769531 9.855469 5.144531 C 9.230469 4.519531 8.382812 4.167969 7.5 4.167969 Z M 2.5 7.5 C 2.5 6.175781 3.027344 4.902344 3.964844 3.964844 C 4.902344 3.027344 6.175781 2.5 7.5 2.5 C 8.824219 2.5 10.097656 3.027344 11.035156 3.964844 C 11.972656 4.902344 12.5 6.175781 12.5 7.5 C 12.5 8.824219 11.972656 10.097656 11.035156 11.035156 C 10.097656 11.972656 8.824219 12.5 7.5 12.5 C 6.175781 12.5 4.902344 11.972656 3.964844 11.035156 C 3.027344 10.097656 2.5 8.824219 2.5 7.5 Z M 2.5 7.5 "/>
<path style=" stroke:none;fill-rule:nonzero;fill:rgb(100%,100%,100%);fill-opacity:1;" d="M 2.601562 15.832031 L 12.398438 15.832031 C 11.941406 14.003906 10.011719 12.5 7.5 12.5 C 4.988281 12.5 3.058594 14.003906 2.601562 15.832031 Z M 0.832031 16.667969 C 0.832031 13.328125 3.941406 10.832031 7.5 10.832031 C 11.058594 10.832031 14.167969 13.328125 14.167969 16.667969 C 14.167969 16.886719 14.078125 17.101562 13.921875 17.257812 C 13.765625 17.414062 13.554688 17.5 13.332031 17.5 L 1.667969 17.5 C 1.445312 17.5 1.234375 17.414062 1.078125 17.257812 C 0.921875 17.101562 0.832031 16.886719 0.832031 16.667969 Z M 13.335938 10.726562 C 13.234375 10.90625 13.128906 11.082031 13.011719 11.25 C 13.53125 11.707031 13.992188 12.230469 14.386719 12.804688 C 15.945312 13.332031 17.0625 14.496094 17.398438 15.832031 L 15.667969 15.832031 C 15.777344 16.371094 15.832031 16.929688 15.832031 17.5 L 18.332031 17.5 C 18.554688 17.5 18.765625 17.414062 18.921875 17.257812 C 19.078125 17.101562 19.167969 16.886719 19.167969 16.667969 C 19.167969 14.339844 17.65625 12.421875 15.535156 11.472656 C 16.402344 10.8125 17.03125 9.878906 17.320312 8.824219 C 17.613281 7.773438 17.546875 6.652344 17.140625 5.636719 C 16.734375 4.621094 16.003906 3.769531 15.066406 3.207031 C 14.128906 2.648438 13.03125 2.410156 11.945312 2.53125 C 12.5 3.03125 12.972656 3.617188 13.332031 4.273438 C 14.046875 4.457031 14.679688 4.875 15.132812 5.460938 C 15.585938 6.042969 15.828125 6.761719 15.828125 7.5 C 15.828125 8.238281 15.585938 8.957031 15.132812 9.539062 C 14.679688 10.125 14.046875 10.542969 13.332031 10.726562 Z M 13.335938 10.726562 "/>
</g>
</svg>
