<svg width="24" height="24" viewBox="0 0 24 24" fill="none" xmlns="http://www.w3.org/2000/svg">
<path d="M19 7H5C4.44772 7 4 7.44772 4 8V21C4 21.5523 4.44772 22 5 22H19C19.5523 22 20 21.5523 20 21V8C20 7.44772 19.5523 7 19 7Z" stroke="white" stroke-linecap="round" stroke-linejoin="round"/>
<path d="M8.5 9V5.5C8.5 5.04037 8.59053 4.58525 8.76642 4.16061C8.94231 3.73597 9.20012 3.35013 9.52513 3.02513C9.85013 2.70012 10.236 2.44231 10.6606 2.26642C11.0852 2.09053 11.5404 2 12 2C12.4596 2 12.9148 2.09053 13.3394 2.26642C13.764 2.44231 14.1499 2.70012 14.4749 3.02513C14.7999 3.35013 15.0577 3.73597 15.2336 4.16061C15.4095 4.58525 15.5 5.04037 15.5 5.5V9" stroke="white" stroke-linecap="round" stroke-linejoin="round"/>
</svg>
