<?xml version="1.0" encoding="UTF-8"?>
<svg xmlns="http://www.w3.org/2000/svg" xmlns:xlink="http://www.w3.org/1999/xlink" width="20pt" height="20pt" viewBox="0 0 20 20" version="1.1">
<g id="surface1">
<path style=" stroke:none;fill-rule:nonzero;fill:rgb(100%,100%,100%);fill-opacity:1;" d="M 11.28125 10 C 11.28125 13.105469 8.757812 15.625 5.640625 15.625 C 4.898438 15.625 4.167969 15.480469 3.484375 15.199219 C 2.800781 14.917969 2.179688 14.503906 1.65625 13.980469 C 1.132812 13.457031 0.714844 12.839844 0.429688 12.15625 C 0.148438 11.472656 0 10.738281 0 10 C 0 6.890625 2.523438 4.375 5.640625 4.375 C 6.378906 4.375 7.113281 4.519531 7.796875 4.800781 C 8.480469 5.082031 9.101562 5.496094 9.625 6.019531 C 10.148438 6.542969 10.566406 7.160156 10.847656 7.84375 C 11.132812 8.527344 11.28125 9.261719 11.28125 10 Z M 17.46875 10 C 17.46875 12.925781 16.207031 15.296875 14.648438 15.296875 C 13.089844 15.296875 11.828125 12.921875 11.828125 10 C 11.828125 7.074219 13.089844 4.703125 14.648438 4.703125 C 16.207031 4.703125 17.46875 7.078125 17.46875 10 Z M 20 10 C 20 12.621094 19.554688 14.742188 19.007812 14.742188 C 18.460938 14.742188 18.015625 12.617188 18.015625 10 C 18.015625 7.378906 18.460938 5.257812 19.007812 5.257812 C 19.554688 5.257812 20 7.378906 20 10 Z M 20 10 "/>
</g>
</svg>
