<svg width="25" height="24" viewBox="0 0 25 24" fill="none" xmlns="http://www.w3.org/2000/svg">
<path d="M12.3604 0C9.98699 0 7.66691 0.703788 5.69352 2.02236C3.72013 3.34094 2.18206 5.21509 1.2738 7.4078C0.365551 9.60051 0.127911 12.0133 0.590934 14.3411C1.05396 16.6689 2.19685 18.8071 3.87508 20.4853C5.55331 22.1635 7.69151 23.3064 10.0193 23.7694C12.3471 24.2324 14.7599 23.9948 16.9526 23.0866C19.1453 22.1783 21.0194 20.6402 22.338 18.6668C23.6566 16.6935 24.3604 14.3734 24.3604 12C24.3604 8.8174 23.0961 5.76516 20.8457 3.51472C18.5952 1.26428 15.543 0 12.3604 0V0ZM19.8604 6.31364L18.6631 7.45773C18.612 7.49561 18.5722 7.54679 18.5482 7.6057C18.5241 7.66461 18.5167 7.72898 18.5267 7.79182V16.2095C18.5168 16.2722 18.5243 16.3363 18.5484 16.395C18.5724 16.4537 18.6121 16.5046 18.6631 16.5423L19.8317 17.6877V17.9373H13.9504V17.6864L15.1626 16.5136C15.2799 16.3964 15.2799 16.3595 15.2799 16.1795V9.37909L11.9104 17.9155H11.4535L7.53445 9.37909V15.1064C7.5178 15.225 7.52869 15.3459 7.56629 15.4596C7.60389 15.5734 7.66719 15.6769 7.75127 15.7623L9.32627 17.6714V17.9223H4.86036V17.6755L6.43536 15.7664C6.51931 15.6795 6.58111 15.5736 6.61552 15.4578C6.64994 15.342 6.65596 15.2196 6.63309 15.1009V8.48591C6.6416 8.3952 6.62891 8.30376 6.59601 8.2188C6.56312 8.13384 6.51092 8.05769 6.44354 7.99636L5.04991 6.31364V6.06273H9.39718L12.7585 13.4182L15.7136 6.06273H19.8604V6.31364Z" fill="white"/>
</svg>
