<svg width="140" height="46" viewBox="0 0 140 46" fill="none" xmlns="http://www.w3.org/2000/svg">
<g clip-path="url(#clip0_96_4418)">
<path d="M37.1921 28.4418C33.8797 27.6676 27.9055 26.5766 27.9055 26.5766V22.5137H17.8447V26.5766C17.8447 26.5766 11.8782 27.7063 8.5581 28.4418C5.74878 29.1459 5.13751 31.2972 4.68848 33.0849C10.3996 35.6755 16.6044 36.9957 22.8751 36.9545C29.1458 36.9957 35.3506 35.6755 41.0617 33.0849C40.6127 31.2895 39.9934 29.1148 37.1921 28.4418V28.4418Z" fill="#FFA801"/>
<path d="M37.1922 28.4418C33.8798 27.6676 27.9056 26.5766 27.9056 26.5766V22.5137H17.8448V26.5766L12.977 27.5207V35.8555C14.9647 36.2941 16.9785 36.6042 19.0056 36.7843V27.722C19.0004 27.4869 19.1863 27.2922 19.4215 27.2866C19.5422 27.2838 19.658 27.3323 19.7411 27.4202L21.5442 29.2233L22.0937 36.9622H22.8675C23.9355 36.9622 24.9724 36.9158 25.9629 36.846L26.1332 34.4547C26.1419 34.3095 26.2665 34.1989 26.4116 34.2077C26.4762 34.2115 26.5365 34.2391 26.5822 34.2844L28.8497 36.5519C33.0766 36.0471 37.1978 34.8796 41.0618 33.0926C40.6128 31.2895 39.9935 29.1148 37.1922 28.4418V28.4418Z" fill="#FFA801"/>
<path d="M21.7143 35.4763H24.0359C24.4633 35.4763 24.8098 35.8228 24.8098 36.2502V38.1852C24.8098 38.8261 24.2902 39.3459 23.649 39.3459H22.1013C21.46 39.3459 20.9405 38.8261 20.9405 38.1852V36.2502C20.9405 35.8228 21.2869 35.4763 21.7143 35.4763V35.4763Z" fill="#724F17"/>
<path d="M23.6489 39.9265H22.1012C21.141 39.9265 20.3598 39.145 20.3598 38.1855V36.2506C20.3598 35.5039 20.9676 34.8965 21.7142 34.8965H24.0358C24.7824 34.8965 25.3902 35.5039 25.3902 36.2506V38.1855C25.3902 39.145 24.6087 39.9265 23.6489 39.9265ZM21.7142 36.0573C21.6075 36.0573 21.5206 36.1441 21.5206 36.2506V38.1852C21.5206 38.5051 21.7812 38.7658 22.1012 38.7658H23.6489C23.9685 38.7658 24.2294 38.5048 24.2294 38.1852V36.2506C24.2294 36.1441 24.1422 36.0573 24.0358 36.0573H21.7142Z" fill="#020202"/>
<path d="M20.1667 26.1895L20.9405 37.0238H24.8098L25.5837 26.1895H20.1667Z" fill="#724F17"/>
<path d="M24.8097 37.6048H20.9404C20.6358 37.6048 20.3829 37.3697 20.3613 37.0661L19.5874 26.2315C19.5762 26.0706 19.6317 25.9126 19.7416 25.7946C19.8512 25.6767 20.0054 25.6094 20.1666 25.6094H25.5836C25.7448 25.6094 25.899 25.6767 26.0085 25.7946C26.1181 25.9126 26.1739 26.0706 26.1627 26.2315L25.3889 37.0661C25.3669 37.3697 25.1143 37.6048 24.8097 37.6048V37.6048ZM21.4809 36.444H24.2693L24.9601 26.7702H20.7901L21.4809 36.444Z" fill="#020202"/>
<path d="M20.5536 27.9309H25.1967V29.092H20.5536V27.9309Z" fill="#020202"/>
<path d="M21.8699 30.9099L25.1453 28.4575L25.6094 29.0772L22.3339 31.5299L21.8699 30.9099Z" fill="#020202"/>
<path d="M19.587 26.2333L20.745 26.1506L21.5181 36.9856L20.3605 37.0683L19.587 26.2333Z" fill="#020202"/>
<path d="M24.2272 36.9829L25.0049 26.1489L26.1629 26.2323L25.3852 37.0659L24.2272 36.9829Z" fill="#020202"/>
<path d="M21.3517 28.8196L21.8157 28.2L23.8819 29.7477L23.4179 30.3673L21.3517 28.8196Z" fill="#020202"/>
<path d="M21.8699 33.2316L24.9674 30.9121L25.4314 31.5318L22.3339 33.8512L21.8699 33.2316Z" fill="#020202"/>
<path d="M20.3212 30.369L20.7855 29.7498L23.8813 32.0713L23.4166 32.6906L20.3212 30.369Z" fill="#020202"/>
<path d="M21.1729 37.0469L20.7081 36.4286L24.7009 33.426L25.1667 34.0443L21.1729 37.0469Z" fill="#020202"/>
<path d="M20.4754 32.8047L20.9401 32.1851L23.8806 34.3911L23.4159 35.0104L20.4754 32.8047Z" fill="#020202"/>
<path d="M23.1546 37.5354C22.9655 37.5354 22.7767 37.5354 22.5883 37.5354C16.3783 37.5354 10.11 36.1817 4.44877 33.6127C4.19303 33.4973 4.05731 33.2154 4.12569 32.9432C4.55135 31.2483 5.19506 28.686 8.41678 27.8783C11.7233 27.1466 17.6769 26.0176 17.7369 26.0061C18.0498 25.9464 18.3558 26.1537 18.4151 26.4687C18.4748 26.7838 18.2676 27.0877 17.9529 27.1473C17.8932 27.1588 11.9567 28.284 8.68334 29.008C6.53309 29.5477 5.85239 31.0016 5.3744 32.7552C10.8528 35.1629 16.917 36.443 22.8713 36.3736C28.8733 36.4221 34.8991 35.1629 40.3768 32.7552C39.9023 31.0002 39.2227 29.5446 37.0522 29.0042C33.7987 28.2446 27.8608 27.1588 27.8012 27.148C27.4858 27.0898 27.2764 26.7876 27.334 26.4726C27.3923 26.1565 27.693 25.9534 28.0095 26.0054C28.0695 26.0169 34.036 27.1079 37.3243 27.8758C40.5635 28.6814 41.202 31.2465 41.6245 32.9439C41.6925 33.2161 41.5565 33.4973 41.3011 33.6127C35.6413 36.181 29.3723 37.5354 23.1546 37.5354V37.5354Z" fill="#020202"/>
<path d="M27.9055 24.6419V45.1501C33.8413 45.1501 35.6444 41.0792 35.6444 38.1851V35.4762C35.7198 31.5819 38.429 28.2349 42.2225 27.3504L35.6134 5.84404C35.5111 5.50561 35.1926 5.27953 34.8395 5.29453H33.4621C27.5455 -0.382031 18.2048 -0.382031 12.2882 5.29453H10.88C10.5266 5.27953 10.2081 5.50561 10.1058 5.84404L3.52771 27.3504C7.32127 28.2349 10.0305 31.5815 10.1058 35.4762V38.1851C10.1058 41.0562 11.8702 45.1501 17.8447 45.1501V24.6419H27.9055Z" fill="#FFA801"/>
<path d="M35.6287 5.89824V5.84416C35.5265 5.50573 35.2083 5.27965 34.8549 5.29465C34.4216 5.29465 31.3725 6.0685 31.3725 12.6466V14.0007C32.7189 12.453 35.1567 14.0007 32.9203 17.6767C32.6614 18.1512 32.5281 18.6839 32.5333 19.2247C32.5333 19.6117 32.5333 20.7724 31.5658 20.7724C30.5987 20.7724 30.614 19.6117 30.614 19.6117V18.0636C30.614 20.2152 28.9966 22.6066 27.1006 24.6417H27.8745V26.6154C31.233 27.2497 35.3503 28.0393 37.1611 28.4415C37.7106 28.5724 38.2336 28.7946 38.7088 29.0996C39.7297 28.2535 40.932 27.6548 42.2226 27.3505L35.6287 5.89824Z" fill="#FFA801"/>
<path d="M16.1962 28.1243H15.8477L16.6836 27.3504C16.684 27.1069 16.4865 26.909 16.243 26.9087C16.2144 26.9087 16.1854 26.9115 16.1575 26.9171C14.3621 27.2422 10.6163 27.9774 8.94474 28.3409C8.71168 28.3953 8.56689 28.6284 8.62132 28.8615C8.63946 28.94 8.67923 29.0115 8.73575 29.0684C10.0043 30.4022 10.8337 32.0933 11.1117 33.9132C11.1463 34.1462 11.348 34.3179 11.5838 34.3154C11.3787 34.3113 11.2087 34.4738 11.2046 34.679C11.2042 34.6842 11.2042 34.6895 11.2046 34.6947C11.251 35.2365 11.2663 35.7627 11.274 36.2424C11.2824 36.45 11.4533 36.614 11.6609 36.614C11.4502 36.614 11.2785 36.7825 11.274 36.9932V38.1617V38.6338C11.3263 39.2705 11.6578 39.8514 12.1797 40.2202L12.5509 40.4833C12.2565 40.4986 12.0304 40.7498 12.0457 41.0446C12.0496 41.1186 12.0688 41.1912 12.1023 41.2571C12.3297 41.6367 12.6085 41.9828 12.9302 42.2867C13.2498 42.6014 13.681 42.7769 14.1297 42.7741H16.258C16.4844 42.7741 16.6683 42.5906 16.6683 42.3638V41.0405C16.6683 40.7414 16.4258 40.499 16.1265 40.499C16.124 40.499 16.1212 40.499 16.1188 40.499H15.7242L16.1341 40.1584C16.4781 39.8835 16.6798 39.4687 16.6836 39.0284V37.4806C16.6868 37.2207 16.5587 36.9765 16.3431 36.8307L16.0336 36.6217H16.289C16.5071 36.6217 16.6836 36.4451 16.6836 36.2271V34.6793C16.6836 34.4697 16.5141 34.3001 16.3047 34.3001H16.0493C16.4405 34.0426 16.6784 33.6075 16.6836 33.1393V31.7231C16.6836 31.2825 16.4774 30.8673 16.1265 30.6007L15.9332 30.4462H16.1729C16.4562 30.4416 16.6836 30.211 16.6836 29.9277V28.612C16.6836 28.3427 16.4656 28.1243 16.1962 28.1243Z" fill="#FFA801"/>
<path d="M15.1361 18.064C14.5943 10.4796 14.4164 7.91803 12.3425 6.0298C12.1112 5.82674 11.7592 5.84976 11.5561 6.08108C11.5059 6.1383 11.4682 6.20529 11.4448 6.27751C11.1894 7.05137 10.9417 7.91035 10.671 8.78504C10.5649 9.08788 10.7051 9.42213 10.9958 9.55889C10.6633 9.55889 10.4079 9.64403 10.3071 9.96885L9.86605 11.4084C9.81022 11.6059 9.92501 11.811 10.1225 11.8669C10.1598 11.8773 10.1985 11.8819 10.2373 11.8805C9.92362 11.8777 9.64589 12.0828 9.55658 12.3836C9.28548 13.2426 9.01474 14.1246 8.73597 15.0146C8.66305 15.3073 8.80086 15.6116 9.06882 15.7501C8.74364 15.7501 8.49628 15.8272 8.39544 16.137C8.0783 17.1429 8.27961 16.4852 7.94676 17.5996C7.89129 17.7971 8.00607 18.0022 8.20355 18.0577C8.23844 18.0675 8.27438 18.0723 8.31031 18.0716C8.01549 18.0734 7.75312 18.2587 7.65264 18.536L6.82471 21.1904C6.73085 21.495 6.87146 21.8226 7.15721 21.9643C6.82471 21.9643 6.56931 22.0418 6.46848 22.3746C6.42208 22.5061 6.42208 22.5368 6.02748 23.8138C5.97165 24.0113 6.08644 24.2168 6.28392 24.2723C6.32125 24.2827 6.35998 24.2876 6.3987 24.2859C6.09516 24.2859 5.82477 24.4785 5.72568 24.7659L5.01358 27.0875C4.92391 27.3774 5.08615 27.6852 5.37608 27.7748C5.42668 27.7905 5.47901 27.7989 5.53204 27.7996H17.2951C17.5987 27.7996 17.8446 27.5536 17.8446 27.2501V25.1912C17.8446 25.0367 17.8446 24.6421 18.6185 24.6421C16.7536 22.6066 15.2907 20.2076 15.1361 18.064Z" fill="#FFA801"/>
<path d="M29.5538 28.1242H29.902L29.0664 27.335C29.0661 27.0911 29.2632 26.8937 29.5071 26.8933C29.5357 26.8933 29.5643 26.8961 29.5926 26.9017C31.388 27.2422 35.1338 27.9773 36.8053 28.3409C37.0384 28.3953 37.1832 28.6284 37.1288 28.8614C37.1106 28.9399 37.0708 29.0115 37.0143 29.0683C35.7454 30.4025 34.9164 32.0933 34.6383 33.9131C34.6038 34.1462 34.4021 34.3182 34.1663 34.3154C34.3714 34.3112 34.5413 34.4738 34.5455 34.679V34.6947C34.4991 35.2365 34.4838 35.7626 34.4757 36.2424C34.4677 36.45 34.2968 36.6143 34.0888 36.6139C34.2995 36.6139 34.4716 36.7825 34.4757 36.9932V38.1617V38.6337C34.4238 39.2705 34.092 39.8514 33.5704 40.2201L33.1991 40.4836C33.4936 40.4989 33.7197 40.7501 33.7043 41.0446C33.7005 41.1186 33.6813 41.1911 33.6478 41.2574C33.42 41.6367 33.1416 41.9831 32.8199 42.2867C32.5003 42.6014 32.0687 42.7769 31.62 42.7741H29.4764C29.25 42.7741 29.0664 42.5906 29.0664 42.3641V41.0408C29.0664 40.7414 29.3089 40.4989 29.6079 40.4989H29.6156H30.0106L29.6002 40.1584C29.2622 39.8807 29.0664 39.4662 29.0661 39.0287V37.4806C29.0633 37.2207 29.1913 36.9764 29.4066 36.8306L29.7164 36.6216H29.461C29.243 36.6216 29.0661 36.4451 29.0661 36.227V34.6793C29.0661 34.47 29.236 34.3001 29.4453 34.3001H29.7007C29.3093 34.0426 29.0713 33.6075 29.0661 33.1393V31.7231C29.0661 31.2824 29.2723 30.8673 29.6233 30.6007L29.8169 30.4461H29.5769C29.2936 30.4419 29.0661 30.211 29.0661 29.9277V28.612C29.0664 28.3426 29.2848 28.1242 29.5538 28.1242V28.1242Z" fill="#FFA801"/>
<path d="M30.6138 18.064C31.1556 10.4796 31.3336 7.91803 33.4074 6.0298C33.6387 5.82674 33.9908 5.84976 34.1938 6.08108C34.2441 6.1383 34.2818 6.20529 34.3051 6.27751C34.5605 7.05137 34.8082 7.91035 35.079 8.78504C35.1851 9.08788 35.0448 9.42213 34.7542 9.55889C35.0867 9.55889 35.3424 9.64403 35.4429 9.96885L35.8839 11.4084C35.9397 11.6059 35.8249 11.811 35.6275 11.8669C35.5901 11.8773 35.5514 11.8819 35.5127 11.8805C35.8263 11.8777 36.104 12.0828 36.1937 12.3836C36.4645 13.2426 36.7352 14.1246 37.014 15.0146C37.0869 15.3073 36.9491 15.6116 36.6811 15.7501C37.0063 15.7501 37.2537 15.8272 37.3545 16.137C37.6716 17.1429 37.4703 16.4852 37.8032 17.5996C37.859 17.7971 37.7439 18.0022 37.5464 18.0577C37.5115 18.0675 37.4756 18.0723 37.4396 18.0716C37.7344 18.0734 37.9968 18.2587 38.0973 18.536L38.9252 21.1904C39.0191 21.495 38.8785 21.8226 38.5927 21.9643C38.9252 21.9643 39.1806 22.0418 39.2815 22.3746C39.3279 22.5061 39.3279 22.5368 39.7225 23.8138C39.7783 24.0113 39.6635 24.2168 39.466 24.2723C39.4287 24.2827 39.39 24.2876 39.3512 24.2859C39.6548 24.2859 39.9252 24.4785 40.0243 24.7659L40.7364 27.0875C40.826 27.3774 40.6638 27.6852 40.3739 27.7748C40.3233 27.7905 40.2709 27.7989 40.2179 27.7996H28.4545C28.1513 27.7996 27.9053 27.5536 27.9053 27.2501V25.1912C27.9053 25.0367 27.9053 24.6421 27.1311 24.6421C28.9963 22.6066 30.4589 20.2076 30.6138 18.064V18.064Z" fill="#FFA801"/>
<path d="M37.5791 12.2595H31.3879L30.614 15.3549H38.7398L37.5791 12.2595Z" fill="#3459A5"/>
<path d="M39.5138 18.4507H30.6141L29.4533 21.5461H40.2876L39.5138 18.4507Z" fill="#3459A5"/>
<path d="M41.4484 24.6418H27.9056V27.7373H42.2226L41.4484 24.6418Z" fill="#3459A5"/>
<path d="M31.7748 9.16384H36.8052L35.5052 5.62741L35.1723 5.35632C34.2104 5.34725 33.32 5.86362 32.8508 6.70306C32.2988 7.42458 31.9297 8.26891 31.7748 9.16384Z" fill="#3459A5"/>
<path d="M27.9056 26.5764V36.6369C30.5241 36.3389 33.1129 35.8211 35.6445 35.0892C35.7792 32.7348 36.9037 30.5476 38.74 29.0682C38.2648 28.7637 37.7414 28.5414 37.1922 28.4106C33.8798 27.7061 27.9056 26.5764 27.9056 26.5764V26.5764Z" fill="#FFA801"/>
<path d="M9.11536 9.1637H13.9909C13.867 8.64524 13.2868 5.97547 10.9806 5.29443C10.6488 5.21313 10.3107 5.40258 10.2064 5.72776L9.11536 9.1637Z" fill="#4668BC"/>
<path d="M27.9056 26.5764V36.7377C30.5116 36.3836 33.0951 35.8822 35.6445 35.2361C35.7513 33.1598 36.6092 31.193 38.0589 29.7029L28.7723 27.6367C28.2681 27.5338 27.9063 27.0907 27.9056 26.5764V26.5764Z" fill="#FFA801"/>
<path d="M22.875 1.42505C16.9392 1.42505 15.1361 5.54239 15.1361 9.93815V18.064C15.1361 20.4937 17.2023 23.2256 19.3927 25.4159C20.2422 26.4546 21.5345 27.0289 22.875 26.9636C24.2155 27.0289 25.5078 26.4546 26.3577 25.4159C28.5477 23.2256 30.6139 20.4937 30.6139 18.064V9.93815C30.6139 5.54239 28.8108 1.42505 22.875 1.42505V1.42505Z" fill="#FFA801"/>
<path d="M30.6139 9.93797C30.6139 5.54221 28.8108 1.42488 22.875 1.42488C21.6026 1.39313 20.3382 1.63596 19.168 2.13698V20.602C19.168 22.6839 20.6773 24.9748 22.4881 26.9711H22.875C24.2155 27.0364 25.5078 26.4621 26.3577 25.4234C28.5477 23.2334 30.6139 20.5015 30.6139 18.0715V9.93797Z" fill="#FFA801"/>
<path d="M18.6806 13.8614C18.8606 14.0543 19.1062 14.1729 19.3693 14.1942C20.1581 14.3052 20.8877 14.6757 21.4435 15.2468C21.4972 15.3131 21.5945 15.3232 21.6612 15.2695C21.6877 15.2479 21.7062 15.2182 21.7142 15.1847V13.4978C21.7306 13.226 21.5764 12.9727 21.3273 12.8632C20.7125 12.5942 20.0597 12.4218 19.3927 12.3524C18.8927 12.3314 18.4709 12.7194 18.4499 13.219C18.4402 13.4552 18.5229 13.6855 18.6806 13.8614Z" fill="#FFA801"/>
<path d="M28.6173 12.693C27.0696 12.6466 27.0696 13.4669 27.0696 13.8772C27.0696 14.1246 26.675 14.1867 26.4272 14.202C25.899 14.2537 25.3788 14.3709 24.8795 14.5506C24.5596 14.6444 24.224 14.4616 24.1301 14.1417C24.1144 14.0883 24.106 14.0331 24.1057 13.9777V13.4979C24.0764 13.2422 24.2009 12.9934 24.4228 12.8633C25.735 12.2196 27.2573 12.1578 28.6173 12.693V12.693Z" fill="#FFA801"/>
<path d="M27.8899 17.0264H26.172C25.9546 17.0093 25.7645 17.1712 25.747 17.3885C25.7414 17.4583 25.7543 17.5284 25.785 17.5916L26.3733 18.737C26.463 18.9401 26.3715 19.1777 26.1681 19.2677C26.1109 19.2932 26.0488 19.3047 25.9864 19.3019H25.2896C25.0677 19.2893 24.8779 19.4592 24.8657 19.6811C24.8626 19.7338 24.8699 19.7862 24.8873 19.8357C25.1504 20.5014 25.4368 21.2132 25.6612 21.8091C26.0404 22.7068 26.6751 22.3356 26.9305 22.0027C27.8191 20.8828 28.4866 19.6037 28.8962 18.2339C29.0029 17.6841 28.6439 17.152 28.0944 17.0452C28.0271 17.032 27.9587 17.0257 27.8899 17.0264V17.0264Z" fill="#FFA801"/>
<path d="M25.2507 21.9874L24.6007 21.3758C24.2574 21.03 23.747 20.91 23.2854 21.0663C23.0185 21.1518 22.7317 21.1518 22.4648 21.0663C22.0032 20.91 21.4927 21.03 21.1494 21.3758L20.4994 22.0257C20.4223 22.1001 20.4202 22.2225 20.4942 22.2993C20.5301 22.3366 20.5793 22.3579 20.631 22.3586H25.1192C25.2221 22.3949 25.3344 22.3411 25.3707 22.2386C25.4074 22.136 25.3536 22.0237 25.2507 21.9874Z" fill="#B76C42"/>
<path d="M36.8053 30.833H27.9056V33.9288H35.6445L36.8053 30.833Z" fill="#3459A5"/>
<path d="M27.9056 37.0242H35.6445V40.1199H27.9056V37.0242Z" fill="#3459A5"/>
<path d="M33.7095 43.2151H27.9056V45.1501H30.6141L33.7095 43.2151Z" fill="#3459A5"/>
<path d="M31.3879 12.2595H36.1552C36.4647 13.2731 36.7895 14.3103 37.107 15.3549H31.3879V12.6464C31.3879 12.5149 31.3879 12.3911 31.3879 12.2595Z" fill="#2E5599"/>
<path d="M30.614 18.4507H38.0745C38.3993 19.4953 38.7245 20.5326 39.034 21.5461H29.4763C30.0757 20.609 30.464 19.5529 30.614 18.4507V18.4507Z" fill="#2E5599"/>
<path d="M40.9534 27.7373H27.9056V24.6418H39.9939C40.3341 25.7328 40.6746 26.7931 40.9534 27.7373Z" fill="#2E5599"/>
<path d="M35.2031 9.16366H31.7595C32.0023 7.69062 32.8421 6.38295 34.081 5.54978C34.6138 5.2923 35.2491 5.38057 35.6908 5.77412C35.0799 5.74935 34.5646 6.2242 34.5398 6.83477C34.5335 6.98794 34.5594 7.14041 34.6152 7.28311C34.8085 7.8867 35.0021 8.51367 35.2031 9.16366Z" fill="#2E5599"/>
<path d="M27.9058 45.7305C27.5852 45.7305 27.3253 45.4706 27.3253 45.1503V23.8682C27.3253 23.5476 27.5852 23.2877 27.9058 23.2877C28.2261 23.2877 28.486 23.5476 28.486 23.8682V44.5697H28.9117C30.5909 44.5387 32.1509 43.8587 33.3116 42.6553C34.4724 41.4513 35.0945 39.8673 35.0641 38.1957V35.4764C35.1413 31.5087 37.7531 28.0888 41.4919 26.9462L35.09 6.0134C35.0634 5.92687 34.9923 5.86756 34.8956 5.87419C34.6015 5.87873 34.3039 5.64008 34.291 5.31909C34.2774 4.99881 34.5254 4.72806 34.8457 4.71411C35.4608 4.69806 36.0208 5.08289 36.2002 5.67602L42.7772 27.1803C42.825 27.3345 42.8062 27.501 42.7259 27.6398C42.645 27.7797 42.5114 27.8795 42.354 27.9158C38.8158 28.7402 36.2954 31.8541 36.2249 35.4876V38.1849C36.2612 40.1558 35.5229 42.0339 34.1472 43.4609C32.7712 44.8876 30.9217 45.6932 28.9396 45.7295L27.9058 45.7305Z" fill="#020202"/>
<path d="M31.9686 12.6462H30.8078C30.8078 8.05641 32.2306 6.12003 33.3924 5.30466V4.71362H34.8707C35.191 4.71362 35.4509 4.9739 35.4509 5.29419C35.4509 5.61448 35.191 5.8744 34.8707 5.8744C34.848 5.87615 31.9686 6.32483 31.9686 12.6462Z" fill="#020202"/>
<path d="M31.7751 8.77686H36.8056V9.55071H31.7751V8.77686Z" fill="#020202"/>
<path d="M31.3882 11.8726H37.5794V12.6464H31.3882V11.8726Z" fill="#020202"/>
<path d="M33.7097 14.968H38.3532V15.7419H33.7097V14.968Z" fill="#020202"/>
<path d="M32.549 18.0637H39.514V18.8376H32.549V18.0637Z" fill="#020202"/>
<path d="M29.4533 21.1589H40.6749V21.9328H29.4533V21.1589Z" fill="#020202"/>
<path d="M27.9059 24.2551H41.4491V25.029H27.9059V24.2551Z" fill="#020202"/>
<path d="M27.9056 27.3506H41.4488V28.1244H27.9056V27.3506Z" fill="#020202"/>
<path d="M27.9059 30.446H37.1926V31.2203H27.9059V30.446Z" fill="#020202"/>
<path d="M27.9059 33.5415H35.6448V34.3154H27.9059V33.5415Z" fill="#020202"/>
<path d="M27.9059 36.6375H35.6448V37.4113H27.9059V36.6375Z" fill="#020202"/>
<path d="M27.9059 39.7332H35.6448V40.507H27.9059V39.7332Z" fill="#020202"/>
<path d="M27.9059 42.8286H33.3233V43.6025H27.9059V42.8286Z" fill="#020202"/>
<path d="M8.17134 12.2595H14.3625L15.1364 15.3549H7.01056L8.17134 12.2595Z" fill="#4668BC"/>
<path d="M9.27778 13.2578L8.94493 14.2716C8.85527 14.5525 9.01018 14.8529 9.29104 14.9426C9.34442 14.9597 9.3999 14.9684 9.45572 14.968H14.3623V12.6465H10.1134C9.73205 12.6482 9.39501 12.8949 9.27778 13.2578Z" fill="#3459A5"/>
<path d="M6.2365 18.4507H15.1362L16.297 21.5461H5.46265L6.2365 18.4507Z" fill="#4668BC"/>
<path d="M7.43623 21.1592H16.0571C15.6423 20.4398 15.3545 19.6544 15.2058 18.8377H8.17135C7.78791 18.8363 7.45018 19.0889 7.34307 19.4566L7.01057 20.602C6.94637 20.8372 7.08489 21.0797 7.32004 21.1439C7.35772 21.154 7.3968 21.1592 7.43623 21.1592Z" fill="#3459A5"/>
<path d="M4.30156 24.6418H17.8447V27.7373H3.52771L4.30156 24.6418Z" fill="#4668BC"/>
<path d="M5.71021 27.3349H17.8449V25.0129H6.52279C5.99561 25.0143 5.53053 25.3597 5.37736 25.8642L5.15302 26.5687C5.05463 26.8781 5.22594 27.2089 5.53576 27.3073C5.59228 27.3251 5.6509 27.3345 5.71021 27.3349V27.3349Z" fill="#3459A5"/>
<path d="M8.94513 30.833H17.8448V33.9288H10.1059L8.94513 30.833Z" fill="#4668BC"/>
<path d="M16.684 33.1004V31.6535C16.684 31.4096 16.4866 31.2122 16.243 31.2122H10.9185C10.6708 31.2167 10.4733 31.4215 10.4779 31.6692C10.4789 31.7222 10.4894 31.7742 10.5086 31.8238C10.6952 32.27 10.8452 32.7306 10.9572 33.2012C11.0036 33.3994 11.1795 33.54 11.3829 33.5417H16.243C16.482 33.5459 16.6799 33.3554 16.684 33.1161C16.684 33.1109 16.684 33.1056 16.684 33.1004V33.1004Z" fill="#3459A5"/>
<path d="M10.1055 37.0242H17.8444V40.1199H10.1055V37.0242Z" fill="#4668BC"/>
<path d="M16.1578 37.4109H11.7931C11.5042 37.4151 11.2708 37.6485 11.2666 37.9374V38.1851C11.269 38.5588 11.3053 38.9321 11.3751 39.2995C11.4233 39.5472 11.641 39.7258 11.8936 39.7251H16.1578C16.4484 39.7251 16.6843 39.49 16.6846 39.1993C16.6846 39.1913 16.6843 39.1833 16.6839 39.1756V37.9374C16.6839 37.6467 16.4484 37.4109 16.1578 37.4109V37.4109Z" fill="#3459A5"/>
<path d="M12.0404 43.2151H17.8447V45.1501H15.1362L12.0404 43.2151Z" fill="#4668BC"/>
<path d="M22.8749 1.03809C21.9608 1.05274 21.0481 1.12531 20.1431 1.25475C20.1431 1.25475 21.6908 6.81129 21.6908 10.294H24.0127C24.0127 6.81129 25.5604 1.25475 25.5604 1.25475C24.6704 1.1274 23.7737 1.05483 22.8749 1.03809Z" fill="#4668BC"/>
<path d="M29.4764 2.53174C29.4764 2.53174 26.7449 6.45544 26.7449 10.3251L29.0664 10.712C29.0664 6.84237 31.7749 3.74695 31.7749 3.74695L29.4764 2.53174Z" fill="#4668BC"/>
<path d="M29.6464 10.7118H28.4857C28.4857 6.67055 31.2214 3.49768 31.3379 3.36475L32.2122 4.12848C32.1868 4.15779 29.6464 7.11539 29.6464 10.7118Z" fill="#020202"/>
<path d="M27.325 10.3247H26.1642C26.1642 6.31904 28.8849 2.36603 29.0004 2.19995L29.9529 2.86286C29.927 2.90089 27.325 6.68817 27.325 10.3247Z" fill="#020202"/>
<path d="M19.0055 10.3251C19.0055 6.45544 16.274 2.53174 16.274 2.53174L13.9521 3.74695C13.9521 3.74695 16.6609 6.84237 16.6609 10.712L19.0055 10.3251Z" fill="#4668BC"/>
<path d="M11.2666 8.78505H13.921C13.3718 6.54059 12.412 6.00678 11.7003 5.55775C11.1675 5.30026 10.5322 5.38888 10.0905 5.78209C10.701 5.75731 11.2163 6.23216 11.2415 6.84273C11.2477 6.9959 11.2219 7.14872 11.1661 7.29142L10.8333 8.21983C10.7603 8.44801 10.8859 8.69189 11.1141 8.76481C11.1633 8.78051 11.215 8.78749 11.2666 8.78505Z" fill="#3459A5"/>
<path d="M21.4975 13.4591C20.4397 12.8255 19.1976 12.5715 17.9761 12.7393C17.377 12.8468 16.8181 13.1144 16.3586 13.5132C15.8869 13.9406 15.5188 14.4699 15.283 15.0612C15.2481 15.137 15.1588 15.1715 15.082 15.1387C15.0098 15.1038 14.9735 15.0218 14.9969 14.9451C15.2111 14.2919 15.568 13.6946 16.0415 13.196C16.5289 12.6716 17.1496 12.2892 17.8369 12.0893C19.2171 11.7795 20.6619 11.9515 21.9309 12.5771C22.1702 12.6908 22.2721 12.9769 22.1583 13.2163C22.0477 13.449 21.7732 13.5526 21.5363 13.4514L21.4975 13.4591Z" fill="#020202"/>
<path d="M23.8191 12.6079C25.0842 11.9719 26.5294 11.7891 27.9131 12.0895C28.5966 12.2705 29.219 12.6313 29.7162 13.1341C30.1897 13.6326 30.5466 14.2299 30.7608 14.8831C30.7863 14.9644 30.7413 15.0506 30.6603 15.0767C30.5898 15.1074 30.5075 15.0753 30.4768 15.0048C30.4761 15.0031 30.4754 15.001 30.4747 14.9993C30.2389 14.4079 29.8708 13.8786 29.3987 13.4516C28.9392 13.0524 28.3806 12.7848 27.7816 12.6774C26.5601 12.5099 25.3177 12.7635 24.2601 13.3971C24.0351 13.5283 23.7459 13.4523 23.6147 13.2272C23.6129 13.2244 23.6115 13.222 23.6101 13.2192C23.4772 12.99 23.5554 12.6962 23.7846 12.5636C23.7856 12.5629 23.787 12.5622 23.7881 12.5615L23.8191 12.6079Z" fill="#020202"/>
<path d="M23.8428 24.2552H21.9078C21.6939 24.2552 21.5209 24.0821 21.5209 23.8682C21.5209 23.654 21.6939 23.481 21.9078 23.481H23.8428C24.0567 23.481 24.2297 23.654 24.2297 23.8682C24.2297 24.0821 24.0567 24.2552 23.8428 24.2552Z" fill="#C67446"/>
<path d="M33.4617 5.82092C33.3309 5.82092 33.1993 5.77207 33.0975 5.67403C27.3651 0.174358 18.3845 0.174358 12.6524 5.67403C12.4431 5.87569 12.1106 5.86871 11.9082 5.65868C11.7073 5.44899 11.7142 5.11614 11.9239 4.91448C18.0656 -0.977701 27.6864 -0.977004 33.826 4.91448C34.036 5.11614 34.043 5.44899 33.841 5.65868C33.7384 5.76649 33.5999 5.82092 33.4617 5.82092Z" fill="#020202"/>
<path d="M17.8449 45.7308H16.839C14.8287 45.6939 12.9795 44.8882 11.6035 43.4613C10.2274 42.0343 9.48987 40.1565 9.52581 38.1748V35.4767C9.45568 31.8545 6.9349 28.7409 3.39603 27.9161C3.23972 27.8798 3.10505 27.7801 3.02515 27.6405C2.94491 27.5013 2.92606 27.3349 2.97282 27.181L9.55093 5.67427C9.72991 5.08359 10.2822 4.69003 10.905 4.71445C11.2249 4.72841 11.4737 4.99916 11.4601 5.31944C11.4461 5.63973 11.188 5.89268 10.8551 5.87489C10.7818 5.8714 10.6876 5.92687 10.6618 6.012L4.2585 26.9465C7.99834 28.0892 10.6102 31.5084 10.6866 35.4656V38.1856C10.6559 39.8676 11.2783 41.4516 12.4391 42.6557C13.5999 43.859 15.1598 44.539 16.8317 44.5694C16.8523 44.5701 16.8907 44.5725 16.9113 44.5746L17.2644 44.5732V23.8686C17.2644 23.5479 17.5246 23.288 17.8449 23.288C18.1652 23.288 18.4251 23.5479 18.4251 23.8686V45.1506C18.4255 45.4709 18.1656 45.7308 17.8449 45.7308Z" fill="#020202"/>
<path d="M15.1361 15.742H17.0707C17.0707 14.6821 17.9374 14.1943 19.0054 14.1943C20.0734 14.1943 20.9404 14.6741 20.9404 15.742H17.0707" fill="white"/>
<path d="M30.6139 15.742H28.6793C28.6793 14.6821 27.8126 14.1943 26.7446 14.1943C25.6766 14.1943 24.8096 14.6741 24.8096 15.742H28.6793" fill="white"/>
<path d="M19.7794 14.9681C19.7794 15.3955 19.4326 15.7419 19.0052 15.7419C18.5779 15.7419 18.2314 15.3955 18.2314 14.9681C18.2314 14.5408 18.5779 14.1943 19.0052 14.1943C19.4326 14.1943 19.7794 14.5408 19.7794 14.9681Z" fill="#020202"/>
<path d="M27.5183 14.9681C27.5183 15.3955 27.1719 15.7419 26.7445 15.7419C26.3172 15.7419 25.9704 15.3955 25.9704 14.9681C25.9704 14.5408 26.3172 14.1943 26.7445 14.1943C27.1719 14.1943 27.5183 14.5408 27.5183 14.9681Z" fill="#020202"/>
<path d="M13.9754 3.74683C13.9754 3.74683 16.6839 6.84224 16.6839 10.7119Z" fill="#FFA801"/>
<path d="M17.2645 10.7118H16.1034C16.1034 7.10214 13.5641 4.15814 13.5386 4.12883L14.4123 3.36475C14.5285 3.49768 17.2645 6.67055 17.2645 10.7118Z" fill="#020202"/>
<path d="M16.274 2.53174C16.274 2.53174 19.0055 6.45544 19.0055 10.3251Z" fill="#FFA801"/>
<path d="M19.5862 10.3247H18.4254C18.4254 6.67945 15.824 2.90124 15.7975 2.86355L16.7507 2.19995C16.8662 2.36603 19.5862 6.31904 19.5862 10.3247Z" fill="#020202"/>
<path d="M25.6068 1.25464C25.6068 1.25464 24.0591 6.81118 24.0591 10.2939Z" fill="#FFA801"/>
<path d="M24.6398 10.2939H23.4791C23.4791 6.77244 24.9835 1.32894 25.0481 1.09937L26.1663 1.41058C26.1513 1.46536 24.6398 6.93189 24.6398 10.2939V10.2939Z" fill="#020202"/>
<path d="M14.9425 12.6466H13.7817C13.7817 6.36989 10.9431 5.88318 10.874 5.87515C10.5562 5.87201 10.2994 5.61313 10.2994 5.29459C10.2994 4.9764 10.5551 4.71821 10.8719 4.71437H10.8723H10.8747H10.8765C10.8778 4.71402 10.8782 4.71402 10.8796 4.71437H12.3579V5.30506C13.5194 6.12043 14.9425 8.05681 14.9425 12.6466Z" fill="#020202"/>
<path d="M8.94513 8.7771H13.9755V9.55095H8.94513V8.7771Z" fill="#020202"/>
<path d="M8.17133 11.8726H14.3625V12.6464H8.17133V11.8726Z" fill="#020202"/>
<path d="M7.39752 14.968H12.0406V15.7419H7.39752V14.968Z" fill="#020202"/>
<path d="M6.23639 18.0637H13.2014V18.8376H6.23639V18.0637Z" fill="#020202"/>
<path d="M5.07532 21.1592H16.2969V21.933H5.07532V21.1592Z" fill="#020202"/>
<path d="M4.30151 24.2554H17.8447V25.0292H4.30151V24.2554Z" fill="#020202"/>
<path d="M4.30151 27.3508H17.8447V28.1247H4.30151V27.3508Z" fill="#020202"/>
<path d="M8.55823 30.446H17.8448V31.2203H8.55823V30.446Z" fill="#020202"/>
<path d="M10.1055 33.5422H17.8444V34.3161H10.1055V33.5422Z" fill="#020202"/>
<path d="M10.1055 36.6375H17.8444V37.4113H10.1055V36.6375Z" fill="#020202"/>
<path d="M10.1055 39.7332H17.8444V40.507H10.1055V39.7332Z" fill="#020202"/>
<path d="M12.4277 42.8286H17.8447V43.6025H12.4277V42.8286Z" fill="#020202"/>
<path d="M27.5186 8.38985H18.2317C16.6013 8.37031 15.0843 9.22301 14.2539 10.6266C14.4343 11.8802 14.5299 13.1443 14.5404 14.4108C14.5344 14.4617 14.5707 14.5081 14.6216 14.514C14.6628 14.5186 14.7026 14.4956 14.7183 14.4572C16.1732 11.7797 16.684 10.7118 18.2317 10.7118H27.5186C29.0663 10.7118 29.5231 11.7023 31.032 14.4341C31.0516 14.4816 31.106 14.5039 31.1535 14.484C31.1918 14.4683 31.2149 14.4289 31.21 14.3877C31.2229 13.1289 31.3185 11.8725 31.4964 10.6266C30.6681 9.22092 29.1497 8.36717 27.5186 8.38985V8.38985Z" fill="#FFA801"/>
<path d="M27.5187 8.3896H18.8046C18.1634 8.3896 17.6439 8.90946 17.6439 9.55038C17.6439 10.1917 18.1634 10.7115 18.8046 10.7115H27.5187C29.0664 10.7115 29.5231 11.702 31.0321 14.4339C31.0516 14.481 31.1061 14.5037 31.1535 14.4838C31.1919 14.4681 31.2149 14.4287 31.21 14.3875C31.223 13.1287 31.3186 11.8723 31.4965 10.626C30.6682 9.22067 29.1498 8.36692 27.5187 8.3896V8.3896Z" fill="#FFA801"/>
<path d="M14.6332 15.0953C14.6067 15.0953 14.5802 15.0939 14.5533 15.0904C14.4012 15.0722 14.2006 14.9603 14.1053 14.8406C14.009 14.7192 13.9455 14.4962 13.964 14.3427C13.9497 13.1791 13.8552 11.9322 13.6797 10.7096C13.6605 10.5784 13.687 10.4452 13.7543 10.3314C14.688 8.75371 16.3892 7.77121 18.2391 7.80994H27.5149C29.3249 7.78238 31.0659 8.75197 31.9964 10.3325C32.0627 10.4459 32.0893 10.5788 32.0704 10.7089C31.8981 11.9203 31.8035 13.153 31.7899 14.3727C31.8007 14.648 31.6395 14.9076 31.3827 15.0178C31.0349 15.1616 30.6382 14.9993 30.4962 14.6574L30.2861 14.2837C28.9537 11.8638 28.5978 11.2923 27.5183 11.2923H18.2317C17.1397 11.2923 16.7447 11.9374 15.4078 14.4041L15.2284 14.7345C15.1482 14.9365 14.9019 15.0953 14.6332 15.0953ZM14.2267 14.1519C14.2089 14.1784 14.1939 14.2066 14.1817 14.2363L14.2267 14.1519ZM31.5038 14.0884L31.5401 14.1536C31.531 14.1306 31.5188 14.1086 31.5038 14.0884ZM14.8582 10.7553C14.943 11.3809 15.0079 12.0114 15.0519 12.6439C16.0068 10.9706 16.7297 10.1315 18.2317 10.1315H27.5187C29.0354 10.1315 29.7157 10.9252 30.6996 12.6404C30.7432 12.01 30.8077 11.3799 30.8922 10.755C30.1532 9.63119 28.8933 8.95921 27.5271 8.97072C27.5239 8.97072 27.5215 8.97072 27.5187 8.97072H18.2317C16.8588 8.96305 15.6 9.63398 14.8582 10.7553V10.7553Z" fill="#020202"/>
<path d="M25.6841 0.9453C25.749 1.52337 25.3457 2.04946 24.7708 2.13703C24.1927 2.05295 23.7856 1.52581 23.8501 0.9453C23.8501 0.287687 24.26 0.519683 24.7708 0.519683C25.2815 0.519683 25.6841 0.287687 25.6841 0.9453Z" fill="#FFA801"/>
<path d="M24.7714 2.61677C24.7487 2.61677 24.7253 2.61503 24.7023 2.61189C23.8635 2.49012 23.2798 1.73476 23.373 0.892173C23.3702 0.8203 23.3702 0.441048 23.643 0.195424C23.9075 -0.0421751 24.2337 -0.0086809 24.4985 0.0202775C24.6677 0.0377225 24.8739 0.0377225 25.0431 0.0202775C25.3041 -0.0086809 25.6289 -0.0418262 25.8913 0.194377C26.1474 0.424301 26.1631 0.774594 26.1642 0.919736C26.242 1.74593 25.6666 2.48559 24.8436 2.61119C24.8195 2.61503 24.7954 2.61677 24.7714 2.61677V2.61677ZM24.3276 0.967535C24.3021 1.30666 24.4901 1.57287 24.7696 1.64754C25.0522 1.56973 25.2413 1.29759 25.2075 0.998935C25.2064 0.988468 25.2057 0.97835 25.205 0.968232C25.1841 0.970326 25.1635 0.972419 25.1447 0.974513C24.9141 0.998935 24.6301 0.999633 24.398 0.974513C24.3761 0.972419 24.352 0.969628 24.3276 0.967535ZM26.1642 0.945205H26.1718H26.1642Z" fill="#020202"/>
<path d="M22.9215 4.47448V4.53624H26.5975C26.601 4.51565 26.601 4.49472 26.5975 4.47448C26.6746 3.49234 26.1083 2.57264 25.1966 2.19897H24.4228C23.4731 2.54055 22.8618 3.46687 22.9215 4.47448V4.47448Z" fill="#6F1700"/>
<path d="M23.2309 6.88089H26.3266C26.483 6.11541 26.5838 5.33946 26.6284 4.55933H22.9291C22.9776 5.33911 23.0784 6.11471 23.2309 6.88089Z" fill="#9E0C02"/>
<path d="M23.2312 6.8811C23.4479 8.08829 23.6956 9.20267 23.6956 9.20267H25.8392C25.8392 9.20267 26.0869 8.06526 26.3036 6.8811H23.2312Z" fill="#84BC9F"/>
<path d="M24.7674 10.0329C24.3013 10.0329 23.8351 9.89682 23.4287 9.62468C23.3271 9.55699 23.2556 9.45337 23.228 9.33474C22.8607 7.75529 22.5969 6.13466 22.4437 4.51926C22.4416 2.92934 23.4866 1.67261 24.7712 1.67261C26.0513 1.67261 27.0928 2.92934 27.0928 4.47391C26.9372 6.13466 26.6734 7.75529 26.306 9.3344C26.2788 9.45302 26.2069 9.55699 26.1058 9.62433C25.6993 9.89647 25.2335 10.0329 24.7674 10.0329V10.0329ZM25.8388 9.22589H25.8465H25.8388ZM24.1167 8.91746C24.5263 9.12471 25.0078 9.12471 25.4174 8.91746C25.7506 7.44302 25.9924 5.93369 26.1354 4.4289C26.133 3.45826 25.5224 2.63242 24.7712 2.63242C24.0284 2.63242 23.4015 3.47571 23.4015 4.47425C23.5417 5.93579 23.7831 7.44302 24.1167 8.91746Z" fill="#020202"/>
<path d="M22.9216 4.15308H26.6133V4.7954H22.9216V4.15308Z" fill="#020202"/>
<path d="M23.208 6.66821H26.3962V7.31053H23.208V6.66821Z" fill="#020202"/>
<path d="M19.2842 5.25586H21.3274V8.28952C21.3274 8.84532 20.8766 9.29574 20.3212 9.29574C19.7657 9.29574 19.3149 8.84532 19.3149 8.28952V5.25586H19.2842Z" fill="#FFA801"/>
<path d="M20.3215 9.83732C19.4678 9.83732 18.7731 9.14301 18.7731 8.28961V5.43703C18.7532 5.38051 18.7424 5.31945 18.7424 5.25595C18.7424 4.95659 18.9849 4.71411 19.2843 4.71411H21.3274C21.6268 4.71411 21.8692 4.95694 21.8692 5.25595V8.28961C21.8692 9.14301 21.1746 9.83732 20.3215 9.83732ZM19.8568 5.79779V8.28961C19.8568 8.54535 20.0651 8.75364 20.3215 8.75364C20.5773 8.75364 20.7856 8.54535 20.7856 8.28961V5.79779H19.8568Z" fill="#020202"/>
<path d="M21.6446 2.06714H18.9361L18.4871 3.80849C18.4871 4.80668 19.2962 5.61543 20.2943 5.61543C21.2922 5.61543 22.1013 4.80668 22.1013 3.80849L21.6446 2.06714Z" fill="#FFA801"/>
<path d="M18.9361 2.06714C18.9361 2.06714 20.2206 3.19712 18.4871 3.80833L18.9361 2.06714Z" fill="#FFA801"/>
<path d="M21.6446 2.06714C21.6446 2.06714 20.3601 3.19712 22.1013 3.80833L21.6446 2.06714Z" fill="#FFA801"/>
<path d="M21.2578 6.88455H19.4547C19.3542 6.88455 19.2729 6.80325 19.2729 6.70277C19.2729 6.60229 19.3542 6.521 19.4547 6.521H21.2581C21.3586 6.521 21.4399 6.60229 21.4399 6.70277C21.4399 6.80325 21.3586 6.88455 21.2578 6.88455Z" fill="#020202"/>
<path d="M21.2578 7.60462H19.4547C19.3542 7.60462 19.2729 7.52333 19.2729 7.42285C19.2729 7.32202 19.3542 7.24072 19.4547 7.24072H21.2581C21.3586 7.24072 21.4399 7.32202 21.4399 7.42285C21.4399 7.52333 21.3586 7.60462 21.2578 7.60462Z" fill="#020202"/>
<path d="M21.2578 8.32424H19.4547C19.3542 8.32424 19.2729 8.24295 19.2729 8.14247C19.2729 8.04164 19.3542 7.96069 19.4547 7.96069H21.2581C21.3586 7.96069 21.4399 8.04164 21.4399 8.14247C21.4399 8.24295 21.3586 8.32424 21.2578 8.32424Z" fill="#020202"/>
<path d="M20.7624 4.3504C21.0471 4.15537 21.3841 4.05 21.7295 4.04861H21.7916C21.4731 3.63551 21.0917 3.2751 20.6616 2.98063C20.4281 2.82189 20.1215 2.82189 19.8877 2.98063C19.4537 3.26847 19.0783 3.63621 18.781 4.06396H18.8895C19.2252 4.06675 19.5528 4.16619 19.8336 4.3504C19.976 4.44775 20.1291 4.52834 20.2903 4.5901C20.4588 4.53497 20.6179 4.45403 20.7624 4.3504Z" fill="#FFA801"/>
<path d="M20.2943 6.06842C19.0484 6.06842 18.0345 5.05453 18.0345 3.80861C18.0345 3.77058 18.0394 3.7329 18.0488 3.69557L18.4978 1.95457C18.5491 1.75465 18.7298 1.61475 18.936 1.61475H21.6445C21.8507 1.61475 22.0304 1.75326 22.0827 1.95248L22.5391 3.69383C22.5489 3.73116 22.5538 3.76989 22.5538 3.80861C22.5538 5.05453 21.5399 6.06842 20.2943 6.06842ZM18.9409 3.862C18.9688 4.58421 19.5651 5.16303 20.2943 5.16303C21.0228 5.16303 21.6187 4.58456 21.6473 3.86304L21.2956 2.52014H19.2867L18.9409 3.862Z" fill="#020202"/>
<path d="M22.8694 19.9814C22.5794 19.9814 22.2857 19.934 22.0065 19.838L21.1318 19.5976C20.9256 19.5408 20.8049 19.328 20.8614 19.1218C20.9187 18.9156 21.1343 18.7955 21.3373 18.8517L22.2351 19.0991C22.6482 19.2397 23.0787 19.2407 23.4695 19.1064L24.4157 18.851C24.625 18.7962 24.8344 18.918 24.8895 19.1242C24.9453 19.3304 24.8228 19.5429 24.6166 19.5983L23.6955 19.8457C23.4346 19.9357 23.1534 19.9814 22.8694 19.9814Z" fill="#C67446"/>
<path d="M20.5147 16.1288H15.1361V15.3549H16.7191C16.8991 14.4028 17.7567 13.8072 19.0054 13.8072C19.9205 13.6771 20.8549 14.213 21.2282 15.1138C21.3625 15.5496 21.1361 15.9739 20.7363 16.096C20.6672 16.1176 20.5915 16.1288 20.5147 16.1288ZM17.5166 15.3549H20.5147C20.2747 14.8344 19.6802 14.4928 19.0588 14.5772C18.6125 14.5807 17.7494 14.6644 17.5166 15.3549Z" fill="#020202"/>
<path d="M30.6141 16.1288H25.2355C25.1591 16.1288 25.0844 16.1176 25.0126 16.0953C24.8196 16.037 24.6609 15.9059 24.5649 15.7272C24.4707 15.5486 24.4501 15.3434 24.5091 15.1495C24.8953 14.2127 25.8384 13.6764 26.7975 13.8111H26.8073C28.0047 13.8111 28.8525 14.4056 29.0308 15.355H30.6141V16.1288ZM26.5338 14.5671C25.9504 14.5671 25.4501 14.8951 25.2369 15.4101L28.2357 15.3623C28.0075 14.6652 27.1461 14.5811 26.7445 14.5811C26.6737 14.5717 26.6032 14.5671 26.5338 14.5671Z" fill="#020202"/>
<path d="M12.8146 18.064C13.0735 18.5385 13.2067 19.0713 13.2015 19.6117C13.2015 19.9986 13.2015 21.1594 14.1687 21.1594C15.1362 21.1594 15.1362 19.9986 15.1362 19.9986V16.9029C15.1362 12.1359 9.84268 13.1264 12.8146 18.064Z" fill="#FFA801"/>
<path d="M14.0449 14.1011C13.2016 14.4957 12.768 15.9429 14.1688 18.2645C14.4308 18.7379 14.5644 19.2714 14.5557 19.8125C14.5334 20.1988 14.608 20.5843 14.7724 20.9346C15.0033 20.6771 15.1328 20.3439 15.1363 19.9981V16.9024C15.2392 15.8484 14.8338 14.8079 14.0449 14.1011Z" fill="#FFA801"/>
<path d="M14.1686 21.7472C13.5877 21.7472 12.6132 21.4698 12.6132 19.6116C12.6174 19.171 12.5106 18.739 12.3034 18.3556C11.2002 16.5162 11.0166 14.838 11.8142 13.8642C12.3062 13.2624 13.0811 13.0562 13.8357 13.3262C14.7485 13.6524 15.724 14.7633 15.724 16.9028V19.9985C15.724 20.7016 15.3098 21.7472 14.1686 21.7472ZM13.1857 14.3879C13.0047 14.3879 12.8438 14.4633 12.7245 14.6091C12.378 15.0323 12.3257 16.1111 13.3183 17.7604C13.3225 17.7677 13.3267 17.7747 13.3305 17.7823C13.6369 18.3437 13.7956 18.9787 13.7893 19.6172C13.7893 20.5714 14.0454 20.5714 14.1686 20.5714C14.537 20.5714 14.5478 20.0572 14.5478 19.9985V16.9028C14.5478 15.3729 13.9509 14.6168 13.4401 14.4343C13.3529 14.4029 13.267 14.3879 13.1857 14.3879Z" fill="#020202"/>
<path d="M23.0799 27.5414C23.0021 27.5414 22.9247 27.5389 22.8469 27.5351C21.3839 27.6101 19.9057 26.9517 18.9434 25.7749C16.0451 22.8811 14.5557 20.2693 14.5557 18.0562V13.6375H15.7164V18.0562C15.7164 19.9235 17.1295 22.324 19.8031 24.9976C20.5717 25.933 21.6983 26.434 22.8465 26.3761C24.0561 26.4333 25.1785 25.933 25.9077 25.0405C28.6204 22.324 30.0335 19.9235 30.0335 18.0562V13.6758H31.1942V18.0562C31.1942 20.2693 29.7048 22.8811 26.7681 25.8182C25.8927 26.8935 24.5149 27.5414 23.0799 27.5414V27.5414Z" fill="#020202"/>
<path d="M32.9356 18.064C32.6767 18.5385 32.5434 19.0713 32.5486 19.6117C32.5486 19.9986 32.5486 21.1594 31.5815 21.1594C30.614 21.1594 30.614 19.9986 30.614 19.9986V16.9029C30.614 12.1359 35.9075 13.1264 32.9356 18.064V18.064Z" fill="#FFA801"/>
<path d="M31.7055 14.1011C32.5487 14.4957 32.9824 15.9429 31.5816 18.2645C31.3196 18.7379 31.1859 19.2714 31.1947 19.8125C31.217 20.1988 31.1423 20.5843 30.978 20.9346C30.747 20.6771 30.6176 20.3439 30.6141 19.9981V16.9024C30.5112 15.8484 30.9162 14.8079 31.7055 14.1011Z" fill="#FFA801"/>
<path d="M31.5816 21.747C30.4403 21.747 30.0262 20.7013 30.0262 19.9983V16.9025C30.0262 14.7631 31.0017 13.6522 31.9148 13.326C32.6673 13.0566 33.4436 13.2618 33.9363 13.864C34.7328 14.8381 34.55 16.5159 33.4468 18.3557C33.2395 18.7381 33.1331 19.1704 33.137 19.6058C33.137 21.4696 32.1625 21.747 31.5816 21.747ZM32.5648 14.3877C32.4831 14.3877 32.3976 14.4027 32.3101 14.4341C31.7989 14.6166 31.202 15.3726 31.202 16.9025V19.9983C31.2044 20.1291 31.239 20.5712 31.5816 20.5712C31.7047 20.5712 31.9608 20.5712 31.9608 19.6114C31.9549 18.9771 32.1129 18.3428 32.4196 17.7817C32.4235 17.7744 32.428 17.7674 32.4315 17.7601C33.4241 16.1112 33.3718 15.0321 33.0257 14.6089C32.9063 14.463 32.7455 14.3877 32.5648 14.3877V14.3877Z" fill="#020202"/>
</g>
<path d="M59.1152 18.3814C57.6583 18.3814 56.4173 18.0746 55.3921 17.4608C54.367 16.8403 53.5812 15.977 53.0349 14.8709C52.4953 13.758 52.2256 12.4664 52.2256 10.9961V10.6218C52.2256 9.19192 52.4953 7.92056 53.0349 6.8077C53.5745 5.69484 54.3467 4.82142 55.3517 4.18742C56.3566 3.54669 57.5572 3.22632 58.9533 3.22632C59.9313 3.22632 60.8384 3.37133 61.6747 3.66135C62.5111 3.95136 63.2395 4.35941 63.86 4.88549V8.28477H61.9175L61.6545 6.00847C61.324 5.76566 60.9362 5.57681 60.4911 5.44192C60.0459 5.30703 59.5435 5.23958 58.9836 5.23958C58.1001 5.23958 57.3447 5.46215 56.7175 5.9073C56.0902 6.35244 55.608 6.97632 55.2707 7.77892C54.9403 8.58153 54.775 9.5224 54.775 10.6015V10.9961C54.775 12.6755 55.1628 13.9941 55.9385 14.9518C56.7141 15.9095 57.7932 16.3884 59.1759 16.3884C59.621 16.3884 60.0594 16.3378 60.4911 16.2367C60.9295 16.1287 61.3139 15.9905 61.6444 15.8219L61.9175 13.758H63.8398V17.1371C63.28 17.508 62.5886 17.8081 61.7658 18.0375C60.943 18.2668 60.0594 18.3814 59.1152 18.3814Z" fill="white"/>
<path d="M70.5978 18.3814C69.5457 18.3814 68.6419 18.1454 67.8865 17.6733C67.1311 17.1944 66.5511 16.5368 66.1464 15.7005C65.7417 14.8641 65.5394 13.8996 65.5394 12.807V12.5946C65.5394 11.5087 65.7417 10.5476 66.1464 9.71125C66.5511 8.87492 67.1311 8.21732 67.8865 7.73846C68.6419 7.25959 69.5389 7.02016 70.5776 7.02016C71.6298 7.02016 72.5335 7.25959 73.2889 7.73846C74.0443 8.21058 74.6244 8.86818 75.0291 9.71125C75.4337 10.5476 75.6361 11.5087 75.6361 12.5946V12.807C75.6361 13.9064 75.4337 14.8742 75.0291 15.7106C74.6244 16.5469 74.0443 17.2011 73.2889 17.6733C72.5403 18.1454 71.6433 18.3814 70.5978 18.3814ZM70.5978 16.4188C71.4409 16.4188 72.0682 16.0849 72.4796 15.4172C72.891 14.7427 73.0967 13.8727 73.0967 12.807V12.5946C73.0967 11.5492 72.8876 10.6892 72.4695 10.0148C72.0581 9.33355 71.4274 8.99295 70.5776 8.99295C69.7345 8.99295 69.1073 9.33355 68.6959 10.0148C68.2912 10.6892 68.0889 11.5492 68.0889 12.5946V12.807C68.0889 13.8727 68.2912 14.7427 68.6959 15.4172C69.1073 16.0849 69.7413 16.4188 70.5978 16.4188Z" fill="white"/>
<path d="M76.9816 18.169V16.611L78.5093 16.3075V9.09412L76.9007 8.79061V7.22249H80.8463L80.9677 8.65909C81.3184 8.13976 81.7635 7.73846 82.3031 7.45518C82.8427 7.16516 83.4665 7.02016 84.1747 7.02016C84.8897 7.02016 85.5 7.18203 86.0059 7.50577C86.5185 7.82276 86.9063 8.305 87.1693 8.95248C87.5066 8.35221 87.9483 7.88009 88.4946 7.53612C89.0477 7.19214 89.6952 7.02016 90.4371 7.02016C91.5297 7.02016 92.393 7.39448 93.027 8.14313C93.661 8.89178 93.978 10.0249 93.978 11.5424V16.3075L95.5057 16.611V18.169H89.9919V16.611L91.4285 16.3075V11.5222C91.4285 10.6049 91.2734 9.9608 90.9632 9.58985C90.6529 9.2189 90.1977 9.03342 89.5974 9.03342C89.0376 9.03342 88.5756 9.21215 88.2114 9.56961C87.8539 9.92033 87.6212 10.3756 87.5133 10.9354V16.3075L88.8993 16.611V18.169H83.5879V16.611L84.974 16.3075V11.5222C84.974 10.6386 84.8155 10.0046 84.4985 9.6202C84.1815 9.22901 83.7228 9.03342 83.1226 9.03342C82.6235 9.03342 82.2019 9.13459 81.858 9.33693C81.5207 9.53926 81.2509 9.82591 81.0486 10.1969V16.3075L82.4852 16.611V18.169H76.9816Z" fill="white"/>
<path d="M96.6286 18.169V16.611L98.1563 16.3075V9.09412L96.5477 8.79061V7.22249H100.493L100.615 8.65909C100.965 8.13976 101.411 7.73846 101.95 7.45518C102.49 7.16516 103.114 7.02016 103.822 7.02016C104.537 7.02016 105.147 7.18203 105.653 7.50577C106.165 7.82276 106.553 8.305 106.816 8.95248C107.154 8.35221 107.595 7.88009 108.142 7.53612C108.695 7.19214 109.342 7.02016 110.084 7.02016C111.177 7.02016 112.04 7.39448 112.674 8.14313C113.308 8.89178 113.625 10.0249 113.625 11.5424V16.3075L115.153 16.611V18.169H109.639V16.611L111.076 16.3075V11.5222C111.076 10.6049 110.92 9.9608 110.61 9.58985C110.3 9.2189 109.845 9.03342 109.244 9.03342C108.685 9.03342 108.223 9.21215 107.858 9.56961C107.501 9.92033 107.268 10.3756 107.16 10.9354V16.3075L108.546 16.611V18.169H103.235V16.611L104.621 16.3075V11.5222C104.621 10.6386 104.462 10.0046 104.145 9.6202C103.828 9.22901 103.37 9.03342 102.77 9.03342C102.27 9.03342 101.849 9.13459 101.505 9.33693C101.168 9.53926 100.898 9.82591 100.696 10.1969V16.3075L102.132 16.611V18.169H96.6286Z" fill="white"/>
<path d="M121.324 18.3814C120.272 18.3814 119.368 18.1454 118.613 17.6733C117.857 17.1944 117.277 16.5368 116.873 15.7005C116.468 14.8641 116.266 13.8996 116.266 12.807V12.5946C116.266 11.5087 116.468 10.5476 116.873 9.71125C117.277 8.87492 117.857 8.21732 118.613 7.73846C119.368 7.25959 120.265 7.02016 121.304 7.02016C122.356 7.02016 123.26 7.25959 124.015 7.73846C124.77 8.21058 125.351 8.86818 125.755 9.71125C126.16 10.5476 126.362 11.5087 126.362 12.5946V12.807C126.362 13.9064 126.16 14.8742 125.755 15.7106C125.351 16.5469 124.77 17.2011 124.015 17.6733C123.266 18.1454 122.369 18.3814 121.324 18.3814ZM121.324 16.4188C122.167 16.4188 122.794 16.0849 123.206 15.4172C123.617 14.7427 123.823 13.8727 123.823 12.807V12.5946C123.823 11.5492 123.614 10.6892 123.196 10.0148C122.784 9.33355 122.154 8.99295 121.304 8.99295C120.461 8.99295 119.833 9.33355 119.422 10.0148C119.017 10.6892 118.815 11.5492 118.815 12.5946V12.807C118.815 13.8727 119.017 14.7427 119.422 15.4172C119.833 16.0849 120.467 16.4188 121.324 16.4188Z" fill="white"/>
<path d="M127.708 18.169V16.611L129.225 16.3075V9.09412L127.627 8.79061V7.22249H131.572L131.704 8.81085C132.068 8.2443 132.52 7.8059 133.06 7.49565C133.606 7.17865 134.223 7.02016 134.911 7.02016C136.037 7.02016 136.914 7.3675 137.541 8.0622C138.169 8.75689 138.482 9.83603 138.482 11.2996V16.3075L140 16.611V18.169H134.506V16.611L135.933 16.3075V11.3198C135.933 10.4903 135.768 9.90347 135.437 9.5595C135.107 9.20878 134.614 9.03342 133.96 9.03342C133.474 9.03342 133.046 9.14471 132.675 9.36728C132.304 9.5831 132.004 9.88661 131.775 10.2778V16.3075L133.161 16.611V18.169H127.708Z" fill="white"/>
<path d="M56.9097 42.2923L53.4801 29.282L52.0839 29.1302V27.5621H57.5268V29.1302L55.9587 29.3629L57.7696 36.9303L58.1439 38.4782L58.2046 38.4883L58.67 36.9303L61.6039 27.5621H63.597L66.6118 37.0821L67.0569 38.5895H67.1176L67.5223 37.0821L69.3535 29.3629L67.6943 29.1302V27.5621H73.036V29.1302L71.7309 29.282L68.3418 42.2923H65.9947L63.0304 33.0151L62.6561 31.6797H62.5954L62.2008 33.0353L59.2163 42.2923H56.9097Z" fill="white"/>
<path d="M78.8836 42.5048C77.8449 42.5048 76.9445 42.2754 76.1824 41.8168C75.4202 41.3514 74.8267 40.7107 74.4018 39.8946C73.9836 39.0785 73.7746 38.1444 73.7746 37.0922V36.6673C73.7746 35.6017 73.9803 34.654 74.3917 33.8244C74.8099 32.9881 75.3798 32.3339 76.1014 31.8618C76.8299 31.3829 77.6628 31.1435 78.6003 31.1435C80.0774 31.1435 81.2004 31.5819 81.9692 32.4587C82.7449 33.3355 83.1327 34.5394 83.1327 36.0704V37.5272H76.4151L76.3948 37.5778C76.4353 38.4411 76.6849 39.1527 77.1435 39.7125C77.6021 40.2655 78.2563 40.5421 79.1062 40.5421C79.6997 40.5421 80.2393 40.4611 80.7249 40.2993C81.2105 40.1374 81.6624 39.9081 82.0805 39.6113L82.8696 41.2098C82.438 41.5807 81.8883 41.891 81.2206 42.1405C80.5596 42.3833 79.7806 42.5048 78.8836 42.5048ZM76.4555 35.7365H80.6945V35.4735C80.6945 34.7586 80.5259 34.1785 80.1887 33.7334C79.8582 33.2883 79.3389 33.0657 78.6307 33.0657C78.0102 33.0657 77.5077 33.3152 77.1232 33.8143C76.7456 34.3134 76.5129 34.9373 76.4252 35.686L76.4555 35.7365Z" fill="white"/>
<path d="M88.2518 42.5048C87.139 42.5048 86.2723 42.2181 85.6518 41.6448C85.0313 41.0715 84.721 40.2824 84.721 39.2775C84.721 38.2455 85.1392 37.4092 85.9755 36.7685C86.8186 36.1277 88.0259 35.8074 89.5974 35.8074H91.2667V34.8867C91.2667 34.3067 91.0913 33.8447 90.7406 33.5007C90.3966 33.1567 89.8941 32.9847 89.2332 32.9847C88.8555 32.9847 88.5216 33.032 88.2316 33.1264C87.9416 33.2141 87.6819 33.3422 87.4526 33.5108L87.23 34.9879H85.3483L85.3281 32.2867C85.8609 31.9292 86.4578 31.6493 87.1187 31.447C87.7865 31.2446 88.525 31.1435 89.3343 31.1435C90.7237 31.1435 91.8164 31.4706 92.6122 32.1248C93.4148 32.779 93.8161 33.7098 93.8161 34.9171V39.7428C93.8161 39.8912 93.8161 40.0362 93.8161 40.1779C93.8229 40.3128 93.833 40.451 93.8465 40.5927L94.9593 40.7343V42.2923H91.6309C91.5634 42.0562 91.4994 41.8269 91.4387 41.6043C91.3847 41.3818 91.3442 41.1592 91.3173 40.9366C90.9531 41.3953 90.5113 41.773 89.9919 42.0697C89.4726 42.3597 88.8926 42.5048 88.2518 42.5048ZM88.8285 40.532C89.3478 40.532 89.8267 40.4139 90.2651 40.1779C90.7102 39.9351 91.0441 39.6316 91.2667 39.2673V37.4362H89.567C88.8049 37.4362 88.2282 37.6149 87.837 37.9724C87.4526 38.3231 87.2604 38.7345 87.2604 39.2066C87.2604 40.0902 87.7831 40.532 88.8285 40.532Z" fill="white"/>
<path d="M96.0924 42.2923V40.7343L97.6201 40.4308V28.3816L96.0014 28.0781V26.5099H100.17V40.4308L101.687 40.7343V42.2923H96.0924Z" fill="white"/>
<path d="M106.968 42.4845C106.037 42.4845 105.312 42.2248 104.793 41.7055C104.274 41.1794 104.014 40.3431 104.014 39.1965V33.1669H102.415V31.3458H104.014V28.6851H106.553V31.3458H108.718V33.1669H106.553V39.1965C106.553 39.6619 106.648 39.9991 106.837 40.2082C107.032 40.4173 107.295 40.5218 107.626 40.5218C107.815 40.5218 108.024 40.5083 108.253 40.4814C108.489 40.4476 108.681 40.4139 108.83 40.3802L109.083 42.1709C108.793 42.2586 108.455 42.3328 108.071 42.3935C107.686 42.4542 107.319 42.4845 106.968 42.4845Z" fill="white"/>
<path d="M110.074 42.2923V40.7343L111.592 40.4308V28.3816L109.983 28.0781V26.5099H114.131V32.7622C114.495 32.2496 114.937 31.8517 115.456 31.5684C115.982 31.2851 116.576 31.1435 117.237 31.1435C118.363 31.1435 119.25 31.5043 119.897 32.226C120.545 32.9409 120.869 34.047 120.869 35.5443V40.4308L122.376 40.7343V42.2923H116.883V40.7343L118.319 40.4308V35.5241C118.319 34.6878 118.151 34.0841 117.813 33.7132C117.476 33.3422 116.98 33.1567 116.326 33.1567C115.861 33.1567 115.439 33.2613 115.062 33.4704C114.684 33.6727 114.374 33.9593 114.131 34.3303V40.4308L115.567 40.7343V42.2923H110.074Z" fill="white"/>
<path d="M125.016 31.73V31.0977L125.583 30.9784V27.228L125.016 27.1051V26.4692H127.325C127.795 26.4692 128.209 26.58 128.568 26.8016C128.927 27.0208 129.206 27.3255 129.406 27.7157C129.608 28.1035 129.71 28.5492 129.71 29.0526V29.1502C129.71 29.6488 129.61 30.0932 129.41 30.4834C129.212 30.8712 128.935 31.176 128.579 31.3976C128.222 31.6192 127.809 31.73 127.339 31.73H125.016ZM126.638 30.9242H127.285C127.577 30.9242 127.824 30.8484 128.026 30.6966C128.231 30.5424 128.386 30.3317 128.492 30.0643C128.598 29.7969 128.651 29.4922 128.651 29.1502V29.049C128.651 28.7021 128.598 28.3962 128.492 28.1312C128.386 27.8639 128.231 27.6555 128.026 27.5062C127.824 27.3544 127.577 27.2785 127.285 27.2785H126.638V30.9242Z" fill="#FFA801"/>
<path d="M129.898 31.73V31.0977L130.273 31.0435L131.946 26.4692H133.027L134.689 31.0435L135.064 31.0977V31.73H133.272V31.0977L133.637 31.0326L133.406 30.31H131.556L131.325 31.0326L131.69 31.0977V31.73H129.898ZM131.805 29.5332H133.157L132.542 27.7302L132.492 27.5712H132.47L132.416 27.741L131.805 29.5332Z" fill="#FFA801"/>
<path d="M137.608 31.8059C137.134 31.8059 136.718 31.6914 136.361 31.4626C136.005 31.2314 135.727 30.9146 135.527 30.5123C135.329 30.1101 135.231 29.6524 135.231 29.1393V29.0598C135.231 28.5492 135.329 28.0927 135.527 27.6904C135.727 27.2882 136.004 26.9714 136.358 26.7402C136.714 26.5089 137.13 26.3933 137.604 26.3933C138.079 26.3933 138.496 26.5089 138.855 26.7402C139.216 26.9714 139.497 27.2882 139.696 27.6904C139.899 28.0927 140 28.5492 140 29.0598V29.1393C140 29.6524 139.9 30.1101 139.7 30.5123C139.5 30.9146 139.22 31.2314 138.858 31.4626C138.499 31.6914 138.083 31.8059 137.608 31.8059ZM137.608 30.9857C138.054 30.9857 138.388 30.817 138.613 30.4798C138.837 30.1402 138.949 29.6933 138.949 29.1393V29.0526C138.949 28.6889 138.898 28.3697 138.797 28.0951C138.696 27.8181 138.545 27.6025 138.345 27.4484C138.148 27.2942 137.901 27.2171 137.604 27.2171C137.161 27.2171 136.83 27.3857 136.611 27.723C136.394 28.0602 136.286 28.5034 136.286 29.0526V29.1393C136.286 29.6933 136.395 30.1402 136.614 30.4798C136.836 30.817 137.167 30.9857 137.608 30.9857Z" fill="#FFA801"/>
<defs>
<clipPath id="clip0_96_4418">
<rect width="45.7307" height="45.7307" fill="white"/>
</clipPath>
</defs>
</svg>
