<?xml version="1.0" encoding="UTF-8"?>
<svg xmlns="http://www.w3.org/2000/svg" xmlns:xlink="http://www.w3.org/1999/xlink" width="20pt" height="20pt" viewBox="0 0 20 20" version="1.1">
<g id="surface1">
<path style="fill:none;stroke-width:1;stroke-linecap:butt;stroke-linejoin:miter;stroke:rgb(100%,100%,100%);stroke-opacity:1;stroke-miterlimit:4;" d="M 19.303125 13.528125 L 19.265625 13.81875 L 19.495313 13.996875 L 21.595312 15.6 L 21.6 15.6 C 21.604688 15.6 21.609375 15.604687 21.614062 15.614062 C 21.61875 15.61875 21.61875 15.628125 21.623437 15.632812 C 21.623437 15.6375 21.623437 15.642187 21.623437 15.642187 L 21.61875 15.646875 L 19.476562 19.335938 C 19.467187 19.340625 19.4625 19.340625 19.453125 19.340625 C 19.448438 19.340625 19.44375 19.340625 19.439062 19.335938 L 16.959375 18.196875 L 16.673437 18.065625 L 16.434375 18.2625 C 15.932812 18.670312 15.328125 18.998437 14.653125 19.289062 L 14.38125 19.40625 L 14.353125 19.70625 L 14.104687 22.448438 C 14.1 22.448438 14.1 22.448438 14.1 22.448438 L 9.810937 22.448438 C 9.810937 22.448438 9.80625 22.44375 9.801562 22.434375 C 9.801562 22.429688 9.796875 22.425 9.796875 22.415625 L 9.548438 19.70625 L 9.520312 19.40625 L 9.248437 19.289062 C 8.582812 19.007812 8.020312 18.675 7.448437 18.248437 L 7.209375 18.070312 L 6.942188 18.196875 L 4.439062 19.345312 L 4.434375 19.35 C 4.429688 19.35 4.429688 19.345312 4.429688 19.345312 L 2.282812 15.646875 L 2.278125 15.642187 C 2.278125 15.642187 2.278125 15.6375 2.278125 15.632812 C 2.278125 15.628125 2.282812 15.61875 2.2875 15.614062 C 2.292187 15.609375 2.292187 15.604687 2.296875 15.604687 L 4.63125 14.015625 L 4.889062 13.8375 L 4.846875 13.528125 C 4.795312 13.176562 4.748437 12.857812 4.748437 12.501563 C 4.748437 12.140625 4.795312 11.821875 4.846875 11.470313 L 4.889062 11.170312 L 4.640625 10.992188 L 2.4 9.398438 C 2.395312 9.398438 2.390625 9.39375 2.385937 9.384375 C 2.38125 9.379687 2.38125 9.370312 2.376562 9.365625 C 2.376562 9.360938 2.376562 9.360938 2.376562 9.360938 C 2.376562 9.360938 2.376562 9.35625 2.376562 9.35625 L 2.38125 9.351562 L 4.523438 5.6625 C 4.532812 5.6625 4.5375 5.6625 4.546875 5.6625 C 4.551563 5.6625 4.55625 5.6625 4.560937 5.6625 L 7.040625 6.80625 L 7.326562 6.932812 L 7.565625 6.735937 C 8.067187 6.328125 8.671875 6 9.346875 5.709375 L 9.61875 5.592187 L 9.646875 5.296875 L 9.895312 2.55 C 9.9 2.55 9.9 2.55 9.9 2.55 L 14.189063 2.55 C 14.189063 2.554688 14.19375 2.559375 14.198437 2.564062 C 14.198437 2.56875 14.203125 2.578125 14.203125 2.582812 L 14.451562 5.296875 L 14.479687 5.592187 L 14.751562 5.709375 C 15.417187 5.995312 15.979687 6.323437 16.551562 6.75 L 16.790625 6.928125 L 17.057813 6.80625 L 19.560937 5.653125 L 19.565625 5.648438 C 19.570312 5.653125 19.570312 5.653125 19.570312 5.657812 L 21.76875 9.35625 L 21.773438 9.35625 C 21.773438 9.35625 21.773438 9.360938 21.773438 9.360938 C 21.773438 9.360938 21.773438 9.360938 21.773438 9.365625 C 21.76875 9.370312 21.76875 9.379687 21.764062 9.384375 C 21.759375 9.39375 21.754687 9.398438 21.75 9.398438 L 19.509375 10.992188 L 19.260938 11.170312 L 19.303125 11.470313 C 19.354688 11.821875 19.401563 12.140625 19.401563 12.501563 C 19.401563 12.857812 19.354688 13.176562 19.303125 13.528125 Z M 6.501562 12.501563 C 6.501562 15.525 8.971875 18 12 18 C 15.028125 18 17.498437 15.525 17.498437 12.501563 C 17.498437 9.473437 15.028125 6.998437 12 6.998437 C 8.971875 6.998437 6.501562 9.473437 6.501562 12.501563 Z M 6.501562 12.501563 " transform="matrix(0.833333,0,0,0.833333,0,0)"/>
</g>
</svg>
