<svg width="24" height="24" viewBox="0 0 24 24" fill="none" xmlns="http://www.w3.org/2000/svg">
<g opacity="0.89">
<path fill-rule="evenodd" clip-rule="evenodd" d="M10.1529 5.19786C10.6251 4.37995 11.5041 3.46693 12.6862 2.97476C13.9156 2.46297 15.4229 2.43108 16.9986 3.34082C19.1365 4.57512 20.3891 7.46825 18.8132 10.1979C17.7851 11.9786 16.1328 12.5932 15.0442 12.7259L14.774 13.194L15.2787 15.1011C15.4748 15.8423 15.0832 16.6159 14.3694 16.8973L12.5446 17.6166L12.8138 19.4205C12.9502 20.335 12.2398 21.16 11.3173 21.1584L8.24787 21.1529C7.57041 21.1517 6.98 20.6958 6.80642 20.0399L6.05027 17.1825C5.94819 16.7967 6.00327 16.3853 6.20342 16.0386L8.36321 12.2977L9.85209 9.7189C9.49839 8.8793 9.03843 7.12821 10.1529 5.19786ZM15.9924 5.08364C14.97 4.49337 14.1164 4.55075 13.4456 4.83C12.7277 5.12887 12.1674 5.70866 11.885 6.19786C11.1505 7.46998 11.5318 8.58642 11.7475 9.03926C11.9476 9.4592 11.9881 10.0192 11.7007 10.5171L10.0953 13.2977L8.03967 16.8581L8.64466 19.1443L10.7461 19.148L10.5043 17.5273C10.4004 16.8308 10.792 16.1525 11.4471 15.8942L13.2276 15.1924L12.7846 13.5184C12.6825 13.1326 12.7376 12.7211 12.9377 12.3744L13.4327 11.5171C13.7262 11.0088 14.2419 10.7737 14.7 10.7422C15.3141 10.6999 16.41 10.3602 17.0811 9.19786C18.0207 7.57043 17.3186 5.84934 15.9924 5.08364ZM13.617 7.19786C13.8949 6.7166 14.5079 6.55031 14.9862 6.82645C15.4644 7.1026 15.6269 7.7166 15.3491 8.19786C15.0712 8.67913 14.4582 8.84541 13.9799 8.56927C13.5016 8.29313 13.3392 7.67913 13.617 7.19786Z" fill="white"/>
</g>
</svg>
