<?xml version="1.0" encoding="utf-8"?>
<!-- Generator: Adobe Illustrator 23.0.1, SVG Export Plug-In . SVG Version: 6.00 Build 0)  -->
<svg version="1.1" id="Layer_1" xmlns="http://www.w3.org/2000/svg" xmlns:xlink="http://www.w3.org/1999/xlink" x="0px" y="0px"
	 viewBox="0 0 20 20" style="enable-background:new 0 0 20 20;" xml:space="preserve">
<style type="text/css">
	.st0{fill:none;}
</style>
<path class="st0" d="M5.8,5.8h8.3"/>
<path class="st0" d="M5.8,10h8.3"/>
<path class="st0" d="M5.8,14.2h5"/>
<path class="st0" d="M17,3c-0.3-0.3-0.7-0.5-1.2-0.5H4.2C3.7,2.5,3.3,2.7,3,3S2.5,3.7,2.5,4.2v11.7c0,0.4,0.2,0.9,0.5,1.2
	s0.7,0.5,1.2,0.5h11.7c0.4,0,0.9-0.2,1.2-0.5s0.5-0.7,0.5-1.2V4.2C17.5,3.7,17.3,3.3,17,3z M17.2,15.6c0,0.4-0.2,0.8-0.5,1.1
	s-0.7,0.5-1.1,0.5H4.4c-0.4,0-0.8-0.2-1.1-0.5S2.8,16,2.8,15.6V4.4C2.8,4,3,3.6,3.3,3.3S4,2.8,4.4,2.8h11.2c0.4,0,0.8,0.2,1.1,0.5
	s0.5,0.7,0.5,1.1V15.6z"/>
</svg>
