<?xml version="1.0" encoding="UTF-8"?>
<svg xmlns="http://www.w3.org/2000/svg" xmlns:xlink="http://www.w3.org/1999/xlink" width="32pt" height="32pt" viewBox="0 0 32 32" version="1.1">
<g id="surface1">
<path style=" stroke:none;fill-rule:nonzero;fill:rgb(255,255,255);fill-opacity:1;" d="M 28.402344 3.832031 C 28.089844 3.84375 27.785156 3.933594 27.511719 4.042969 C 27.242188 4.148438 25.683594 4.816406 23.378906 5.800781 C 21.078125 6.785156 18.085938 8.066406 15.117188 9.335938 C 9.183594 11.878906 3.351562 14.382812 3.351562 14.382812 L 3.394531 14.363281 C 3.394531 14.363281 3.042969 14.484375 2.6875 14.730469 C 2.507812 14.855469 2.316406 15.015625 2.160156 15.25 C 2 15.484375 1.886719 15.816406 1.929688 16.167969 C 2.082031 17.398438 3.359375 17.746094 3.359375 17.746094 L 3.363281 17.75 L 9.0625 19.699219 C 9.207031 20.183594 10.789062 25.46875 11.136719 26.585938 C 11.328125 27.203125 11.511719 27.5625 11.699219 27.804688 C 11.792969 27.925781 11.890625 28.019531 12 28.089844 C 12.042969 28.117188 12.085938 28.136719 12.132812 28.15625 C 12.132812 28.15625 12.132812 28.15625 12.136719 28.15625 C 12.140625 28.160156 12.144531 28.160156 12.152344 28.160156 L 12.136719 28.15625 C 12.148438 28.160156 12.15625 28.167969 12.167969 28.171875 C 12.1875 28.179688 12.199219 28.179688 12.226562 28.183594 C 12.878906 28.414062 13.417969 27.988281 13.417969 27.988281 L 13.441406 27.972656 L 16.941406 24.726562 L 22.621094 29.15625 L 22.691406 29.1875 C 23.6875 29.628906 24.585938 29.382812 25.082031 28.976562 C 25.582031 28.574219 25.777344 28.050781 25.777344 28.050781 L 25.796875 27.996094 L 29.972656 6.242188 C 30.078125 5.753906 30.09375 5.332031 29.992188 4.953125 C 29.894531 4.574219 29.648438 4.242188 29.339844 4.058594 C 29.035156 3.875 28.714844 3.816406 28.402344 3.832031 Z M 28.433594 5.132812 C 28.5625 5.125 28.65625 5.140625 28.683594 5.160156 C 28.714844 5.175781 28.726562 5.175781 28.757812 5.28125 C 28.785156 5.386719 28.800781 5.613281 28.722656 5.96875 L 28.71875 5.976562 L 24.570312 27.601562 C 24.558594 27.625 24.472656 27.824219 24.277344 27.984375 C 24.074219 28.148438 23.851562 28.277344 23.257812 28.027344 L 17.046875 23.183594 L 16.871094 23.046875 L 16.867188 23.050781 L 15.007812 21.65625 L 25.449219 9.375 C 25.613281 9.183594 25.648438 8.910156 25.539062 8.683594 C 25.429688 8.457031 25.195312 8.3125 24.945312 8.320312 C 24.824219 8.324219 24.707031 8.359375 24.605469 8.425781 L 9.5 18.496094 L 3.792969 16.542969 C 3.792969 16.542969 3.226562 16.226562 3.199219 16.007812 C 3.199219 15.996094 3.191406 16.007812 3.222656 15.964844 C 3.25 15.917969 3.324219 15.847656 3.417969 15.78125 C 3.601562 15.652344 3.816406 15.574219 3.816406 15.574219 L 3.835938 15.566406 L 3.859375 15.558594 C 3.859375 15.558594 9.6875 13.054688 15.621094 10.515625 C 18.589844 9.242188 21.582031 7.960938 23.882812 6.976562 C 26.183594 5.992188 27.847656 5.285156 27.988281 5.230469 C 28.148438 5.164062 28.308594 5.136719 28.433594 5.132812 Z M 21.511719 12.027344 L 13.597656 21.339844 L 13.59375 21.34375 C 13.582031 21.359375 13.570312 21.375 13.558594 21.390625 C 13.546875 21.410156 13.535156 21.425781 13.523438 21.445312 C 13.476562 21.519531 13.449219 21.605469 13.4375 21.691406 C 13.4375 21.691406 13.4375 21.695312 13.4375 21.695312 L 12.40625 26.332031 C 12.390625 26.285156 12.378906 26.265625 12.359375 26.207031 L 12.359375 26.203125 C 12.03125 25.152344 10.539062 20.171875 10.332031 19.480469 Z M 14.488281 22.867188 L 15.914062 23.933594 L 13.824219 25.871094 Z M 14.488281 22.867188 "/>
</g>
</svg>
