<svg width="24" height="24" viewBox="0 0 24 24" fill="none" xmlns="http://www.w3.org/2000/svg">
<path fill-rule="evenodd" clip-rule="evenodd" d="M12 0C5.37281 0 0 5.37281 0 12C0 18.6272 5.37281 24 12 24C18.6272 24 24 18.6272 24 12C24 5.37281 18.6272 0 12 0ZM17.5622 8.16094C17.3817 10.0584 16.6003 14.663 16.2028 16.7883C16.0345 17.6878 15.7031 17.9892 15.3825 18.0187C14.6859 18.083 14.1567 17.558 13.4817 17.1155C12.4256 16.4231 11.8289 15.9923 10.8038 15.3169C9.61875 14.5359 10.387 14.107 11.062 13.4058C11.2388 13.222 14.3091 10.4292 14.3686 10.1761C14.3761 10.1442 14.3831 10.0261 14.3128 9.96375C14.2425 9.90141 14.1389 9.92297 14.0644 9.93984C13.9584 9.96375 12.2709 11.0789 9.00281 13.2853C8.52375 13.6144 8.09016 13.7742 7.70109 13.7662C7.27266 13.7569 6.44859 13.5239 5.83594 13.3247C5.08453 13.0805 4.48734 12.9511 4.53937 12.5363C4.56609 12.3202 4.86375 12.0994 5.43187 11.8734C8.93016 10.3491 11.2627 9.34453 12.4298 8.85891C15.7626 7.47286 16.455 7.23187 16.9064 7.22391C17.4718 7.21392 17.6082 7.68061 17.5622 8.16094Z" fill="#E0E0E0"/>
</svg>
