<?xml version="1.0" encoding="utf-8"?>
<!-- Generator: Adobe Illustrator 26.1.0, SVG Export Plug-In . SVG Version: 6.00 Build 0)  -->
<svg version="1.1" id="Layer_1" xmlns="http://www.w3.org/2000/svg" xmlns:xlink="http://www.w3.org/1999/xlink" x="0px" y="0px"
	 viewBox="0 0 1589.7 200" style="enable-background:new 0 0 1589.7 200;" xml:space="preserve">
<style type="text/css">
	.st0{fill:#FFE6BB;}
</style>
<g id="Layer_2_00000065060806365782014670000014533219143020374400_">
	<g id="Rough_Logos_textured_">
		<g id="Trident_Wordmark">
			<path class="st0" d="M1016,91.2c-4.6-0.1-4.8-0.2-5.1-4.6c0.1-1.4,0-2.8-0.3-4.2c-0.4-1.3-1.7-2.3-2-3.6
				c-0.3-1.3,2.1-1.5,1.6-3.3c-0.4-1.2,0.3-2.6-1.4-3.5c-0.7-0.4-0.8-1.8-1.1-2.9h1.6c0.4-1.5,0.5-3.1,0.3-4.7
				c-0.2-0.8-1.7-1.3,0-2.2c1-0.6,1.5-1.8,1.2-2.9c-0.5-2.9-0.3-6-1.5-8.8l0,0l-0.4-0.3l0,0c-0.7-0.5-0.7-0.6,0-1.1l0,0l0.4-0.3l0,0
				c0-2.4,1.8-4.8-0.3-7.2c-0.9-1.1-1-2.8-0.1-4c2.2-3.6,1.7-7.6,1.7-11.5s-2.8-5.2-5.5-3c-1.4,1.2-2.2,1.1-3.2-0.5
				c-0.3-0.4-1.5-0.4-2.3-0.3c-1.4,0.2-2.7,0.6-4,0.9c-0.3-0.4-0.7-1-1-1c-5.1,0-10.1,0-15.2,0c-0.6,0.5-1.3,0.8-2,1.2l0,0
				c0.5,0.2,1.4,0.2,1.5,0.5c0.6,1.1-0.7,1.1-1.2,1.5c-1.6,0.8-2.5,2.5-2.3,4.2c0.2,2,0.5,3.9,0.7,5.8c0,0.8,0.4,2.1,0.1,2.3
				c-2.9,1.7-0.6,4-0.8,6s1.4,3.9,0.3,5.8c-1.6,2.7-0.8,5.4-0.5,8.1c0.7,2.5,0.4,5.1-0.8,7.4c-0.3,0.5-0.4,1-0.3,1.6
				c1.8,2.8,0.6,5.4-0.1,8.1c-0.3,1.4-0.2,2.8,0.3,4.2c0.5,1.6,1.9,3.1,1.9,4.7s-1.3,2.9-2,4.4c-0.1,0.3-0.1,0.6,0,0.8
				c1.3,2.5-0.2,2.7-2.2,2.9s-3.3,0.6-5,0.6c-1.7,0-3.8-0.6-5.7-0.6c-4.8,0-9.6,0-14.5,0.1c-2.9,1.8-5.4,0-8-1.1
				c-1.7-0.5-2.8-2.1-2.8-3.8c0.1-2.5-0.1-5.1-0.6-7.6c-1.1-3.1,1.1-5.3,1.2-8c0-0.5,0-1.1,0-1.6c-0.8-4.1-1.4-8.3-1.6-12.5
				c0-2.7-0.8-5.5,0.4-8.1c-1.3-2.8-1.3-6.1,0-8.9c0.3-1.1-0.3-2.4-1.4-2.7c-0.7-0.4-1.2-1-1.5-1.7c0-0.5,0.2-1,0.6-1.3
				c0.9-0.1,2.3,1,2.3-1c0-3.7,0-7.4,0-11c0.3-2.7-1.4-5.1-4-5.9c-0.4-0.1-0.7-0.9-0.7-1.4c0-1.2,1.1-0.7,1.8-0.8
				c0.8-0.1,1.5-0.5,2-1.1c0.9-1.4-0.2-5.8-1.7-6c-3.1-0.4-6.3-3-9.4,0c-0.8,0.8-1.6,0-2.2-0.5c-0.9-1.1-2.6-1.4-3.8-0.6
				c-1.3,0.9-3.1,0.6-4-0.7c-0.1-0.1-0.2-0.3-0.2-0.4c-1,0.2-2.7,0.9-2.9,0.6c-1.4-2.4-2.6-1.1-4,0c-0.3,0.2-1,0-1.4-0.2
				c-4-1.7-4.8-1.5-5.4,1.8c-0.6,1.8-0.9,3.8-0.8,5.7c0.6,2.7-0.7,5.5,0.6,8s-1.3,5.2-0.4,8.2c0.7,2.1-0.5,4.7,0,7.3
				c0.5,2.6-0.5,5.5-0.9,8.3c-0.2,1-0.3,2.1-0.3,3.1c0.7,5.8,1.4,11.6,2.1,17.3c0.2,0.8,0.2,1.7,0,2.5c-1.6,3.1,0.4,6.5-1.1,9.7
				c-0.8,1.5-0.2,3.4,1.2,4.3c-0.2,1-0.7,2.7-0.5,2.8c2.3,1.1,1,2.6,0.6,4c1.3,0.6,1.3,1.2,0,1.7c-0.4,1-1.3,2.1-1.1,3
				c0.6,2.8-0.8,5.6,0,8.3c0.8,3.1-0.3,17.3-0.2,20.3c0.1,0.8,0.2,1.7,0.4,2.5c0.1,0.3,0.1,0.7,0.1,1c0.5,0.9,1.2,1.7,2,2.4
				c0.4,0.3,0.8,0.6,1.3,0.8c0.5,0,0.9-0.1,1.3-0.3c0.7-0.4,1.6-0.5,2.4-0.4v-0.1c0.3,0.1,0.6,0.2,0.8,0.4v-0.4
				c0.7,0.3,1.4,0.7,2,1.2h2.7c0.3-0.4,0.7-1,1.2-1.8c1-1.3,2.2-2.5,3.6-3.4c0.8-0.2,1.6,0,2.1,0.6c0.8,1.5,1.5,3,2,4.6
				c0.1,0.3,0.3,0.6,0.4,0.9c1,0,2,0.2,2.9,0.4c1.7,0,3.4,0,5.1,0.2c0-0.1,0-0.2,0-0.4c-0.7-0.3-1.4-0.8-2-1.4
				c-0.3-0.4-0.4-1-0.4-1.5c0.2,0,0.4-0.1,0.5-0.1c0.3-0.1,0.6-0.5,0.9-0.8c-0.3,0-0.7-0.1-1-0.1c0.4-0.4,1-0.6,1.7-0.6
				c1.1,0.2,2.2,0.4,3.3,0.7c0-0.7,0.2-1.1,0.3-1c1.1,0.5,2.4,0.1,2.9-0.9c0.3-0.4,0.5,0.1,0.8,1.1l0.3,0.1c0.8,0.5,1,1.5,0.6,2.2
				l-0.3,0.4c0.1,1,0.4,2,0.7,3l0,0c0-0.1,0-0.1,0-0.2c0.4-1.7,1.8-2.9,3.5-3c1.4-0.3,0.4-1-0.2-1.5c-0.2-0.2-0.4-0.4-0.6-0.6
				c0.4-0.3,0.8-0.8,1.1-0.8c1.1,0,2.2,0.4,3.1,1c0.4,0.4,0.9,0.7,1.4,1l-0.3,0.2c-0.1,0.2-0.2,0.4-0.2,0.7c0.4,0.2,1,0.6,1.3,0.5
				c0.3-0.2,0.7-0.4,1-0.6c1.9,0.5,3.9,0,5.4-1.4c0.7-0.7,1.9-0.8,2.7-0.3c-0.1,0.1-0.2,0.2-0.3,0.3c-0.3,0.5-0.4,1-0.2,1.5
				c0.2,1.1,1.3,1.9,2.4,1.8c1.1-0.2,2.1-0.4,3.2-0.8c0.4,0.3,0.8,0.5,1.3,0.6c0.3,0.3,0.5,0.3,0.8,0c0.4-0.1,0.8-0.2,1.2-0.4
				c1.3,0.5,2.7,0.6,4,0.1c3.1,2,4.6-0.4,6.2-2.3c0.1-0.1,0.1-0.2,0.1-0.3c3.6-0.4,4-0.2,7.8,3l0,0l0,0c0.4-0.2,0.7-0.5,1.1-0.8
				c0,0.3,0,0.5,0,0.8c1.8,0,3.5,0,5.3-0.2c0.2-0.4,0.5-0.8,0.7-1.2c0,0.1,0.1,0.2,0.2,0.4c0.1,0.1,0.4,0.1,0.6,0.2l-0.7-0.6l0,0
				l0,0c0-0.1,0-0.1,0-0.2h-0.1l0.1,0.1c-0.2-0.1-0.4-0.2-0.7-0.3h0.5c0-0.5,0-1,0.1-1.6l1.3,0.1c-0.4,0.5-0.7,1.1-1.1,1.7
				c0.4,0.1,0.9,0.3,1.2,0.4c1-0.1,1.9-0.3,2.8-0.7c0.5,0.5,1.2,0.8,1.9,1c1.4-0.1,2.8-0.5,4-1.2c0.7-0.4,1.5-0.8,2.1-1.3v0.4
				c0.2,0.9,0.8,1.2,1.7,0.8c0.5-0.2,0.9-0.4,1.4-0.6s0.4-0.9,0.6-1.3v-0.2c1.1,0.2,2.3,0.6,3.4,0.7h0.3c0.3,0.2,0.7,0.3,1.1,0.3
				c0.2,0,0.4-0.1,0.6-0.2c1.1,0.1,2.1,0,3.2-0.2h0.5c0,0.1-0.1,0.2-0.2,0.3c0.2,0.2,0.5,0.3,0.7,0.4c1.3,0.4,2.6,0.8,4,1.1
				c0.2,0,0.9-0.8,0.8-1c-0.1-0.2-0.2-0.4-0.4-0.7c0.6,0.3,1.1,0.6,1.5,1.1c0.6,0.5,1.4,0.7,2.2,0.6l0.4,0.8l0.7-0.8
				c2.2-0.3,4.6-1.6,6.5-1c2.3,0.7,4-0.6,6-0.7c-0.3,0.3-0.8,0.7-0.7,0.8c0.4,0.5,0.8,1,1.3,1.4l0.9-0.6l-1.3-1.7h0.4l-0.1,0.1
				l0.1-0.1l1.6-1.6v-0.2h0.1l0,0c0-0.3,0-0.7,0-1v-0.1c0-0.1,0-0.3,0-0.4c0-0.1,0.1-0.2,0.2-0.2l0,0c0.1-0.1,0.3-0.3,0.5-0.4
				l0.3-0.2c0,0,0,0.1,0,0.2c0,0.5,0.3,0.9,0.1,1.3c0,0.1-0.1,0.2-0.2,0.3l0,0c-0.3,0.2-0.6,0.4-0.9,0.6v0.1l0,0l0.1,1.6
				c1.2,0.3,2.4,0.7,3.6,0.9c0.7,0.2,2,0.4,2.1,0c0.5-0.8,0.8-1.7,1-2.6c1.6,1.2,2.7,3.4,5.4,1.8c1.2-0.7,2.7,0.2,3.8,1.3
				c1.4,1.4,2.3,1,3.1-0.6c2.6-0.2,5.2-1.4,8,0.4c1.7,1.2,3.5,1.4,4.6-1c0.2-0.4,1-0.5,1.4-0.8c1.8-1,2.2-0.8,2.8,2
				c1.8-0.4,3.6-2.9,5.3,0.3c0.5,1.1,1.4,0.5,2,0c0.5-0.6,0.9-1.3,1.2-2l0,0l-0.4-0.3l0,0l-0.2-0.2l0,0l-0.1-0.1l0,0
				c-0.2-0.3,0.2-0.5,1-1.1l0,0c0.3-0.3,0.6-0.5,1-0.8c0.1-0.1,0.3-0.2,0.5-0.3c0.2-0.1,0.5-0.2,0.8-0.2c0.1,0,0.2,0,0.3,0
				c0.1,0.1,0.2,0.1,0.2,0.2c0.1,0.1,0.1,0.2,0.2,0.3c0,0.1,0,0.3,0,0.4c0,0.1,0,0.1,0,0.2c0,0,0,0.1,0,0.2c0,0.1,0,0.1,0,0.2
				c0,0,0,0.1,0,0.1c0,0.1,0,0.1,0,0.2l0,0c0,0.1-0.1,0.2-0.1,0.2l0,0c-0.1,0.1-0.1,0.2-0.2,0.2l0,0c-0.1,0.1-0.2,0.1-0.3,0.2l0,0
				l-0.4,0.2l0,0c0.6,0.5,1.4,1.3,1.7,1.2c1-0.3,2.4-1.1,2.4-1.9c0.2-2,0.2-15.4-1-17.3c-0.2-0.4-0.5-0.7-0.6-1.1
				c2.3-1.4,1.6-4,2-5.8c0.3-2.5,0.4-5,0.2-7.6c0-2.3-1.5-4.3-3.7-5c-0.4-0.2-1-1-0.9-1.3c0.5-1,1.3-0.5,2.1-0.4
				c1.6,0.2,2-0.2,2-1.5c0.2-1.7-0.6-3.4-2-4.3c-1.1-0.6-0.4-1.4,0.4-1.8c1.1-0.5,1.6-1.7,1.2-2.8c-0.5-1.9-1.3-3.7-1.9-5.5
				c-0.1-0.5,0-1,0.3-1.4c2.3-1.3,1.9-3.1,1.3-5.1c-0.4-1.3-1.2-3.3-0.6-4c2-2.4,0.5-5,0.5-7.3c0.1-3.7,1-7.6-1-11.1l0,0
				c-1.4-0.6-1.4-1.2,0-1.8l0,0c1.8-3.1,1.8-3.1,1.4-7.5c-0.2-2,0-4-0.3-6c0-0.7-0.8-1.2-1.2-1.8l0,0h-0.3l0,0l-0.7,0.8V25
				c0-0.1,0-0.2,0-0.3l0,0l0,0l0.2-0.1l0,0h0.2l0,0l0.2-0.2l0.1,0.1c0.5-1.4,0.9-2.8,0.9-4.3c-1-4.4-1-9,0-13.4c0-0.2-0.6-1-1-1
				c-4.2,0-8.4,0.2-12.7,0.3c-0.8,0.2-1.6,0.2-2.4,0.2c-3.9-0.9-7.9-0.9-11.8,0.1c-1.1,0.1-2.1-0.1-3.1-0.4c-4.7-0.8-6,0.4-5.1,4.7
				c0.4,2,1,3.8,1.3,5.8c0.2,1.7-0.4,3.7,0.4,5c1.7,2.7-1.6,3.1-1.7,4.9c0,0.6-0.3,1.2-0.1,1.7c1.4,3.7,1.4,7.8,0.1,11.5
				c-0.3,1.4-0.2,2.8,0.3,4.2c1.1,3.2-0.6,6.6,0.8,9.7c-1.7,2.9,0,6.1-0.7,9c-0.9,3.3,1,6.6,0,9.9c-0.4,1.4,0.8,3.2,1.2,4.8v-0.1
				v0.1h1.1h0.4l0,0l0,0c0.1,0.1,0.2,0.1,0.3,0.2c0.1,0,0.2,0.2,0.3,0.3l0.2,0.3c-0.4,0-0.8,0.2-1.2,0.2c-0.1,0-0.2,0-0.3,0l0,0
				c-0.1,0-0.2-0.1-0.2-0.2l0,0l-0.2-0.3l0,0l-0.2-0.3l-0.2-0.4h-0.1c-0.4,0.6-1.2,1.4-1.1,1.8c0.4,1.3,1.7,2.4,1.8,3.6
				c0.1,1.2-1.3,2.1-1.8,3.3c-0.2,0.4,0.2,1.1,0.4,1.6c0.7,1.5-0.6,2-1.4,2.6c-3.8,0.8-7.6,1.3-11.4,1.7
				C1032.2,90.6,1024.1,91.3,1016,91.2z M901.3,80.7v0.2c0,0.1-0.1,0.1-0.1,0.2c-0.1,0-0.1,0.1-0.2,0.1l0,0h-0.2l0,0l-0.2,0.2
				l-0.1-0.1l0.3-0.1l0,0l0.7-0.7l0,0C901.5,80.5,901.3,80.7,901.3,80.7z M906.4,48v0.4l-0.4-0.3L906.4,48z M906.7,99.3v0.3
				l-0.2-0.2l-0.2-0.1l0.5-0.2L906.7,99.3z M906.1,62.1v-0.4l0.4,0.3L906.1,62.1z M909.8,109.9v-0.4l0.4,0.3L909.8,109.9z
				 M909.6,74.1v-0.4l0,0L910,74L909.6,74.1z M921.5,97.9c-0.2,0.1-0.3,0.2-0.5,0.3c-0.5,0-1,0.1-1.5,0.2l0,0l0,0l0,0
				c-0.6,1.8-1.8,2-3.2,1.6h-0.2h-0.1l-0.3-0.1h-0.1c-0.2-0.1-0.4-0.3-0.4-0.5c0,0,0-0.2,0.2-0.3l0,0c0.1-0.1,0.2-0.2,0.3-0.2l0,0
				c0.6-0.1,1.3-0.1,2-0.2h0.7h1.2l0,0l0,0c0-0.5,0-0.9,0-1.4v-0.3h-0.3l-0.1-0.1l0,0h-0.9c-0.4,0-0.7-0.1-1.1-0.1H917
				c-0.1-0.1-0.3-0.3-0.4-0.5c0.4-0.2,0.9-0.7,1.1-0.6l0,0c0.1,0.1,0.3,0.2,0.4,0.3l0,0c0,0,0.6,0.6,0.9,0.9h0.2v0.1l0,0
				c0.4,0,0.7,0,1.1,0h0.1h0.4l0,0c0.2,0.1,0.3,0.2,0.4,0.4c0.1,0.2,0.2,0.4,0.3,0.5L921.5,97.9z M921.4,16.4l-0.5-0.6
				c0.2-0.2,0.4-0.5,0.6-0.5c0.1,0,0.2,0.1,0.3,0.2l0.3,0.3L921.4,16.4z M924.3,128.8C924.3,128.8,924.3,128.8,924.3,128.8
				c0,0.2-0.3,0.3-0.5,0.5l0,0c-0.1-0.3-0.3-0.7-0.4-1c0-0.1,0-0.2,0-0.3l0,0l0,0l0,0l0,0l0.3-0.2v0.1c0.2,0.4,0.4,0.8,0.5,1.3
				L924.3,128.8z M926.5,56.9l0.3-0.4L927,57L926.5,56.9z M928.9,104.8c0,0-0.1,0-0.1,0c0,0-0.1,0-0.1,0c-0.1,0-0.2-0.3-0.3-0.4h1
				C929.2,104.5,929,104.6,928.9,104.8L928.9,104.8z M931.8,43.2h-0.2l0.3-0.4l0,0V43l0.1,0.3L931.8,43.2z M932.4,40.1
				c-0.1,0-0.2-0.1-0.3-0.3l-0.2-0.2l0.3-0.2c0.3-0.1,0.6-0.2,0.9-0.3h0.2l0,0c0,0,0.1,0.1,0.1,0.1l0.3,0.4l0,0
				C933.2,39.9,932.7,40,932.4,40.1L932.4,40.1z M933.6,85.9v-0.4l0.3,0.2l0.1,0.1L933.6,85.9z M933.7,65.6l-0.2,0.1l-0.2-0.3
				l-0.2-0.3l0.2-0.2c0.1-0.1,0.2-0.1,0.3-0.2l0,0c0.1,0,0.2,0.1,0.3,0.2c0,0.1,0.1,0.2,0.2,0.3L933.7,65.6z M945.8,107.8
				c0,0,0,0.2,0,0.2c0,0.1-0.1,0.1-0.1,0.2h-0.2l0,0h-0.2l0,0l-0.2,0.2h-0.3l-0.2,0.2l-0.5,0.6l0,0c0-0.2,0.1-0.4,0.2-0.5
				c0.1-0.1,0.1-0.1,0.2-0.1l0,0h0.2l0.2-0.2l0,0l0,0l0.3-0.1l0.6-0.7c0,0-0.2,0.1-0.2,0.2L945.8,107.8z M967.8,122.5V122l0.2,0.1
				l0.2,0.2L967.8,122.5z M979.3,65h0.3h0.2v0.5l-0.2-0.2L979.3,65z M981.3,89.6h-0.1l-0.4,0.1l-0.5,0.5l-0.5,0.4l0,0
				c0-0.2,0-0.5,0.2-0.6c0.2-0.2,0.5-0.3,0.7-0.4l0,0c0.3-0.4,0.6-0.8,0.8-1.3c0.1,0.1,0.2,0.3,0.3,0.4c0.1,0.1,0.1,0.2,0.1,0.3
				c-0.1,0.2-0.4,0.4-0.8,0.5L981.3,89.6z M984.8,42.9h-0.4l0.3-0.4l0.1,0.3L984.8,42.9L984.8,42.9z M989.3,126.4l-0.1-0.3l-0.8-0.7
				c0.2,0,0.3,0.1,0.5,0.1c0,0,0.1,0,0.1,0l0,0l0.1,0.2l0,0v0.2l0,0l0.2,0.2L989.3,126.4z M992.8,63.2l-1,0.3l0,0l-0.2-0.9
				c-0.1-0.2-0.1-0.4-0.1-0.6c0-0.2,0-0.3,0-0.5l0,0c0.2-0.2,1-0.5,1.2-0.4c0.4,0.3,0.8,0.8,1.1,1.2c0.1,0.2,0.3,0.4,0.5,0.6
				L992.8,63.2z M994.8,70.1l0.3-0.4l0.2,0.5L994.8,70.1z M995.5,23.2L995.5,23.2c-0.1,0.3-0.3,0.6-0.5,0.8l0,0
				c-0.1,0.1-0.2,0.2-0.3,0.2l0,0c-0.1,0-0.2,0-0.3,0h-0.3l-0.6-0.1h-0.3l0.2-0.2c0-0.1,0.1-0.1,0.1-0.2l0.1-0.1
				c0.1-0.1,0.2-0.2,0.4-0.3l0,0h0.4h0.3L995.5,23.2L995.5,23.2l0.1,0.1L995.5,23.2z M996.7,73.5h-0.4l0.2-0.2l0.1-0.2v0.2
				L996.7,73.5L996.7,73.5z M999.6,27.5V27l0.4,0.3L999.6,27.5z M1002.3,53.4c0,0.1,0,0.3,0,0.4c0,0.1,0,0.1,0,0.2
				c-0.1,0.2-0.3,0.3-0.4,0.5s-0.2-0.2-0.3-0.3l-0.1-0.1l-0.1-0.1l-0.2-0.2v-0.1c0,0,0-0.1,0-0.1c-0.1-1.1-0.1-2.1,0-3.2
				c0-0.1,0-0.1,0-0.2c0.1-0.2,0.3-0.3,0.4-0.5l0,0c0.3,0.3,0.7,0.6,0.9,1c0.1,0.5,0.2,1.1,0.1,1.6
				C1002.4,52.6,1002.4,53,1002.3,53.4L1002.3,53.4z M1003.5,69.9v0.2l0,0l-0.3-0.2h0.2l0.3-0.1L1003.5,69.9z M1005.3,73v0.2v0.3
				l-0.4-0.3L1005.3,73z M1004.9,80.2l0.3-0.5l0.2,0.5L1004.9,80.2z M1006.5,28.8v-0.3l0,0v-0.1l0,0l0,0h0.1c0.2,0,0.3-0.1,0.5-0.1
				l0.1-0.2h0.2l0.4-0.7l0.2-0.3l0.2,0.3l0,0c0,0.1,0,0.1,0,0.2l0,0c0,0,0,0.1,0,0.1l0,0c0,0,0,0.1,0,0.1l0,0h-0.1l0,0h-0.2h-0.4
				l0,0V28l0,0c0,0-0.1,0.1-0.2,0.1l-0.2,0.4l-0.3,0.6c0-0.1-0.1-0.1-0.1-0.2l0,0v-0.1L1006.5,28.8z M1007.6,69c0,0,0-0.2-0.1-0.3
				l-0.6-0.5l-0.3-0.1h0.1h0.2h0.2c0,0,0.1,0,0.1,0l0.1,0.2l0,0v0.2l0.2,0.2L1007.6,69z M1083,7.9l0.5,0.3l-0.5,0.2L1083,7.9z
				 M1083.3,105.5l0.2-0.1l0.2-0.1l0,0c0.2,0.4,0.4,0.9,0.6,1.3l-0.5,0.4l0,0l0,0l-0.3-0.7c-0.1-0.2-0.2-0.4-0.2-0.7
				C1083.2,105.6,1083.2,105.6,1083.3,105.5z M1081.4,44.7l0.2-0.5l0.1-0.3l0.3,0.3l0.3,0.3l-0.3,0.8l-0.2,0.4
				c-0.2-0.1-0.3-0.3-0.5-0.4c0,0,0-0.1,0-0.1C1081.3,45,1081.3,44.9,1081.4,44.7L1081.4,44.7z M1076.8,69.5L1076.8,69.5
				c0.1,0,0.1,0,0.2,0h0.2h0.1l0,0v0.1l0,0c0,0,0,0,0,0.1c0,0.1,0,0.3,0,0.4l0.2,0.1c0,0.1,0,0.2,0,0.3l0.4,0.4l0.4,0.3
				c-0.2,0-0.5,0-0.6-0.2c0-0.1,0-0.1,0-0.2l0,0c0-0.1,0-0.1,0-0.2l0,0l-0.2-0.2c-0.1-0.1-0.1-0.1-0.1-0.2l0,0l-0.8-0.4l-0.1-0.1
				L1076.8,69.5z M1076.7,81.4l0.2-0.3v0.2l0.1,0.3h-0.4L1076.7,81.4z M1074.4,44.3l0.1-0.1l0,0l0.4-0.2l0,0c0.1,0.3,0.3,0.7,0.4,1
				c0,0.1,0,0.2,0,0.3l0,0c-0.1,0.1-0.3,0.2-0.5,0.3l0,0l-0.2-0.7C1074.4,44.7,1074.4,44.5,1074.4,44.3
				C1074.3,44.3,1074.3,44.3,1074.4,44.3z M1070.8,29.1c-0.3-0.1-0.6-0.2-0.9-0.3l-0.3-0.1l0,0l0.4-0.5l1,0.4l0.3,0.1
				C1071.2,28.8,1071,29.2,1070.8,29.1L1070.8,29.1z M1069.8,14.9c0.2-0.1,0.5-0.2,0.7-0.3h0.3c0,0,0,0,0.1,0l0,0l0,0
				c0,0.1,0.2,0.3,0.3,0.4l0,0c-0.4,0.2-0.9,0.4-1.3,0.5l0,0l-0.1-0.1l-0.2-0.3l0,0L1069.8,14.9z M1068.1,23.3v0.3v0.3l-0.2-0.2
				l-0.2-0.2L1068.1,23.3z M1059.8,45.5l-0.2,0.1l-0.2,0.1l-0.2-0.6c-0.1-0.2-0.2-0.4-0.2-0.7c0,0,0-0.1,0-0.1
				c0.1-0.1,0.3-0.3,0.5-0.4l0,0c0.2,0.4,0.3,0.9,0.4,1.3C1059.9,45.3,1059.9,45.4,1059.8,45.5L1059.8,45.5z M1064.3,72.6l0.1,0.2
				l0.2,0.3l0,0c-0.3,0.1-0.6,0.2-1,0.3h-0.3l0,0c-0.1-0.1-0.3-0.3-0.4-0.5c0.4-0.2,0.8-0.3,1.3-0.4
				C1064.3,72.5,1064.3,72.5,1064.3,72.6z M1062.8,68L1062.8,68l0.3-0.4l0.2,0.5L1062.8,68z M1062.8,52.7h-0.2l0,0l0.2-0.3l0.2,0.5
				L1062.8,52.7z M1062.8,18.5v0.2l-0.4-0.3h0.1l0.4-0.1L1062.8,18.5z M1061.1,11.5l0.4-0.1c0.2-0.1,0.5-0.2,0.8-0.2l0,0l0,0
				l0.1,0.1l0,0l0.3,0.4l0,0c-0.4,0.2-0.8,0.3-1.2,0.5h-0.2l0,0c0,0-0.2-0.2-0.3-0.3s-0.1-0.2-0.2-0.3L1061.1,11.5z M1060.7,40.3
				l0.5,0.2c0.1,0,0.1,0,0.2,0c-0.4,0.1-0.7,0.3-1.1,0.4h-0.3c-0.1,0-0.3-0.4-0.5-0.6c0.1-0.2,0.3-0.3,0.5-0.4c0,0,0.1,0,0.1,0
				C1060.2,40,1060.4,40.1,1060.7,40.3z M1058.4,14.6l0.4,0.2c0.4,0.2,0.9,0.5,1.3,0.8l-0.2,0.4l-0.5,0.8l-0.1,0.2l-0.6-0.6
				c-0.3-0.3-0.6-0.6-0.9-1C1057.7,15.4,1058.4,14.6,1058.4,14.6z M1044.2,122.6c0-0.1,0-0.1,0-0.2c0-0.2,0-0.4,0.1-0.6l0.4,0.3
				c0.2,0.2,0.4,0.3,0.5,0.6c0,0.1,0,0.3,0,0.4l0,0c0,0.1,0,0.2,0,0.3l0,0c0,0.2,0,0.4,0,0.6h0.1l-0.1,0.1v-0.2l0,0
				c-0.3-0.2-0.6-0.3-0.8-0.5l0,0c-0.1-0.1-0.2-0.2-0.2-0.3C1044.1,123,1044.2,122.8,1044.2,122.6z"/>
			<path class="st0" d="M260.8,35.8c0,0.9,1.6,1.6,1.6,2.5c0.1,0.9-0.8,2-1.1,3.1c-0.4,1-0.6,2.1-0.7,3.2c0,0.3,0.7,0.7,1.1,1.1
				l0.8-1.2c1,1.2-0.3,0.9-0.8,1.2c-1,2-1.5,4.2-1.4,6.5c0.3,4.2,1.3,8.4,0.7,12.4c-1.1,6.7,0.7,13.3-0.4,20
				c-0.4,1.4,0.2,2.9,1.4,3.7c-0.4,2-1.6,3.5-1.3,5.7c0.4,3.6,1.3,7.5,0.5,10.9c-0.5,2.8-0.5,5.7-0.1,8.5c-0.3,0.7-0.4,1.4-0.4,2.1
				c0,4,0.3,43.7,0.3,47.6s0.8,7.7,0.2,11.6c-0.2,1.2,0.9,2.6,1.4,4l2.5,2c-0.5,0.6-1,1.1-1.5,1.7c-2.2,2.3-2.9,5.6-1.8,8.6
				c1,2.7,0.6,2.9,3.3,1.7c1.2-0.7,2.5-1.3,3.8-1.8c0.8-0.1,1.6,0.2,2.1,0.8c0.9,1.9,3.1,2.7,5,2c2.1-0.5,4.2-2,6.4-0.2
				c5,0,10.1,0,15.2-0.3c0.6,0,1.7-1.3,1.6-1.7c-0.8-2.3,0.5-4.4,0.9-6.5c0.3-2.7,0.3-5.5,0-8.2c1-0.5,1.5-1.7,1.2-2.8
				c-1.5-4-1.6-8.4-0.3-12.4c0-0.2,0-0.7-0.1-0.8c-1.8-1.1-1.3-29.8-1.5-38.4l1.1,0.8l0.8-1.4c0-0.2,0.1-0.5,0-0.7
				c-0.4-0.6-0.8-1.2-1.4-1.6c-0.1,0-0.5,0-0.8,0.2c-0.2-1.2-0.1-2.4,0.3-3.6c1.6-0.5,2.7,0,6.6,2c1.7,1.2,4,0.9,5.3-0.7
				c0.7-1.5,2.5-2.1,3.9-1.4c0.1,0,0.1,0.1,0.2,0.1c2.1,0.5,4.3,0.8,6.5,0.8c0.6-1.3,1.2-1.4,1.8,0c0.4,0.3,1.1,0.6,1.2,0.9
				c0.7,3,0.8,3.5,2.4,2.8c3.6,7.6,15.8,34.7,18.7,38.8c1.4,2.4,2.6,5,3.5,7.7c2,4.6,4,9.2,6,13.8c0.7,1.5,2.3,2.4,4,2.3
				c-0.3,0.8-1,1.7-0.8,2.2c1.1,1.9,2.3,3.6,3.7,5.2c0.2,0.2,1.6-3.1,2.3,0.1c0.3,1.6,1.2,2.6,2.8,2.5c2.5-0.1,5-1.1,7.4-0.6
				c2.7,0.8,5.6,0.5,8.1-0.9c0.8-0.3,1.7-0.3,2.5,0c5.7,2.6,11.7,0.9,17.5,1.2c1.3,0.2,2.4-0.7,2.6-2c0-0.2,0-0.4,0-0.7
				c-0.2-2.2,0.1-4.5-2.3-6c-1.2-0.8-1.9-2.1-2-3.5c0.2-3.8-2.3-6.2-4.3-8.7c-2.9-3.8-5.3-8-7.1-12.4c-0.5-1.3-1.2-2.5-2.1-3.5
				c-0.9-1-2.6-1.5-3.2-2.6c-0.7-1.1-12.3-29-13.4-30.5c-0.8-1.2-1.4-2.4-2-3.7c-0.8-1.6-2.7,0.3-3.6-1.1l-0.4-0.7
				c0.8-0.6,1.7-1.3,2.4-2c1.3-1,2.4-2.2,3.4-3.6c1.1-2.3,3.5-0.7,5-2.2c1.1-0.8,1.9-2,2.3-3.3c0.3-1.7,1.7-3.1,3.5-3.3
				c2.5,0,1.6-2.4,2.6-3.4c3.7-3.4,6.3-7.9,7.5-12.8c0.1-1.3,0.3-2.7,0.5-4c0.5-1.2,2-1.8,3-2.8c0.3-0.4,0.7-1.1,0.6-1.5
				c-1.4-3.7,0.8-7.1,0.6-10.8c0.1-1.9,0.4-3.8,1-5.6c2.5-1.3,1.7-3,0.8-5c-1-2.3-1.7-4.7-2.1-7.2c-1.3-7.8-4.2-15.2-8.4-21.9
				c-2.8-4.9-6.8-9-11.6-11.9c-1.2-0.7-2.3-1.6-3.5-2.3c-0.8-0.7-2.1-0.7-2.8,0.2c-0.1,0.1-0.1,0.1-0.2,0.2
				c-0.4,0.3-0.9,0.6-1.4,0.9c-0.4-0.6-0.7-1.3-0.9-2c0-0.8,0.5-1.7,0.4-2.5c-0.2-1.6-1.7-1-2.6-1.3C360,7.9,354.7,7,349.9,4.7
				c-0.5-0.2-1.1-0.3-1.7-0.3l0,0h-0.1v0.1c-0.5,0.6-0.9,1.4-1.5,1.5c-2.2,0.6-4.5,0-6.1-1.6c-2-2.1-4-0.7-6,0.1
				c-1.8,2.7-1.8,2.7-4.6,2c-0.7-0.2-1.5-0.3-2.2-0.3c-0.1-1-0.4-1.9-0.9-2.7c-0.8-0.8-1.9-0.2-2.8,0.4c-0.4,0.3-0.9,0.5-1.4,0.7
				c-1.7,1.7-1.7,1.8-3.4,0c-1-0.5-2-0.9-3.1-1.2c-0.5,0-0.9,0.2-1.3,0.5c0.6,2-0.1,2.5-2,2c-0.8-0.2-1.6-0.3-2.3-0.2
				c-2.4,0.5-4.9-0.4-6.4-2.3c-0.9-1.2-2.5-1.7-4.1,0.3c-0.9,1.2-1.1-1.5-2.2-1.5c-2.2-0.4-4.4-0.4-6.6,0c-2.9,1-6.1,1-9,0
				c-2-0.7-1.8,1.4-2.1,2.7c1.6,0,3.3-0.3,4.6,1c0.2,0.2,0.2,0.5,0.1,0.8c-0.2,0.3-0.7,0.9-0.8,0.9c-1.5-0.6-3.2-0.8-4-2.5h-3.4
				c-0.8,1.3-0.9,1.3-1.7,0c-2.1,0.3-3.5-1.1-5-2.3c-1.1-0.8-2.6-1-3.9-0.6c-0.6,0.2-0.6,0.6,0.2,1s1.6,0.7,0.9,1.8
				c-0.4,0.9-1.5,1.4-2.5,0.9c-0.1,0-0.2-0.1-0.2-0.1c-0.4-0.2-0.9-0.4-1.4-0.6c-0.9,2-2.2,4-1.5,6.2c1,2,0.7,4.4-0.8,6.1
				c-0.8,0.9,0.3,3.2-0.1,4.7C259.2,26.5,260.4,31.2,260.8,35.8z M386.6,177.7h0.1c0-0.5,0-1,0.1-1.5c0.2-0.4,0.6-0.7,0.9-1l1.6,1.6
				l0,0c-0.3,0.2-0.6,0.5-0.9,0.6c-0.1,0.1-0.2,0.1-0.3,0.1c-0.5,0.1-1,0.1-1.5,0.1c0,0,0,0.1,0,0.1l-0.3,0.1L386.6,177.7z
				 M386,178.2c0.1-0.1,0.3-0.2,0.4-0.2c-0.2,0.3-0.4,0.5-0.6,0.7C385.8,178.5,385.8,178.3,386,178.2z M379.4,163.5
				c0.1,0.2,0.2,0.4,0.2,0.6h0.1c0,0,0,0.1,0,0.1l1.2,0.7c-1.2,1-1-0.1-1.2-0.7l0,0l0,0v-0.2l-0.8-0.8
				C379,163.4,379.3,163.4,379.4,163.5z M369.6,174.9c1,0.4,1.9,0.9,2.8,1.4c-0.6,0.6-0.9,1.2-1.2,1.2c-1.1,0.1-2.1-0.7-2.4-1.7
				C368.7,175.6,369.5,174.8,369.6,174.9L369.6,174.9z M382.9,33.8c0.4,0.5,0.9,0.8,0.9,1.1c0,0.6-0.4,1.1-1,1.2
				c-0.3,0-0.6-0.1-0.8-0.2l-0.3-0.1L382.9,33.8z M379,56.8l0.2,0.1c0,0.1,0,0.1,0,0.2l1,0.6c-1,0.8-0.9-0.1-1-0.6h-0.2
				C379,57,379,56.9,379,56.8l-1.1-0.4C379,55.5,378.9,56.4,379,56.8L379,56.8z M374.9,47.5c0.2,0.5,0.4,0.9,0.5,1.4l-0.6,0.5
				c-0.2-0.4-0.3-0.9-0.4-1.3C374.4,48,374.7,47.8,374.9,47.5L374.9,47.5z M369.2,30.1c0.1,0,0.3,0.3,0.5,0.5
				c-0.4,0.2-0.8,0.4-1.3,0.5c0,0-0.2,0-0.3-0.2l-0.2-0.3l0,0C368.3,30.4,368.8,30.2,369.2,30.1L369.2,30.1z M368.3,86.7
				c0.2,0.4,0.4,0.8,0.5,1.3l0,0c-0.2,0.1-0.3,0.3-0.5,0.4l0,0c-0.2-0.4-0.4-0.8-0.5-1.3C367.8,87.1,368.1,86.9,368.3,86.7
				L368.3,86.7z M365,103.5l0.2,0.5h-0.5L365,103.5z M363,11.7v0.5l-0.4-0.3L363,11.7z M299.5,175.8c0.1,0.2,0.2,0.4,0.2,0.6
				l0.1,0.1l0,0v-0.2l-0.8-0.8C299.1,175.7,299.4,175.7,299.5,175.8z M300,92.5v-0.4l0.4,0.3L300,92.5z M330.8,119.4l-0.2-0.6h0.6
				L330.8,119.4z M340.1,119.8c-1.9,1.3-4.4,1-6-0.7c-0.5-0.6-0.4-1.5,0.2-2.1c0,0,0,0,0.1-0.1c0.8-0.2,1.6-0.4,2.4-0.5l-0.1-0.1
				c0.7,0.6,1.5,1.2,2.2,1.8C339.3,118.6,339.8,119.2,340.1,119.8c2.7-2.2,5.2-1.5,7.5,0.4c0.1,0.1,0,1-0.4,1.2
				c-2.2,1.6-5.3,1.1-6.9-1.1C340.3,120.1,340.2,119.9,340.1,119.8L340.1,119.8z M348.5,157.7c0,0.2,0,0.4,0,0.5l-0.2-0.2
				c-0.2-0.1-0.3-0.2-0.5-0.4c-0.1-0.1-0.1-0.2-0.1-0.2c-0.1-0.5-0.2-0.9-0.2-1.4h-0.1c0-0.1,0-0.1,0-0.2l-1-0.5c1-0.7,0.9,0,1,0.5
				l0.2,0.1v0.2c0.4,0.2,0.8,0.5,1.1,0.9C348.7,157.2,348.6,157.5,348.5,157.7L348.5,157.7z M351.6,158.7l-0.2-0.5h0.4L351.6,158.7z
				 M360.1,182.7c-0.1,0.1-0.3,0.2-0.4,0.2l-0.2,0.2l-0.1-0.1h0.3l0.7-0.8C360.3,182.3,360.2,182.6,360.1,182.7L360.1,182.7z
				 M357.9,59.6h0.3c0.1,0,0.2,0.1,0.3,0.1c0.1,0.2,0.2,0.4,0.2,0.6l0.1,0.1l0.1,0.1c0.7,0.1,1.3,0.7,1.5,1.4l0.2,0.2
				c0,0.1,0,0.2,0,0.2l0.8,0.7c-0.2,0-0.5,0-0.6-0.2c-0.1-0.2-0.2-0.3-0.2-0.5l-0.2-0.1c0-0.1,0-0.2,0-0.2l-1.5-1.4h-0.2v-0.2
				l-0.8-0.8L357.9,59.6z M357.5,113.2l0.5-1C358.8,113.2,358,113.1,357.5,113.2l-0.1,0.2l0,0C357.4,113.3,357.4,113.2,357.5,113.2
				L357.5,113.2z M357.3,113.5L357.3,113.5z M357.3,118.7l0.6,0.3l0,0l0,0l-0.5,0.4l-1.2-0.6c0.2-0.2,0.4-0.5,0.6-0.5
				C357,118.4,357.2,118.5,357.3,118.7L357.3,118.7z M347,25.2L347,25.2c0.1,0.1,0.2,0.1,0.2,0.2l0.2,0.3l0,0
				c-0.3,0.1-0.7,0.3-1,0.4l-0.3,0.1c-0.1,0-0.3-0.3-0.5-0.5c0.5-0.3,1-0.5,1.5-0.7L347,25.2z M331.6,9.9L331.6,9.9L331.6,9.9
				l0.4,0.4l0,0c-0.3,0.1-0.7,0.3-1,0.4h-0.3c-0.1,0-0.3-0.3-0.5-0.5C330.7,10,331.2,9.9,331.6,9.9z M327.2,6.5
				c0.1-0.1,0.3-0.2,0.4-0.2l0.2-0.2l0.1,0.1l-0.3,0.1L326.9,7C327,6.9,327,6.6,327.2,6.5z M297.2,78.8c0.1,0.1,0.2,0.3,0.2,0.5
				l0.2,0.1l0,0c1.9-0.7,3.1-2.5,3-4.5c0.1-2.7-0.8-5.4,0-8.2c0.4-2.5,0.5-5,0.2-7.6c0-2.8-0.2-5.6-0.2-8.4s0.1-5,0-7.6
				c0-1.1-0.6-2.2-0.6-3.3c0-0.8,0.4-1.5,0.9-2c2.1-1.4,4.6-2,7.1-1.7c2.2,0.4,4.5,0.3,6.6-0.2c2-0.4,4.2,1,6.4-0.6
				c1.5-0.9,3.4-0.8,4.9,0.2c1.5,0.9,2.7,0,4-0.5l-0.1-0.1l0.3-0.1l0.2-0.2l0.4-0.5l0,0c0,0.1-0.1,0.2-0.1,0.3
				c0,0.1-0.1,0.2-0.1,0.3c-0.1,0.1-0.3,0.1-0.4,0.2l-0.2,0.2c0.6,0.5,1.2,1.2,1.7,1.2c4.5,0.1,8.8,1.7,12.2,4.7
				c1.3,1.1,2.8,1.8,4.2,2.7c2,1.4,4.2,2.6,4.6,5.5c0.1,0.8,2.2-0.5,2.4,1c0,0.7-0.6,1.5-0.7,2.3c-0.4,5-1,9.9,1,14.8h0.1
				c0,0.1,0,0.1,0,0.2l1.1,0.6c-1,0.7-0.9,0-1-0.6l-0.2-0.1l0,0c-2,1.2-0.8,3.7-2.2,5.1c-1.3,1-2,2.7-1.8,4.4c0.2,1-1.4,2.4-2.3,3.4
				c-1.4,1.4-3,2.6-4.4,4c-0.8,0.9,0.1,1.4,0.8,1.9c0.2,0.2,0.4,0.4,0.5,0.6c-0.3,0.4-0.8,1-1,0.9c-5.6-2-11.1,1.1-16.6,0.6
				c-4.3,2-8.8,0.7-13.2,0.5c-3.6-0.4-7.3-0.4-10.9,0c-2.2,0.4-5.5-2.6-4.7-4.6c1.2-2.8-1.6-3.1-2-4.7h-0.1v-0.2l-0.8-0.7
				C297,78.7,297.1,78.7,297.2,78.8z M293.4,96.9l0.5,0.6c-0.2,0.2-0.4,0.4-0.6,0.4c-0.2,0-0.3-0.3-0.5-0.5L293.4,96.9z
				 M292.8,115.2c0.2-0.3,0.4-0.6,0.6-1C294.1,115.2,293.3,115,292.8,115.2v0.2V115.2L292.8,115.2z M281.4,115
				c-0.1,0.1-0.3,0.2-0.4,0.2l-0.2,0.2l-0.1-0.1h0.3l0.7-0.8C281.5,114.6,281.5,114.9,281.4,115z M284.5,12.1l0.1,0.4h-0.4
				L284.5,12.1z M285.4,190.6h0.1c0.1,0.1,0.2,0.2,0.2,0.3l0.1,0.1l-0.6,0.5l-0.5-0.5C285.1,190.9,285.2,190.6,285.4,190.6
				L285.4,190.6z M278.9,34.9v-0.1l0.1-0.1l0,0l0.3-0.2l0,0c0.1,0.4,0.3,0.7,0.4,1.1c0,0.1,0,0.2,0,0.4c0,0.1-0.3,0.3-0.5,0.5
				c-0.2-0.5-0.3-0.9-0.5-1.4L278.9,34.9z M276.7,72.1c0.1,0.1,0.1,0.3,0.2,0.4l0.2,0.2c0,0.1,0,0.2,0,0.3l0.8,0.7
				c-0.2,0-0.5,0-0.6-0.2c-0.1-0.1-0.2-0.3-0.2-0.5l-0.2-0.2c0,0,0-0.2-0.1-0.3l-0.7-0.7C276.4,72.1,276.6,72.1,276.7,72.1z
				 M276.2,108.1v-0.4l0.5,0.4c0.2,0.1,0.3,0.3,0.3,0.5c0.1,0.5,0.2,0.9,0.1,1.4h0.1c0,0,0,0.1,0,0.1h1.6l0,0l0,0
				c0-0.5-0.1-1.1,0-1.5c0.1-0.4,1-1.4,1.5-1.3c0.7,0.2,1.3,0.6,1.5,1.3c0.1,0.8,0,1.5-0.3,2.2l-2.8-0.7l0,0h-0.1
				c-0.5,1.4-1.1,1.3-1.6,0h-0.2V110c-0.4-0.2-0.8-0.5-1.1-0.9C275.9,108.8,276,108.5,276.2,108.1L276.2,108.1z M274.4,75.1l0.4,0.3
				l-0.5,0.1L274.4,75.1z M272.7,63.2l0.4,0.3l-0.5,0.2L272.7,63.2z M269.7,156.8l0.5,0.3l-0.6,0.2L269.7,156.8z M266,27.6l-0.3,0.4
				l-0.1-0.5L266,27.6z M264.6,169.3v-0.5l0.5,0.3L264.6,169.3z M264,9l0.5,0.5l-0.5,1.2l0,0c-0.1-0.1-0.4-0.3-0.5-0.4s0,0,0-0.1
				C263.6,9.8,263.8,9.4,264,9L264,9z M263.7,86.3c0.2-0.4,0.4-0.7,0.6-1.1C265.1,86.3,264.3,86.2,263.7,86.3l-0.1,0.2l0,0l0,0
				l-1.7,1.7l0,0l1.7-1.7C263.6,86.4,263.6,86.4,263.7,86.3L263.7,86.3z"/>
			<path class="st0" d="M1583,17.5c-1.1-0.1-1.5-0.5-1.5-1.4c0-1.7-1.1-4.2,2.4-3.8c1-1.3,0.7-3.1-0.6-4.1c-0.1-0.1-0.2-0.2-0.4-0.2
				l0,0h-0.1c-0.3,0.3-0.6,0.7-1,1h-0.1c-0.1,0.1-0.3,0.2-0.4,0.3h-0.1c-0.1,0-0.2,0-0.3,0l-0.5-0.3c-0.1-0.1-0.2-0.1-0.3-0.2
				c0.2-0.2,0.3-0.5,0.5-0.6l0,0l1.1-0.1h0.4h0.7l0,0l0,0c-0.6-0.4-1.3-1.2-2-1.2c-6.2,0.1-12.4,0.4-18.5,0.6
				c-1.4,0-2.9,0.8-4.1,0.3c-3.6-1.5-7.3-0.8-10.9-0.7c-0.6,0-1.3,0.7-1.9,1.2l0,0v0.1l1.1,0.7l-1.1,0.7v0.2h0
				c-0.2,0.3-0.3,0.6-0.5,0.8l0,0c-0.1,0.1-0.2,0.2-0.3,0.2c-0.1,0-0.2,0-0.3,0h-0.2l-0.8-0.2h-0.2c0.2-0.3,0.4-0.5,0.6-0.7
				c0.1-0.1,0.2-0.1,0.2-0.1c0.1,0,0.3,0,0.4,0h1c0,0,0-0.1,0-0.1h0.1V8.5h-0.1l0.1-0.1c-1.8-0.7-3.8-1-5.7-1.2
				c-2.8,0.2-5.6,0.2-8.4,0c-4.2-0.2-8.5,0-12.7,0c-1.7-0.2-3.4,0.6-4.4,2c-0.6,0.4-1.4,0.5-2.1,0.3c-1.3-1.9-3.7-2.8-6-2.2
				c-2.8,0.2-5.6,0.2-8.3,0c-5.7-0.2-11.3,0-17,0c-1.7-0.2-3.4,0.3-4.7,1.5c-0.5,0.8-1.5,1.1-2.3,0.6c-0.2-0.1-0.4-0.3-0.5-0.5
				c-1.4-1.5-3.6-2.1-5.6-1.5c-2.6,0.6-5-0.1-7.5-0.1c-2,0-4,0-6,0c-2,0-4,2-6.5,0.6c-2-1.1-4.4,1-6.5-0.5c-5.4,0-10.7,0-16.1,0.2
				c-0.7,0-2,0.6-2,1.1c-0.3,2-2,3.2-2.9,4.9c1.4,3.8-2,7.5,0,11.6c0.8,2.1,1,4.4,0.4,6.5c-0.6,1.6-0.2,3.3,1.1,4.5
				c0.4,0.4,0.5,1,0.2,1.5c1.2,0.8,2.3,1.8,3.3,2.8l0.2,0.2c0.9,0,1.4,2.2,3,1.3c4,1.4,8.3,0.6,12.5,1.9c2.7,0.9,6,0,9.1-0.2
				c1.1-0.1,2.2-0.2,3.2-0.2c2.5,0.2,5,0.6,7.5,0.6c5.7,0.1,11.3,0,17,0.2c2.8,0,4.4,1.5,5,4.7c0.5,1.6,0.7,3.3,0.3,4.9
				c-0.7,2.4-0.9,5-0.3,7.5c1.6,6-1,12.1,0.9,18.1c-1.2,3-0.6,6.1-0.8,9.2c-0.2,2.5,1.1,38.8,1,53.5l0,0c0,1.8,0,3.3,0,4.4
				c-0.7,0.3-1.7,0.4-1.4,1.4c0.4,1.4,0.8,2.8,1.1,4.3c-0.4,1.1-0.3,2.3,0.1,3.4c0.2,0.4,0.4,1.3,0.2,1.5c-1.3,0.6-1.8,2.1-1.2,3.4
				c0.1,0.3,0.3,0.5,0.5,0.8c-0.1,0.7,0,1.5,0.3,2.2c1.4,2.6-0.8,5.3,1,8.1c1.7,2.7-1.2,6-1.1,9c0,1.1,0,2.3,0,3.4l-0.1-0.1
				c0.5,0.6,1.5,1.6,1.4,1.7c-1.5,2-0.5,4.5-0.4,6.8c0,0.2,0.1,0.4,0.2,0.6c0.1,0.4,0.2,0.8,0.4,1.2c0,0,0,0,0,0.1l0,0l0.2,0.4
				c0,0.1,0.1,0.2,0.2,0.3l0,0l0,0l0.3,0.3h0.1c0.8,0.5,1.7,1,2.7,1.3c1.1-0.1,2.2-0.1,3.3,0c2.7,0.2,5.4,1.1,8.1,1.5
				c0.7,0,1.5-0.5,2.3-0.8c0.3-0.8,0.7-1.2,1-1.1l0,0h0.1l0,0l0,0l0,0c0,0,0,0,0,0.1l0,0c0,0,0.1,0.1,0.1,0.1l0,0v0.2l0,0
				c0,0.1,0.1,0.1,0.1,0.2l0,0c0,0.1,0,0.1,0,0.2l0,0c1.3-0.1,2.7-0.2,4-0.5c1.2-0.6,2.7-0.2,3.4,1c0.2,0.3,1.8-0.4,2.8-0.6
				c0-1.1,0-2.2,0.1-3.2l0,0c0-0.1,0-0.2,0-0.3l-0.2-0.2l-0.5-0.5l0,0h0.2h0.2c0.1,0,0.2,0.1,0.3,0.1c0,0.1,0,0.1,0,0.2l0,0v0.2l0,0
				l0.2,0.2v0.1h1.1h0.4l0.5,0.1c0.5,0.2,0.8,0.5,0.7,0.9c0,0.1,0,0.2,0,0.2c-0.1,0.2-0.2,0.4-0.3,0.5l-0.3,0.4
				c-0.2,0.2-0.5,0.4-0.7,0.5l-1.2,0.7c2.7,2.5,5.8,1,8.8,0.9c0.3,0,0.9-1,0.8-1.2c-1.4-2.9,1.4-6-0.7-8.9c-0.7-1,0-2.2,0.7-3.1
				c1-1,1.4-2.4,1.2-3.8c-0.3-2.1,0.2-4.4-0.2-6.6c-0.6-2.9-0.8-5.9-0.7-8.8c0.6-0.2,1.1-0.7,0.6-1.8c-0.1-0.3-0.2-0.6-0.3-0.9
				c0.2-0.9,0.4-1.8,0.7-2.7c0.3-0.9-0.2-1.9-1.1-2.2c0,0-0.1,0-0.1,0c0-1.5,0.2-2.9,0.2-4.4l-0.1,0.1c0,0,0-0.2,0-0.3l-0.8-0.7h0.2
				l0,0h0.2c0.1,0,0.1,0.1,0.2,0.1c0,0.1,0.1,0.1,0.1,0.2l0,0c0,0.1,0,0.1,0,0.2l0,0l0.2,0.1c0.4-0.6,1.2-1.3,1.1-1.8
				c0-1-0.2-2-0.6-3c-0.1-1-0.4-1.9-1-2.7c-1.2-9.5-1.7-52.1,0-53.7c1-1,1.3-2.6,0.5-3.8c-0.3-1.1-0.3-2.2,0-3.2
				c1.1-5.2,1.3-10.5,0.5-15.7c-0.4-2.7-0.7-5.4-0.8-8.1c-0.3-5-1.1-10.1,1.1-15c0.8-1.8,1.7-2.9,3.6-2.9c3.4,0,6.8-0.3,10.2,0
				c3.4,0.3,7.1-1.7,10.7-0.4c2.2-1.4,4.3,0.4,6.5,0.2c2.1-0.2,4.7-1.5,6.4-0.8c2.1,0.9,3.9-0.9,5.6,0c2.4,1.3,3.6-0.6,5.1-1.7
				c0.5-0.2,1-0.2,1.5,0c1.5,0.8,3.1,1.5,4.7,2c1.6,0.2,3.3,0.1,4.9-0.4c0.6-0.1,0.9-1.2,1.4-1.8c-3.3-1.5,0.5-2.9,0.1-4.5
				c-0.2-1.6-0.5-3.2-0.9-4.8c-0.9-2.6-0.9-5.5,0-8.1c0.4-1.1,0.8-2.1,1.1-3.2C1586.3,19.2,1585.2,17.8,1583,17.5z M1430.6,20.2
				l-0.2-0.4h0.4L1430.6,20.2z M1433.8,13.4c-1,0.6-2.1,1.2-3.1,1.8c-0.2-0.3-0.3-0.5-0.4-0.7l-0.1-0.2l0,0c0.1-0.1,0.1-0.1,0.2-0.2
				l0.2-0.2c0.2-0.5,0.6-0.9,1.1-1.1c0.7-0.1,1.5,0,2.2,0.2C1433.7,13,1433.8,13.2,1433.8,13.4C1433.8,13.5,1433.8,13.4,1433.8,13.4
				z M1440.7,26.9v-0.4l0.4,0.3L1440.7,26.9z M1442.3,11.5l0.3-0.4l0.2,0.5L1442.3,11.5z M1444.4,28.7l-0.5-0.3l0.6-0.2L1444.4,28.7
				z M1450.8,14.8l0.3-0.4l0.2,0.5L1450.8,14.8z M1466.4,11.5l-0.4-0.3l0.5-0.2L1466.4,11.5z M1471.6,40.5l-0.3-0.6h0.6L1471.6,40.5
				z M1473.3,18.4L1473.3,18.4L1473.3,18.4L1473.3,18.4h-0.1h-0.2l-0.4,0.1l0,0l-0.1,0.2l0,0l0,0c0,0.4,0,0.7,0,1.1l0,0
				c0,0.1,0,0.3,0,0.4l0,0c0,0.2-0.1,0.4-0.2,0.6c-0.1,0.1-0.2,0.2-0.4,0.3h-0.2c-0.3,0-0.6-0.1-0.8-0.3l-0.3-0.3
				c-0.2-0.2-0.4-0.4-0.5-0.6c-0.1-0.1-0.1-0.2-0.2-0.4c-0.1-0.2-0.1-0.5-0.1-0.8c0-0.2,0.1-0.5,0.2-0.7l0,0c0.1,0,0.2,0,0.3,0h0.4
				h0.6l0,0l0.4,0.1l0,0l1,0.4l0,0l0,0c0.1,0,0.1-0.1,0.2-0.1l0.5-1l0,0l0.2,0.3l0,0V18l0,0C1473.4,18.1,1473.4,18.3,1473.3,18.4z
				 M1473.2,15l-0.1-0.3l-0.1-0.3h0.3h0.3L1473.2,15z M1482.3,11.5c-0.3-0.1-0.6-0.3-0.8-0.6c-0.1-0.1-0.1-0.2-0.1-0.3
				c0-0.1,0-0.1,0-0.2c0.1-0.2,0.2-0.4,0.3-0.6l0.2-0.4l1.8,1.4l-0.3,0.2c-0.1,0.1-0.3,0.2-0.4,0.3
				C1482.7,11.5,1482.5,11.5,1482.3,11.5L1482.3,11.5z M1483.2,16.4l0.3-0.4l0.2,0.5L1483.2,16.4z M1485.7,149
				c-0.2,0.1-0.3,0.2-0.5,0.2l-0.1,0.2l0,0h0.2l0.7-0.8C1485.8,148.5,1485.8,148.8,1485.7,149L1485.7,149z M1486,47.3h-0.3
				c0,0-0.1,0-0.2-0.1s-0.2-0.3-0.3-0.4l0,0c0.4-0.2,0.9-0.3,1.3-0.4l0,0c0.1,0.1,0.2,0.2,0.2,0.3l0.1,0.1L1486,47.3z M1489.2,158.9
				l-0.1-0.5h0.4L1489.2,158.9z M1489.2,154.3c-0.2-0.5-0.4-0.9-0.5-1.4c0-0.1,0.4-0.3,0.6-0.5c0.2,0.5,0.4,1,0.5,1.4L1489.2,154.3z
				 M1488.3,143.1h1.8C1489.5,144.6,1488.9,144.5,1488.3,143.1L1488.3,143.1z M1491.7,14.7c0.3,0.3,0.8,0.5,0.9,0.8
				c0,0.1,0,0.2,0,0.4l0,0c0,0.3,0,0.7,0,1l0,0h0.1l0,0h3.3l0,0l0,0l0,0c0.2-0.6,0.7-1.2,1.4-1.4l0,0l0.4-0.1l0,0h0.3h0.4
				c0.4,0,0.7,0.1,1,0.3l0.3,0.2h0.2c-0.1,0.1-0.2,0.3-0.3,0.5v0.1c-0.1,0.1-0.1,0.2-0.2,0.3l-0.2,0.1l0,0h-0.8h-0.2
				c-0.7,0-1.5,0-2.2,0l0,0l0,0l0,0c-0.1,1.8-1.5,3.4-3.3,3.7v0.1h-0.2l-0.5,0.5l-0.3,0.3c0-0.1,0-0.1,0-0.2c0-0.1,0-0.2,0-0.3l0,0
				c0.1-0.1,0.1-0.1,0.2-0.1l0,0h0.2l0,0l0.1-0.2l0,0v-3.4h-0.1c0-0.1,0-0.1,0-0.2l0,0c-0.3-0.2-0.6-0.3-0.8-0.5l0,0
				c-0.1-0.1-0.2-0.2-0.2-0.3c0,0,0-0.1,0-0.1c0-0.1,0-0.1,0-0.2C1491.5,15.5,1491.7,15,1491.7,14.7z M1499.1,21.2l-0.3,0.5
				l-0.2-0.5h0.2L1499.1,21.2z M1490.2,68.9h0.6l-0.2,0.3l-0.2,0.3L1490.2,68.9z M1491.5,150.6c0,0-0.2,0-0.3-0.2l-0.1-0.2
				c0-0.1-0.1-0.1-0.1-0.1l0.3-0.1l0.7-0.2h0.3c0.1,0,0.3,0.3,0.5,0.5C1492.3,150.4,1491.8,150.5,1491.5,150.6L1491.5,150.6z
				 M1492.9,48.5l-0.8,0.3c-0.3,0.1-0.5,0.3-0.8,0.4c-0.1,0.1-0.3,0.1-0.4,0l0,0c-0.2-0.1-0.3-0.3-0.4-0.5l-0.1-0.3
				c-0.1-0.2-0.1-0.3-0.2-0.5v-0.1c0-0.2,0-0.3-0.1-0.5l0,0c0-0.1,0.1-0.1,0.2-0.2l0.1-0.1l0.2-0.1c0.1-0.1,0.3-0.1,0.4-0.2h0.2h0.2
				c0.4,0.2,0.8,0.5,1.1,0.9c0.2,0.2,0.5,0.5,0.9,0.8L1492.9,48.5z M1494.2,28.9h-0.1l-0.4-0.5l-0.1-0.2l1.1-0.7l0,0l0.7,0.8l0,0
				c-0.3,0.1-0.6,0.2-0.9,0.3L1494.2,28.9z M1498.1,191.7c-0.1,0-0.3,0-0.4-0.1c-0.1-0.1,0,0-0.1,0l-0.1-0.2l0,0c0-0.1,0-0.1,0-0.2
				l-0.2-0.2c0-0.1,0-0.2,0-0.3l-0.1-0.1l-0.6-0.5l0,0h0.3h0.2l0,0c0,0.1,0.1,0.1,0.1,0.2l0,0v0.2l0.2,0.2c0,0.1,0,0.2,0,0.3
				l0.8,0.7L1498.1,191.7z M1500.6,163c-0.2,0-0.3,0.2-0.3,0.1c-0.5-0.5-0.9-1.1-1.3-1.7l0,0l0.3-0.3l0.2-0.2l0.9,0.7l1,0.8
				L1500.6,163z M1500.9,155.1l0.5-0.1v0.4L1500.9,155.1z M1501.2,154.2c-0.2-0.4-0.4-0.9-0.5-1.3l0,0c0.1-0.1,0.3-0.3,0.5-0.4
				c0.2,0.4,0.3,0.7,0.5,1.1C1501.7,153.7,1501.3,153.9,1501.2,154.2L1501.2,154.2z M1518.1,152.2l0.4,0.3l-0.4,0.1L1518.1,152.2z
				 M1510.9,54h0.4c0.2-0.1,0.4-0.1,0.6,0c0.1,0.1,0.2,0.1,0.3,0.2c0.2,0.3,0.4,0.7,0.6,1c-0.1,0.2-0.2,0.3-0.4,0.5c0,0-0.1,0-0.1,0
				c-0.3,0-0.5,0-0.8,0h-0.4l-0.3-0.2c-0.1-0.1-0.1-0.2-0.1-0.3c0-0.1,0-0.2,0-0.4c0-0.3,0-0.5,0-0.8L1510.9,54z M1512.9,79
				L1512.9,79v0.4l-0.4-0.3h0.1L1512.9,79z M1505.8,55.4l0.9,0.6l1,0.7c-0.3,0.2-0.5,0.5-0.8,0.7c-0.1,0.1-0.2,0.2-0.4,0.2h-0.2
				c-0.2-0.1-0.3-0.1-0.5-0.3c-0.2-0.1-0.3-0.2-0.4-0.4c0,0,0-0.1,0-0.1c-0.2-0.6,0.2-1.1,0.3-1.5V55.4z M1503.4,40.6
				c0,0,0-0.2,0.2-0.2l0.2-0.1l0.2-0.1l0,0l0.5,1.3l-0.6,0.5l-0.3-0.7c-0.1-0.3-0.1-0.5-0.2-0.8V40.6z M1504.4,80.8v0.5h-0.1
				L1504,81L1504.4,80.8z M1504.5,94.7l0.6-0.5l1,1.3c0.1,0.2,0.2,0.3,0.3,0.4l0,0l0,0l-0.6,0.7l-1.6-1.6L1504.5,94.7z
				 M1506.9,181.1l-0.1,0.1l0,0l-0.4,0.3c0-0.2-0.2-0.5-0.3-0.7c0-0.1-0.1-0.2-0.1-0.4c0-0.1,0-0.2,0-0.4l0,0c0-0.1,0.4-0.3,0.5-0.5
				l0,0c0.2,0.4,0.3,0.9,0.5,1.3v0.1L1506.9,181.1z M1508,193.6v-0.5l0.4,0.3L1508,193.6z M1508.4,160.3l-0.2,0.3
				c-0.1,0.1-0.2,0.2-0.2,0.4l-0.1,0.2c-0.5-0.3-1.1-0.5-1.3-0.9c0-0.1,0-0.2,0-0.3c0-0.1,0-0.3,0-0.4c0-0.3,0.2-0.7,0.3-1.1
				c0.6,0.4,1.2,0.9,1.7,1.5c0,0,0,0-0.1,0.2L1508.4,160.3z M1509.5,174.8l0.3-0.6l0.2,0.6L1509.5,174.8z M1513,190.1l-0.1,0.1
				c-0.2,0.1-0.4,0.2-0.6,0.3c-0.2,0-0.4-0.3-0.7-0.6l-0.1-0.1l-0.1-0.1l0.2-0.4c0-0.1,0.1-0.1,0.2-0.2c0-0.1,0.2-0.2,0.3-0.2h0.2
				c0.2,0.1,0.4,0.1,0.6,0.2l0.5,0.2c-0.2,0.2-0.3,0.3-0.4,0.5L1513,190.1z M1511.6,186.4l0.5-0.5l1.2,0.5l-0.2,0.2
				c0,0.1-0.1,0.2-0.2,0.2c0,0,0,0-0.1,0h-0.3l-0.6-0.3L1511.6,186.4z M1515.2,173.1L1515.2,173.1L1515.2,173.1L1515.2,173.1
				L1515.2,173.1L1515.2,173.1L1515.2,173.1c-0.2,0.2-0.7,0.1-1,0.3l0,0c0,0.4,0,0.8,0,1.2l0,0c0,0.1,0,0.2,0,0.4l0,0
				c-0.1,0.3-0.6,0.5-1,0.7c0-0.2,0-0.4-0.1-0.6v-0.3c0-0.1,0-0.2,0-0.3l0,0l0,0l0,0c0.1-0.1,0.1-0.2,0.2-0.3l0,0
				c0.3-0.2,0.7-0.4,1-0.6l0,0c0.2-0.4,0.5-0.8,0.7-1.2l0,0l0.1,0.2l0,0v0.1l0,0l0,0l0,0l0,0L1515.2,173.1z M1511.6,146.3
				c-2.2-0.2-2.7-1.6-2.8-3.3c-1.5-0.6-1.4-1.2,0-1.8v1.7c2.9,1.3,5.7,0.5,8.5,0C1516.6,145.5,1514,146.9,1511.6,146.3L1511.6,146.3
				z M1518.8,158.1c0,0.1-0.4,0.3-0.5,0.5c-0.2-0.5-0.4-1-0.5-1.5c0-0.1,0.4-0.4,0.6-0.5C1518.6,157.1,1518.7,157.5,1518.8,158.1
				L1518.8,158.1z M1520.2,189.9h-0.3l0.3-0.4v0.2l0.1,0.3L1520.2,189.9z M1522.7,45.2c-0.1,0.2-0.3,0.3-0.4,0.3
				c-0.3-0.1-0.6-0.2-0.9-0.3l-0.3-0.1l0.5-0.5l1.2,0.5l0,0L1522.7,45.2z M1522.4,16.2l0.3-0.5l0.2,0.5L1522.4,16.2z M1532.6,9.3
				l0.1-0.2l0.2-0.2l0.2,0.5L1532.6,9.3z M1534.6,17.7L1534.6,17.7c-0.2-0.4-0.3-0.9-0.4-1.3c0-0.1,0.3-0.3,0.5-0.5l0,0l0.5,1.3
				C1534.9,17.4,1534.7,17.5,1534.6,17.7L1534.6,17.7z M1539.8,21l-0.2,0.1c0,0,0-0.2,0-0.3c0-0.1,0-0.1,0-0.2
				c-0.1-0.3-0.2-0.7-0.3-1c0-0.1,0-0.1,0.1-0.2l0.5-0.3l0,0c0.2,0.5,0.3,0.9,0.5,1.4C1540.2,20.7,1539.9,20.9,1539.8,21L1539.8,21z
				 M1544.6,24.6l0.2-0.3l0,0l0.1,0.4L1544.6,24.6z M1555.1,39.8c-0.2-0.3-0.4-0.7-0.5-1c-0.1-0.1-0.1-0.2-0.1-0.4l0,0
				c0-0.1,0.1-0.1,0.1-0.1l0.4-0.3c0.2,0.4,0.4,0.9,0.6,1.3L1555.1,39.8z M1557,19.1l-0.3,0.2l0,0h-0.2h-0.2h-0.1l0,0
				c0,0,0-0.1,0-0.1l0,0c0,0,0,0,0-0.1c0-0.1,0-0.3,0-0.4l-0.2-0.1c0-0.1,0-0.1,0-0.2c-1.1-0.4-1.7-1.6-1.6-2.7l0,0
				c0-0.2,0-0.3,0-0.5l0,0c0,0-0.1-0.1-0.1-0.2l-1-0.6l0.2-0.1l0,0h0.1h0.4l0,0l0,0l0,0l0,0v0.5l0,0l0,0h0.2l0,0
				c0.7,0.1,1.2,0.6,1.4,1.3l0,0v0.2l0,0c0,0.1,0,0.1,0,0.2l0,0c0,0.1,0,0.1,0,0.2v0.4c0,0.3,0,0.6,0,0.8h0.1
				c0.1,0.1,0.1,0.2,0.1,0.2l1,0.5L1557,19.1z M1556.7,12.6h-0.2v-0.5l0.4,0.3L1556.7,12.6z M1572.6,14.6L1572.6,14.6
				c0,0-0.1,0-0.2,0v-0.1c-0.1-0.1-0.2-0.3-0.3-0.4l0.3-0.1l1.1-0.5l0.6,0.6c-0.5,0.2-1.1,0.4-1.6,0.5L1572.6,14.6z M1582.5,33
				l-0.4-0.3l0.5-0.2L1582.5,33z"/>
			<path class="st0" d="M10.7,23.2c0.5,0.2,1,0.5,1.5,0.7c-0.6,0.9-1.1,2-1.7,2.8c-1.2,1.6,2.9,1.7,1.1,3c-2.4,1.7-2,3.8-1.5,6
				c0.2,1.2,1.3,2,2.4,1.8c7.2-0.8,14.4,2,21.6-0.2c8.4,1.5,16.9,0.4,25.3,0.6c2,0,3.9,0.3,5.8,0.9c2.2,0.6,4.2,1.8,4,4.7
				c-0.1,2.3,0.9,4.4,2.7,5.8c0.9,0.8,0.2,2-1,2.5c0.4,2.1,0.7,4.3,0.7,6.4c0,1.6-1.6,3.1-1.5,4.6c0.3,1.6,0.3,3.2,0,4.8
				c-0.6,1.9-0.3,2,2.5,3c0,1.1,0,2.2,0.1,3.4c0.4,2.5-0.2,5.1-1.7,7.3c-0.4,1-0.7,2-0.7,3.1c0,1.1,0,2.2-0.2,3.2
				c-0.6,1.8,1.7,1.6,1.8,3.3c0.4,3.5,0.3,7.1-0.3,10.6c-0.4,1.4,0.1,26.2,0.9,39.1l-0.9,0.1c-1.4,0.3-2.1,1.4-1.9,3.2
				c0.2,1.1,0.9,2.2,0.6,3.1c-1.1,3.6-0.5,7.3-0.8,11c-0.3,3.6-1.2,7.6,0,11.6c0.2,1.7-0.1,3.4-0.8,4.9c-1.6,4.8,0,9.4,1.1,13.9
				c0.5,1.7,2.1,2.9,3.8,2.8c1.4,0,2.8,0,4.3,0c4.8,0,9.8-0.7,14.4,0.2c5.1,0.9,10.1-1.6,15,0.4c0.3,0.1,1.1-0.4,1.2-0.7
				c0.5-2.7,1.7-5.2,1.3-8.3c-0.6-2.7-0.9-5.4-0.8-8.2c0.3-3-0.1-6,0.3-8.9c-0.4-1.6-1.2-3.2-2.3-4.5c-0.5-0.9-1-1.9-1.3-2.9
				l2.9-1.2l0,0l0,0l0.2,0.2c0-0.1,0-0.1,0-0.2c0.8,0.2,1.5,0.3,0.9-1.2c-0.1-0.4-0.2-0.7-0.3-1.1c0.2-0.1,0.2-0.4,0.1-0.6
				c0,0,0-0.1-0.1-0.1c0.1-1,0.1-2,0-3.1c0-0.2,0-0.9,0-2l0.2-1.1c0-0.4,0-0.7-0.2-1.1c-0.2-11.5-0.2-43-0.2-44.3s-0.2-3.2-0.2-4.8
				c-3.4-1.4,0.9-2.2,0.2-3.4c-0.9-1.8-0.9-4,0.2-5.7c0.6-1,0.3-2.3-0.7-3c-0.6-0.5-1.6-1-0.5-1.7c2.4-1.6,2-4.2,1.5-6.2
				c-0.8-3.3,0.6-6.7-1.1-9.8c1.7-2.9,0.2-6,0.8-9c-2-2.8,1.6-6.1-0.8-8.9c0.4-2.2,1.5-4.3,0.3-6.5c0.8-1.5,1.7-2.9,2.7-4.3
				c0.7-0.8,1.7-1.3,2.8-1.5c2.5-0.2,5.1,0.2,7.6-0.2c2.7-0.4,5.5-0.4,8.2,0c1.4,0.2,2.8,0.2,4.2-0.2c2.2-0.4,4.4-0.5,6.5-0.2
				c4.4,0.3,8.8,1.7,13.3,0.4c4.7,0.8,9.5,0.4,14.1-1.1c0.5-0.1,1.1,0.2,1.6,0.3c1.2,0.2,2.4,0.5,1.8-1.4c-0.6-1.9-1.5-4.3-2-6.4
				c-0.1-0.4,0.7-1.1,1.2-1.7l0.2,0.2v-0.3l-0.1,0.1c0.2-0.5,0.7-1.1,0.5-1.5c-0.9-2.6,1.6-6-1.7-8.1c-0.2-0.1,0.3-1.4,0.7-2
				c0.4-0.6,1.1-0.8,1.1-1.1c-0.1-2.2-0.5-4.4-1.3-6.4c-0.6-1.2-2.7-1.5-4.2-2.3c-0.2-0.1-0.3-0.4-0.4-0.6l-2.9-0.8
				c1.1-2.5-0.8-2.3-2.2-2.5c0,0.2,0,0.5,0,0.7c-0.5,1.8-1,2.1-2,1.4c-1.3-1-1.4-3.1-3.4-3.5c-3.8-0.6-7.6,1-11.5,0.1
				c-1.3,1-2.5,2-3.8,2.8c-0.5,0.2-1,0.2-1.5,0.2l0.6,1.4c0.4,0.9,0.3,1.6-0.7,1.8c-1.1,0.2-2.2,0.2-3.3,0c-1.7-0.3-0.6-1.7-0.8-2.5
				c-0.3-0.8-0.6-1.6-1.1-2.3c-0.8-1.6-2-2-3.1-0.3s-2.3,2-4.1,0.9C125.3,2,124,1.4,122.7,1c-0.8-0.2-1.6,0-2.2,0.5
				c-0.5,0.5-0.3,1.5-0.5,2.3c1.4,0.6,1.3,1.2,0,1.7c-0.5,1.6-1.6,1.8-3,1.5c-0.5,0-1.2-0.4-1.3-0.7c0-0.5,0.2-1,0.6-1.3
				c0.6-0.5,1.2-0.9,1.8-1.2c-0.4-1.2-1.5-1.3-2.4-1.8c-2.6-1.3-5.3,0.3-8-0.7c-1-0.4-2-0.6-3-0.5c-1.8,0.2-1.4,2-2,3.2
				c-0.2,0.6-1,1-1.6,1.5c-0.4,1-1.5,1.5-2.6,1.2c-0.2-0.1-0.4-0.2-0.5-0.3c-0.8-0.7-1.4-1.6-2-2.5c-1.4-0.5-2.5-1.3-4.4-0.2
				c-2.2,1.6-4.9,2.3-7.5,2c-0.2-0.8-0.2-2-0.6-2.2c-3-1.7-6.2-3.6-9.8-1.2c-0.5,0.2-1.1,0.3-1.6,0.2c-0.6,1.8-2.3,3.2-4.2,3.4
				c-1.7,0.2-3.7,0.4-5.6,0.6c-2.3-3.3-2.4,1.8-4.2,1.1c-1.1-0.2-2.2-0.3-3.2-0.3c-0.2,0-0.5-0.4-0.5-0.5c0-0.1,0.3-0.6,0.6-0.6
				c2.1-0.3,3.6-1.2,3.6-3.6c-1.6,0-3.2,0.6-4.5,1.6c-1.2,0.6-2.8,1.7-3.8,1.4C46.8,4.3,43.5,6.9,40,6.1c-2.8,4-2.9,4-5.6,0.6
				C33.8,6,33,5,32.5,5.1c-2.9,0.6-2.6-0.8-1.9-2.6c0.1-0.3-0.4-1.1-0.7-1c-0.2,0-1.3,0.2-1.3,0.5c-0.7,1.2-1.1,2.6-1.2,4
				c0,2-0.9,1.6-2,1.3l-4-1c0,0.5,0,1.1,0,1.6l0.9,0.9c-0.2,0-0.5,0-0.6-0.2c-0.1-0.2-0.2-0.3-0.3-0.5V7.9c-0.7,0.8-1.4,1.7-2.2,2.4
				c-1,1.1-2.7,1.2-3.8,0.2c-0.2-0.1-0.3-0.3-0.4-0.5c-1.1-1.5-1.8-2.9-2.7-4.3c-0.4-0.6-0.8-0.5-1.1,0.3c-0.3,0.8-1.1,1.8-0.8,2.2
				c1,1.5,1.4,2.8-0.2,4.1c0.7,1.4,0.9,3.2,2.5,4c0.3,2.4-1.5,3.3-3.2,4.4C8,21.8,8.5,22.4,10.7,23.2z M155,7.8l0.5,1.4l-0.6,0.5
				c-0.2-0.5-0.3-0.9-0.4-1.4C154.4,8.1,154.8,7.9,155,7.8z M152.4,20.8v-0.2l0,0l0,0h0.2l0,0l0.7-0.8l0,0c0,0.1,0,0.1,0,0.2
				c0,0.2-0.1,0.3-0.2,0.4c-0.2,0.1-0.3,0.2-0.5,0.2L152.4,20.8L152.4,20.8l-0.6,1C151,20.9,151.9,21,152.4,20.8z M146.1,4
				c0.1,0,0.3,0.4,0.5,0.6c-0.5,0.2-0.9,0.3-1.4,0.5l0,0l0,0c-0.1-0.1-0.3-0.3-0.4-0.5l0,0C145.2,4.3,145.7,4.2,146.1,4z
				 M139.6,14.8h0.3c0.2,0,0.4,0.1,0.6,0.2c0.2,0.1,0.3,0.2,0.4,0.3l0,0c0.2,0.2,0.3,0.4,0.4,0.6c0.1,0.2,0.1,0.4,0,0.7
				c-0.4,0.2-0.8,0.3-1.2,0.4l0,0c-0.5-0.5-0.8-1.1-1.1-1.7C139.1,15.4,139.4,14.9,139.6,14.8z M126.3,14.7v0.4l-0.4-0.3L126.3,14.7
				z M124.3,6.1l0.2,0.5L124,6.5L124.3,6.1z M122.6,14.9l0.5,1.3l-0.6,0.5c-0.2-0.4-0.3-0.8-0.4-1.3C122.2,15.2,122.5,15,122.6,14.9
				L122.6,14.9z M109,153.6v2C107.4,154.5,107.4,154.5,109,153.6z M106,77.5c0.2,0,0.3,0.3,0.5,0.5c-0.2,0.1-0.4,0.4-0.5,0.4
				c-0.2,0-0.3-0.3-0.4-0.5C105.7,77.8,105.8,77.5,106,77.5L106,77.5z M104.5,102l-0.3-0.2l0.5-0.2L104.5,102z M103.7,64.5
				c0.1-0.1,0.2-0.2,0.3-0.2c0.1,0,0.1-0.1,0.2-0.1l0,0l0.5,1.3l-0.5,0.6c-0.2-0.5-0.3-0.9-0.5-1.4
				C103.7,64.7,103.7,64.6,103.7,64.5L103.7,64.5z M103.3,171.5c0,0,0.5,0.4,0.4,0.5c-0.2,0.4-0.4,0.9-0.6,1.3
				c-0.3-0.3-0.5-0.7-0.7-1.1C102.4,172,103,171.7,103.3,171.5z M100.5,151.9v0.2h-0.3l-0.7,0.8v-0.2c0-0.1,0.1-0.3,0.2-0.4
				c0.1-0.1,0.3-0.2,0.4-0.2l0.2-0.2C100.5,151.9,100.5,151.9,100.5,151.9l0.6-1.1C102,151.9,101.1,151.8,100.5,151.9L100.5,151.9z
				 M99.7,149.9c0.2-0.1,0.3-0.2,0.5-0.2l0.2-0.2h0.3l0.7-0.8c0,0.2,0,0.5-0.2,0.6c-0.2,0.1-0.3,0.2-0.5,0.2l-0.2,0.2h-0.3l-0.7,0.8
				c0.1-0.1,0.1-0.4,0.2-0.5L99.7,149.9z M89.2,149.6c-0.1,0.2-0.3,0.3-0.4,0.3c-0.4-0.1-0.8-0.3-1.2-0.5l0.5-0.5l1.2,0.5
				L89.2,149.6z M97.2,94.4L97.2,94.4c0.1,0.2,0.3,0.3,0.4,0.5l0,0l-1,0.4h-0.4c-0.1,0-0.3-0.4-0.5-0.6c0.5-0.1,1-0.2,1.5-0.2
				L97.2,94.4z M93.6,141.8c-0.6,1.6-1.2,1.5-1.8,0H93.6z M91.3,156.2c0.2-0.2,0.4-0.4,0.7-0.4c2.1-0.4,3.8,0.9,5.5,1.8
				c0.2,0,0.3,0.4,0.4,0.6c-0.2,0.2-0.4,0.4-0.6,0.6c-1.6,1.1-2.5,1-4-0.4c-0.6-0.6-1.3-1-2-1.6C91.2,156.5,91.2,156.3,91.3,156.2z
				 M89,58.7c0.1-0.1,0.3-0.1,0.5-0.2l0.2-0.2l0,0l0.3-0.1l0.2-0.3l0.4-0.5l0,0c0,0,0,0,0,0.2c0,0.1-0.1,0.3-0.2,0.4
				c-0.1,0.1-0.3,0.2-0.4,0.2l-0.2,0.2l0,0h-0.3l-0.7,0.8C88.8,59.2,88.9,58.9,89,58.7L89,58.7z M87.8,96.2l1.2,0.5h0.1l0,0L89,96.9
				l0,0c0,0-0.2,0.2-0.3,0.3c-0.1,0.1,0,0-0.1,0c-0.5-0.1-0.9-0.3-1.3-0.5L87.8,96.2z M73.8,158.3l0.3-0.4l0.2,0.5L73.8,158.3z
				 M75.8,146.3c-0.2-0.4-0.6-1-0.5-1.3c0.3-0.7,0.7-1.4,1.2-2c0.2-0.2,0.9,0,1.3,0c0.1,0,0.2,0.4,0.4,1.1c-0.5,0.6-1.1,1.3-1.8,2
				C76.2,146.3,75.9,146.3,75.8,146.3L75.8,146.3z M77,95.4V95l0.4,0.3L77,95.4z M77.4,161.5c-0.2-0.2-0.5-0.4-0.5-0.6
				c0.1-0.3,0.3-0.6,0.4-0.9l0.2-0.3l0,0l0.5,0.6L77.4,161.5z M78,148.2l-0.7,0.8c0-0.2,0-0.5,0.2-0.6
				C77.7,148.3,77.8,148.2,78,148.2l0.2-0.2h0.1L78,148.2z M80.5,17.3c-0.1,0-0.3-0.4-0.5-0.5c0.4-0.2,0.9-0.3,1.3-0.3l0,0l0,0
				c0.1,0.1,0.2,0.3,0.3,0.5l0,0l-1,0.3L80.5,17.3z M83.6,66.7c-0.1,0.1-0.3,0.2-0.5,0.2L83,67.1h-0.3L82,67.8l0,0
				c0-0.1,0-0.1,0-0.2c0-0.2,0.1-0.3,0.2-0.4c0.1-0.1,0.3-0.2,0.5-0.2l0.2-0.2h0.3l0.7-0.8C83.8,66.3,83.8,66.6,83.6,66.7z
				 M85.5,13.3l-0.3,0.5l-0.2-0.5L85.5,13.3z M80.3,6.1c0.1-0.1,0.3-0.2,0.4-0.2l0.2-0.2l0,0l0,0h0.2c0.5-1.3,1-1.4,1.5,0h0.1l0,0
				h1.6l0,0l0,0l0,0l-0.8,1.1l-0.8-1.1h-0.2l0,0h-1.5v0.1h-0.3l-0.7,0.7C80.1,6.5,80.1,6.2,80.3,6.1z M78.7,28.6L78.4,29l-0.1-0.5
				L78.7,28.6z M79,88c-0.5,0.5-0.6,0.8-0.9,0.9c-1.6,0.5-3.4-0.1-4.3-1.6c-0.2-0.2-0.2-0.5-0.1-0.7c0-0.2,0.5-0.5,0.6-0.4
				C75.9,86.7,77.3,87.3,79,88z M74.7,22.4c0.1-0.2,0.2-0.3,0.3-0.5l1,0.7l1.1,0.8c-0.5,0.7-0.9,1.4-1.4,2c-0.1,0.2-0.5,0.2-0.8,0.2
				c-0.3-0.7-0.5-1.5-0.6-2.2C74.4,23,74.5,22.7,74.7,22.4z M72.7,70.5l0.8-1.1l0.8,1.1h0.1c0,0.1,0,0.1,0,0.2l0,0l1,0.6
				c-1,0.8-0.8-0.1-1-0.6l0,0h-0.2l0,0l0,0h-1.6l0,0l0,0L72.7,70.5z M70.1,8.2l-0.3,0.4l-0.2-0.5L70.1,8.2z M65.2,10.2
				c0.1,0.2,0.2,0.3,0.2,0.5l0.2,0.1c0,0.1,0,0.1,0,0.2l1,0.6c-1,0.8-0.9-0.1-1-0.6h-0.2c0,0,0-0.2,0-0.2l-0.8-0.7
				C64.9,10.1,65.1,10.1,65.2,10.2L65.2,10.2z M48,8.5l-0.3,0.4l-0.2-0.5L48,8.5z M25.3,25.7l0.2-0.1h0.1l0,0
				c0.1,0.2,0.2,0.5,0.3,0.7c0.1,0.2,0.2,0.5,0.2,0.7l0,0c0,0.1-0.4,0.3-0.6,0.5l0,0C25.3,27,25.2,26.5,25,26
				C25,26,25.2,25.8,25.3,25.7z M20.5,18.4l0.4,0.5c-0.2,0.1-0.4,0.4-0.5,0.4S20,19,20.1,18.8C20.1,18.7,20.4,18.5,20.5,18.4z
				 M12.7,16.3L12.7,16.3c-0.1-0.5-0.1-1.1,0-1.6c0.3-1,1-1.2,1.7-0.6c0.4,0.3,0.8,0.8,1,1.3c0.2,0.5,0.2,1,0,1.5
				c-0.2,0.2-0.9,0.2-1.4,0c-0.4-0.1-0.8-0.2-1.3-0.4l0,0L12.7,16.3z"/>
			<path class="st0" d="M790.7,165.1c0.5-0.9,0.9-2,1.2-3c1.4-0.1,2.6-0.9,3.3-2.1c2.2-4.5,4.6-8.8,6.9-13.2
				c1.5-0.7,1.4-2.1,1.6-3.4l0,0l0.2-0.3v0.2c0.8-0.4,1.3-0.9,0.6-1.3c2.8-4.9,4.4-10.5,4.6-16.2c0.3-0.2,0.6-0.5,0.7-0.8
				c0.1-0.2,0.1-0.5,0-0.7c0-0.2-0.4-0.4-0.5-0.4l-0.5,0.2c-0.3-0.5-1-0.8-1.6-0.7c-0.1-0.4-0.4-0.7-0.7-0.9c0-0.3,0.1-0.6,0.1-0.9
				c0.2-0.9-0.3-1.7-1.2-2c-0.4-0.1-0.8,0-1.1,0.1l0,0c0.1-0.8-0.5-1.5-1.3-1.6v-0.3c0.7-0.6,1.4-1.2,2-2c1.2-1.5,2.3-0.9,3.7-0.5
				c2.9,0.8,3.7,0,3.6-3.3c-0.1-3.3-0.9-6.8,0-9.9c1.5-5.3,1.3-10.9-0.4-16c-0.7-2.2-1-4.5-0.9-6.8c0.2-1.1-0.4-2.3-1.5-2.7
				c-0.8-0.4-1.4-1-1.8-1.7c-0.3-0.6-0.5-1.8-0.1-2.2c0.8-1,1.8-1.3,1.4-3.2c-1.2-5.8-3.1-11.4-5.8-16.7c-1.2-2.2-2.1-4.7-3.3-6.8
				c-1.4-3-3.2-5.8-5.3-8.3c-2.4-2.3-4.6-4.8-6.4-7.6c-1.1-1.7-2.6-3.1-4.4-4.2c-5.5-3.2-10.9-6.7-16.3-9.9l0,0h-0.3l-0.7,0.8
				c0-0.2,0.1-0.4,0.2-0.6c0.1-0.1,0.3-0.2,0.5-0.2l0.2-0.2c-0.6-0.4-1.2-1.2-1.8-1.2c-3.9-0.1-7.7-1.3-11.1-3.4
				c-0.6-0.4-1.6-0.3-2.4-0.4c-1-1.6-2.9-1.3-4.2-2c-2.8-1.7-5.2-1-7.8,0.5h0.1h-0.2c0,0.1,0.1,0.1,0.1,0.2c-2.4,2.2-2.6,2.2-5,0
				l-0.1,0.1c0,0,0-0.2-0.1-0.3L734,8.4c0.2,0,0.5,0,0.6,0.2c0.1,0.1,0.2,0.3,0.2,0.4l0.2,0.2c0.5-0.5,1.2-1.1,1.1-1.5
				c-0.1-0.5-1.1-1.5-1.5-1.4c-3.8,0.9-7.8,0.4-11.6,1.4c0,0.5,0,1.1,0,1.6h0.1c0,0.1,0,0.1,0,0.2l1,0.6c-1,0.8-0.9,0-1-0.6
				l-0.2-0.1l0,0c-1.4,0-2.9,0.2-3.4-1.7h3.5c0-0.5,0-1.1,0-1.7c-0.9-0.4-1.7-0.8-2.7-1.1c-0.9-0.4-1.9,0.1-2.3,1
				c0,0.1-0.1,0.1-0.1,0.2l-0.1-0.1l0.1,0.1c-1.6-0.7-3.2-1.2-4.9-1.7c-1.4-0.5-2.9,0.1-3.7,1.4c-0.3,0.6-1,1-1.6,0.7
				c-0.1-0.1-0.3-0.1-0.4-0.2c-0.9-0.7-1.8-1.3-2.8-1.8c-0.3-0.1-1.4,0.4-1.3,0.5c0.7,3.1-1.4,2.6-2.9,2.1c-1-0.3-1.8-1.3-2.8-1.8
				c-2-1.2-2.4-1-3.6,1.7c-0.2,0.5-0.5,1-0.8,1.5c-0.3-0.5-0.6-1-0.8-1.5c-0.8-2-0.8-2-3.4-1.1l-0.1,1.6h0.1c0,0.1,0,0.2,0,0.3
				l0.8,0.7c-0.2,0-0.5,0-0.6-0.2c-0.1-0.1-0.2-0.3-0.2-0.4l-0.2-0.2V7.6c-1.4,0-2.8,0-3.4-1.6c-0.9-0.5-1.9-0.9-2.9-1.3
				c-3.2-1.1-6.3,1.5-9.5,0.3c-0.1,0-0.5,0.2-0.7,0.4c-0.2,0.2-0.3,0.4-0.5,0.7l0.9,0.9c-0.2,0-0.5,0-0.6-0.2
				c-0.1-0.2-0.3-0.5-0.3-0.7c-4.4-0.3-8.9,0.6-13.4-0.7c-1-0.3-2.6,0.3-4,0c-0.3,0-0.9,1-1.3,1.6c-0.3,0.5-0.5,1-0.7,1.5
				c-0.3-0.4-0.8-0.7-0.9-1.1c-0.4-1.4-0.7-3-2.7-2.3c-1.3,0.3-2.7,0.2-4-0.2c-1.4-0.3-2.8,0.3-3.6,1.5c-1.7,1.7-3,3.1-1.2,5.6
				c0.9,1.4,1.2,3.2,0.6,4.8c-0.4,2.7-0.5,5.5-0.4,8.2c2.7,4.6-0.9,9.2,0.3,13.9c-1.1,3.4-1.4,7.1-0.7,10.6c0.4,3.3-0.3,6.7,1.1,9.9
				c0.4,0.7,0.4,1.6,0.2,2.4c-2,3.5-1.1,7.2-0.9,10.8c0,1.6,1.1,2.8,0.2,4.7c-0.7,1.5,0.6,3.6-0.1,5.6c-0.4,1.6-0.4,3.4,0,5
				c0,0.6,0.9,1.2,1.4,1.7l0.2-0.1l0.5-1c0.7,1,0,0.9-0.5,1l-0.1,0.2h-0.1c-0.6,1.3-1,2.6-1.1,4c0,1.6,1.8,3.1,0.3,4.7
				s0,32.6,0.2,44.4l0,0c-1.5,3-2,6.4-1.5,9.8c0.2,0.8,0.3,1.5,0.4,2.3c0.1,0.8-0.1,2-0.2,3c0,0.3,0.3,0.6,0.7,0.9
				c0.4,5.5,0,11.1,0,16.6c0,5-0.6,9.9,1,14.9c0.1,0.5-0.1,1-0.4,1.4c-0.3,0.5-1.8,0.8-0.4,1.6c1.3,1,3.1,1.4,4.8,1
				c2.7-0.7,5.4-1.2,8.2-1.6c2.2,3.3,5.6,2,8.6,2c15.3,0,30.6-0.1,45.9-0.2c3.6,0,7.3-0.3,10.9-0.9c2.8-0.5,5.6-0.5,8.4,0
				c2.1,0.7,4.4,0.6,6.4-0.4c2.8-1.4,5.9-2.1,9-2c1.9-0.3,3.9-0.6,5.8-1.1c5-0.8,9.2-4.2,14.2-5c0.8-0.1,1.4-1.5,2.1-2.3
				c0.6,0,1.1,0,1.7,0c2.8,0.3,5.6-1.1,7-3.5c1.4-1.7,3.1-3,5.1-3.8c3.6-1.6,6.7-4.1,9-7.3C788.7,167,790,166.2,790.7,165.1z
				 M806,92.8l0.2,0.5h-0.5L806,92.8z M644.4,143.5l-0.2-0.4h0.4L644.4,143.5z M646.9,15.5c0,0,0.3-0.3,0.5-0.4
				c0.1,0.2,0.4,0.4,0.4,0.5C647.3,16.2,647,16.1,646.9,15.5z M651.5,28.1c-0.5,0.1-1,0.2-1.6,0.2l-0.8,1.3
				c-1.1-1.2,0.1-1.1,0.8-1.3c0.3-0.4,0.6-1,1-1.2s0.9,0,1.4,0C652,27.5,651.7,28,651.5,28.1L651.5,28.1z M656.5,156.4
				c0.2,0,0.3,0.3,0.5,0.5l-0.5,0.4l-0.3-0.3c-0.1-0.1-0.1-0.2-0.1-0.3C656.1,156.6,656.3,156.5,656.5,156.4L656.5,156.4z
				 M656.5,162.1c-0.2-0.2-0.6-0.4-0.5-0.6c0.1-0.5,0.3-1,0.5-1.4l0.6,0.6C656.8,161.2,656.7,161.6,656.5,162.1L656.5,162.1z
				 M657.4,37.8l0.3-0.4l0.1,0.5L657.4,37.8z M667.6,90.3c-0.5-0.6-0.9-1.2-1.3-1.7c0.2-0.1,0.6-0.4,0.7-0.3
				c0.6,0.3,1.2,0.8,1.9,1.2C668.2,89.8,667.6,90.3,667.6,90.3L667.6,90.3z M778.9,76.1l-0.3,0.4l-0.2-0.4L778.9,76.1z M778.9,98.1
				v0.5l-0.4-0.3L778.9,98.1z M764.4,27.2L764.4,27.2l0.4-0.3l0,0c0.1,0.3,0.3,0.6,0.4,1s0,0.2,0,0.3c0,0.1-0.4,0.3-0.5,0.5
				c-0.2-0.4-0.3-0.9-0.4-1.3C764.1,27.2,764.2,27.2,764.4,27.2C764.3,27.2,764.3,27.2,764.4,27.2z M765.1,32l-0.5,0.2v-0.5
				L765.1,32z M751.9,10.8v-0.1l0,0l0,0v1.5h0.1c0,0,0,0.2,0.1,0.3l0.8,0.7c-0.2,0-0.5,0-0.6-0.2c-0.1-0.1-0.2-0.3-0.2-0.5l-0.2-0.2
				v-0.2l-1.1-0.7L751.9,10.8z M746,13l0.2,0.5h-0.5L746,13z M734.7,21.4l1.3,0.6l-0.4,0.4c0,0-0.1,0.1-0.2,0
				c-0.4-0.1-0.9-0.3-1.3-0.6L734.7,21.4z M732,34.3c0.2-0.5,0.4-1,0.6-1.5c0.2-0.5,0.5-1,0.7-1.5l-1.1-0.7c1.1-0.9,0.8,0.4,1.1,0.7
				c0.5,0,1.1,0,1.6,0.1c0.5,0.2,1.3,0.6,1.2,0.9c0,0.7-0.3,1.4-0.8,2c-0.6,0.5-1.4,0.9-2.2,1.1c-0.4,0.1-0.9-0.2-1.3-0.4
				C731.5,34.9,731.9,34.5,732,34.3z M701.7,13.5l0.5,1.3l-0.6,0.5c-0.2-0.4-0.3-0.9-0.5-1.4C701.2,13.9,701.6,13.7,701.7,13.5z
				 M689.3,14.9c0,0,0,0,0.1,0c0.1,0.1,0.3,0.3,0.4,0.5l0,0c-0.4,0.2-0.8,0.3-1.3,0.4c-0.1,0-0.3-0.3-0.5-0.5
				C688.5,15.1,688.9,15,689.3,14.9L689.3,14.9z M671.8,168.9l-0.2-0.4h0.4L671.8,168.9z M674.3,145.6L674.3,145.6
				c-0.2,0.2-0.3,0.4-0.4,0.7c-0.1,0.2-0.3,0.4-0.5,0.6c-0.4,0.2-1,0-1.5-0.1c0.2-0.3,0.4-0.8,0.7-1
				C673.2,145.6,673.7,145.6,674.3,145.6L674.3,145.6L674.3,145.6C674.3,145.6,674.3,145.6,674.3,145.6l0.6-1
				C675.7,145.6,674.8,145.5,674.3,145.6L674.3,145.6z M675.2,166.9c-0.2-0.4-0.3-0.8-0.4-1.3l0,0c0.1-0.1,0.3-0.3,0.5-0.4l0,0
				c0.2,0.4,0.3,0.8,0.4,1.3C675.7,166.6,675.4,166.8,675.2,166.9L675.2,166.9z M676.6,47.6l-0.3,0.4l-0.2-0.5L676.6,47.6z
				 M676.3,63c0.2-0.2,0.4-0.5,0.5-0.5c0.4,0.2,0.9,0.3,1.3,0.6l-0.6,0.5L676.3,63z M679.4,145.6l-1.2-0.8
				C679.3,143.9,679.1,145.1,679.4,145.6L679.4,145.6z M680.4,162l-0.4-0.3l0.4-0.1L680.4,162z M685.4,178.6
				c0.2-0.2,0.4-0.5,0.6-0.5c0.5,0.1,1,0.3,1.4,0.6c-0.4,0.3-0.7,0.7-1.1,0.7C685.9,179.4,685.7,178.9,685.4,178.6L685.4,178.6z
				 M688.5,188.8c-0.1-0.2-0.2-0.4-0.3-0.6l0,0v-0.1l-1.2-0.7c1.2-1,1.1,0,1.2,0.7l0,0c0,0,0,0.1,0,0.1l0.9,0.8
				C688.9,189,688.6,189,688.5,188.8L688.5,188.8z M692.8,189l-0.5,0.4l-0.5-0.5c0.2-0.1,0.4-0.4,0.5-0.4c0.1,0,0.2,0.1,0.2,0.2
				C692.6,188.7,692.8,188.9,692.8,189L692.8,189z M701.8,184.5v0.1c-0.1,0-0.1,0-0.2,0l-0.6,1c-0.7-1,0.1-0.8,0.6-1v-0.1H701.8
				l0.6-1.1C703.3,184.6,702.3,184.4,701.8,184.5L701.8,184.5z M702.3,161.9v-0.4l0.4,0.3L702.3,161.9z M712.5,173.6l0.3-0.4
				l0.2,0.5L712.5,173.6z M717.7,172.3c-0.1,0.1-0.3,0.2-0.5,0.2l-0.2,0.2h-0.3l0,0l-0.7,0.8c0-0.2,0.1-0.5,0.2-0.6
				c0.1-0.1,0.2-0.1,0.4-0.2l0,0l0.2-0.2h0.3l0.7-0.8C717.8,171.9,717.8,172.2,717.7,172.3L717.7,172.3z M734.7,180.3l0.3-0.4
				l0.2,0.5L734.7,180.3z M746.8,187.4l-0.2-0.6h0.5L746.8,187.4z M749.4,160.4l-0.1,0.2l0,0l0,0h-0.3l-0.7,0.8
				c0-0.2,0.1-0.5,0.2-0.6c0.1-0.1,0.3-0.2,0.5-0.2l0.2-0.2L749.4,160.4l0.6-1.1C750.9,160.4,750,160.3,749.4,160.4z M759.1,162.7
				c-0.4,0.1-1,0.3-1.3,0.2c-0.3-0.2-0.6-0.8-0.9-1.3l1.2-0.7c0.3,0.3,0.6,0.7,0.9,1.1C759.2,162.2,759.1,162.7,759.1,162.7z
				 M764.7,182.7c0,0,0-0.2,0-0.3l-0.8-0.7c0.2,0,0.5,0,0.6,0.2c0.1,0.1,0.2,0.3,0.2,0.5l0.2,0.2L764.7,182.7z M767.1,151.4
				l-0.2-0.5h0.5L767.1,151.4z M771.2,134.6c-0.2,0.3-0.3,0.6-0.5,0.8l0.5-1.6C771.2,134.1,771.2,134.4,771.2,134.6L771.2,134.6z
				 M772.2,90.5c-1,0.3-2.2,0.2-2.1,2c-0.1,1.4-0.3,2.7-0.5,4.1c0,2.8,0,5.6,0,8.5c0,2.8,0.8,6,0.2,9.1c-0.1,0.7,0.1,1.3,0.5,1.8
				c-1.4,8.4-4,16.9-9.7,23.4l-0.4,0.5l-2,0.5c-0.8,0.2-1.6,0.3-2.5,0.5c0.4,0.5,0.7,1.1,1,1.7c0,0.2-0.5,0.8-0.9,0.9
				c-4.1,1.2-8,2.6-10.3,6.5c-1.3,2-3.7,2.3-6,2.6c-3.9,0.2-7.8,1.2-11.3,3c-1.3,1-2.9,1.4-4.5,1c-2.8-0.5-5.6-0.7-8.4-0.6
				c-8.2,0-16.4,0.1-24.6,0c-2.5,0-5-0.2-7.6-0.5c-0.4-0.2-0.8-0.4-1-0.8c0.5-0.8,1.8-1.2,0.9-2.6l-0.5-0.8c0-0.1,0-0.2,0-0.3
				c0-4,0.4-51.2-1.6-54.9c0.5-4,1.8-7.7,1.3-11.7c0-0.8-0.2-1.7-0.4-2.5c-1-2.7,1.4-5.5-0.4-8.2c-0.2-0.4,0-1.1,0-1.6
				c0.2-6.5,0.4-13,0.6-19.5c0-3.4,0-6.8,0-10.2c0.5-1.9,2.1-3.4,4.1-3.6c0.5,0,1.1,0.4,1.6,0.4c3.1,0.2,6.6-0.4,9.2,0.8
				c3.7,1.7,6.6-0.5,9.8-0.5c1.4-0.2,2.8-0.1,4.2,0.3c3.8,1.7,7.8,1.3,11.7,1.5c1.7-0.1,3.4,0.2,5,0.7c6.3,2.9,13.3,4.6,19.3,8.3
				c2.4,1.4,4.7,3.2,6.6,5.2c1.2,1.2,2,3,3.3,3.8c3.8,2.2,5,6,6.7,9.5c0.9,2.4,2,4.6,3.2,6.8c1.4,2,2.7,4.2,1.6,7.1
				c-0.3,0.8,0.8,2.1,0.9,3.2c0.1,1.8,1.6,3.1,3.4,3.1c0.2,0,0.4,0.3,0.7,0.5C773,89.9,772.6,90.2,772.2,90.5L772.2,90.5z
				 M774.8,126.3v-0.4h0.2C774.9,126,774.8,126.1,774.8,126.3L774.8,126.3z M775.6,37.7c-0.7-0.3-1.2-0.8-1.4-1.5
				c-0.4-1.8,0.3-2.9,1.6-3.1s1.8,0.7,2,2C777.9,36.7,776.9,38,775.6,37.7L775.6,37.7z M777.1,89.5l0.2,0.4h-0.4L777.1,89.5z
				 M777.1,116L777.1,116z M778.1,120.5c0,0.3-0.1,0.7-0.2,1c-0.2,0-0.3,0-0.5,0C777.5,121.2,777.8,120.8,778.1,120.5L778.1,120.5z
				 M778.5,137c-0.2-0.1-0.5-0.2-0.7-0.2l1.3-2.7c0.1,0.2,0.3,0.5,0.5,0.6C779.2,135.4,778.8,136.2,778.5,137L778.5,137z
				 M783.3,28.3h0.5l-0.3,0.4L783.3,28.3z M783.7,62.5c0.5-0.2,0.9-0.3,1.4-0.5l0,0c0.1,0,0.3,0.4,0.4,0.6l0,0
				c-0.4,0.2-0.9,0.3-1.4,0.5C784,63,783.8,62.6,783.7,62.5L783.7,62.5z M785.3,115.7c0-0.2,0-0.3,0-0.5h0.3
				C785.5,115.3,785.4,115.5,785.3,115.7L785.3,115.7z M785.3,95.1v-0.5l0.4,0.3L785.3,95.1z M791.8,162.1L791.8,162.1l-1.1-0.6
				C791.8,160.7,791.6,161.7,791.8,162.1L791.8,162.1z M796.5,145.2c-1.6,0.7-2.8,2.3-4.9,1.7c-0.5-0.2-1.3-0.6-1.2-0.9
				c0-0.7,0.3-1.8,0.8-2c2-0.8,4-1.3,5.5,1L796.5,145.2z M801.9,146.8c0-0.1,0-0.1,0-0.2l-1-0.6c1-0.8,0.9,0.1,1,0.6h0.1
				L801.9,146.8z M803.9,135.1l-0.3,0.7c-0.4-0.1-0.8-0.1-1.1,0l0.2-0.6C803.2,135.3,803.6,135.2,803.9,135.1L803.9,135.1z
				 M801.9,60.2L801.9,60.2c0.3,0.3,0.8,0.6,1,0.9c0,0.1,0,0.1,0,0.2c0,0.3-0.3,0.8-0.6,1.2c0,0-0.6,0-0.8-0.2
				c-0.3-0.4-0.6-0.9-0.9-1.4L801.9,60.2z M798.8,97.1c0.5-0.5,1-0.9,1.6-1.3c0.3,0.3,0.8,0.9,0.7,0.9c-0.5,0.6-1,1.1-1.6,1.6
				C799.2,97.9,798.7,97.3,798.8,97.1L798.8,97.1z M793.5,115.2L793.5,115.2l-0.2,0.5c-0.1,0.1-0.1,0.2-0.2,0.3L793.5,115.2z
				 M790.6,58.6l0.2,0.6h-0.5L790.6,58.6z M791.1,135.2c-0.2,0.7,0.1,1.4,0.7,1.8c0.4,0.2,0.9,0.3,1.3,0.1c0.5,0.7,1.5,0.7,2.2,0.2
				c0.2-0.1,0.3-0.3,0.4-0.5c0.6-1.1,1.2-2.2,1.7-3.3l1.3-2.6c-0.9,3.1-2,6.1-3.3,9c-0.4,0-0.8-0.1-1.2-0.3
				c-1.9-0.8-4.1-0.9-6.1-0.4C789.1,138,790.1,136.6,791.1,135.2L791.1,135.2z"/>
			<path class="st0" d="M497.6,54.4c1.2,2.3-0.7,4.4,0.4,6.5c0.3,1.1,0.2,2.3-0.3,3.3c-0.5,1.6-0.5,3.3,0,4.9c0.5,2.8-0.5,6,0.3,8.7
				c1,3.5-0.1,6.7-0.9,9.9c-0.4,1.1,0.2,2.3,1.2,2.8c0,0.8,0,1.7-0.3,2.5c-0.5,2.8-0.4,36.6,2.5,37.4c0.4,0.1,1,0.5,1,0.8
				c0,0.3-0.2,1.3-0.6,1.4c-2,1-3.3,3-3.4,5.3c-0.4,2.7-0.3,5.5,0.5,8.2c0.1,0.3,0.3,0.6,0.4,0.9c-0.5,0.3-0.7,1-0.4,1.6
				c0.7,1.5,0,2.7-0.4,4c-0.4,1.1,0.2,2.3,1.3,2.8c1.1,0.6,0.4,1.2-0.2,1.8c-0.6,0.5-1.1,1.2-1.3,2c0,1.6,0.4,3.2,0.4,4.9
				c0,2-0.4,4-0.2,5.8c0.4,3.6-0.9,7.2,0.4,10.7c-2.3,3.8,1.5,7.6,0,11.5c-0.1,0.3,1,1.6,1.6,1.6c1.9,0.3,3.9,0.2,5.8-0.2
				c1.9-0.7,3.9-0.8,5.8-0.4c6.7,2,13.5,0.7,20.2,0.7c1.1-0.2,2.2-0.6,3.1-1.2l0,0h0.1l0,0c2.1-1.4,2-4,3.2-5.8
				c1.3-1.8,1.8-4,1.5-6.2c-0.6-3.5-0.7-7-0.4-10.5c-0.1-1.6-0.5-3.2-1.2-4.7c1.7-1.2,1.4-2.8,1.1-4.5c-0.3-1.7-1.3-3.5-0.8-4.8
				c1.3-3.2,1.5-6.8,0.5-10.1c0.4-0.7,0.5-1.5,0.3-2.2c-0.9-3.7,0.5-7.2,0.2-10.8c-0.4-5.1-0.4-44-0.2-49.1c0.2-5.1-1-9.9-0.5-15
				c-1.2-2.2,1.3-4.4,0-6.5c-1.5-2.5,0.8-4.8,0.3-7.3c-0.3-2.5-0.3-5.1,0-7.6c0.2-2.8-1.2-5.3-0.3-8.3c0.6-2.3-1.1-4.8-0.2-7.4
				c0-0.2-0.7-0.6-1.1-1c1.8-3.8,1.6-8,1.2-11.9c-0.1-1.3-1.2-0.4-1.8-0.5c-1-0.3-1.9-0.7-2.8-1.1c2.1-2.1,4.2-4.3,3.2-7.8
				c-0.1-0.8-0.1-1.7,0-2.5l0.1,0.1l-1.7-1.7c-2.1,2.3-6-0.5-8,2.6c-3.7-1.7-8-1.4-11.7-3c-0.4-0.2-0.6-0.7-0.9-1.2
				c-0.5,0.1-1,0.4-1.5,0.7c-1.2,1.6-3.3,2.2-5.2,1.4c-1.9-0.4-3.9-0.7-5.8-0.7c-0.3-0.3-0.5-0.8-0.5-1.3c0.5-1.4-0.5-1.4-1.2-1.3
				c-0.7,0.1-1.4,0.3-2,0.7c1.4,1.9-0.8,3.5-0.2,5.6c0.5,2.1-1.2,4.1-1.4,6.3c-0.2,1.6,0.9,3.4,0.6,5c-1,4.4-0.2,8.7-0.5,13.1
				c-0.3,4.4,0.2,8.8,1.5,13.1c0.1,0.5,0.1,1-0.2,1.4C496,49.4,496.5,52.2,497.6,54.4z M538.1,165.1L538.1,165.1l-0.9-0.9
				c0.2,0,0.5,0,0.6,0.2C538,164.6,538.1,164.9,538.1,165.1L538.1,165.1L538.1,165.1z M537.3,30.7l0.1-0.2l0,0h-0.2l-0.6,1
				C536,30.7,536.8,30.9,537.3,30.7L537.3,30.7z M537.3,129.8v0.4l-0.4-0.3L537.3,129.8z M519.8,190.5l-1.3-0.7
				c0.2-0.2,0.5-0.6,0.6-0.6l0.4,0.1c0.3,0.2,0.7,0.4,1,0.5L519.8,190.5z M528.4,180c-0.3,0.1-0.6,0.1-0.8,0c-1.1-1.2,0.3-2,0.5-2.9
				c0-0.3,0.7-0.5,1-0.7c0.8,1,0.7,2.5-0.3,3.3C528.7,179.7,528.6,179.8,528.4,180L528.4,180z M533.3,17.3c0.1-0.1,0.3-0.2,0.4-0.2
				l0.2-0.2L534,17h-0.3l-0.7,0.8C533.1,17.7,533.1,17.4,533.3,17.3L533.3,17.3z M528.7,146.8c1-2.9,2-5.8,6-5.4l0,0h0.1h-0.1
				c-0.3,0.7-0.6,1.5-0.8,2.2c-0.2,0.7,0.8,2.2-0.6,2.8c-1.2,0.6-2.5,1.1-3.8,1.5c-0.2,0-0.5-0.2-0.7-0.3
				C528.6,147.3,528.6,147,528.7,146.8L528.7,146.8z M528.2,169.1c0.5,0.1,0.8,0.5,1,1c0.1,0.5-0.1,1-0.5,1.4
				c-0.4,0.2-0.8,0.3-1.2,0.3l-1.2,0.2l0,0h-0.1l0,0l-0.6,0.6l-0.2,0.2l0,0c0-0.1,0-0.1,0-0.2c0-0.2,0.1-0.3,0.2-0.4
				c0.2-0.1,0.4-0.2,0.6-0.3l0,0l0,0l0,0c0-0.8,0.2-1.6,0.4-2.3C527,169.2,527.6,169,528.2,169.1L528.2,169.1z M526.4,81.1l0.3-0.3
				l0,0v0.3c0,0.1-0.1,0.2-0.1,0.3c-0.1,0.1-0.3,0.2-0.5,0.2L526.4,81.1z M524.6,82.7c0.2-0.4,0.7-0.6,1.1-0.8v-0.2l0.3-0.1
				l-0.2,0.2h-0.1h0.1h-0.1c0,0.5,0,1-0.1,1.4c-0.1,0.3-0.6,0.5-0.9,0.8C524.6,83.6,524.4,83,524.6,82.7L524.6,82.7z M525.5,143.5
				v0.4l-0.4-0.3L525.5,143.5z M524.9,147.4l0.4-0.3c0.1,0.3,0.3,0.7,0.4,1l0.1,0.4c0,0-0.4,0.3-0.6,0.5c-0.2-0.4-0.4-0.9-0.5-1.4
				C524.8,147.7,524.8,147.5,524.9,147.4L524.9,147.4z M521.3,149.6l0.7-0.8c0,0.2-0.1,0.5-0.2,0.6
				C521.6,149.5,521.4,149.6,521.3,149.6l-0.2,0.2l-0.1-0.1L521.3,149.6z M517.6,146.4L517.6,146.4c0-0.8,0.7-1.5,1.6-1.6l0,0
				l0.3-0.1l0.7-0.8c0,0.2-0.1,0.5-0.2,0.6c-0.1,0.1-0.3,0.2-0.5,0.2l-0.2,0.2h-0.1C519.1,145.8,518.5,146.4,517.6,146.4
				L517.6,146.4l-0.3,0.1l-0.7,0.8c0-0.2,0-0.5,0.2-0.6c0.2-0.1,0.3-0.2,0.5-0.2L517.6,146.4z M516.2,10.8l0.2,0.5h-0.5L516.2,10.8z
				 M515.2,189.6l0.6,0.4l-0.6,0.2L515.2,189.6z M511.8,143.9c-0.4,0.3-0.7,0.8-1,0.8s-0.5-0.3-0.8-0.5l-0.3-0.2
				c0.1-0.1,0.2-0.2,0.2-0.3c0.1-0.2,0.2-0.3,0.3-0.3c0.5,0.1,0.9,0.3,1.3,0.5L511.8,143.9z M509.7,133.7v-0.4l0.4,0.3L509.7,133.7z
				 M509.4,77.4c0.3,0.3,0.8,0.6,0.7,0.8s-0.4,0.7-0.7,1.1c-0.2-0.2-0.5-0.4-0.5-0.5C509.1,78.3,509.3,77.8,509.4,77.4z M500.8,38.3
				l0.5,1.3l-0.5,0.5l0,0c-0.2-0.4-0.4-0.9-0.6-1.3C500.3,38.8,500.6,38.5,500.8,38.3z M499.3,89.2c0.8,1-0.2,0.9-0.6,1.1l0,0l0,0
				l0,0L499.3,89.2z"/>
			<path class="st0" d="M1331.3,40.8c0-0.8,0.5-1.7,0.3-2.3c-1.2-3.3-0.3-6.7-0.5-10.1c-0.2-3.4-0.2-6.8,0-10.2
				c0.2-3.4-1.3-6.6-0.5-9.9c0.3-0.8-0.2-1.7-1-2c-0.3-0.1-0.7-0.1-1,0c-5.2,0.8-10.5,0.8-15.6,0c-2.5-0.5-5.1-0.3-7.5,0.7
				c-0.9,0.2-1.8,0.1-2.5-0.3c-1.8-0.7-3.3,0.3-4.9,0.5c-1.9-0.1-3.9-0.3-5.8-0.6c-0.5,0-1.2,0.9-1.6,1.6s0,1.1,0.3,1.6
				c1.6,3.4,2.6,6.8,0.1,10.3c-0.5,0.8-0.2,2.1-0.1,3.2c0,1.7,0.2,3.3,0.5,4.9c0.2,1.9,0.2,3.8-0.2,5.7c-0.1,2.2-0.3,4.3-0.3,6.5
				c0,2.7,0,5.5,0,8.3c0.3,2.7,0.3,5.5-0.1,8.2c-0.6,2.6,0.8,5.4,0,8.1c-0.8,2.7,1.4,5.5-0.2,8.2c1.6,4.4-1.7,9.6,2.2,13.7
				c-0.6,1.3-2,2-1.2,4.2c0.7,3,0.6,6.2-0.3,9.1c-0.4,2-0.5,15.3-0.4,27.2c-1.1-1.3-2.2-2.5-3.4-3.8c-2-2.3-4-4.7-6-7.1
				c-0.5-0.6-1-1.2-1.5-1.8l-0.5-0.7l-0.6-0.8c-1-1.3-2-2.7-2.9-4c-0.4-0.6-1.1-1.1-1.8-1.4c-0.6-1.1-1.2-2.1-2-3
				c-0.9-1-1.8-2-2.7-3.1c-0.6-1.1-0.6-2.6-1.3-3.6c-4-5.4-9-9.9-11.5-16.4c-0.6-1.5-2.3-2.5-3.4-3.8c-1.1-1.3-1.6-2.1-2.4-3.2
				c-2.2-1-3.8-2.3-2.7-5.1c0.1-0.5-0.1-1-0.4-1.4c-2.2-1-1.6-3.5-2.9-4.9c-1.2-1.5-2.5-2.9-4-4.2c-2-1.4-0.4-3.7-1.8-5.2
				c-3.5-3.2-6.6-6.9-9.1-10.9c-0.7-0.9-1.6-1.6-2.6-2c-1.4-0.6-1.1-1.6-1-2.7c0-1.1-0.3-2.1-0.9-3c-1.6-2.2-3.4-4.2-5.2-6.3h-0.3
				l-0.7,0.8c0-0.2,0-0.5,0.2-0.6c0.1-0.1,0.3-0.2,0.5-0.2l0.2-0.2l0.1,0.1c-1.8-5.4-5.6-9.7-8.8-14.2c-2.8-1.1-3.2-3.6-3.9-6.1
				c-0.7-1.5-2.3-2.5-4-2.4c-1.2,2.9-2.2,1-3.1-0.2c-2,1.5-3.6-0.5-5.6-0.3c-3.5,0.6-7,0.7-10.5,0.5c-2.4-0.3-4.9-0.1-7.3-0.5
				c-2.8-0.3-5.7-0.3-8.5,0c-1.1,0-2.5,2-2.5,3.1c-0.1,0.8,0,1.7,0.3,2.5c1.1,2,1.1,4.4,0.1,6.5c-0.6,1.3-0.8,2.7-0.5,4.1
				c0.8,3.4-0.2,6.7,0,9.9c0.3,3.5,0.4,7.1,0.3,10.7c-0.2,3.8,0.7,7.7-0.2,11.5c-0.2,0.8-0.1,1.7,0.2,2.5c1,2.4,1.4,4.9,1.2,7.5
				c0,2.2,0.6,5-0.4,6.7c-1.7,2.7,1.1,4.9,0,7.4c-1.5,3.2-0.9,6.6-0.5,9.9c0.4,3,0.5,6,1,9c0.5,3.8,0.9,39-0.8,42.8
				c-0.8,1.8,0,3.8,1.7,4.7c-0.2,0.2-0.4,0.3-0.7,0.4c-0.4,0.4-0.5,0.9-0.4,1.4c0.8,1.8,0.8,3.9,0,5.7c-0.5,1.3-0.7,2.7-0.7,4.1
				c0,8.8,0.1,17.5,0.2,26.3c0,0.8,0.3,2,0.8,2.2c2,1.1,2.2,2.2,0.8,4c-0.3,0.5-0.5,1-0.7,1.5c-0.8,1.9,0.1,4.1,2,4.9
				c0.5,0.2,1.1,0.3,1.6,0.3c7.4-0.7,14.8-0.6,22.1,0.1c3.1,0.4,6.2,0.2,9.2-0.7c1-0.4,2.3,0.1,3.1-0.4c1.5-1.1,0.1-2.5,0-3.8
				c-0.5-2.5,1.3-4.9,0-7.4c-0.4-0.8,0.5-2.1,0.6-3.2c0.3-2,0.4-4,0.3-6c-0.4-4.7-0.3-9.5-2-13.9c-0.4-1.2,0.3-1.5,1-2
				c0.7-0.5,0.7-0.8,0-1.3c-0.7-0.5-2-0.8-0.7-1.7c1.8-1.4,2-2.6,0-3.9c-0.7-0.4-0.6-0.9,0-1.3c1.1-0.5,1.7-1.6,1.5-2.8v-0.3
				c0-0.1,0-0.3,0-0.4c0.6-5-0.9-41.2-0.2-46.3c0.1-1.4,0-2.7-0.2-4.1c-0.3-3.2,0.1-6.4,1.2-9.4c0.5-1,0.4-2.2-0.3-3.1
				c-0.6-0.9-1.5-2-1.5-2.9c0.3-2.5,0.7-5,1.2-7.5c0.2-1.1,1.9-2,2.6-1.2c2.8,2.5,7.3,3.7,6.5,8.9c0,0.4,0.4,1,0.8,1.5
				c1.9,2.4,3.8,4.9,5.7,7.3c0.8,1.2,1.8,2.2,2.9,3.1c1.8,1.2,0.5,3.1,1.5,4.5c2.3,3.3,4.5,6.8,6.7,10.2c1.7,4.4,4.4,8.4,8,11.6
				l6.8,7.1c1,1,2,2,2.9,3.1c0.4,0.5,0.8,1,1.2,1.5l0.1,0.2v0.1c0.2,0.3,0.5,0.6,0.7,1c0.4,0.5,0.7,1,1,1.6l0.4,0.8v0.2
				c0,0.1,0.1,0.3,0.1,0.3c0.2,0.6,0.4,1.2,0.5,1.8c0,0,0,0.5,0.1,0.5V137c0-0.4,0-0.3,0,0.2c0,0.4,0.1,0.8,0.2,1.3
				c0,0.2,0.1,0.4,0.2,0.6l0,0c-0.2,0.4-0.4,1.3-0.2,1.4c2.6,1.5,3.3,4.4,5,6.6c0.4,0.4-0.6,1.7,0.6,2.1c1.9,0.7,3.2,2.4,3.6,4.3
				c0.4,2,1.6,3.6,3.4,4.6l0.9-1c0,0.2,0,0.5-0.2,0.6c-0.2,0.2-0.5,0.3-0.7,0.4c1.3,1.7,3.4,2.6,3.9,5.3c0.6,3.3,2.4,6.3,4.9,8.6
				c1.3,1.1,2.3,2.5,2.9,4.1c0.4,2.2,2.1,4,4.3,4.6c0.2,0,0,1,0.3,1.4c0.8,1,1.6,2.1,2.3,3.2c0.6,1.2,0.5,2.8,2,3.4
				c0.5-1.3,1.1-1.4,1.7,0c0.3,0.1,0.6,0.3,0.9,0.6c0.1,0.1,0.1,0.1,0.1,0.2c0,0.1,0,0.2,0,0.3l-0.1,0.2c-0.1,0.1-0.3,0.2-0.5,0.3
				l-0.3,0.1c0.5,1.9,2,3.5,3.9,4.2c3.4,1.3,7,2,10.6,2c1.1,0,2.3-0.9,3.2-0.6c6.1,1.8,12.3,0.6,18.5,0.8c4,0,4.3-0.5,3.6-4.9
				c-0.1-0.8-0.4-1.6-0.6-2.4c-0.8-3.2,1-6,1.4-9.1c0.5-3.4-2.2-6.3-1.2-9.9c0.6-3.2,0.8-6.5,0.7-9.8c0-0.3-0.6-0.7-1-1l-0.1-1.7
				c-0.5,0-1-0.1-1.5-0.2c-1-0.3-1.2-0.9-0.7-1.7c0.2-0.5,0.4-1,0.6-1.5c3.1-0.9,3.3-1,2.6-3c-0.2-0.7-0.4-1.3-0.6-2
				c0.9-1.2,1.3-2.7,1.1-4.2c0-2.3-0.2-40.1-0.3-42.4s0.3-4-2-5.2c0-0.4,0.1-0.8,0.4-1.2c1.2-0.7,1.2-1.7,1.1-2.9
				c0.1-2.7-0.1-5.4-0.6-8.1c1.8-4,0.8-8.4,1-12.6c0.2-4.8-0.7-9.6,0.9-14.3c0.1-0.5,0.1-1.1-0.1-1.6
				C1330.3,51.5,1331.2,46.2,1331.3,40.8z M1172.4,34.5l1.2,0.5c-0.2,0.2-0.4,0.5-0.5,0.5c-0.4-0.1-0.8-0.3-1.2-0.5L1172.4,34.5z
				 M1171.9,59l-0.2-0.4h0.4L1171.9,59z M1173.2,137.9h1.8C1174.1,139.3,1174.1,139.3,1173.2,137.9L1173.2,137.9z M1175.4,101.9
				c-0.1,0.1-0.3,0.1-0.4,0.2l-0.2,0.2h-0.3l-0.3,0.4l-0.3,0.4l0,0c0,0,0,0,0-0.2c0-0.2,0.1-0.3,0.2-0.4c0.1-0.1,0.3-0.1,0.5-0.2
				l0.2-0.2l0,0l0,0l0.3-0.1l0.6-0.7C1175.7,101.5,1175.5,101.7,1175.4,101.9z M1175.8,96.1c-0.3,0.4-0.8,0.6-1.3,0.6
				c-1.2-0.2-1.7-1.6-1.3-3.2c0.1-0.3,0.8-0.4,1.1-0.6c1.5,0.6,2.1,1.9,1.5,3V96.1z M1182.2,29.5V30l-0.5-0.3L1182.2,29.5z
				 M1181.9,183.4h-0.3c-0.2,0-0.4-0.3-0.5-0.5c0.4-0.2,0.9-0.3,1.3-0.5c0,0,0.1,0,0.1,0c0.1,0,0.3,0.3,0.4,0.5l0,0
				C1182.6,183.2,1182.3,183.4,1181.9,183.4z M1184.1,178.3c-1,0.1-2.1,0-3-0.4c-1.1-0.6-1-1.8-0.5-2.9c0.1-0.2,0.4-0.5,0.6-0.5
				c1.6,0.4,2.9,1.6,3.4,3.3C1184.4,177.9,1184.2,178.3,1184.1,178.3z M1183.6,166.9L1183.6,166.9c0-0.1,0-0.1,0-0.2l-0.8-0.7
				c0.2,0,0.4,0,0.5,0.2c0.1,0.1,0.2,0.3,0.3,0.5l0.1,0.1c0,0,0,0.1,0,0.1l1.2,0.7C1183.7,168.5,1183.8,167.5,1183.6,166.9z
				 M1184.9,14.8h0.1l0,0l0.4-0.2l0,0c0.1,0.3,0.3,0.6,0.4,1c0,0.1,0,0.2,0,0.3c0,0,0,0.1-0.1,0.2l-0.4,0.3c0-0.2-0.2-0.4-0.2-0.7
				c-0.1-0.2-0.1-0.4-0.2-0.7L1184.9,14.8z M1186.7,144.2h-0.3c0,0-0.3-0.3-0.5-0.5c0.4-0.2,0.8-0.4,1.3-0.5c0.1,0,0.3,0.3,0.5,0.5
				C1187.4,143.9,1187.1,144.1,1186.7,144.2L1186.7,144.2z M1186.3,106.8c-0.1,0-0.3-0.3-0.5-0.5c0.4-0.2,0.9-0.3,1.3-0.4
				c0,0,0,0,0.1,0v0.1l0.3,0.3l0,0C1187.1,106.6,1186.7,106.7,1186.3,106.8L1186.3,106.8z M1186.6,79.7c-0.7,0.2-1.3-0.2-1.5-0.9
				c0-0.1,0-0.3,0-0.4c0-0.3,0.5-0.7,0.9-1.2c0.5,0.6,1.1,1.1,1.5,1.7C1187.4,79.3,1187.1,79.6,1186.6,79.7L1186.6,79.7z
				 M1188.2,12.1c0.4-0.6,0.8-1.1,1.4-1.5c0,0,0.6,0.5,1.1,0.9c-0.6,0.5-1.1,1-1.7,1.5C1189,12.9,1188.2,12.1,1188.2,12.1
				L1188.2,12.1z M1191,171.3v-0.4l0.4,0.3L1191,171.3z M1193.4,80L1193.4,80L1193.4,80h-0.2l-0.8,0.8l0,0c0-0.2,0-0.5,0.2-0.6
				c0.2-0.1,0.3-0.2,0.5-0.2l0.1-0.2c0.1,0,0.1,0,0.2,0l0.6-1.1c0.9,1.1,0,0.9-0.6,1.1L1193.4,80z M1195.1,122.7l0.1-0.2
				L1195.1,122.7C1195.2,122.6,1195.1,122.6,1195.1,122.7l-0.7,0.9C1193.8,122.6,1194.7,122.8,1195.1,122.7L1195.1,122.7z
				 M1195.7,182.2L1195.7,182.2L1195.7,182.2h-0.3l-0.7,0.8c0-0.2,0-0.5,0.2-0.6c0.1-0.1,0.3-0.2,0.4-0.2l0.2-0.2h0.1V182.2z
				 M1196.8,181.1c-0.2,0.4-0.7,0.6-1.1,0.9c0-0.2,0-0.4,0-0.6c0-0.3,0-0.5,0.1-0.8c0.1-0.3,0.5-0.6,0.8-0.9
				C1196.7,180.1,1196.9,180.7,1196.8,181.1L1196.8,181.1z M1200.6,11.4l-0.2-0.5h0.5L1200.6,11.4z M1205.8,33.4l-0.1-0.4h0.4
				L1205.8,33.4z M1211.1,52.1c0,0.1-0.1,0.2-0.1,0.3c-0.1,0.1-0.2,0.1-0.4,0.2h-0.1l-0.2,0.2l0,0l0,0h-0.2h-0.1l-0.7,0.8
				c0-0.2,0-0.5,0.2-0.6c0.1-0.1,0.3-0.2,0.4-0.2l0.2-0.2h0.3l0,0l0.3-0.4l0.4-0.4l0,0L1211.1,52.1z M1212.8,39.9l-1.4,0.6l-0.5-0.6
				c0.4-0.2,0.9-0.4,1.3-0.5c0,0,0.1,0,0.1,0C1212.5,39.5,1212.6,39.7,1212.8,39.9L1212.8,39.9z M1237.3,72.5c-0.5-0.1-0.8-1-1-1.7
				c0-0.2,0.8-0.9,1-0.9c0.8,0.3,1.6,0.8,2.2,1.3C1238.5,71.9,1237.8,72.6,1237.3,72.5z M1249.5,79.7v-0.2h0.3l0.7-0.8
				c0,0.2,0,0.5-0.2,0.6c-0.1,0.1-0.3,0.2-0.5,0.2l-0.2,0.2L1249.5,79.7v1.5h0.1l0.1,0.3l0.8,0.6c-0.2,0-0.4,0-0.6-0.2
				c-0.1-0.1-0.2-0.3-0.2-0.4l-0.2-0.2v-0.2C1248.1,80.7,1248.2,80.2,1249.5,79.7L1249.5,79.7z M1249,94v0.4l-0.4-0.3L1249,94z
				 M1242,103l-0.2-0.5h0.5L1242,103z M1242.9,81.1c-0.1,0-0.2,0-0.3,0c-0.3-0.1-0.5-0.4-0.8-0.6l0,0l0.3-0.3
				c0.1-0.1,0.2-0.2,0.3-0.2c0.5,0.1,0.9,0.3,1.4,0.4C1243.5,80.7,1243.3,81.1,1242.9,81.1L1242.9,81.1z M1244.9,72.1l0.3-0.5
				l0.2,0.6L1244.9,72.1z M1251.2,119.2l-1.8-1.9c-0.8-0.9-1.6-1.7-2.4-2.5c0.4,0.2,0.7,0.4,1.1,0.6c0.8,0.4,1.6,0.8,2.4,1.2
				c0.2,0.8,0.5,1.6,0.8,2.4C1251.2,119,1251.2,119.1,1251.2,119.2z M1262.3,130.8l-0.4-0.6l-0.1-0.2c0.1-0.1,0.2-0.2,0.3-0.3
				l0.8,1.8C1262.6,131.3,1262.4,131.1,1262.3,130.8L1262.3,130.8z M1278.5,138.2l-0.6-1.2l0,0l-0.2-0.4l1,0.8l0.9,0.7
				C1279.3,138.2,1278.9,138.2,1278.5,138.2L1278.5,138.2z M1283.8,151.1l-1,0.6c-0.1-0.4-0.2-0.9-0.2-1.4c0-0.2,0.4-0.3,0.6-0.5
				L1283.8,151.1z M1295.2,155.4l-0.4-0.3l0.5-0.2L1295.2,155.4z M1296.6,26.2c-0.1,0-0.3-0.4-0.5-0.6c0.5-0.2,0.9-0.4,1.4-0.5l0,0
				l0.1,0.1l0,0v0.1c0.1,0.1,0.1,0.2,0.2,0.3l0,0c-0.4,0.3-0.8,0.5-1.3,0.7L1296.6,26.2z M1302.9,12.1l0.5,0.5l-0.5,1.3
				c-0.2-0.2-0.5-0.4-0.5-0.5C1302.5,12.9,1302.7,12.5,1302.9,12.1z M1303.2,20.5l-0.3,0.4l-0.2-0.5L1303.2,20.5z M1301.4,90.9
				c-0.1,0.1-0.3,0.2-0.4,0.2l-0.2,0.2l-0.2,0.1c0,0.7,0,1.3-0.2,2c0,0.2-0.3,0.3-0.5,0.5c-0.2-0.4-0.7-1-0.6-1.2
				c0.4-0.5,0.8-1,1.3-1.4c0-0.1,0-0.2,0-0.3h0.3l0.7-0.8C1301.5,90.6,1301.5,90.8,1301.4,90.9L1301.4,90.9z M1303.2,85.6l-0.1-0.5
				h0.4L1303.2,85.6z M1303.4,35.5c-0.4,0.1-1,0.4-1.3,0.2s-0.6-0.8-0.9-1.2l1.1-0.7l0,0c0.4,0.3,0.7,0.6,1,1
				C1303.5,35,1303.5,35.3,1303.4,35.5L1303.4,35.5z M1303.7,28.9c-0.6-0.9-1-1.9-1.2-2.9c-0.1-0.9,1.8-1.3,2.7-0.5
				c0.9,0.8,2,1.3,1.5,2.1C1305.7,29.3,1304.3,29.8,1303.7,28.9L1303.7,28.9z M1308.6,99c-0.4,0.1-0.7,0.3-1.1,0.4l-0.4,0.1l0,0
				l-0.1-0.1l-0.3-0.4l0,0c0.5-0.2,1-0.3,1.5-0.5c0,0,0.2,0,0.2,0.2S1308.7,98.9,1308.6,99L1308.6,99z M1308,31.2l-0.2-0.5h0.5
				L1308,31.2z M1310,68l0.1,0.5h-0.4L1310,68z M1311,191.4c-0.1,0-0.3-0.4-0.5-0.5c0.4-0.2,0.9-0.3,1.4-0.5h0.1
				c0.1,0.2,0.3,0.3,0.4,0.5l0,0C1311.9,191.1,1311.4,191.2,1311,191.4z M1312.1,180.8v-0.4l0.4,0.3L1312.1,180.8z M1329.3,159.6
				c0.2-0.1,0.3-0.2,0.5-0.2l0.2-0.2v0.1h-0.3l-0.7,0.8C1329.2,160,1329.2,159.7,1329.3,159.6z M1324.9,13.5l0.4,0.3l-0.5,0.2
				L1324.9,13.5z M1321.5,10.3l0.3-0.3c0,0,0.2-0.2,0.3-0.2c0.4,0.2,0.9,0.4,1.3,0.6l-0.6,0.5L1321.5,10.3L1321.5,10.3L1321.5,10.3z
				 M1316.8,162.5c-0.7-0.3-1.3-0.8-2-1.2l1.2-1.1c0.5,0.6,0.9,1.2,1.4,1.8C1317.5,162,1316.9,162.5,1316.8,162.5z M1317.3,143.2
				l-0.4-0.3l0.5-0.2L1317.3,143.2z M1317.7,123.7c-0.3,0.3-0.5,0.5-0.8,0.8c0-0.2,0-0.5,0.2-0.6
				C1317.4,123.8,1317.5,123.7,1317.7,123.7l0.1-0.1l0,0L1317.7,123.7z M1318.8,94l-0.4-0.3l0.5-0.2L1318.8,94z M1318.4,44.4
				c-0.2-0.5-0.3-0.9-0.5-1.4c0-0.1,0.3-0.3,0.5-0.5l0.5,1.4L1318.4,44.4z M1320.3,23.8l-0.3,0.4l-0.2-0.5L1320.3,23.8z
				 M1322.3,145.3c-0.2,0.1-0.4,0.1-0.7,0.1l-0.1,0.2h-0.3l-0.7,0.8c0-0.1,0-0.2,0-0.3c0-0.1,0.1-0.2,0.1-0.2
				c0.1-0.1,0.3-0.2,0.5-0.2l0.2-0.2l0,0c0.1-0.1,0.1-0.1,0.2-0.1l0.5-0.9C1322.5,145.1,1322.5,145.3,1322.3,145.3L1322.3,145.3z
				 M1323.3,97c-0.1-0.1-0.2-0.3-0.2-0.5l-0.3-0.1v-0.3l-0.8-0.7c0.2,0,0.5,0,0.6,0.2c0.1,0.1,0.2,0.3,0.2,0.5l0.2,0.2
				c0,0.1,0,0.2,0,0.3l0.8,0.7C1323.6,97.2,1323.3,97.2,1323.3,97L1323.3,97z M1325.7,185.8l0.3-0.5l0.2,0.6L1325.7,185.8z
				 M1326.2,72.1h-0.3c0,0-0.2,0-0.2-0.2c-0.1-0.2-0.2-0.3-0.3-0.4l0,0c0.3-0.1,0.7-0.3,1-0.4h0.4l0,0c0.1,0,0.2,0.4,0.4,0.5l0,0
				L1326.2,72.1z M1328.3,154.2L1328.3,154.2l-1.2-0.7C1328.2,152.6,1328.1,153.6,1328.3,154.2L1328.3,154.2z M1328.9,80L1328.9,80
				c0,0,0,0.1,0,0.2c0,0.2-0.1,0.3-0.2,0.4c-0.1,0.1-0.3,0.2-0.5,0.2L1328,81l0,0l-0.3,0.1l-0.7,0.8l0,0c0-0.2,0.1-0.3,0.1-0.5v-0.1
				c0.1-0.1,0.3-0.1,0.4-0.2l0.2-0.2l0.3-0.1l0.3-0.3L1328.9,80L1328.9,80z"/>
			<path class="st0" d="M1020.2,194.9c-0.1-2.5-0.7-4.9-1.7-7.2c-0.4-1-0.6-2-0.7-3.1c-0.5-1.5-0.7-3.2-0.6-4.8
				c0.4-1.8-0.2-3.7-1.6-5c-0.5-1-0.5-2.2,0-3.2c1.1-2.4-0.7-4.3-1.2-6.3c-0.3-1.1-1.7-1.9-2.6-2.8c-0.1-1.1-0.4-2.1-0.8-3.1
				c-1.1-1.7-2.3-2-4-0.4c-1.2,1.1-1.5,0.8-2.4-0.2c-1.5-1.5-3.2-1.8-4.7,0.2c-1-0.3-2.1-0.5-3.2-0.7c-4.2-0.2-8.3-0.5-12.4-0.5
				c-9,0-6.6-1.1-9.8,7.2c-1,2.6-1.6,5.4-2.6,8.1c-0.6,1.6-0.4,2.7,1.2,3.4c0.8,0.3,0.7,0.8,0,1.3c-2.9,2.1-2,5.5-2.6,8.3
				c3.4,1.6,0,2-0.5,3.1c-0.4,1-0.8,2.1-1.1,3.2c-0.8,2.3-0.8,2.4,2.1,4.3c0.6-2.8,0.7-3,2.6-1.6c2.9,2.4,6.6,3.4,10.3,2.8
				c2.1-0.5,4.3-0.5,6.4-0.1c3.1,0.3,6.2,0.2,9.3-0.2c2.2-0.1,4.5-1.1,6.4-0.5c2.5,0.7,4.9-0.7,7.4,0.5c1.6,0.8,3.9,0.1,5.8,0
				c0.4,0,0.7-0.7,1.1-1.1C1018.9,196.1,1018.9,195.5,1020.2,194.9z M976.5,177.4l0.3-0.5l0.2,0.6L976.5,177.4z M979.2,164h-0.3
				c-0.1,0-0.3-0.4-0.5-0.6c0.4-0.2,0.9-0.3,1.4-0.4h0.1c0.1,0.1,0.3,0.3,0.4,0.5l0,0C979.8,163.8,979.5,163.9,979.2,164L979.2,164z
				 M987.7,162.3h-0.3h-0.1c-0.1-0.1-0.3-0.3-0.4-0.5l1-0.4h0.3h0.1l0,0l0.1,0.2l0.2,0.3l0,0C988.4,162.1,988,162.2,987.7,162.3
				L987.7,162.3z M992.8,168.3c0.6,0.3,1.1,0.7,1.8,1.1l-1.3,1l-1.2-1.7C992.3,168.4,992.6,168.2,992.8,168.3L992.8,168.3z
				 M990.5,177.4l-0.4-0.3l0.5-0.2L990.5,177.4z M994.5,188.1c-0.5,0.1-0.9,0.2-1.4,0.1v0.1l0,0l-0.3,0.1l-0.7,0.8
				c0-0.2,0-0.4,0.2-0.6c0.1-0.1,0.3-0.2,0.4-0.2l0.2-0.2h0.2c0.1-0.2,0.2-0.4,0.3-0.6c0.1-0.2,0.3-0.4,0.5-0.6c0.1,0,0.2,0,0.3,0
				c0.4,0,0.7,0.1,1.1,0.2l-0.4,0.5C994.9,187.9,994.7,188,994.5,188.1L994.5,188.1z M995.4,194.3l0.3-0.4l0.1,0.5L995.4,194.3z
				 M999.1,192.7l-0.4-0.3l0.5-0.2L999.1,192.7z M999.8,159.6l-0.2-0.2l0.1-0.1C999.7,159.2,999.7,159.4,999.8,159.6l0.7,0.7
				c-0.2,0-0.5,0-0.6-0.2C999.8,159.9,999.8,159.7,999.8,159.6z M1001,179.3c-0.1,0-0.3-0.3-0.5-0.5c0.4-0.2,0.9-0.3,1.3-0.4
				c0,0,0.1,0,0.1,0h0.1l0,0l0,0l0.2,0.3l0,0C1001.9,178.9,1001.5,179.1,1001,179.3L1001,179.3z M1011.5,162.8v-0.2l0,0h-0.2
				c-0.2,0.4-0.4,0.7-0.6,1.1C1009.9,162.7,1010.9,162.9,1011.5,162.8L1011.5,162.8z M1011.7,171.1v0.1h-0.2
				c-0.2,0.4-0.5,0.8-0.9,1.1c-0.4,0.2-0.9,0-1.4-0.1c0.3-0.3,0.5-0.7,0.9-0.8c0.2-0.1,0.5-0.1,0.8-0.1h0.6l0,0h0.1
				c0-1.3,0.1-2.5,0.3-3.7c0-0.1,0.1-0.2,0.2-0.3c0.1-0.1,0.2-0.2,0.3-0.3l0.3,0.3c0.1,0.1,0.2,0.2,0.2,0.3
				C1013.6,168.9,1013.6,170.3,1011.7,171.1L1011.7,171.1z"/>
		</g>
	</g>
</g>
</svg>
