<svg width="174" height="41" viewBox="0 0 174 41" fill="none" xmlns="http://www.w3.org/2000/svg">
<path d="M62.976 14.256L59.392 25.456H55.344L53.536 19.472L51.632 25.456H47.584L44 14.256H47.888L49.84 20.624L51.904 14.256H55.376L57.328 20.704L59.392 14.256H62.976Z" fill="white"/>
<path d="M69.5146 25.712C68.3093 25.712 67.2266 25.4613 66.2666 24.96C65.3066 24.4587 64.5546 23.7653 64.0106 22.88C63.4666 21.984 63.1946 20.976 63.1946 19.856C63.1946 18.736 63.4666 17.7333 64.0106 16.848C64.5546 15.952 65.3066 15.2533 66.2666 14.752C67.2266 14.2507 68.3093 14 69.5146 14C70.72 14 71.8026 14.2507 72.7626 14.752C73.7226 15.2533 74.4746 15.952 75.0186 16.848C75.5626 17.7333 75.8346 18.736 75.8346 19.856C75.8346 20.976 75.5626 21.984 75.0186 22.88C74.4746 23.7653 73.7226 24.4587 72.7626 24.96C71.8026 25.4613 70.72 25.712 69.5146 25.712ZM69.5146 22.656C69.984 22.656 70.4053 22.544 70.7786 22.32C71.1626 22.0853 71.4666 21.76 71.6906 21.344C71.9146 20.9173 72.0266 20.4213 72.0266 19.856C72.0266 19.2907 71.9146 18.8 71.6906 18.384C71.4666 17.9573 71.1626 17.632 70.7786 17.408C70.4053 17.1733 69.984 17.056 69.5146 17.056C69.0453 17.056 68.6186 17.1733 68.2346 17.408C67.8613 17.632 67.5626 17.9573 67.3386 18.384C67.1146 18.8 67.0026 19.2907 67.0026 19.856C67.0026 20.4213 67.1146 20.9173 67.3386 21.344C67.5626 21.76 67.8613 22.0853 68.2346 22.32C68.6186 22.544 69.0453 22.656 69.5146 22.656Z" fill="white"/>
<path d="M88.2451 14.256V25.456H85.1411L80.8851 20.368V25.456H77.2051V14.256H80.3091L84.5651 19.344V14.256H88.2451Z" fill="white"/>
<path d="M90.0645 14.256H95.5845C96.8325 14.256 97.9312 14.4853 98.8805 14.944C99.8405 15.392 100.582 16.0373 101.104 16.88C101.638 17.7227 101.904 18.7147 101.904 19.856C101.904 20.9973 101.638 21.9893 101.104 22.832C100.582 23.6747 99.8405 24.3253 98.8805 24.784C97.9312 25.232 96.8325 25.456 95.5845 25.456H90.0645V14.256ZM95.4245 22.512C96.2352 22.512 96.8805 22.2827 97.3605 21.824C97.8512 21.3547 98.0965 20.6987 98.0965 19.856C98.0965 19.0133 97.8512 18.3627 97.3605 17.904C96.8805 17.4347 96.2352 17.2 95.4245 17.2H93.8405V22.512H95.4245Z" fill="white"/>
<path d="M112.595 22.608V25.456H103.283V14.256H112.387V17.104H106.995V18.416H111.731V21.136H106.995V22.608H112.595Z" fill="white"/>
<path d="M118.849 22.64H117.825V25.456H114.049V14.256H119.441C120.476 14.256 121.377 14.4267 122.145 14.768C122.913 15.1093 123.505 15.6 123.921 16.24C124.337 16.88 124.545 17.6267 124.545 18.48C124.545 19.28 124.364 19.9787 124.001 20.576C123.638 21.1733 123.116 21.648 122.433 22L124.785 25.456H120.753L118.849 22.64ZM120.737 18.48C120.737 18.064 120.609 17.744 120.353 17.52C120.097 17.2853 119.713 17.168 119.201 17.168H117.825V19.792H119.201C119.713 19.792 120.097 19.68 120.353 19.456C120.609 19.2213 120.737 18.896 120.737 18.48Z" fill="white"/>
<path d="M125.971 14.256H129.747V22.528H134.803V25.456H125.971V14.256Z" fill="white"/>
<path d="M143.634 23.504H139.378L138.626 25.456H134.786L139.682 14.256H143.394L148.29 25.456H144.386L143.634 23.504ZM142.594 20.784L141.506 17.968L140.418 20.784H142.594Z" fill="white"/>
<path d="M159.933 14.256V25.456H156.829L152.573 20.368V25.456H148.893V14.256H151.997L156.253 19.344V14.256H159.933Z" fill="white"/>
<path d="M161.752 14.256H167.272C168.52 14.256 169.619 14.4853 170.568 14.944C171.528 15.392 172.269 16.0373 172.792 16.88C173.325 17.7227 173.592 18.7147 173.592 19.856C173.592 20.9973 173.325 21.9893 172.792 22.832C172.269 23.6747 171.528 24.3253 170.568 24.784C169.619 25.232 168.52 25.456 167.272 25.456H161.752V14.256ZM167.112 22.512C167.923 22.512 168.568 22.2827 169.048 21.824C169.539 21.3547 169.784 20.6987 169.784 19.856C169.784 19.0133 169.539 18.3627 169.048 17.904C168.568 17.4347 167.923 17.2 167.112 17.2H165.528V22.512H167.112Z" fill="white"/>
<path fill-rule="evenodd" clip-rule="evenodd" d="M3 3.95996H26.28V5.15996H4.2V19.36H3V3.95996ZM34.2 35.16V24.96H35.4V36.36H10.88V35.16H34.2ZM4.2 35.16V25.76H3V36.36H6.24V35.16H4.2Z" fill="white"/>
<path fill-rule="evenodd" clip-rule="evenodd" d="M32.0109 9.96365C32.0665 10.175 31.6586 10.5297 31.1319 10.9875C30.1375 11.852 28.72 13.0843 29.2006 14.4149C28.0912 15.0437 26.5814 17.6413 27.2724 19.0299L26.3405 19.5233C26.3197 19.5172 24.8966 19.0978 24.3407 18.8034C24.207 18.7326 23.974 18.6407 23.6958 18.5309C22.8086 18.1808 21.461 17.649 21.4001 17.0401C21.3272 16.3107 22.8168 12.0242 23.0805 11.2725C23.1524 11.118 23.2364 10.964 23.3202 10.81L23.3202 10.81C23.5153 10.452 23.7102 10.0942 23.7545 9.73111C23.7783 9.53687 23.7285 9.38402 23.5154 9.5273C23.4401 9.58504 23.395 9.73943 23.354 9.87931C23.3083 10.0357 23.2678 10.1739 23.1966 10.1387C23.1475 10.1144 23.1965 9.93184 23.2605 9.69349C23.3845 9.23187 23.5645 8.56117 23.1966 8.42676C22.9312 8.32982 22.519 8.46752 22.3596 9.3235C22.2394 9.96924 22.2396 10.2308 22.24 10.7028V10.7029L22.24 10.7533C21.9178 11.3457 19.7601 15.3745 19.7601 17.0401C19.7601 18.2418 20.0751 18.5241 21.1479 19.486C21.3964 19.7087 21.6855 19.9679 22.0207 20.2834L19.146 24.2443C18.3751 24.474 16.548 23.8381 14.7057 23.197L14.7057 23.197C12.573 22.4548 10.42 21.7055 9.86082 22.2833C9.57519 22.5785 9.76391 23.0924 9.95472 23.612C10.0397 23.8434 10.1251 24.0759 10.1692 24.2907L5.50045 23.4468C5.18712 23.3778 5.04981 22.9063 5.0226 22.5944C5.10507 22.1183 5.30588 20.7659 5.26044 20.5268C5.22802 20.3562 5.15182 20.29 4.90619 20.16L3.03979 23.9388C3.47603 24.2921 4.05987 24.436 4.62044 24.4868L4.62054 24.4866C5.14619 24.6336 7.4174 25.2729 9.59744 25.9534C9.12534 27.4012 9.47229 28.9743 9.7972 30.2453L6.93265 37.5517C6.80421 37.8458 6.31479 37.8892 6.0036 37.8555C5.55228 37.6823 4.26466 37.2236 4.0213 37.2219C3.84769 37.2207 3.76798 37.2827 3.59284 37.4985L6.9389 40.0611C7.36995 39.7015 7.62408 39.1565 7.7825 38.6164L7.78239 38.6163C8.0836 38.0196 9.61735 34.9948 10.9155 32.696C11.6004 33.115 12.5445 33.0687 13.1808 32.7633C13.6734 32.5268 14.3961 32.517 15.2399 32.5054C16.4571 32.4888 17.9263 32.4687 19.3202 31.76C20.2422 31.2911 22.0998 29.46 22.4742 28.5351C24.3585 27.1521 25.5572 26.3949 27.3418 25.4713C27.6903 25.8333 28.0319 26.2073 28.356 26.5622L28.3561 26.5622C29.0087 27.2766 29.5902 27.9133 30.0129 28.217C31.1179 29.0109 32.0552 28.5729 32.7959 27.7758C33.1971 27.3439 33.4945 26.2393 33.8079 25.0753L33.8079 25.0752C33.9504 24.5456 34.0963 24.0038 34.2568 23.5073H34.2584C34.4604 23.0282 34.5776 22.6867 34.7206 22.0177C34.8994 21.1815 34.5708 20.8963 34.2884 20.8806C33.8968 20.8587 33.8077 21.5354 33.7464 22.0011C33.7148 22.2416 33.6905 22.4259 33.6359 22.4287C33.5565 22.4327 33.5718 22.292 33.5891 22.1327V22.1327C33.6045 21.9903 33.6216 21.833 33.574 21.7515C33.4316 21.5389 33.3272 21.6577 33.2752 21.8426C33.1778 22.1882 33.2217 22.5877 33.2656 22.9875C33.2807 23.1248 33.2958 23.2621 33.3052 23.3973C33.1641 23.7848 32.0316 26.817 31.1329 26.817C30.1729 26.817 28.9198 23.5968 28.9198 23.5968L28.9187 23.597L27.7641 21.114L27.769 21.1078C27.8396 21.015 27.9275 20.8751 28.0328 20.7074C28.132 20.5495 28.2466 20.3671 28.3767 20.1762C29.2195 20.5769 30.2549 20.2844 31.2328 19.2537C34.8034 21.3106 35.8567 18.5545 36.5198 16.56C37.2 15.8884 36.82 14.4645 36.4995 13.2633C36.2479 12.3208 36.033 11.5154 36.3956 11.3182C37.2417 10.8582 37.0732 10.5017 36.8299 9.98667C36.6859 9.68178 36.5156 9.32134 36.514 8.85096C36.5122 8.28221 36.6135 7.95583 36.7049 7.6615C36.8168 7.30125 36.9137 6.98899 36.7882 6.33906C36.6759 5.75751 36.2203 5.51993 35.716 5.25703C35.1964 4.98607 34.6251 4.68823 34.3251 3.95918C31.6225 -2.60826 26.7575 2.05109 27.2074 3.81398C27.4308 4.6891 27.9923 5.30214 28.8516 6.2402C28.917 6.31151 28.984 6.3847 29.0528 6.46002C29.3406 6.77541 29.4013 7.2261 29.4557 7.63042C29.4983 7.94687 29.537 8.23491 29.6779 8.40743C30.1835 9.02652 30.7814 9.25025 31.2477 9.42474C31.6386 9.57101 31.937 9.68267 32.0109 9.96365Z" fill="white"/>
</svg>
