<svg xmlns="http://www.w3.org/2000/svg" xmlns:xlink="http://www.w3.org/1999/xlink" viewBox="0 0 130 56"><defs><style>.cls-1{isolation:isolate;}.cls-2{fill:#ffc857;}.cls-3{fill:#c19742;}.cls-4{opacity:0.5;mix-blend-mode:overlay;}.cls-5{fill:url(#linear-gradient);}.cls-6{fill:url(#linear-gradient-2);}.cls-7{fill:url(#linear-gradient-3);}</style><linearGradient id="linear-gradient" x1="56.82805" y1="1.82603" x2="56.82805" y2="38.82474" gradientUnits="userSpaceOnUse"><stop offset="0" stop-color="#fff" stop-opacity="0.5"/><stop offset="0.12588" stop-color="#d1d1d1" stop-opacity="0.58941"/><stop offset="0.4042" stop-color="#777" stop-opacity="0.76577"/><stop offset="0.65263" stop-color="#363636" stop-opacity="0.8937"/><stop offset="0.85972" stop-color="#0e0e0e" stop-opacity="0.97182"/><stop offset="1"/></linearGradient><linearGradient id="linear-gradient-2" x1="74.94644" y1="5.99286" x2="74.94644" y2="34.20162" xlink:href="#linear-gradient"/><linearGradient id="linear-gradient-3" x1="66.83466" y1="1.82603" x2="66.83466" y2="38.82474" xlink:href="#linear-gradient"/></defs><g class="cls-1"><g id="Layer_1" data-name="Layer 1"><path class="cls-2" d="M39.07422,42.9082a2.10174,2.10174,0,0,0,.36621.09571q.24535.04833.5459.084a4.56836,4.56836,0,0,0,.55176.03613l-1.46387.13184Zm7.68017.21582v.50391H39.07422V43.124Zm-6.34814.46778v.03613a1.23122,1.23122,0,0,0-.88184.3418,1.20961,1.20961,0,0,0-.33007.89453v.13183l-.12012.01172v-1.416Zm1.644,7.06836v.876h-.96V51.416h.15576a.73013.73013,0,0,0,.53418-.22168.773.773,0,0,0,.23389-.53418Zm1.76416-7.48828v8.36425H42.01416V43.17188Zm-.03613,7.48828h.03613a.77093.77093,0,0,0,.23389.53418.729.729,0,0,0,.53369.22168h.15625v.12011h-.96Zm2.97607-7.752v.34766L45.29,43.124a4.51469,4.51469,0,0,0,.5581-.03613q.29372-.03516.5459-.084A1.75859,1.75859,0,0,0,46.75439,42.9082Zm0,.6836v1.416l-.12011-.01172v-.13183a1.20962,1.20962,0,0,0-.33008-.89453,1.24855,1.24855,0,0,0-.894-.3418V43.5918Z"/><path class="cls-2" d="M48.21826,45.08008h-.02392a.63079.63079,0,0,0-.19825-.4502.62334.62334,0,0,0-.438-.17383h-.15577v-.12011h.86377Zm0,5.70019.04785.75586h-.86377V51.416h.14405a.61221.61221,0,0,0,.4497-.18555.66.66,0,0,0,.19825-.4502Zm1.7041-6.44433v7.20019H48.18213V44.33594Zm1.16358,0a4.52809,4.52809,0,0,1,.97217.10254,2.77916,2.77916,0,0,1,.83984.32324,1.6798,1.6798,0,0,1,.59424.60058,1.83261,1.83261,0,0,1,.22217.94141,2.12969,2.12969,0,0,1-.17432.834,1.83066,1.83066,0,0,1-.54.71484,1.98038,1.98038,0,0,1-.95361.39551,1.66394,1.66394,0,0,1,.66552.41992,3.16183,3.16183,0,0,1,.48633.58789c.04.06445.09961.166.17969.30664q.12012.20948.30615.47949.186.26954.39014.5586a4.01794,4.01794,0,0,0,.41992.49707,1.09023,1.09023,0,0,0,.37207.24609,1.24077,1.24077,0,0,0,.44385.07227v.12011H54.30225a5.39755,5.39755,0,0,1-1.09815-.0957,1.84457,1.84457,0,0,1-.77392-.35449,2.89409,2.89409,0,0,1-.61182-.70215,3.81744,3.81744,0,0,1-.228-.37793q-.12012-.22119-.24023-.4502c-.08008-.15136-.1499-.2998-.21-.44336a2.66783,2.66783,0,0,1-.126-.36035,1.47738,1.47738,0,0,0-.354-.55761.57679.57679,0,0,0-.36621-.17383v-.1084h.30029a1.4503,1.4503,0,0,0,.498-.08984,1.04087,1.04087,0,0,0,.4497-.34766,1.77108,1.77108,0,0,0,.3003-.7627,1.22412,1.22412,0,0,0,.042-.2041,1.49669,1.49669,0,0,0,.00586-.2998A1.74909,1.74909,0,0,0,51.728,45.5a1.13212,1.13212,0,0,0-.3418-.4082,1.258,1.258,0,0,0-.41406-.19727,1.49888,1.49888,0,0,0-.36621-.05469c-.15186-.00781-.29-.00976-.41358-.00586a1.99565,1.99565,0,0,1-.28222-.00586c-.0083,0-.02-.042-.03614-.126s-.04-.20606-.07177-.36621Zm-1.188,6.44433h.02441a.56509.56509,0,0,0,.21.46778.6897.6897,0,0,0,.438.168h.13184v.12011h-.86377Z"/><path class="cls-2" d="M56.09033,45.0918H56.0542a.58192.58192,0,0,0-.2041-.45606.72207.72207,0,0,0-.49219-.17969h-.14355v-.12011h.876Zm0,5.68847v.75586h-.876V51.416h.15576a.689.689,0,0,0,.48-.18555.58714.58714,0,0,0,.2041-.4502Zm1.6919-6.44433v7.20019h-1.728V44.33594Zm-.02393.75586v-.75586h.86377l-.01172.12011H58.478a.6992.6992,0,0,0-.48584.17969.62964.62964,0,0,0-.21.45606Zm0,5.68847h.02393a.63768.63768,0,0,0,.21.4502.68225.68225,0,0,0,.48584.18555h.144v.12011H57.7583Z"/><path class="cls-2" d="M60.20605,45.0918h-.02392a.63153.63153,0,0,0-.21-.45606.68474.68474,0,0,0-.47412-.17969h-.144v-.12011h.852Zm.01172,5.67675v.76758H59.354V51.416h.15577a.65654.65654,0,0,0,.47412-.19141.61322.61322,0,0,0,.19824-.45606Zm1.69239-6.43261v7.20019h-1.728V44.33594Zm1.5,0a5.25266,5.25266,0,0,1,2.208.42578,3.15741,3.15741,0,0,1,1.416,1.23633,4.057,4.057,0,0,1,0,3.87011,3.20432,3.20432,0,0,1-1.416,1.23633,5.176,5.176,0,0,1-2.208.43164H60.74609l-.02392-.48047h2.54394a2.14845,2.14845,0,0,0,1.78174-.82714,4.35351,4.35351,0,0,0,0-4.59082,2.14336,2.14336,0,0,0-1.78174-.834H60.60205v-.46777Z"/><path class="cls-2" d="M69.03809,45.0918h-.03614a.59956.59956,0,0,0-.19238-.45606.64789.64789,0,0,0-.456-.17969h-.15528v-.12011h.8877Zm0,5.68847.04785.75586h-.8877V51.416h.15528a.63287.63287,0,0,0,.456-.18555.60491.60491,0,0,0,.19238-.4502Zm1.6914-6.44433v7.20019H69.00195V44.33594Zm2.94043,0v.48047H70.70605v-.48047Zm-.54,3.39648v.47949H70.70605v-.47949Zm.40821,3.32324.27539.48047H70.70605v-.48047Zm.76757-1.72754-.45605,2.208H71.77344l.37207-.48047a1.94518,1.94518,0,0,0,.918-.21,2.00786,2.00786,0,0,0,.69043-.59961,2.941,2.941,0,0,0,.44433-.918ZM73.12988,46.7002v1.05566H72.09766v-.02344a.89348.89348,0,0,0,.666-.28222.95217.95217,0,0,0,.2461-.666v-.084Zm0,1.48828v1.05566h-.12011v-.0957a.95049.95049,0,0,0-.2461-.666.85423.85423,0,0,0-.666-.27051v-.02343Zm.54-4.03223v.28809l-1.25976-.1084a4.32651,4.32651,0,0,0,.73144-.06543A4.14084,4.14084,0,0,0,73.66992,44.15625Zm0,.63574v1.27246H73.5498v-.1084a1.16028,1.16028,0,0,0-.28222-.82812,1.09519,1.09519,0,0,0-.80957-.31152V44.792Z"/><path class="cls-2" d="M75.69727,50.80371v.73242h-.8877V51.416H75.001a.6715.6715,0,0,0,.46875-.17383.56584.56584,0,0,0,.1914-.43848ZM75.64941,44.168l1.65625,1.7998v5.56836H75.66113v-6A8.793,8.793,0,0,0,75.541,44.168Zm0,0,7.04395,6.19238.12012,1.332L75.78125,45.5Zm1.65625,6.63574a.60153.60153,0,0,0,.20411.43848.65385.65385,0,0,0,.456.17383h.19141v.12011h-.876v-.73242Zm3.85157-5.73535a.6153.6153,0,0,0-.19727-.43848.65409.65409,0,0,0-.46191-.17383H80.294v-.12011h.88769v.73242Zm1.64453-.73242v5.95215q0,.42041.03027.73828.0293.31787.08985.666h-.1084l-1.65625-1.9082V44.33594Zm-.03614.73242v-.73242h.9004v.12011h-.20411A.67974.67974,0,0,0,83,44.62988a.55758.55758,0,0,0-.19824.43848Z"/><path class="cls-2" d="M84.02539,44.14453c.07227.01563.17773.04.31836.07129a4.16186,4.16186,0,0,0,.46777.07813,4.02022,4.02022,0,0,0,.47364.03027l-1.25977.12012Zm6.94824.17969v.47949H84.02539v-.47949Zm-5.72461.44433v.03516a1.09574,1.09574,0,0,0-.80957.3125,1.14165,1.14165,0,0,0-.28222.81641V46.04h-.13184V44.76855Zm1.4043,6.01172v.75586h-.80371V51.416h.13184a.6133.6133,0,0,0,.45019-.18555.65694.65694,0,0,0,.19727-.4502Zm1.71582-6.4082v7.16406H86.62891V44.37207Zm-.03613,6.4082h.03613a.60491.60491,0,0,0,.19238.4502.64542.64542,0,0,0,.46778.18555h.13183v.12011H88.333Zm2.64062-6.63574v.29981l-1.26074-.12012a4.25864,4.25864,0,0,0,.49219-.03027c.17578-.01954.33594-.044.48047-.07227A1.35671,1.35671,0,0,0,90.97363,44.14453Zm0,.624V46.04h-.12011v-.10742a1.07736,1.07736,0,0,0-.28223-.81641,1.12348,1.12348,0,0,0-.80957-.3125v-.03516Z"/><path class="cls-3" d="M60.22784,24.01755l-4.98128,2.08459a.18782.18782,0,0,1-.25743-.207L58.48824,6.104a.09458.09458,0,0,0-.16985-.07166,59.84477,59.84477,0,0,0-4.91627,8.2044.09385.09385,0,0,0,.12208.12605l1.27253-.54138a.188.188,0,0,1,.25343.22824l-6.17152,20.03a.09451.09451,0,0,0,.12737.11412L59.51,29.64108a.09632.09632,0,0,0,.05574-.073l.79084-5.44969A.09374.09374,0,0,0,60.22784,24.01755ZM64.68763,1.90566l-4.01129,27.5138a.11631.11631,0,0,0,.00133.03716,47.94153,47.94153,0,0,0,4.01925,9.31768.09557.09557,0,0,0,.08493.05044V1.826A.0915.0915,0,0,0,64.68763,1.90566Z"/><path class="cls-2" d="M80.55635,34.19376,70.0524,29.64108a.09631.09631,0,0,1-.05573-.073l-.79085-5.44969a.09375.09375,0,0,1,.12871-.10085l4.98128,2.08459a.18782.18782,0,0,0,.25743-.207L71.07546,6.104a.09382.09382,0,0,1,.16852-.07166,59.84477,59.84477,0,0,1,4.91627,8.2044.09385.09385,0,0,1-.12209.12605l-1.27252-.54138a.188.188,0,0,0-.25344.22824l6.17153,20.03A.09451.09451,0,0,1,80.55635,34.19376Z"/><path class="cls-2" d="M68.886,29.41946a.08767.08767,0,0,1-.00133.03716,47.83679,47.83679,0,0,1-4.01925,9.31768.09506.09506,0,0,1-.0836.05044V1.826a.09112.09112,0,0,1,.09289.07963Z"/><g class="cls-4"><path class="cls-5" d="M60.22784,24.01755l-4.98128,2.08459a.18782.18782,0,0,1-.25743-.207L58.48824,6.104a.09458.09458,0,0,0-.16985-.07166,59.84477,59.84477,0,0,0-4.91627,8.2044.09385.09385,0,0,0,.12208.12605l1.27253-.54138a.188.188,0,0,1,.25343.22824l-6.17152,20.03a.09451.09451,0,0,0,.12737.11412L59.51,29.64108a.09632.09632,0,0,0,.05574-.073l.79084-5.44969A.09374.09374,0,0,0,60.22784,24.01755ZM64.68763,1.90566l-4.01129,27.5138a.11631.11631,0,0,0,.00133.03716,47.94153,47.94153,0,0,0,4.01925,9.31768.09557.09557,0,0,0,.08493.05044V1.826A.0915.0915,0,0,0,64.68763,1.90566Z"/><path class="cls-6" d="M80.55635,34.19376,70.0524,29.64108a.09631.09631,0,0,1-.05573-.073l-.79085-5.44969a.09375.09375,0,0,1,.12871-.10085l4.98128,2.08459a.18782.18782,0,0,0,.25743-.207L71.07546,6.104a.09382.09382,0,0,1,.16852-.07166,59.84477,59.84477,0,0,1,4.91627,8.2044.09385.09385,0,0,1-.12209.12605l-1.27252-.54138a.188.188,0,0,0-.25344.22824l6.17153,20.03A.09451.09451,0,0,1,80.55635,34.19376Z"/><path class="cls-7" d="M68.886,29.41946a.08767.08767,0,0,1-.00133.03716,47.83679,47.83679,0,0,1-4.01925,9.31768.09506.09506,0,0,1-.0836.05044V1.826a.09112.09112,0,0,1,.09289.07963Z"/></g></g></g></svg>