<svg xmlns="http://www.w3.org/2000/svg" xmlns:xlink="http://www.w3.org/1999/xlink" viewBox="0 0 82.82373 46.35364"><defs><linearGradient id="a6684ee1-a530-48ae-8184-0e6dfc875f85" x1="656.1383" y1="80.30525" x2="656.31647" y2="80.30525" gradientTransform="matrix(0, 186.26253, 186.26253, 0, -14924.5872, -122213.92106)" gradientUnits="userSpaceOnUse"><stop offset="0" stop-color="gray"/><stop offset="0.12348" stop-color="#969696"/><stop offset="0.40253" stop-color="#c3c3c3"/><stop offset="0.6517" stop-color="#e4e4e4"/><stop offset="0.85934" stop-color="#f8f8f8"/><stop offset="1" stop-color="#fff"/></linearGradient><linearGradient id="bfcd04ce-339b-443d-8d7d-33a908382f16" x1="656.1383" y1="79.89297" x2="656.31647" y2="79.89297" gradientTransform="matrix(0, 186.26253, 186.26253, 0, -14831.11699, -122213.92106)" xlink:href="#a6684ee1-a530-48ae-8184-0e6dfc875f85"/><clipPath id="b8251700-33eb-40b7-97d0-cbfccc569419"><rect x="24.95572" y="0.0563" width="16.65556" height="33.1864" style="fill:none"/></clipPath><clipPath id="b7c9f2df-ecc8-4e9d-90d8-b5e26aeaee74"><path d="M41.61129.06218l-.00071,24.96775a.14586.14586,0,0,1-.082-.02013,22.23853,22.23853,0,0,1-4.46336-4.298.03121.03121,0,0,1-.00409-.0196l3.65552-17.169c.04241-.19937-.21665-.34387-.41228-.23019L36.942,5.24677c-.0914.05291-.20792-.02655-.1673-.11439.44436-.95874,1.856-3.947,4.75412-5.06058A.28449.28449,0,0,1,41.61.06218h.00125M36.25993,17.31105l-.054.01176c-.58654.12472-5.95624,1.10768-6.01219-2.71871v-.00053L30.49291.20668C30.4954.07234,30.2522,0,30.17238.10993a41.52961,41.52961,0,0,0-5.21345,9.68838c-.0269.07252.118.14734.22236.11652l1.68941-.50369c.198-.059.46752.0711.44365.21345l-.79927,5.40659c-.55144,3.73125,3.44849,6.77137,7.708,5.85735L35.533,20.586a.45716.45716,0,0,0,.36186-.34476l.5167-2.791a.122.122,0,0,0-.10067-.1388.11714.11714,0,0,0-.051-.00035m5.35083,15.93129v-6.8854a25.531,25.531,0,0,1-2.47622-2.0657.097.097,0,0,0-.16427.05416v3.77543a5.5179,5.5179,0,0,1-2.1409,4.26737l-.792.64355c-.09372.07608-.03082.21113.098.21113h5.47572Z" style="fill:none"/></clipPath><mask id="bbe97655-557c-4edb-95b8-4c45e7ddded5" x="24.93203" y="-0.00001" width="16.67927" height="33.2429" maskUnits="userSpaceOnUse"><rect x="24.93203" y="-0.00001" width="16.67926" height="33.24289" style="fill:url(#a6684ee1-a530-48ae-8184-0e6dfc875f85)"/></mask><linearGradient id="e3d45679-65e1-465a-b6f2-b4cf1ba48b66" x1="656.1383" y1="80.30525" x2="656.31647" y2="80.30525" gradientTransform="matrix(0, 186.26251, 186.26251, 0, -14924.58593, -122213.91101)" gradientUnits="userSpaceOnUse"><stop offset="0" stop-color="#fff"/><stop offset="0.05898" stop-color="#e9e9e9"/><stop offset="0.2618" stop-color="#a3a3a3"/><stop offset="0.45347" stop-color="#696969"/><stop offset="0.62844" stop-color="#3c3c3c"/><stop offset="0.78341" stop-color="#1b1b1b"/><stop offset="0.9125" stop-color="#070707"/><stop offset="1"/></linearGradient><clipPath id="f2eb62c7-d6f9-4b61-a4f5-f9fc38fd0ce3"><rect x="41.61004" y="0.0563" width="16.65396" height="33.1864" style="fill:none"/></clipPath><clipPath id="b08475b1-c428-4d8b-a862-879cef2f5032"><path d="M41.61129.06218h0a.28669.28669,0,0,1,.08142.00962c2.89777,1.11357,4.30959,4.10184,4.75377,5.06058.0408.08784-.07573.1673-.16712.11439L42.91692,3.293c-.19581-.11368-.45469.03082-.41228.23019l3.65552,17.16905a.03122.03122,0,0,1-.0041.0196,22.23788,22.23788,0,0,1-4.46335,4.298.14628.14628,0,0,1-.08195.02013L41.61.06218h.00125M46.90883,17.3114a.12231.12231,0,0,0-.10084.1388l.51687,2.791a.45717.45717,0,0,0,.36186.34476l1.30974.30253c4.2597.914,8.25962-2.1261,7.70819-5.85735l-.79928-5.40659c-.02387-.14235.2457-.27242.44365-.21345l1.68941.50369c.10441.03082.24927-.044.22236-.11652A41.5374,41.5374,0,0,0,53.04734.10993C52.96752,0,52.72414.07234,52.72681.20668L53.026,14.60357v.00053c-.05595,3.82639-5.42565,2.84343-6.01219,2.71871l-.054-.01176a.11712.11712,0,0,0-.051.00035M44.25178,28.121V24.3454a.09722.09722,0,0,0-.16463-.05416,25.50441,25.50441,0,0,1-2.476,2.0657v6.88523l-.00053.00071h5.47553c.129,0,.19171-.135.09817-.21113l-.79161-.6432A5.5185,5.5185,0,0,1,44.25178,28.121" style="fill:none"/></clipPath><mask id="b0580dc5-e067-4747-bff0-33b1565fa272" x="41.61004" y="-0.00001" width="16.67767" height="33.2429" maskUnits="userSpaceOnUse"><rect x="41.61005" y="-0.00001" width="16.67766" height="33.24289" style="fill:url(#bfcd04ce-339b-443d-8d7d-33a908382f16)"/></mask><linearGradient id="b41be69c-f1b5-4420-a0ee-0a295e087ff0" x1="656.1383" y1="79.89297" x2="656.31647" y2="79.89297" gradientTransform="matrix(0, 186.26251, 186.26251, 0, -14831.11574, -122213.91101)" xlink:href="#e3d45679-65e1-465a-b6f2-b4cf1ba48b66"/><linearGradient id="a157a8b0-8f9d-4f40-bb97-d54f2bef8c3b" x1="41.41187" y1="46.35364" x2="41.41187" y2="37.54602" gradientUnits="userSpaceOnUse"><stop offset="0" stop-color="#c19742"/><stop offset="0.50205" stop-color="#d5a749"/><stop offset="0.51063" stop-color="#d8a94a"/><stop offset="0.57356" stop-color="#eab750"/><stop offset="0.6498" stop-color="#f6c154"/><stop offset="0.75313" stop-color="#fdc656"/><stop offset="1" stop-color="#ffc857"/></linearGradient></defs><title>PSItrident-nav-header</title><g style="isolation:isolate"><g id="a3538c97-93e6-44b1-a3ef-b37d5763fc74" data-name="Layer 2"><g id="f72f8fbb-61da-4cc9-9b35-0abf1581c337" data-name="trident-nav-header"><path d="M41.61.06227h0a.28485.28485,0,0,0-.08125.00962c-2.89812,1.11357-4.30976,4.10167-4.75412,5.0604-.04062.08784.0759.16748.1673.11457L40.30441,3.293c.19581-.11367.45469.03082.41228.23019L37.06117,20.6921a.03123.03123,0,0,0,.00409.0196,22.23565,22.23565,0,0,0,4.46336,4.29819.14586.14586,0,0,0,.082.02013L41.61129.06227H41.61" style="fill:#c19742"/><path d="M36.31086,17.3114a.12191.12191,0,0,1,.10066.1388l-.5167,2.791a.45718.45718,0,0,1-.36186.34477l-1.30991.30253c-4.25952.914-8.25945-2.12593-7.70783-5.85736l.79909-5.40658c.02405-.14236-.2457-.27243-.44346-.21345l-1.6896.50369c-.1044.03082-.24926-.044-.22236-.11635A41.52516,41.52516,0,0,1,30.17235.10993c.07982-.10993.323-.03759.3207.09675l-.29932,14.39689v.00054c.05594,3.82638,5.42564,2.84342,6.01218,2.7187l.054-.01176a.11712.11712,0,0,1,.051.00035" style="fill:#c19742"/><path d="M41.61073,33.24234V26.35677a25.50256,25.50256,0,0,1-2.476-2.06553.09709.09709,0,0,0-.16446.05416v3.77543a5.5179,5.5179,0,0,1-2.1409,4.26737l-.792.64355c-.09372.07608-.03082.21113.09817.21113h5.47554Z" style="fill:#c19742"/><path d="M41.6113.06234V.06217a.28714.28714,0,0,1,.08143.00961c2.89776,1.11357,4.30959,4.10185,4.75377,5.06058.0408.08784-.07573.16749-.16713.11439L42.91694,3.29293c-.19581-.11367-.45469.03082-.41229.2302l3.65553,17.169a.03126.03126,0,0,1-.0041.01961,22.23277,22.23277,0,0,1-4.46335,4.298.14629.14629,0,0,1-.082.02013L41.61005.06217l.00125.00017m5.29755,17.24905a.12232.12232,0,0,0-.10085.1388l.51688,2.791a.45716.45716,0,0,0,.36186.34476l1.30973.30254c4.2597.914,8.25963-2.12593,7.70819-5.85736l-.79927-5.40659c-.024-.14235.2457-.27242.44347-.21344l1.68959.50369c.10441.03082.24926-.044.22236-.11635A41.53316,41.53316,0,0,0,53.04736.10992C52.96754,0,52.72415.07232,52.72665.20666L53.026,14.60355v.00054c-.05594,3.82639-5.42564,2.84342-6.01218,2.71888l-.054-.01194a.11989.11989,0,0,0-.051.00036M44.25179,28.121V24.34556a.09727.09727,0,0,0-.16463-.05434,25.50428,25.50428,0,0,1-2.476,2.06571v6.88522l-.00053.00071h5.47554c.129,0,.19171-.135.09817-.21113l-.79161-.64319a5.5185,5.5185,0,0,1-2.1409-4.26755" style="fill:#ffc857"/><g style="opacity:0.5;mix-blend-mode:overlay"><g style="clip-path:url(#b8251700-33eb-40b7-97d0-cbfccc569419)"><g style="clip-path:url(#b7c9f2df-ecc8-4e9d-90d8-b5e26aeaee74)"><g style="mask:url(#bbe97655-557c-4edb-95b8-4c45e7ddded5)"><rect x="24.93203" width="16.67926" height="33.24289" style="fill:url(#e3d45679-65e1-465a-b6f2-b4cf1ba48b66)"/></g></g></g></g><g style="opacity:0.5;mix-blend-mode:overlay"><g style="clip-path:url(#f2eb62c7-d6f9-4b61-a4f5-f9fc38fd0ce3)"><g style="clip-path:url(#b08475b1-c428-4d8b-a862-879cef2f5032)"><g style="mask:url(#b0580dc5-e067-4747-bff0-33b1565fa272)"><rect x="41.61004" width="16.67766" height="33.24289" style="fill:url(#b41be69c-f1b5-4420-a0ee-0a295e087ff0)"/></g></g></g></g><path d="M0,37.55774a2.10191,2.10191,0,0,0,.36621.0957q.24537.04834.5459.084a4.56836,4.56836,0,0,0,.55176.03613L0,37.9054Zm7.68018.21582v.50391H0v-.50391ZM1.332,38.24133v.03614a1.23121,1.23121,0,0,0-.88183.34179,1.20961,1.20961,0,0,0-.33008.89453v.13184L0,39.65735v-1.416Zm1.644,7.06836v.876h-.96v-.12012h.15577a.7301.7301,0,0,0,.53417-.22168.773.773,0,0,0,.23389-.53418Zm1.76416-7.48828v8.36426H2.93994V37.82141ZM4.7041,45.30969h.03613a.77089.77089,0,0,0,.23389.53418.729.729,0,0,0,.53369.22168h.15625v.12012h-.96Zm2.97608-7.752v.34766l-1.46436-.13184a4.515,4.515,0,0,0,.55811-.03613q.2937-.03516.54589-.084A1.75906,1.75906,0,0,0,7.68018,37.55774Zm0,.68359v1.416l-.12012-.01172v-.13184A1.20961,1.20961,0,0,0,7.23,38.61926a1.24857,1.24857,0,0,0-.894-.34179v-.03614Z" style="fill:url(#a157a8b0-8f9d-4f40-bb97-d54f2bef8c3b)"/><path d="M9.144,39.72962H9.12012a.63082.63082,0,0,0-.19824-.4502.62336.62336,0,0,0-.438-.17383H8.32812v-.12012h.86377Zm0,5.70019.04785.75586H8.32812v-.12012h.14405A.61224.61224,0,0,0,8.92188,45.88a.66007.66007,0,0,0,.19824-.4502Zm1.7041-6.44434v7.2002H9.10791v-7.2002Zm1.16358,0a4.528,4.528,0,0,1,.97217.10254,2.77918,2.77918,0,0,1,.83984.32325,1.67972,1.67972,0,0,1,.59424.60058,1.83258,1.83258,0,0,1,.22217.94141,2.12961,2.12961,0,0,1-.17432.834,1.83062,1.83062,0,0,1-.54.71485,1.98038,1.98038,0,0,1-.95361.3955,1.66418,1.66418,0,0,1,.66553.41993,3.16149,3.16149,0,0,1,.48632.58789c.04.06445.09961.166.17969.30664q.12012.20947.30615.47949.186.26954.39014.55859a4.01719,4.01719,0,0,0,.41992.49707,1.09026,1.09026,0,0,0,.37207.2461,1.24077,1.24077,0,0,0,.44385.07226v.12012H15.228a5.39833,5.39833,0,0,1-1.09815-.0957,1.84459,1.84459,0,0,1-.77392-.3545,2.894,2.894,0,0,1-.61182-.70214,3.82054,3.82054,0,0,1-.228-.37793q-.1201-.22119-.24023-.4502c-.08008-.15137-.1499-.2998-.21-.44336a2.6683,2.6683,0,0,1-.126-.36035,1.47743,1.47743,0,0,0-.354-.55762.57684.57684,0,0,0-.36621-.17383v-.10839H11.52a1.45031,1.45031,0,0,0,.498-.08985,1.04077,1.04077,0,0,0,.4497-.34765,1.77113,1.77113,0,0,0,.3003-.7627,1.22412,1.22412,0,0,0,.042-.2041,1.49678,1.49678,0,0,0,.00586-.29981,1.74891,1.74891,0,0,0-.16211-.708,1.13215,1.13215,0,0,0-.3418-.40821,1.25792,1.25792,0,0,0-.41406-.19726,1.49888,1.49888,0,0,0-.36621-.05469c-.15186-.00781-.29-.00976-.41358-.00586a1.99719,1.99719,0,0,1-.28222-.00586c-.0083,0-.02-.042-.03614-.126s-.04-.20606-.07177-.36622Zm-1.188,6.44434h.02441a.565.565,0,0,0,.21.46777.6896.6896,0,0,0,.438.168h.13184v.12012h-.86377Z" style="fill:url(#a157a8b0-8f9d-4f40-bb97-d54f2bef8c3b)"/><path d="M17.01611,39.74133H16.98a.58192.58192,0,0,0-.2041-.456.72207.72207,0,0,0-.49219-.17969h-.14355v-.12012h.876Zm0,5.68848v.75586h-.876v-.12012h.15576a.68894.68894,0,0,0,.48-.18554.58716.58716,0,0,0,.2041-.4502Zm1.6919-6.44434v7.2002H16.98v-7.2002Zm-.02393.75586v-.75586h.86377l-.01172.12012h-.13232a.6992.6992,0,0,0-.48584.17969.62964.62964,0,0,0-.21.456Zm0,5.68848H18.708a.6377.6377,0,0,0,.21.4502.68224.68224,0,0,0,.48584.18554h.144v.12012h-.86377Z" style="fill:url(#a157a8b0-8f9d-4f40-bb97-d54f2bef8c3b)"/><path d="M21.13184,39.74133h-.02393a.63149.63149,0,0,0-.21-.456.68474.68474,0,0,0-.47412-.17969h-.144v-.12012h.85205Zm.01171,5.67676v.76758h-.86376v-.12012h.15576a.65653.65653,0,0,0,.47412-.1914.61323.61323,0,0,0,.19824-.45606Zm1.69239-6.43262v7.2002h-1.728v-7.2002Zm1.5,0a5.25258,5.25258,0,0,1,2.208.42579,3.1548,3.1548,0,0,1,1.416,1.23632,4.0535,4.0535,0,0,1,0,3.87012A3.20177,3.20177,0,0,1,26.544,45.754a5.17607,5.17607,0,0,1-2.208.43164H21.67188L21.648,45.7052h2.54394a2.14843,2.14843,0,0,0,1.78174-.82715,4.35351,4.35351,0,0,0,0-4.59082,2.14338,2.14338,0,0,0-1.78174-.834H21.52783v-.46778Z" style="fill:url(#a157a8b0-8f9d-4f40-bb97-d54f2bef8c3b)"/><path d="M29.96387,39.74133h-.03614a.59914.59914,0,0,0-.19189-.456.64789.64789,0,0,0-.45605-.17969H29.124v-.12012h.8877Zm0,5.68848.04785.75586H29.124v-.12012h.15577a.63287.63287,0,0,0,.45605-.18554.60447.60447,0,0,0,.19189-.4502Zm1.69189-6.44434v7.2002h-1.728v-7.2002Zm2.93994,0v.48047H31.63184v-.48047Zm-.54,3.39649v.47949H31.63184V42.382Zm.40821,3.32324.27588.48047H31.63184V45.7052Zm.76806-1.72754-.456,2.208H32.69971l.37207-.48047a1.94657,1.94657,0,0,0,.918-.21,2.00636,2.00636,0,0,0,.68994-.59961,2.93034,2.93034,0,0,0,.44433-.918Zm-1.17627-2.62793V42.4054H33.02393V42.382a.89425.89425,0,0,0,.666-.28223.95432.95432,0,0,0,.2461-.666v-.084Zm0,1.48828v1.05567H33.936V43.798a.95265.95265,0,0,0-.2461-.666.8549.8549,0,0,0-.666-.27051V42.838Zm.54-4.03222v.28808l-1.25976-.1084a4.331,4.331,0,0,0,.73193-.06543A4.128,4.128,0,0,0,34.5957,38.80579Zm0,.63574V40.714h-.12011v-.1084a1.1622,1.1622,0,0,0-.28174-.82812,1.09641,1.09641,0,0,0-.81006-.31153v-.02441Z" style="fill:url(#a157a8b0-8f9d-4f40-bb97-d54f2bef8c3b)"/><path d="M36.62354,45.45325v.73242h-.88819v-.12012h.1919a.67108.67108,0,0,0,.46826-.17383.56625.56625,0,0,0,.19189-.43847Zm-.04834-6.63574,1.65625,1.7998v5.56836h-1.644v-6a8.79291,8.79291,0,0,0-.12011-1.36816Zm0,0,7.04443,6.19238.12012,1.332-7.03223-6.19238Zm1.65625,6.63574a.60328.60328,0,0,0,.2041.43847.65465.65465,0,0,0,.456.17383h.1919v.12012h-.876v-.73242ZM42.083,39.7179a.61522.61522,0,0,0-.19727-.43848.65409.65409,0,0,0-.46191-.17383h-.2041v-.12012h.88769v.73243Zm1.645-.73243v5.95215q0,.42042.03027.73828.0293.31788.08984.666h-.10839L42.083,44.43372V38.98547Zm-.03614.73243v-.73243h.9004v.12012h-.20411a.67974.67974,0,0,0-.46191.17383.55758.55758,0,0,0-.19824.43848Z" style="fill:url(#a157a8b0-8f9d-4f40-bb97-d54f2bef8c3b)"/><path d="M44.95166,38.79407c.07227.01562.17773.04.31836.07129a4.162,4.162,0,0,0,.46777.07812,4.01822,4.01822,0,0,0,.47364.03028l-1.25977.12011Zm6.94824.17969v.47949H44.95166v-.47949Zm-5.72461.44433v.03516a1.0957,1.0957,0,0,0-.80957.3125,1.14163,1.14163,0,0,0-.28222.8164v.10743h-.13184V39.41809Zm1.4043,6.01172v.75586h-.80371v-.12012h.13183a.6133.6133,0,0,0,.4502-.18554.657.657,0,0,0,.19727-.4502Zm1.71582-6.4082v7.16406H47.55518V39.02161Zm-.03613,6.4082h.03613a.60493.60493,0,0,0,.19238.4502.64541.64541,0,0,0,.46778.18554h.13183v.12012h-.82812Zm2.64062-6.63574v.2998l-1.26074-.12011a4.25653,4.25653,0,0,0,.49219-.03028c.17578-.01953.33594-.04394.48047-.07226A1.35733,1.35733,0,0,0,51.8999,38.79407Zm0,.624v1.27149h-.12011v-.10743a1.07734,1.07734,0,0,0-.28223-.8164,1.12344,1.12344,0,0,0-.80957-.3125v-.03516Z" style="fill:url(#a157a8b0-8f9d-4f40-bb97-d54f2bef8c3b)"/><path d="M56.48389,38.66126h-.03614a.71789.71789,0,0,0-.22754-.53321.74752.74752,0,0,0-.54-.22265h-.14454l-.01171-.12012h.96Zm0,6.64843v.876h-.96v-.12012h.15625a.73093.73093,0,0,0,.53418-.22168.77455.77455,0,0,0,.23339-.53418Zm1.76367-7.52441v8.40039H56.44775V37.78528Zm1.63281,0a5.46867,5.46867,0,0,1,2.44727.51074,3.7067,3.7067,0,0,1,1.59082,1.45117,4.77112,4.77112,0,0,1,0,4.47657,3.70873,3.70873,0,0,1-1.59082,1.45214,5.4686,5.4686,0,0,1-2.44727.50977H57.02393l-.01172-.50391h2.72363a2.47781,2.47781,0,0,0,1.48828-.45019,2.84632,2.84632,0,0,0,.96-1.27832,5.93111,5.93111,0,0,0,0-3.93555,2.85163,2.85163,0,0,0-.96-1.27832,2.47781,2.47781,0,0,0-1.48828-.45019H56.89209v-.50391Z" style="fill:url(#a157a8b0-8f9d-4f40-bb97-d54f2bef8c3b)"/><path d="M66.23975,45.30969a.57357.57357,0,0,0-.03614.40821.48614.48614,0,0,0,.2041.25781.54348.54348,0,0,0,.28809.08984h.1084v.12012H64.23584v-.12012h.1084a1.11587,1.11587,0,0,0,.56933-.17383,1.27807,1.27807,0,0,0,.48633-.582ZM68.81982,37.546l.04786,1.46387-2.97559,7.13965h-.876l3.10743-7.03223q.03661-.07178.126-.26953c.06055-.13184.124-.28223.19238-.4502.06739-.168.12989-.33007.18555-.48632a1.14681,1.14681,0,0,0,.084-.36524Zm1.25977,5.7832v.50489H66.55225v-.50489ZM68.81982,37.546l3.91211,8.56738H70.5835l-2.4961-6.252Zm1.44043,7.76367h2.09961a1.36215,1.36215,0,0,0,.49219.582,1.0833,1.0833,0,0,0,.56348.17383h.09668v.12012H69.6958v-.12012h.1084a.55059.55059,0,0,0,.41992-.19824A.50347.50347,0,0,0,70.26025,45.30969Z" style="fill:url(#a157a8b0-8f9d-4f40-bb97-d54f2bef8c3b)"/><path d="M78.09521,37.61731a5.51251,5.51251,0,0,1,2.502.53418,3.93183,3.93183,0,0,1,1.64453,1.50586,4.93556,4.93556,0,0,1,0,4.65039,3.90748,3.90748,0,0,1-1.64453,1.51172,6.12633,6.12633,0,0,1-5.00391,0,3.87278,3.87278,0,0,1-1.63769-1.50586,4.97979,4.97979,0,0,1,0-4.65039,3.87352,3.87352,0,0,1,1.63769-1.51172A5.51249,5.51249,0,0,1,78.09521,37.61731Zm0,8.23242a2.34967,2.34967,0,0,0,1.47071-.47363,2.97878,2.97878,0,0,0,.94726-1.33887,6.54183,6.54183,0,0,0,0-4.10351,2.9755,2.9755,0,0,0-.94726-1.33789,2.49632,2.49632,0,0,0-2.92871,0,3.01634,3.01634,0,0,0-.9541,1.33789,6.43352,6.43352,0,0,0,0,4.10351,3.01966,3.01966,0,0,0,.9541,1.33887A2.33081,2.33081,0,0,0,78.09521,45.84973Z" style="fill:url(#a157a8b0-8f9d-4f40-bb97-d54f2bef8c3b)"/></g></g></g></svg>