<svg xmlns="http://www.w3.org/2000/svg" xmlns:xlink="http://www.w3.org/1999/xlink" viewBox="0 0 130 56"><defs><style>.cls-1{isolation:isolate;}.cls-2{fill:#ffc857;}.cls-3{fill:#c19742;}.cls-4{opacity:0.5;mix-blend-mode:overlay;}.cls-5{fill:url(#linear-gradient);}.cls-6{fill:url(#linear-gradient-2);}.cls-7{fill:url(#linear-gradient-3);}</style><linearGradient id="linear-gradient" x1="56.72675" x2="56.72675" y2="38.48793" gradientUnits="userSpaceOnUse"><stop offset="0" stop-color="#fff" stop-opacity="0.5"/><stop offset="0.12588" stop-color="#d1d1d1" stop-opacity="0.58941"/><stop offset="0.4042" stop-color="#777" stop-opacity="0.76577"/><stop offset="0.65263" stop-color="#363636" stop-opacity="0.8937"/><stop offset="0.85972" stop-color="#0e0e0e" stop-opacity="0.97182"/><stop offset="1"/></linearGradient><linearGradient id="linear-gradient-2" x1="75.57441" y1="4.33455" x2="75.57441" y2="33.67873" xlink:href="#linear-gradient"/><linearGradient id="linear-gradient-3" x1="67.13613" x2="67.13613" y2="38.48793" xlink:href="#linear-gradient"/></defs><g class="cls-1"><g id="Layer_1" data-name="Layer 1"><path class="cls-2" d="M23.39014,42.9082a2.10149,2.10149,0,0,0,.36621.09571q.24536.04833.5459.084a4.5682,4.5682,0,0,0,.55175.03613l-1.46386.13184Zm7.68017.21582v.50391H23.39014V43.124Zm-6.34814.46778v.03613a1.2312,1.2312,0,0,0-.88184.3418,1.20962,1.20962,0,0,0-.33008.89453v.13183l-.12011.01172v-1.416Zm1.644,7.06836v.876h-.96V51.416H25.562a.73013.73013,0,0,0,.53418-.22168.773.773,0,0,0,.23389-.53418Zm1.76416-7.48828v8.36425H26.33008V43.17188Zm-.03613,7.48828h.03613a.77089.77089,0,0,0,.23389.53418.729.729,0,0,0,.53369.22168h.15625v.12011h-.96Zm2.97607-7.752v.34766L29.606,43.124a4.51469,4.51469,0,0,0,.5581-.03613q.2937-.03516.5459-.084A1.75859,1.75859,0,0,0,31.07031,42.9082Zm0,.6836v1.416l-.12011-.01172v-.13183a1.20962,1.20962,0,0,0-.33008-.89453,1.24856,1.24856,0,0,0-.894-.3418V43.5918Z"/><path class="cls-2" d="M32.53418,45.08008h-.02393a.63078.63078,0,0,0-.19824-.4502.62334.62334,0,0,0-.438-.17383h-.15576v-.12011H32.582Zm0,5.70019.04785.75586h-.86377V51.416h.144a.61221.61221,0,0,0,.44971-.18555.66.66,0,0,0,.19824-.4502Zm1.7041-6.44433v7.20019H32.49805V44.33594Zm1.16358,0a4.52793,4.52793,0,0,1,.97216.10254,2.77912,2.77912,0,0,1,.83985.32324,1.67988,1.67988,0,0,1,.59424.60058,1.83271,1.83271,0,0,1,.22216.94141,2.12968,2.12968,0,0,1-.17431.834,1.83076,1.83076,0,0,1-.54.71484,1.98038,1.98038,0,0,1-.95362.39551,1.6639,1.6639,0,0,1,.66553.41992,3.16183,3.16183,0,0,1,.48633.58789c.04.06445.09961.166.17969.30664Q37.814,49.772,38,50.042q.186.26954.39014.5586a4.01707,4.01707,0,0,0,.41992.49707,1.09023,1.09023,0,0,0,.37207.24609,1.24077,1.24077,0,0,0,.44385.07227v.12011H38.61816a5.39751,5.39751,0,0,1-1.09814-.0957,1.84456,1.84456,0,0,1-.77393-.35449,2.89407,2.89407,0,0,1-.61181-.70215,3.81744,3.81744,0,0,1-.228-.37793q-.12012-.22119-.24023-.4502c-.08008-.15136-.14991-.2998-.21-.44336a2.66757,2.66757,0,0,1-.126-.36035,1.47738,1.47738,0,0,0-.354-.55761.57674.57674,0,0,0-.36621-.17383v-.1084h.3003a1.45025,1.45025,0,0,0,.498-.08984,1.04084,1.04084,0,0,0,.44971-.34766,1.771,1.771,0,0,0,.30029-.7627,1.22292,1.22292,0,0,0,.042-.2041,1.49675,1.49675,0,0,0,.00585-.2998,1.74893,1.74893,0,0,0-.1621-.708,1.13212,1.13212,0,0,0-.3418-.4082,1.258,1.258,0,0,0-.41406-.19727,1.49888,1.49888,0,0,0-.36621-.05469c-.15186-.00781-.29-.00976-.41358-.00586a1.99585,1.99585,0,0,1-.28223-.00586c-.0083,0-.02-.042-.03613-.126s-.04-.20606-.07178-.36621Zm-1.188,6.44433h.02441a.56509.56509,0,0,0,.21.46778.6897.6897,0,0,0,.438.168h.13184v.12011H34.1543Z"/><path class="cls-2" d="M40.40625,45.0918h-.03613a.58192.58192,0,0,0-.2041-.45606.72207.72207,0,0,0-.49219-.17969h-.14356v-.12011h.876Zm0,5.68847v.75586h-.876V51.416H39.686a.689.689,0,0,0,.48-.18555.58714.58714,0,0,0,.2041-.4502Zm1.69189-6.44433v7.20019h-1.728V44.33594Zm-.02392.75586v-.75586H42.938l-.01172.12011H42.794a.6992.6992,0,0,0-.48584.17969.62969.62969,0,0,0-.21.45606Zm0,5.68847h.02392a.63773.63773,0,0,0,.21.4502.68225.68225,0,0,0,.48584.18555h.144v.12011h-.86377Z"/><path class="cls-2" d="M44.522,45.0918h-.02392a.63153.63153,0,0,0-.21-.45606.68474.68474,0,0,0-.47413-.17969h-.144v-.12011H44.522Zm.01172,5.67675v.76758h-.86377V51.416h.15576a.6565.6565,0,0,0,.47412-.19141.61319.61319,0,0,0,.19825-.45606Zm1.69238-6.43261v7.20019h-1.728V44.33594Zm1.5,0a5.25268,5.25268,0,0,1,2.208.42578,3.1549,3.1549,0,0,1,1.416,1.23633,4.05348,4.05348,0,0,1,0,3.87011,3.20173,3.20173,0,0,1-1.416,1.23633,5.176,5.176,0,0,1-2.208.43164H45.062l-.02392-.48047H47.582a2.14848,2.14848,0,0,0,1.78174-.82714,4.35351,4.35351,0,0,0,0-4.59082,2.14339,2.14339,0,0,0-1.78174-.834H44.918v-.46777Z"/><path class="cls-2" d="M53.354,45.0918h-.03613a.59915.59915,0,0,0-.19189-.45606.64791.64791,0,0,0-.45606-.17969h-.15576v-.12011h.8877Zm0,5.68847.04786.75586h-.8877V51.416h.15576a.6329.6329,0,0,0,.45606-.18555.60445.60445,0,0,0,.19189-.4502Zm1.6919-6.44433v7.20019h-1.728V44.33594Zm2.93994,0v.48047H55.022v-.48047Zm-.54,3.39648v.47949H55.022v-.47949Zm.4082,3.32324.27588.48047H55.022v-.48047Zm.76807-1.72754-.456,2.208H56.08984l.37207-.48047a1.94654,1.94654,0,0,0,.918-.21,2.00618,2.00618,0,0,0,.68994-.59961,2.93013,2.93013,0,0,0,.44434-.918ZM57.4458,46.7002v1.05566H56.41406v-.02344a.89429.89429,0,0,0,.666-.28222.95438.95438,0,0,0,.24609-.666v-.084Zm0,1.48828v1.05566h-.11963v-.0957a.95269.95269,0,0,0-.24609-.666.85494.85494,0,0,0-.666-.27051v-.02343Zm.54-4.03223v.28809l-1.25977-.1084a4.33211,4.33211,0,0,0,.73194-.06543A4.12755,4.12755,0,0,0,57.98584,44.15625Zm0,.63574v1.27246h-.12012v-.1084a1.1622,1.1622,0,0,0-.28174-.82812,1.09632,1.09632,0,0,0-.81-.31152V44.792Z"/><path class="cls-2" d="M60.01367,50.80371v.73242h-.88818V51.416h.19189a.67113.67113,0,0,0,.46826-.17383.56628.56628,0,0,0,.1919-.43848ZM59.96533,44.168l1.65625,1.7998v5.56836h-1.644v-6a8.79189,8.79189,0,0,0-.12012-1.36816Zm0,0,7.04444,6.19238.12011,1.332L60.09766,45.5Zm1.65625,6.63574a.60334.60334,0,0,0,.2041.43848.65472.65472,0,0,0,.45606.17383h.19189v.12011h-.876v-.73242Zm3.85156-5.73535a.61525.61525,0,0,0-.19726-.43848.6541.6541,0,0,0-.46192-.17383h-.2041v-.12011h.8877v.73242Zm1.645-.73242v5.95215q0,.42041.03028.73828.0293.31787.08984.666h-.1084l-1.65674-1.9082V44.33594Zm-.03613.73242v-.73242h.90039v.12011h-.2041a.67971.67971,0,0,0-.46191.17383.55756.55756,0,0,0-.19825.43848Z"/><path class="cls-2" d="M68.3418,44.14453c.07226.01563.17773.04.31836.07129a4.16148,4.16148,0,0,0,.46777.07813,4.02006,4.02006,0,0,0,.47363.03027l-1.25976.12012Zm6.94824.17969v.47949H68.3418v-.47949Zm-5.72461.44433v.03516a1.09574,1.09574,0,0,0-.80957.3125,1.14162,1.14162,0,0,0-.28223.81641V46.04H68.3418V44.76855Zm1.4043,6.01172v.75586H70.166V51.416h.13183a.61334.61334,0,0,0,.4502-.18555.65689.65689,0,0,0,.19726-.4502Zm1.71582-6.4082v7.16406H70.94531V44.37207Zm-.03614,6.4082h.03614a.60491.60491,0,0,0,.19238.4502.64539.64539,0,0,0,.46777.18555h.13184v.12011h-.82813ZM75.29,44.14453v.29981l-1.26074-.12012a4.25847,4.25847,0,0,0,.49218-.03027c.17579-.01954.33594-.044.48047-.07227A1.35667,1.35667,0,0,0,75.29,44.14453Zm0,.624V46.04h-.12012v-.10742a1.0774,1.0774,0,0,0-.28222-.81641,1.12349,1.12349,0,0,0-.80958-.3125v-.03516Z"/><path class="cls-2" d="M79.874,44.01172h-.03613a.71787.71787,0,0,0-.22754-.5332.7475.7475,0,0,0-.54-.22266h-.14453l-.01172-.12012h.96Zm0,6.64844v.876h-.96V51.416h.15625a.73092.73092,0,0,0,.53418-.22168.7746.7746,0,0,0,.2334-.53418Zm1.76368-7.52442v8.40039H79.83789V43.13574Zm1.63281,0a5.46862,5.46862,0,0,1,2.44726.51074,3.70666,3.70666,0,0,1,1.59082,1.45118,4.771,4.771,0,0,1,0,4.47656,3.70876,3.70876,0,0,1-1.59082,1.45215,5.46869,5.46869,0,0,1-2.44726.50976H80.41406l-.01172-.5039H83.126a2.47777,2.47777,0,0,0,1.48828-.4502,2.84628,2.84628,0,0,0,.96-1.27832,5.93111,5.93111,0,0,0,0-3.93555,2.85175,2.85175,0,0,0-.96-1.27832,2.47783,2.47783,0,0,0-1.48828-.45019H80.28223v-.50391Z"/><path class="cls-2" d="M89.62988,50.66016a.57358.57358,0,0,0-.03613.4082.48614.48614,0,0,0,.2041.25781.54344.54344,0,0,0,.28809.08985h.1084v.12011H87.626V51.416h.1084a1.116,1.116,0,0,0,.56933-.17383,1.27807,1.27807,0,0,0,.48633-.582ZM92.21,42.89648l.04785,1.46387L89.28223,51.5h-.876l3.10742-7.03223q.03663-.07178.126-.26953c.06055-.13183.124-.28222.19238-.45019.06738-.168.12988-.33008.18555-.48633a1.14663,1.14663,0,0,0,.084-.36524Zm1.25977,5.78321v.50488H89.94238v-.50488ZM92.21,42.89648l3.91211,8.56739H93.97363l-2.49609-6.252Zm1.44043,7.76368H95.75a1.362,1.362,0,0,0,.49219.582,1.08336,1.08336,0,0,0,.56347.17383h.09668v.12011h-3.8164V51.416h.1084a.55057.55057,0,0,0,.41992-.19825A.50348.50348,0,0,0,93.65039,50.66016Z"/><path class="cls-2" d="M101.48535,42.96777a5.51246,5.51246,0,0,1,2.502.53418,3.93192,3.93192,0,0,1,1.64454,1.50586,4.93556,4.93556,0,0,1,0,4.65039,3.9075,3.9075,0,0,1-1.64454,1.51172,6.12631,6.12631,0,0,1-5.0039,0,3.87281,3.87281,0,0,1-1.6377-1.50586,4.97986,4.97986,0,0,1,0-4.65039A3.87355,3.87355,0,0,1,98.9834,43.502,5.51249,5.51249,0,0,1,101.48535,42.96777Zm0,8.23243a2.34963,2.34963,0,0,0,1.4707-.47364,2.97871,2.97871,0,0,0,.94727-1.33886,6.54186,6.54186,0,0,0,0-4.10352,2.97563,2.97563,0,0,0-.94727-1.33789,2.49632,2.49632,0,0,0-2.92871,0,3.01653,3.01653,0,0,0-.9541,1.33789,6.43355,6.43355,0,0,0,0,4.10352,3.01965,3.01965,0,0,0,.9541,1.33886A2.33085,2.33085,0,0,0,101.48535,51.2002Z"/><path class="cls-3" d="M60.26338,23.08474,55.0816,25.25325a.19539.19539,0,0,1-.26779-.21533l3.64-20.58772a.09839.09839,0,0,0-.17669-.07454,62.25184,62.25184,0,0,0-5.11414,8.53463.09762.09762,0,0,0,.127.13112l1.32375-.56317a.19557.19557,0,0,1,.26364.23743L48.45736,33.55184a.09832.09832,0,0,0,.13251.11871l10.92674-4.73592a.10024.10024,0,0,0,.058-.07593l.82268-5.669A.09752.09752,0,0,0,60.26338,23.08474ZM64.90269.08283,60.72993,28.70409a.12127.12127,0,0,0,.00138.03865,49.87253,49.87253,0,0,0,4.181,9.69272.0994.0994,0,0,0,.08834.05247V0A.09517.09517,0,0,0,64.90269.08283Z"/><path class="cls-2" d="M81.41013,33.67055,70.48338,28.93463a.10023.10023,0,0,1-.058-.07593l-.82268-5.669a.09753.09753,0,0,1,.1339-.10491l5.18178,2.16851a.19538.19538,0,0,0,.26778-.21533L71.54763,4.4502a.09759.09759,0,0,1,.1753-.07454,62.25236,62.25236,0,0,1,5.11415,8.53463.09763.09763,0,0,1-.127.13112l-1.32374-.56317a.19558.19558,0,0,0-.26365.23743l6.42,20.83617A.09832.09832,0,0,1,81.41013,33.67055Z"/><path class="cls-2" d="M69.27007,28.70409a.09141.09141,0,0,1-.00138.03865,49.763,49.763,0,0,1-4.181,9.69272.09886.09886,0,0,1-.087.05247V0a.09478.09478,0,0,1,.09663.08283Z"/><g class="cls-4"><path class="cls-5" d="M60.26338,23.08474,55.0816,25.25325a.19539.19539,0,0,1-.26779-.21533l3.64-20.58772a.09839.09839,0,0,0-.17669-.07454,62.25184,62.25184,0,0,0-5.11414,8.53463.09762.09762,0,0,0,.127.13112l1.32375-.56317a.19557.19557,0,0,1,.26364.23743L48.45736,33.55184a.09832.09832,0,0,0,.13251.11871l10.92674-4.73592a.10024.10024,0,0,0,.058-.07593l.82268-5.669A.09752.09752,0,0,0,60.26338,23.08474ZM64.90269.08283,60.72993,28.70409a.12127.12127,0,0,0,.00138.03865,49.87253,49.87253,0,0,0,4.181,9.69272.0994.0994,0,0,0,.08834.05247V0A.09517.09517,0,0,0,64.90269.08283Z"/><path class="cls-6" d="M81.41013,33.67055,70.48338,28.93463a.10023.10023,0,0,1-.058-.07593l-.82268-5.669a.09753.09753,0,0,1,.1339-.10491l5.18178,2.16851a.19538.19538,0,0,0,.26778-.21533L71.54763,4.4502a.09759.09759,0,0,1,.1753-.07454,62.25236,62.25236,0,0,1,5.11415,8.53463.09763.09763,0,0,1-.127.13112l-1.32374-.56317a.19558.19558,0,0,0-.26365.23743l6.42,20.83617A.09832.09832,0,0,1,81.41013,33.67055Z"/><path class="cls-7" d="M69.27007,28.70409a.09141.09141,0,0,1-.00138.03865,49.763,49.763,0,0,1-4.181,9.69272.09886.09886,0,0,1-.087.05247V0a.09478.09478,0,0,1,.09663.08283Z"/></g></g></g></svg>