<svg width="24" height="24" viewBox="0 0 24 24" fill="none" xmlns="http://www.w3.org/2000/svg">
<path d="M12 0C5.38323 0 0 5.38323 0 12C0 18.6163 5.38323 24 12 24C18.6163 24 24 18.6163 24 12C24 5.38323 18.6173 0 12 0ZM17.3533 9.25352C17.3586 9.37243 17.3615 9.49231 17.3615 9.61218C17.3615 13.2621 14.5841 17.4693 9.50246 17.4693C7.94264 17.4693 6.49061 17.0135 5.26867 16.2294C5.48473 16.2551 5.70466 16.2681 5.92749 16.2681C7.22194 16.2681 8.41247 15.8263 9.35793 15.0858C8.14952 15.0636 7.12914 14.265 6.77773 13.1673C6.94594 13.1992 7.11947 13.2171 7.29687 13.2171C7.5487 13.2171 7.79328 13.1842 8.02481 13.1209C6.7613 12.8676 5.80955 11.7515 5.80955 10.4126C5.80955 10.401 5.80955 10.3889 5.81004 10.3778C6.18223 10.5842 6.60807 10.7089 7.0605 10.723C6.31999 10.2285 5.83227 9.38258 5.83227 8.42455C5.83227 7.91799 5.9681 7.44333 6.20591 7.03537C7.56755 8.70684 9.60348 9.80601 11.8985 9.92202C11.8511 9.71949 11.8274 9.50922 11.8274 9.29219C11.8274 7.76718 13.0639 6.53025 14.5889 6.53025C15.3835 6.53025 16.1004 6.8657 16.605 7.40224C17.2348 7.2785 17.8245 7.04938 18.3596 6.73181C18.1518 7.3771 17.7153 7.91799 17.1435 8.26021C17.7027 8.19351 18.2364 8.0456 18.7299 7.82567C18.3616 8.37863 17.8932 8.86538 17.3533 9.25352Z" fill="#E0E0E0"/>
</svg>
