<?xml version="1.0" encoding="UTF-8"?>
<svg xmlns="http://www.w3.org/2000/svg" xmlns:xlink="http://www.w3.org/1999/xlink" width="20pt" height="20pt" viewBox="0 0 20 20" version="1.1">
<g id="surface1">
<path style=" stroke:none;fill-rule:nonzero;fill:rgb(100%,100%,100%);fill-opacity:1;" d="M 19.703125 4.113281 C 19.007812 4.421875 18.257812 4.628906 17.472656 4.726562 C 18.285156 4.238281 18.890625 3.476562 19.179688 2.578125 C 18.417969 3.027344 17.585938 3.347656 16.714844 3.519531 C 16.128906 2.894531 15.355469 2.480469 14.511719 2.339844 C 13.667969 2.203125 12.800781 2.34375 12.046875 2.75 C 11.292969 3.152344 10.695312 3.792969 10.34375 4.574219 C 9.988281 5.351562 9.90625 6.226562 10.101562 7.058594 C 8.554688 6.984375 7.046875 6.582031 5.667969 5.882812 C 4.289062 5.183594 3.074219 4.203125 2.097656 3.003906 C 1.765625 3.578125 1.574219 4.246094 1.574219 4.953125 C 1.574219 5.59375 1.730469 6.222656 2.03125 6.789062 C 2.332031 7.351562 2.769531 7.832031 3.300781 8.1875 C 2.683594 8.167969 2.082031 8 1.542969 7.699219 L 1.542969 7.75 C 1.542969 8.648438 1.851562 9.515625 2.417969 10.210938 C 2.988281 10.902344 3.777344 11.378906 4.65625 11.558594 C 4.085938 11.710938 3.484375 11.734375 2.902344 11.625 C 3.152344 12.394531 3.632812 13.070312 4.285156 13.554688 C 4.933594 14.035156 5.71875 14.304688 6.527344 14.320312 C 5.152344 15.398438 3.457031 15.984375 1.707031 15.980469 C 1.398438 15.980469 1.089844 15.964844 0.78125 15.925781 C 2.554688 17.070312 4.621094 17.675781 6.730469 17.671875 C 13.871094 17.671875 17.777344 11.757812 17.777344 6.625 C 17.777344 6.460938 17.773438 6.292969 17.765625 6.125 C 18.523438 5.574219 19.179688 4.894531 19.699219 4.117188 Z M 19.703125 4.113281 "/>
</g>
</svg>
