<svg width="201" height="40" viewBox="0 0 201 40" fill="none" xmlns="http://www.w3.org/2000/svg">
<g clip-path="url(#clip0_56_1311)">
<path d="M32.5311 24.8776C29.6337 24.2004 24.4082 23.2462 24.4082 23.2462V19.6924H15.6082V23.2462C15.6082 23.2462 10.3893 24.2343 7.48529 24.8776C5.02802 25.4935 4.49335 27.3752 4.10059 28.9389C9.09601 31.2048 14.5233 32.3596 20.0082 32.3236C25.4931 32.3596 30.9203 31.2048 35.9158 28.9389C35.523 27.3685 34.9813 25.4663 32.5311 24.8776Z" fill="#FFA801"/>
<path d="M32.5313 24.8776C29.634 24.2004 24.4084 23.2462 24.4084 23.2462V19.6924H15.6084V23.2462L11.3506 24.072V31.3623C13.0892 31.7459 14.8506 32.0172 16.6237 32.1747V24.248C16.6191 24.0424 16.7818 23.8721 16.9875 23.8672C17.0931 23.8647 17.1944 23.9072 17.267 23.9841L18.8442 25.5612L19.3248 32.3303H20.0017C20.9359 32.3303 21.8428 32.2897 22.7092 32.2287L22.8582 30.137C22.8658 30.0101 22.9747 29.9133 23.1017 29.921C23.1581 29.9243 23.2109 29.9484 23.2509 29.9881L25.2343 31.9714C28.9315 31.5298 32.5362 30.5087 35.916 28.9456C35.5233 27.3685 34.9816 25.4663 32.5313 24.8776Z" fill="#FFA801"/>
<path d="M18.9933 31.0308H21.0239C21.3978 31.0308 21.7008 31.3338 21.7008 31.7076V33.4001C21.7008 33.9607 21.2464 34.4155 20.6855 34.4155H19.3317C18.7708 34.4155 18.3164 33.9607 18.3164 33.4001V31.7076C18.3164 31.3338 18.6194 31.0308 18.9933 31.0308Z" fill="#724F17"/>
<path d="M20.6855 34.9232H19.3317C18.4919 34.9232 17.8086 34.2396 17.8086 33.4003V31.7078C17.8086 31.0547 18.3402 30.5234 18.9933 30.5234H21.0239C21.677 30.5234 22.2086 31.0547 22.2086 31.7078V33.4003C22.2086 34.2396 21.525 34.9232 20.6855 34.9232ZM18.9933 31.5388C18.8999 31.5388 18.8239 31.6147 18.8239 31.7078V33.4C18.8239 33.6799 19.0519 33.9078 19.3317 33.9078H20.6855C20.965 33.9078 21.1933 33.6796 21.1933 33.4V31.7078C21.1933 31.6147 21.117 31.5388 21.0239 31.5388H18.9933Z" fill="#020202"/>
<path d="M17.6396 22.9077L18.3165 32.3843H21.7009L22.3778 22.9077H17.6396Z" fill="#724F17"/>
<path d="M21.7009 32.8924H18.3165C18.0501 32.8924 17.8289 32.6867 17.8099 32.4212L17.1331 22.9443C17.1233 22.8036 17.1718 22.6653 17.268 22.5622C17.3638 22.459 17.4987 22.4001 17.6397 22.4001H22.3778C22.5188 22.4001 22.6537 22.459 22.7495 22.5622C22.8453 22.6653 22.8942 22.8036 22.8844 22.9443L22.2075 32.4212C22.1883 32.6867 21.9674 32.8924 21.7009 32.8924ZM18.7893 31.8771H21.2282L21.8325 23.4155H18.185L18.7893 31.8771Z" fill="#020202"/>
<path d="M17.9775 24.4307H22.0388V25.4463H17.9775V24.4307Z" fill="#020202"/>
<path d="M19.1294 27.0364L21.9944 24.8914L22.4003 25.4333L19.5353 27.5787L19.1294 27.0364Z" fill="#020202"/>
<path d="M17.1328 22.9461L18.1457 22.8738L18.822 32.351L17.8094 32.4233L17.1328 22.9461Z" fill="#020202"/>
<path d="M21.1914 32.3484L21.8716 22.8721L22.8845 22.945L22.2043 32.421L21.1914 32.3484Z" fill="#020202"/>
<path d="M18.6758 25.208L19.0817 24.666L20.8889 26.0198L20.483 26.5618L18.6758 25.208Z" fill="#020202"/>
<path d="M19.1294 29.0671L21.8388 27.0383L22.2446 27.5803L19.5353 29.6091L19.1294 29.0671Z" fill="#020202"/>
<path d="M17.7744 26.5634L18.1806 26.0217L20.8884 28.0524L20.4819 28.5941L17.7744 26.5634Z" fill="#020202"/>
<path d="M18.5198 32.4044L18.1133 31.8636L21.6057 29.2373L22.0131 29.7781L18.5198 32.4044Z" fill="#020202"/>
<path d="M17.9097 28.6938L18.3162 28.1519L20.8882 30.0815L20.4817 30.6232L17.9097 28.6938Z" fill="#020202"/>
<path d="M20.2529 32.8318C20.0875 32.8318 19.9224 32.8318 19.7576 32.8318C14.3258 32.8318 8.84303 31.6477 3.89125 29.4007C3.66756 29.2997 3.54884 29.0531 3.60866 28.815C3.98097 27.3325 4.54402 25.0913 7.36201 24.3848C10.2542 23.7449 15.4617 22.7573 15.5142 22.7472C15.7879 22.695 16.0556 22.8763 16.1074 23.1519C16.1596 23.4275 15.9783 23.6933 15.7031 23.7455C15.6509 23.7555 10.4583 24.7397 7.59517 25.373C5.71437 25.8451 5.11897 27.1167 4.70088 28.6506C9.49275 30.7566 14.797 31.8763 20.0051 31.8155C25.2551 31.8579 30.5258 30.7566 35.317 28.6506C34.902 27.1155 34.3075 25.8423 32.409 25.3696C29.5632 24.7052 24.3695 23.7555 24.3173 23.7461C24.0414 23.6951 23.8583 23.4308 23.9086 23.1553C23.9596 22.8788 24.2227 22.7012 24.4995 22.7466C24.5519 22.7567 29.7708 23.711 32.647 24.3827C35.4803 25.0873 36.0388 27.331 36.4083 28.8157C36.4678 29.0537 36.3488 29.2997 36.1254 29.4007C31.1749 31.6471 25.6915 32.8318 20.2529 32.8318Z" fill="#020202"/>
<path d="M24.4084 21.5538V39.492C29.6003 39.492 31.1775 35.9312 31.1775 33.3998V31.0304C31.2434 27.624 33.6131 24.6965 36.9313 23.9229L31.1503 5.11154C31.0609 4.81552 30.7823 4.61777 30.4735 4.63089H29.2686C24.0934 -0.334319 15.9233 -0.334319 10.7481 4.63089H9.51642C9.20728 4.61777 8.92865 4.81552 8.83923 5.11154L3.08545 23.9229C6.40363 24.6965 8.77332 27.6237 8.83923 31.0304V33.3998C8.83923 35.9111 10.3825 39.492 15.6083 39.492V21.5538H24.4084Z" fill="#FFA801"/>
<path d="M31.164 5.15919V5.11188C31.0746 4.81586 30.7963 4.61811 30.4871 4.63123C30.1081 4.63123 27.4412 5.30811 27.4412 11.0619V12.2463C28.6188 10.8925 30.7511 12.2463 28.7949 15.4616C28.5685 15.8767 28.4519 16.3427 28.4565 16.8157C28.4565 17.1541 28.4565 18.1694 27.6102 18.1694C26.7643 18.1694 26.7777 17.1541 26.7777 17.1541V15.8001C26.7777 17.6821 25.3629 19.7737 23.7046 21.5538H24.3815V23.2802C27.3191 23.835 30.9205 24.5256 32.5043 24.8775C32.985 24.9919 33.4424 25.1863 33.8581 25.4531C34.751 24.713 35.8027 24.1893 36.9315 23.9232L31.164 5.15919Z" fill="#FFA801"/>
<path d="M14.1669 24.6001H13.8621L14.5933 23.9232C14.5936 23.7102 14.4208 23.5372 14.2078 23.5369C14.1828 23.5369 14.1575 23.5393 14.1331 23.5442C12.5626 23.8286 9.28626 24.4716 7.82417 24.7896C7.62031 24.8372 7.49366 25.0411 7.54127 25.2449C7.55714 25.3136 7.59193 25.3762 7.64137 25.4259C8.75098 26.5926 9.47639 28.0718 9.71961 29.6636C9.74982 29.8674 9.92622 30.0176 10.1325 30.0154C9.95307 30.0118 9.80445 30.154 9.80079 30.3334C9.80048 30.338 9.80048 30.3426 9.80079 30.3472C9.84138 30.8211 9.85481 31.2813 9.86152 31.7009C9.86884 31.8825 10.0184 32.0259 10.2 32.0259C10.0156 32.0259 9.86549 32.1733 9.86152 32.3577V33.3797V33.7926C9.9073 34.3496 10.1972 34.8577 10.6538 35.1802L10.9785 35.4104C10.7209 35.4238 10.5231 35.6435 10.5366 35.9014C10.5399 35.9661 10.5567 36.0296 10.586 36.0872C10.785 36.4193 11.0288 36.722 11.3102 36.9878C11.5897 37.2631 11.9669 37.4166 12.3594 37.4141H14.221C14.419 37.4141 14.5798 37.2536 14.5798 37.0553V35.8977C14.5798 35.6362 14.3677 35.4241 14.1059 35.4241C14.1038 35.4241 14.1013 35.4241 14.0992 35.4241H13.754L14.1126 35.1262C14.4135 34.8858 14.5899 34.5229 14.5933 34.1378V32.784C14.596 32.5566 14.484 32.343 14.2954 32.2155L14.0247 32.0327H14.2481C14.4389 32.0327 14.5933 31.8782 14.5933 31.6875V30.3337C14.5933 30.1503 14.445 30.002 14.2618 30.002H14.0385C14.3806 29.7768 14.5887 29.3962 14.5933 28.9867V27.748C14.5933 27.3626 14.4129 26.9994 14.1059 26.7662L13.9368 26.631H14.1465C14.3943 26.6271 14.5933 26.4254 14.5933 26.1776V25.0267C14.5933 24.7911 14.4025 24.6001 14.1669 24.6001Z" fill="#FFA801"/>
<path d="M13.2394 15.8003C12.7655 9.16638 12.6099 6.92578 10.7959 5.27417C10.5936 5.09655 10.2856 5.1167 10.108 5.31903C10.0641 5.36908 10.0311 5.42767 10.0107 5.49084C9.78728 6.16772 9.57061 6.91906 9.33379 7.68414C9.24102 7.94903 9.3637 8.24139 9.61791 8.36102C9.32708 8.36102 9.10369 8.43548 9.01549 8.7196L8.62975 9.97876C8.58092 10.1515 8.68132 10.3309 8.85405 10.3798C8.88671 10.3889 8.92058 10.3929 8.95446 10.3917C8.6801 10.3892 8.43718 10.5687 8.35906 10.8317C8.12194 11.5831 7.88512 12.3545 7.64128 13.1331C7.5775 13.3891 7.69805 13.6552 7.93242 13.7764C7.648 13.7764 7.43163 13.8438 7.34343 14.1148C7.06603 14.9946 7.24212 14.4194 6.95098 15.3941C6.90245 15.5668 7.00286 15.7463 7.17559 15.7948C7.2061 15.8033 7.23754 15.8076 7.26897 15.807C7.0111 15.8085 6.7816 15.9706 6.69371 16.2132L5.96953 18.535C5.88744 18.8014 6.01043 19.0879 6.26036 19.2118C5.96953 19.2118 5.74614 19.2796 5.65795 19.5707C5.61736 19.6858 5.61736 19.7126 5.27221 20.8296C5.22338 21.0023 5.32378 21.1821 5.49651 21.2306C5.52916 21.2397 5.56304 21.244 5.59691 21.2425C5.33141 21.2425 5.0949 21.4109 5.00823 21.6624L4.38536 23.6931C4.30693 23.9467 4.44884 24.2158 4.70244 24.2942C4.74669 24.308 4.79247 24.3153 4.83886 24.3159H15.1279C15.3934 24.3159 15.6085 24.1008 15.6085 23.8353V22.0344C15.6085 21.8992 15.6085 21.5541 16.2854 21.5541C14.6542 19.7737 13.3746 17.6753 13.2394 15.8003Z" fill="#FFA801"/>
<path d="M25.85 24.6001H26.1546L25.4237 23.9098C25.4234 23.6965 25.5958 23.5237 25.8091 23.5234C25.8341 23.5234 25.8592 23.5259 25.8839 23.5308C27.4543 23.8286 30.7307 24.4716 32.1928 24.7896C32.3966 24.8372 32.5233 25.0411 32.4757 25.2449C32.4598 25.3136 32.425 25.3762 32.3756 25.4259C31.2657 26.5929 30.5406 28.0718 30.2973 29.6636C30.2671 29.8674 30.0907 30.0179 29.8844 30.0154C30.0639 30.0118 30.2125 30.154 30.2162 30.3334V30.3472C30.1756 30.8211 30.1621 31.2813 30.1551 31.7009C30.1481 31.8825 29.9986 32.0262 29.8167 32.0259C30.001 32.0259 30.1515 32.1733 30.1551 32.3577V33.3797V33.7926C30.1097 34.3495 29.8194 34.8577 29.3632 35.1802L29.0385 35.4106C29.2961 35.4241 29.4938 35.6438 29.4804 35.9014C29.477 35.9661 29.4602 36.0295 29.4309 36.0875C29.2317 36.4192 28.9881 36.7223 28.7068 36.9878C28.4272 37.2631 28.0497 37.4166 27.6573 37.4141H25.7823C25.5842 37.4141 25.4237 37.2536 25.4237 37.0555V35.898C25.4237 35.6362 25.6358 35.4241 25.8973 35.4241H25.904H26.2495L25.8906 35.1262C25.5949 34.8833 25.4237 34.5207 25.4234 34.1381V32.784C25.4209 32.5566 25.5329 32.343 25.7212 32.2155L25.9922 32.0327H25.7688C25.5781 32.0327 25.4234 31.8782 25.4234 31.6875V30.3337C25.4234 30.1506 25.572 30.002 25.7551 30.002H25.9785C25.6361 29.7768 25.428 29.3962 25.4234 28.9867V27.748C25.4234 27.3625 25.6037 26.9994 25.9107 26.7662L26.0801 26.631H25.8702C25.6224 26.6274 25.4234 26.4254 25.4234 26.1776V25.0267C25.4237 24.7911 25.6147 24.6001 25.85 24.6001Z" fill="#FFA801"/>
<path d="M26.7777 15.8003C27.2516 9.16638 27.4073 6.92578 29.2213 5.27417C29.4236 5.09655 29.7315 5.1167 29.9091 5.31903C29.9531 5.36908 29.986 5.42767 30.0065 5.49084C30.2299 6.16772 30.4465 6.91906 30.6833 7.68414C30.7761 7.94903 30.6534 8.24139 30.3992 8.36102C30.6901 8.36102 30.9138 8.43548 31.0016 8.7196L31.3874 9.97876C31.4362 10.1515 31.3358 10.3309 31.1631 10.3798C31.1304 10.3889 31.0966 10.3929 31.0627 10.3917C31.337 10.3892 31.58 10.5687 31.6584 10.8317C31.8952 11.5831 32.132 12.3545 32.3759 13.1331C32.4396 13.3891 32.3191 13.6552 32.0847 13.7764C32.3691 13.7764 32.5855 13.8438 32.6737 14.1148C32.9511 14.9946 32.775 14.4194 33.0662 15.3941C33.115 15.5668 33.0143 15.7463 32.8415 15.7948C32.811 15.8033 32.7796 15.8076 32.7482 15.807C33.006 15.8085 33.2355 15.9706 33.3234 16.2132L34.0476 18.535C34.1297 18.8014 34.0067 19.0879 33.7568 19.2118C34.0476 19.2118 34.271 19.2796 34.3592 19.5707C34.3998 19.6858 34.3998 19.7126 34.7449 20.8296C34.7938 21.0023 34.6934 21.1821 34.5206 21.2306C34.488 21.2397 34.4541 21.244 34.4202 21.2425C34.6857 21.2425 34.9222 21.4109 35.0089 21.6624L35.6318 23.6931C35.7102 23.9467 35.5683 24.2158 35.3147 24.2942C35.2704 24.308 35.2247 24.3153 35.1783 24.3159H24.889C24.6238 24.3159 24.4086 24.1008 24.4086 23.8353V22.0344C24.4086 21.8992 24.4086 21.5541 23.7314 21.5541C25.3629 19.7737 26.6422 17.6753 26.7777 15.8003Z" fill="#FFA801"/>
<path d="M32.8701 10.7234H27.4547L26.7778 13.4309H33.8854L32.8701 10.7234Z" fill="#3459A5"/>
<path d="M34.5619 16.1387H26.7775L25.7622 18.8462H35.2388L34.5619 16.1387Z" fill="#3459A5"/>
<path d="M36.2544 21.554H24.4087V24.2615H36.9316L36.2544 21.554Z" fill="#3459A5"/>
<path d="M27.793 8.01554H32.193L31.0559 4.92228L30.7648 4.68516C29.9234 4.67723 29.1446 5.12889 28.7341 5.86314C28.2513 6.49424 27.9285 7.23277 27.793 8.01554Z" fill="#3459A5"/>
<path d="M24.4087 23.2461V32.0458C26.699 31.7852 28.9634 31.3323 31.1778 30.6921C31.2956 28.6328 32.2792 26.7196 33.8853 25.4257C33.4697 25.1592 33.0119 24.9648 32.5316 24.8504C29.6342 24.2343 24.4087 23.2461 24.4087 23.2461Z" fill="#FFA801"/>
<path d="M7.97314 8.01534H12.2377C12.1293 7.56185 11.6218 5.22664 9.60461 4.63094C9.31439 4.55983 9.01868 4.72554 8.92743 5.00997L7.97314 8.01534Z" fill="#4668BC"/>
<path d="M24.4087 23.2461V32.134C26.688 31.8243 28.9479 31.3857 31.1778 30.8206C31.2712 29.0045 32.0216 27.2842 33.2896 25.9808L25.1667 24.1735C24.7258 24.0835 24.4093 23.6959 24.4087 23.2461Z" fill="#FFA801"/>
<path d="M20.0084 1.24658C14.8164 1.24658 13.2393 4.84796 13.2393 8.69287V15.8004C13.2393 17.9257 15.0465 20.3152 16.9624 22.2311C17.7055 23.1396 18.8359 23.6419 20.0084 23.5848C21.1808 23.6419 22.3112 23.1396 23.0546 22.2311C24.9702 20.3152 26.7775 17.9257 26.7775 15.8004V8.69287C26.7775 4.84796 25.2003 1.24658 20.0084 1.24658Z" fill="#FFA801"/>
<path d="M26.7777 8.6926C26.7777 4.84769 25.2006 1.24631 20.0086 1.24631C18.8956 1.21854 17.7897 1.43094 16.7661 1.86917V18.0203C16.7661 19.8413 18.0863 21.8451 19.6702 23.5913H20.0086C21.1811 23.6483 22.3115 23.146 23.0549 22.2375C24.9705 20.3219 26.7777 17.9324 26.7777 15.8069V8.6926Z" fill="#FFA801"/>
<path d="M16.3396 12.1243C16.4971 12.2931 16.7119 12.3968 16.942 12.4154C17.632 12.5125 18.2701 12.8366 18.7563 13.3362C18.8033 13.3941 18.8884 13.403 18.9467 13.356C18.9699 13.3371 18.9861 13.3111 18.9931 13.2818V11.8063C19.0075 11.5686 18.8726 11.347 18.6547 11.2512C18.117 11.0159 17.546 10.8651 16.9625 10.8044C16.5252 10.7861 16.1562 11.1255 16.1379 11.5625C16.1293 11.7691 16.2017 11.9705 16.3396 12.1243Z" fill="#FFA801"/>
<path d="M25.031 11.1024C23.6772 11.0618 23.6772 11.7792 23.6772 12.1381C23.6772 12.3545 23.3321 12.4088 23.1154 12.4222C22.6534 12.4674 22.1983 12.5699 21.7616 12.7271C21.4818 12.8092 21.1882 12.6493 21.1061 12.3694C21.0924 12.3228 21.0851 12.2745 21.0848 12.226V11.8064C21.0591 11.5827 21.1681 11.3651 21.3622 11.2513C22.5099 10.6882 23.8414 10.6342 25.031 11.1024Z" fill="#FFA801"/>
<path d="M24.3949 14.8929H22.8922C22.7021 14.878 22.5358 15.0196 22.5205 15.2097C22.5156 15.2707 22.5269 15.3321 22.5538 15.3873L23.0683 16.3892C23.1467 16.5668 23.0668 16.7746 22.8889 16.8534C22.8388 16.8757 22.7845 16.8857 22.7299 16.8833H22.1204C21.9263 16.8723 21.7603 17.0209 21.7496 17.215C21.7469 17.2611 21.7533 17.3069 21.7686 17.3502C21.9987 17.9325 22.2492 18.555 22.4454 19.0763C22.7772 19.8615 23.3323 19.5368 23.5557 19.2457C24.333 18.266 24.9168 17.1473 25.275 15.9491C25.3684 15.4682 25.0544 15.0028 24.5737 14.9094C24.5148 14.8978 24.455 14.8923 24.3949 14.8929Z" fill="#FFA801"/>
<path d="M22.0867 19.2321L21.5181 18.6972C21.2178 18.3947 20.7713 18.2898 20.3676 18.4265C20.1341 18.5012 19.8833 18.5012 19.6498 18.4265C19.2461 18.2898 18.7996 18.3947 18.4993 18.6972L17.9308 19.2657C17.8633 19.3307 17.8615 19.4378 17.9262 19.505C17.9576 19.5376 18.0007 19.5562 18.0458 19.5568H21.9716C22.0616 19.5886 22.1599 19.5416 22.1916 19.4519C22.2237 19.3621 22.1767 19.2639 22.0867 19.2321Z" fill="#B76C42"/>
<path d="M32.1931 26.9692H24.4087V29.6771H31.1778L32.1931 26.9692Z" fill="#3459A5"/>
<path d="M24.4087 32.3845H31.1778V35.0923H24.4087V32.3845Z" fill="#3459A5"/>
<path d="M29.4853 37.7998H24.4087V39.4923H26.7778L29.4853 37.7998Z" fill="#3459A5"/>
<path d="M27.4546 10.7234H31.6245C31.8952 11.6099 32.1793 12.5172 32.457 13.4309H27.4546V11.0618C27.4546 10.9468 27.4546 10.8384 27.4546 10.7234Z" fill="#2E5599"/>
<path d="M26.7774 16.1387H33.303C33.5871 17.0524 33.8715 17.9597 34.1422 18.8462H25.7822C26.3065 18.0265 26.6462 17.1027 26.7774 16.1387Z" fill="#2E5599"/>
<path d="M35.8214 24.2615H24.4087V21.554H34.9821C35.2797 22.5082 35.5775 23.4357 35.8214 24.2615Z" fill="#2E5599"/>
<path d="M30.7914 8.01525H27.7793C27.9917 6.7268 28.7263 5.583 29.8099 4.85424C30.2759 4.62902 30.8317 4.70623 31.218 5.05047C30.6837 5.0288 30.2329 5.44415 30.2112 5.97821C30.2057 6.11218 30.2283 6.24554 30.2772 6.37036C30.4462 6.89831 30.6156 7.44671 30.7914 8.01525Z" fill="#2E5599"/>
<path d="M24.4087 39.9997C24.1282 39.9997 23.9009 39.7723 23.9009 39.4922V20.8771C23.9009 20.5966 24.1282 20.3693 24.4087 20.3693C24.6888 20.3693 24.9162 20.5966 24.9162 20.8771V38.9844H25.2885C26.7573 38.9572 28.1218 38.3624 29.1371 37.3099C30.1524 36.2567 30.6965 34.8712 30.67 33.4091V31.0306C30.7374 27.5601 33.022 24.5688 36.2922 23.5693L30.6926 5.2597C30.6694 5.18402 30.6071 5.13214 30.5226 5.13794C30.2653 5.1419 30.005 4.93316 29.9937 4.6524C29.9818 4.37225 30.1988 4.13543 30.4789 4.12323C31.017 4.10919 31.5068 4.4458 31.6636 4.9646L37.4165 23.7741C37.4583 23.909 37.4418 24.0546 37.3716 24.176C37.3008 24.2984 37.1839 24.3857 37.0463 24.4174C33.9515 25.1385 31.7469 27.8622 31.6853 31.0403V33.3997C31.717 35.1236 31.0713 36.7663 29.868 38.0145C28.6644 39.2624 27.0466 39.967 25.3129 39.9988L24.4087 39.9997Z" fill="#020202"/>
<path d="M27.9626 11.0613H26.9473C26.9473 7.04669 28.1918 5.35297 29.208 4.63977V4.1228H30.501C30.7812 4.1228 31.0085 4.35046 31.0085 4.63062C31.0085 4.91077 30.7812 5.13812 30.501 5.13812C30.4812 5.13965 27.9626 5.5321 27.9626 11.0613Z" fill="#020202"/>
<path d="M27.793 7.67676H32.193V8.35364H27.793V7.67676Z" fill="#020202"/>
<path d="M27.4546 10.3848H32.8699V11.0616H27.4546V10.3848Z" fill="#020202"/>
<path d="M29.4854 13.092H33.5469V13.7689H29.4854V13.092Z" fill="#020202"/>
<path d="M28.4702 15.8H34.5624V16.4769H28.4702V15.8Z" fill="#020202"/>
<path d="M25.7622 18.5073H35.5776V19.1842H25.7622V18.5073Z" fill="#020202"/>
<path d="M24.4087 21.2156H36.2547V21.8925H24.4087V21.2156Z" fill="#020202"/>
<path d="M24.4087 23.9231H36.2547V24.6H24.4087V23.9231Z" fill="#020202"/>
<path d="M24.4087 26.6304H32.5316V27.3076H24.4087V26.6304Z" fill="#020202"/>
<path d="M24.4087 29.3384H31.1778V30.0153H24.4087V29.3384Z" fill="#020202"/>
<path d="M24.4087 32.0461H31.1778V32.723H24.4087V32.0461Z" fill="#020202"/>
<path d="M24.4087 34.7539H31.1778V35.4308H24.4087V34.7539Z" fill="#020202"/>
<path d="M24.4087 37.4614H29.1472V38.1383H24.4087V37.4614Z" fill="#020202"/>
<path d="M7.14716 10.7234H12.5625L13.2394 13.4309H6.13184L7.14716 10.7234Z" fill="#4668BC"/>
<path d="M8.11515 11.5964L7.82401 12.4833C7.74558 12.7289 7.88108 12.9917 8.12674 13.0701C8.17344 13.0851 8.22196 13.0927 8.27079 13.0924H12.5625V11.0618H8.84604C8.51249 11.0633 8.21769 11.2791 8.11515 11.5964Z" fill="#3459A5"/>
<path d="M5.4552 16.1387H13.2396L14.2549 18.8462H4.77832L5.4552 16.1387Z" fill="#4668BC"/>
<path d="M6.50421 18.5077H14.0448C13.6819 17.8784 13.4302 17.1915 13.3002 16.4771H7.14721C6.81183 16.4758 6.51642 16.6968 6.42273 17.0184L6.13189 18.0203C6.07574 18.226 6.1969 18.4381 6.40259 18.4943C6.43554 18.5031 6.46972 18.5077 6.50421 18.5077Z" fill="#3459A5"/>
<path d="M3.76233 21.554H15.6083V24.2615H3.08545L3.76233 21.554Z" fill="#4668BC"/>
<path d="M4.99457 23.9094H15.6086V21.8784H5.70532C5.2442 21.8796 4.8374 22.1818 4.70343 22.623L4.5072 23.2392C4.42114 23.5099 4.57099 23.7992 4.84198 23.8853C4.89142 23.9008 4.94269 23.9091 4.99457 23.9094Z" fill="#3459A5"/>
<path d="M7.82422 26.9692H15.6086V29.6771H8.83954L7.82422 26.9692Z" fill="#4668BC"/>
<path d="M14.5931 28.9524V27.6868C14.5931 27.4735 14.4204 27.3008 14.2073 27.3008H9.55005C9.33338 27.3047 9.16065 27.4839 9.16462 27.7006C9.16553 27.7469 9.17469 27.7924 9.19147 27.8358C9.35474 28.2261 9.48597 28.6289 9.58393 29.0406C9.62452 29.2139 9.77833 29.3369 9.95624 29.3384H14.2073C14.4164 29.3421 14.5894 29.1755 14.5931 28.9661C14.5931 28.9615 14.5931 28.957 14.5931 28.9524Z" fill="#3459A5"/>
<path d="M8.83936 32.3845H15.6085V35.0923H8.83936V32.3845Z" fill="#4668BC"/>
<path d="M14.1328 32.7229H10.315C10.0623 32.7266 9.85815 32.9307 9.85449 33.1834V33.4001C9.85663 33.7269 9.88837 34.0535 9.9494 34.3748C9.99152 34.5915 10.1819 34.7477 10.4029 34.7471H14.1328C14.387 34.7471 14.5933 34.5414 14.5936 34.2872C14.5936 34.2802 14.5933 34.2732 14.593 34.2665V33.1834C14.593 32.9292 14.387 32.7229 14.1328 32.7229Z" fill="#3459A5"/>
<path d="M10.5317 37.7998H15.6086V39.4923H13.2396L10.5317 37.7998Z" fill="#4668BC"/>
<path d="M20.0087 0.907959C19.2091 0.920776 18.4108 0.984253 17.6191 1.09747C17.6191 1.09747 18.9729 5.9577 18.9729 9.00396H21.0038C21.0038 5.9577 22.3576 1.09747 22.3576 1.09747C21.5791 0.986084 20.7948 0.922607 20.0087 0.907959Z" fill="#4668BC"/>
<path d="M25.7823 2.21436C25.7823 2.21436 23.3931 5.64636 23.3931 9.03106L25.4237 9.3695C25.4237 5.9848 27.7928 3.27728 27.7928 3.27728L25.7823 2.21436Z" fill="#4668BC"/>
<path d="M25.9313 9.36951H24.916C24.916 5.83466 27.3089 3.05939 27.4108 2.94312L28.1756 3.61114C28.1533 3.63678 25.9313 6.22375 25.9313 9.36951Z" fill="#020202"/>
<path d="M23.9006 9.03095H22.8853C22.8853 5.52722 25.265 2.06958 25.366 1.92432L26.1992 2.50415C26.1766 2.53741 23.9006 5.8501 23.9006 9.03095Z" fill="#020202"/>
<path d="M16.6238 9.03106C16.6238 5.64636 14.2346 2.21436 14.2346 2.21436L12.2036 3.27728C12.2036 3.27728 14.573 5.9848 14.573 9.3695L16.6238 9.03106Z" fill="#4668BC"/>
<path d="M9.85492 7.68412H12.1767C11.6963 5.72092 10.8568 5.254 10.2343 4.86124C9.76825 4.63602 9.21252 4.71354 8.82617 5.05747C9.36023 5.0358 9.81097 5.45115 9.83295 5.9852C9.83844 6.11918 9.81586 6.25284 9.76703 6.37766L9.47589 7.18973C9.41211 7.38932 9.52197 7.60264 9.72156 7.66642C9.76459 7.68015 9.80975 7.68625 9.85492 7.68412Z" fill="#3459A5"/>
<path d="M18.8035 11.7725C17.8783 11.2183 16.7918 10.9961 15.7234 11.1429C15.1994 11.2369 14.7105 11.471 14.3086 11.8198C13.896 12.1937 13.574 12.6566 13.3677 13.1739C13.3372 13.2401 13.2591 13.2703 13.192 13.2416C13.1288 13.2111 13.0971 13.1394 13.1175 13.0723C13.3049 12.501 13.6171 11.9785 14.0312 11.5424C14.4575 11.0837 15.0004 10.7493 15.6016 10.5744C16.8089 10.3034 18.0726 10.4539 19.1826 11.001C19.3919 11.1005 19.481 11.3508 19.3816 11.5601C19.2848 11.7637 19.0446 11.8543 18.8374 11.7658L18.8035 11.7725Z" fill="#020202"/>
<path d="M20.8342 11.028C21.9408 10.4716 23.2048 10.3117 24.4151 10.5745C25.013 10.7329 25.5574 11.0484 25.9923 11.4882C26.4064 11.9243 26.7186 12.4467 26.906 13.018C26.9283 13.0891 26.8889 13.1645 26.8181 13.1874C26.7564 13.2143 26.6844 13.1862 26.6576 13.1245C26.657 13.123 26.6563 13.1212 26.6557 13.1196C26.4494 12.6024 26.1275 12.1394 25.7146 11.7659C25.3127 11.4168 24.8241 11.1827 24.3001 11.0887C23.2317 10.9422 22.1449 11.1641 21.2199 11.7183C21.0231 11.833 20.7701 11.7665 20.6554 11.5697C20.6538 11.5672 20.6526 11.5651 20.6514 11.5626C20.5351 11.3621 20.6035 11.1052 20.804 10.9892C20.8049 10.9886 20.8061 10.988 20.807 10.9874L20.8342 11.028Z" fill="#020202"/>
<path d="M20.8547 21.2158H19.1622C18.9751 21.2158 18.8237 21.0644 18.8237 20.8773C18.8237 20.6899 18.9751 20.5386 19.1622 20.5386H20.8547C21.0418 20.5386 21.1931 20.6899 21.1931 20.8773C21.1931 21.0644 21.0418 21.2158 20.8547 21.2158Z" fill="#C67446"/>
<path d="M29.2686 5.09157C29.1541 5.09157 29.0391 5.04884 28.95 4.96309C23.9359 0.152603 16.0807 0.152603 11.067 4.96309C10.8839 5.13948 10.593 5.13338 10.416 4.94966C10.2402 4.76625 10.2463 4.47511 10.4298 4.29872C15.8018 -0.855087 24.217 -0.854477 29.5872 4.29872C29.7709 4.47511 29.777 4.76625 29.6003 4.94966C29.5106 5.04396 29.3894 5.09157 29.2686 5.09157Z" fill="#020202"/>
<path d="M15.6086 40.0002H14.7288C12.9703 39.9679 11.3529 39.2632 10.1493 38.015C8.94567 36.7669 8.30053 35.1244 8.33196 33.391V31.0311C8.27062 27.8628 6.06573 25.1394 2.97033 24.4179C2.83361 24.3862 2.71582 24.2989 2.64593 24.1768C2.57574 24.0551 2.55926 23.9095 2.60015 23.7749L8.35394 4.96328C8.51049 4.44662 8.99359 4.10238 9.53832 4.12374C9.81817 4.13595 10.0358 4.37277 10.0239 4.65292C10.0117 4.93307 9.78582 5.15432 9.49468 5.13876C9.4306 5.13571 9.3482 5.18423 9.32562 5.25869L3.72473 23.5698C6.9959 24.5693 9.28045 27.56 9.34728 31.0213V33.4005C9.32043 34.8717 9.86486 36.2572 10.8802 37.3104C11.8955 38.3629 13.2599 38.9577 14.7223 38.9843C14.7403 38.9849 14.7739 38.987 14.7919 38.9888L15.1008 38.9876V20.8776C15.1008 20.5971 15.3284 20.3698 15.6086 20.3698C15.8887 20.3698 16.1161 20.5971 16.1161 20.8776V39.4927C16.1164 39.7728 15.889 40.0002 15.6086 40.0002Z" fill="#020202"/>
<path d="M13.2393 13.7693H14.9315C14.9315 12.8422 15.6895 12.4155 16.6237 12.4155C17.5578 12.4155 18.3162 12.8351 18.3162 13.7693H14.9315" fill="white"/>
<path d="M26.7776 13.7693H25.0854C25.0854 12.8422 24.3273 12.4155 23.3932 12.4155C22.459 12.4155 21.7007 12.8351 21.7007 13.7693H25.0854" fill="white"/>
<path d="M17.3007 13.0923C17.3007 13.4662 16.9974 13.7692 16.6236 13.7692C16.2498 13.7692 15.9468 13.4662 15.9468 13.0923C15.9468 12.7185 16.2498 12.4155 16.6236 12.4155C16.9974 12.4155 17.3007 12.7185 17.3007 13.0923Z" fill="#020202"/>
<path d="M24.0698 13.0923C24.0698 13.4662 23.7668 13.7692 23.3929 13.7692C23.0191 13.7692 22.7158 13.4662 22.7158 13.0923C22.7158 12.7185 23.0191 12.4155 23.3929 12.4155C23.7668 12.4155 24.0698 12.7185 24.0698 13.0923Z" fill="#020202"/>
<path d="M12.2241 3.27734C12.2241 3.27734 14.5932 5.98486 14.5932 9.36957L12.2241 3.27734Z" fill="#FFA801"/>
<path d="M15.1008 9.36951H14.0851C14.0851 6.21216 11.8641 3.63708 11.8418 3.61145L12.606 2.94312C12.7076 3.05939 15.1008 5.83466 15.1008 9.36951Z" fill="#020202"/>
<path d="M14.2344 2.21436C14.2344 2.21436 16.6236 5.64636 16.6236 9.03106L14.2344 2.21436Z" fill="#FFA801"/>
<path d="M17.1318 9.03095H16.1165C16.1165 5.84247 13.8411 2.53772 13.8179 2.50476L14.6516 1.92432C14.7526 2.06958 17.1318 5.52722 17.1318 9.03095Z" fill="#020202"/>
<path d="M22.3977 1.09717C22.3977 1.09717 21.0439 5.9574 21.0439 9.00366L22.3977 1.09717Z" fill="#FFA801"/>
<path d="M21.5519 9.00372H20.5366C20.5366 5.92358 21.8525 1.16223 21.909 0.961426L22.8871 1.23364C22.874 1.28156 21.5519 6.06305 21.5519 9.00372Z" fill="#020202"/>
<path d="M13.0701 11.0617H12.0547C12.0547 5.57158 9.57184 5.14586 9.51141 5.13884C9.2334 5.13609 9.00879 4.90965 9.00879 4.63103C9.00879 4.35271 9.23248 4.12688 9.50958 4.12352H9.50989H9.51202H9.51355C9.51477 4.12321 9.51508 4.12321 9.5163 4.12352H10.8093V4.64018C11.8253 5.35338 13.0701 7.0471 13.0701 11.0617Z" fill="#020202"/>
<path d="M7.82422 7.677H12.2242V8.35388H7.82422V7.677Z" fill="#020202"/>
<path d="M7.14746 10.3848H12.5628V11.0616H7.14746V10.3848Z" fill="#020202"/>
<path d="M6.47021 13.0923H10.5315V13.7692H6.47021V13.0923Z" fill="#020202"/>
<path d="M5.45508 15.8H11.5473V16.4769H5.45508V15.8Z" fill="#020202"/>
<path d="M4.43945 18.5076H14.2548V19.1844H4.43945V18.5076Z" fill="#020202"/>
<path d="M3.7627 21.2158H15.6087V21.8927H3.7627V21.2158Z" fill="#020202"/>
<path d="M3.7627 23.9233H15.6087V24.6002H3.7627V23.9233Z" fill="#020202"/>
<path d="M7.48584 26.6306H15.6087V27.3078H7.48584V26.6306Z" fill="#020202"/>
<path d="M8.83936 29.3389H15.6085V30.0158H8.83936V29.3389Z" fill="#020202"/>
<path d="M8.83936 32.0464H15.6085V32.7233H8.83936V32.0464Z" fill="#020202"/>
<path d="M8.83936 34.7542H15.6085V35.431H8.83936V34.7542Z" fill="#020202"/>
<path d="M10.8701 37.4617H15.6083V38.1386H10.8701V37.4617Z" fill="#020202"/>
<path d="M24.0702 7.33828H15.9471C14.521 7.32119 13.1941 8.06704 12.4678 9.29476C12.6255 10.3913 12.7092 11.4969 12.7183 12.6047C12.7131 12.6493 12.7449 12.6898 12.7894 12.695C12.8254 12.699 12.8602 12.6789 12.874 12.6453C14.1465 10.3034 14.5933 9.36922 15.9471 9.36922H24.0702C25.424 9.36922 25.8235 10.2356 27.1434 12.6251C27.1605 12.6666 27.2081 12.6862 27.2496 12.6688C27.2831 12.655 27.3033 12.6206 27.299 12.5846C27.3103 11.4835 27.3939 10.3845 27.5496 9.29476C26.8251 8.0652 25.4969 7.31844 24.0702 7.33828Z" fill="#FFA801"/>
<path d="M24.07 7.33828H16.4479C15.887 7.33828 15.4326 7.79299 15.4326 8.3536C15.4326 8.91451 15.887 9.36922 16.4479 9.36922H24.07C25.4238 9.36922 25.8232 10.2356 27.1431 12.6251C27.1602 12.6663 27.2078 12.6862 27.2493 12.6688C27.2829 12.655 27.303 12.6206 27.2988 12.5846C27.3101 11.4835 27.3937 10.3845 27.5493 9.29445C26.8248 8.0652 25.4967 7.31844 24.07 7.33828Z" fill="#FFA801"/>
<path d="M12.7993 13.2034C12.7761 13.2034 12.7529 13.2022 12.7294 13.1991C12.5964 13.1833 12.4209 13.0853 12.3376 12.9806C12.2534 12.8744 12.1978 12.6794 12.214 12.5452C12.2015 11.5274 12.1188 10.4367 11.9653 9.36736C11.9485 9.25261 11.9717 9.13604 12.0306 9.03655C12.8472 7.65654 14.3353 6.79717 15.9533 6.83104H24.0667C25.65 6.80694 27.1728 7.65502 27.9867 9.03747C28.0447 9.13665 28.0679 9.25292 28.0514 9.36675C27.9007 10.4263 27.8179 11.5045 27.806 12.5714C27.8155 12.8122 27.6745 13.0392 27.4499 13.1357C27.1456 13.2614 26.7987 13.1195 26.6745 12.8204L26.4907 12.4936C25.3253 10.3769 25.014 9.877 24.0698 9.877H15.9469C14.9917 9.877 14.6463 10.4413 13.4768 12.5989L13.32 12.8879C13.2498 13.0646 13.0343 13.2034 12.7993 13.2034ZM12.4438 12.3782C12.4282 12.4014 12.4151 12.4261 12.4044 12.4521L12.4438 12.3782ZM27.5558 12.3227L27.5875 12.3798C27.5796 12.3596 27.5689 12.3404 27.5558 12.3227ZM12.9962 9.40734C13.0703 9.95452 13.1271 10.506 13.1655 11.0593C14.0008 9.59563 14.6331 8.86168 15.9469 8.86168H24.0701C25.3967 8.86168 25.9918 9.55596 26.8524 11.0562C26.8905 10.5048 26.947 9.9536 27.0208 9.40703C26.3745 8.42406 25.2725 7.83629 24.0774 7.84636C24.0747 7.84636 24.0725 7.84636 24.0701 7.84636H15.9469C14.746 7.83965 13.645 8.4265 12.9962 9.40734Z" fill="#020202"/>
<path d="M22.4655 0.826687C22.5223 1.33232 22.1695 1.79248 21.6666 1.86907C21.161 1.79553 20.8049 1.33445 20.8613 0.826687C20.8613 0.251482 21.2199 0.454405 21.6666 0.454405C22.1134 0.454405 22.4655 0.251482 22.4655 0.826687Z" fill="#FFA801"/>
<path d="M21.6672 2.28886C21.6474 2.28886 21.6269 2.28733 21.6068 2.28458C20.8732 2.17808 20.3626 1.51737 20.4441 0.780371C20.4416 0.717505 20.4416 0.385779 20.6803 0.170935C20.9116 -0.0368899 21.197 -0.00759307 21.4286 0.0177365C21.5766 0.0329953 21.7569 0.0329953 21.905 0.0177365C22.1332 -0.00759307 22.4173 -0.0365848 22.6468 0.170019C22.8708 0.37113 22.8846 0.677527 22.8855 0.80448C22.9535 1.52714 22.4503 2.17411 21.7304 2.28397C21.7093 2.28733 21.6883 2.28886 21.6672 2.28886ZM21.279 0.846289C21.2568 1.14292 21.4213 1.37577 21.6657 1.44108C21.9129 1.37302 22.0783 1.13499 22.0487 0.873755C22.0478 0.864599 22.0472 0.855749 22.0466 0.846899C22.0282 0.84873 22.0102 0.850561 21.9938 0.852392C21.792 0.873755 21.5436 0.874365 21.3407 0.852392C21.3215 0.850561 21.3004 0.84812 21.279 0.846289ZM22.8855 0.826758H22.8922H22.8855Z" fill="#020202"/>
<path d="M20.0489 3.9137V3.96771H23.2642C23.2673 3.94971 23.2673 3.9314 23.2642 3.9137C23.3317 3.05463 22.8364 2.25018 22.039 1.92334H21.3621C20.5314 2.22211 19.9967 3.03235 20.0489 3.9137Z" fill="#6F1700"/>
<path d="M20.3196 6.01843H23.0275C23.1642 5.34888 23.2524 4.67017 23.2914 3.98779H20.0557C20.0981 4.66986 20.1863 5.34827 20.3196 6.01843Z" fill="#9E0C02"/>
<path d="M20.3198 6.0188C20.5093 7.07471 20.726 8.04944 20.726 8.04944H22.601C22.601 8.04944 22.8177 7.05457 23.0072 6.0188H20.3198Z" fill="#84BC9F"/>
<path d="M21.6638 8.77551C21.2561 8.77551 20.8484 8.65649 20.4929 8.41846C20.4041 8.35925 20.3415 8.26861 20.3174 8.16485C19.996 6.78332 19.7653 5.36578 19.6314 3.95282C19.6295 2.56213 20.5435 1.46289 21.6672 1.46289C22.7869 1.46289 23.6978 2.56213 23.6978 3.91315C23.5617 5.36578 23.331 6.78332 23.0096 8.16455C22.9858 8.26831 22.923 8.35925 22.8345 8.41815C22.4789 8.65619 22.0715 8.77551 21.6638 8.77551ZM22.601 8.06964H22.6077H22.601ZM21.0947 7.79986C21.4529 7.98114 21.8741 7.98114 22.2324 7.79986C22.5238 6.51019 22.7353 5.19 22.8604 3.87378C22.8583 3.02478 22.3242 2.30243 21.6672 2.30243C21.0175 2.30243 20.4691 3.04004 20.4691 3.91345C20.5917 5.19183 20.8029 6.51019 21.0947 7.79986Z" fill="#020202"/>
<path d="M20.0493 3.63257H23.2784V4.1944H20.0493V3.63257Z" fill="#020202"/>
<path d="M20.2998 5.83252H23.0885V6.39435H20.2998V5.83252Z" fill="#020202"/>
<path d="M16.8677 4.59717H18.6548V7.25067C18.6548 7.73682 18.2605 8.1308 17.7747 8.1308C17.2888 8.1308 16.8945 7.73682 16.8945 7.25067V4.59717H16.8677Z" fill="#FFA801"/>
<path d="M17.7748 8.60449C17.028 8.60449 16.4204 7.99719 16.4204 7.25073V4.75561C16.403 4.70618 16.3936 4.65277 16.3936 4.59723C16.3936 4.33539 16.6057 4.12329 16.8675 4.12329H18.6546C18.9164 4.12329 19.1285 4.33569 19.1285 4.59723V7.25073C19.1285 7.99719 18.5209 8.60449 17.7748 8.60449ZM17.3683 5.07117V7.25073C17.3683 7.47442 17.5505 7.65661 17.7748 7.65661C17.9985 7.65661 18.1807 7.47442 18.1807 7.25073V5.07117H17.3683Z" fill="#020202"/>
<path d="M18.9322 1.80811H16.5632L16.1704 3.33124C16.1704 4.20435 16.8781 4.91174 17.7512 4.91174C18.624 4.91174 19.3317 4.20435 19.3317 3.33124L18.9322 1.80811Z" fill="#FFA801"/>
<path d="M16.5631 1.80811C16.5631 1.80811 17.6867 2.79648 16.1704 3.3311L16.5631 1.80811Z" fill="#FFA801"/>
<path d="M18.9324 1.80811C18.9324 1.80811 17.8088 2.79648 19.3318 3.3311L18.9324 1.80811Z" fill="#FFA801"/>
<path d="M18.594 6.02185H17.0169C16.929 6.02185 16.8579 5.95074 16.8579 5.86285C16.8579 5.77496 16.929 5.70386 17.0169 5.70386H18.5944C18.6822 5.70386 18.7533 5.77496 18.7533 5.86285C18.7533 5.95074 18.6822 6.02185 18.594 6.02185Z" fill="#020202"/>
<path d="M18.594 6.65155H17.0169C16.929 6.65155 16.8579 6.58044 16.8579 6.49255C16.8579 6.40436 16.929 6.33325 17.0169 6.33325H18.5944C18.6822 6.33325 18.7533 6.40436 18.7533 6.49255C18.7533 6.58044 18.6822 6.65155 18.594 6.65155Z" fill="#020202"/>
<path d="M18.594 7.28113H17.0169C16.929 7.28113 16.8579 7.21002 16.8579 7.12213C16.8579 7.03394 16.929 6.96313 17.0169 6.96313H18.5944C18.6822 6.96313 18.7533 7.03394 18.7533 7.12213C18.7533 7.21002 18.6822 7.28113 18.594 7.28113Z" fill="#020202"/>
<path d="M18.1608 3.80519C18.4098 3.6346 18.7046 3.54243 19.0068 3.54121H19.0611C18.7825 3.17989 18.4489 2.86464 18.0726 2.60707C17.8685 2.46822 17.6002 2.46822 17.3957 2.60707C17.0161 2.85884 16.6877 3.1805 16.4277 3.55464H16.5226C16.8162 3.55708 17.1028 3.64406 17.3484 3.80519C17.473 3.89033 17.6069 3.96083 17.7479 4.01485C17.8953 3.96663 18.0345 3.89583 18.1608 3.80519Z" fill="#FFA801"/>
<path d="M17.751 5.30792C16.6613 5.30792 15.7744 4.42108 15.7744 3.3313C15.7744 3.29803 15.7787 3.26508 15.7869 3.23242L16.1797 1.70959C16.2245 1.53473 16.3826 1.41235 16.563 1.41235H18.9321C19.1124 1.41235 19.2696 1.53351 19.3154 1.70776L19.7145 3.2309C19.7231 3.26355 19.7274 3.29742 19.7274 3.3313C19.7274 4.42108 18.8405 5.30792 17.751 5.30792ZM16.5673 3.37799C16.5917 4.0097 17.1132 4.51599 17.751 4.51599C18.3882 4.51599 18.9095 4.01001 18.9345 3.37891L18.6269 2.20428H16.8697L16.5673 3.37799Z" fill="#020202"/>
<path d="M20.0033 17.4775C19.7497 17.4775 19.4928 17.436 19.2486 17.3521L18.4835 17.1418C18.3032 17.0921 18.1976 16.9059 18.247 16.7256C18.2971 16.5452 18.4857 16.4403 18.6633 16.4894L19.4485 16.7058C19.8098 16.8287 20.1864 16.8297 20.5282 16.7122L21.3559 16.4888C21.539 16.4409 21.7221 16.5474 21.7703 16.7277C21.8191 16.9081 21.712 17.0939 21.5316 17.1425L20.726 17.3588C20.4977 17.4376 20.2517 17.4775 20.0033 17.4775Z" fill="#C67446"/>
<path d="M17.9438 14.1076H13.2393V13.4308H14.6238C14.7813 12.5979 15.5314 12.077 16.6237 12.077C17.4241 11.9632 18.2414 12.4319 18.5679 13.2199C18.6854 13.601 18.4874 13.9721 18.1376 14.0789C18.0772 14.0979 18.011 14.1076 17.9438 14.1076ZM15.3215 13.4308H17.9438C17.7339 12.9754 17.2139 12.6767 16.6704 12.7505C16.28 12.7536 15.525 12.8268 15.3215 13.4308Z" fill="#020202"/>
<path d="M26.7776 14.1075H22.073C22.0062 14.1075 21.9409 14.0978 21.878 14.0782C21.7092 14.0273 21.5704 13.9125 21.4865 13.7563C21.4041 13.6 21.3861 13.4206 21.4376 13.2509C21.7755 12.4315 22.6004 11.9624 23.4393 12.0802H23.4478C24.4952 12.0802 25.2368 12.6003 25.3927 13.4306H26.7776V14.1075ZM23.2086 12.7416C22.6983 12.7416 22.2607 13.0284 22.0742 13.4789L24.6972 13.437C24.4976 12.8273 23.7442 12.7538 23.3929 12.7538C23.3309 12.7455 23.2693 12.7416 23.2086 12.7416Z" fill="#020202"/>
<path d="M11.2092 15.8002C11.4356 16.2152 11.5522 16.6812 11.5476 17.1539C11.5476 17.4924 11.5476 18.5077 12.3936 18.5077C13.2398 18.5077 13.2398 17.4924 13.2398 17.4924V14.7845C13.2398 10.6149 8.60972 11.4813 11.2092 15.8002Z" fill="#FFA801"/>
<path d="M12.285 12.3342C11.5474 12.6794 11.168 13.9453 12.3933 15.9759C12.6225 16.39 12.7394 16.8566 12.7318 17.33C12.7122 17.6678 12.7775 18.005 12.9213 18.3114C13.1233 18.0862 13.2365 17.7947 13.2396 17.4923V14.7845C13.3296 13.8625 12.975 12.9525 12.285 12.3342Z" fill="#FFA801"/>
<path d="M12.3931 19.022C11.885 19.022 11.0327 18.7794 11.0327 17.1541C11.0363 16.7686 10.9429 16.3908 10.7617 16.0554C9.79671 14.4465 9.63618 12.9786 10.3338 12.1269C10.7641 11.6005 11.4419 11.4201 12.102 11.6563C12.9003 11.9417 13.7536 12.9133 13.7536 14.7847V17.4925C13.7536 18.1074 13.3914 19.022 12.3931 19.022ZM11.5335 12.585C11.3751 12.585 11.2344 12.6509 11.13 12.7785C10.827 13.1486 10.7812 14.0922 11.6494 15.5348C11.6531 15.5412 11.6568 15.5473 11.6601 15.554C11.9281 16.0451 12.0669 16.6005 12.0614 17.1589C12.0614 17.9936 12.2854 17.9936 12.3931 17.9936C12.7154 17.9936 12.7249 17.5438 12.7249 17.4925V14.7847C12.7249 13.4465 12.2027 12.7852 11.7559 12.6256C11.6796 12.5981 11.6046 12.585 11.5335 12.585Z" fill="#020202"/>
<path d="M20.1875 24.09C20.1194 24.09 20.0517 24.0879 19.9836 24.0845C18.704 24.1501 17.411 23.5743 16.5693 22.5449C14.0342 20.0138 12.7314 17.7292 12.7314 15.7935V11.9285H13.7468V15.7935C13.7468 17.4268 14.9827 19.5264 17.3213 21.865C17.9936 22.6832 18.979 23.1214 19.9833 23.0707C21.0414 23.1208 22.0231 22.6832 22.6609 21.9025C25.0337 19.5264 26.2696 17.4268 26.2696 15.7935V11.962H27.285V15.7935C27.285 17.7292 25.9822 20.0138 23.4135 22.5828C22.6478 23.5233 21.4427 24.09 20.1875 24.09Z" fill="#020202"/>
<path d="M28.8085 15.8002C28.582 16.2152 28.4655 16.6812 28.47 17.1539C28.47 17.4924 28.47 18.5077 27.6241 18.5077C26.7778 18.5077 26.7778 17.4924 26.7778 17.4924V14.7845C26.7778 10.6149 31.408 11.4813 28.8085 15.8002Z" fill="#FFA801"/>
<path d="M27.7321 12.3342C28.4697 12.6794 28.849 13.9453 27.6237 15.9759C27.3945 16.39 27.2776 16.8566 27.2853 17.33C27.3048 17.6678 27.2395 18.005 27.0958 18.3114C26.8937 18.0862 26.7805 17.7947 26.7775 17.4923V14.7845C26.6874 13.8625 27.0417 12.9525 27.7321 12.3342Z" fill="#FFA801"/>
<path d="M27.6241 19.0218C26.6259 19.0218 26.2637 18.1072 26.2637 17.4923V14.7845C26.2637 12.9131 27.1169 11.9414 27.9156 11.6561C28.5739 11.4205 29.2529 11.6 29.6838 12.1267C30.3805 12.9787 30.2206 14.4463 29.2556 16.0555C29.0743 16.39 28.9813 16.7681 28.9846 17.149C28.9846 18.7792 28.1323 19.0218 27.6241 19.0218ZM28.4841 12.5848C28.4127 12.5848 28.338 12.5979 28.2614 12.6253C27.8143 12.785 27.2921 13.4463 27.2921 14.7845V17.4923C27.2942 17.6067 27.3245 17.9934 27.6241 17.9934C27.7319 17.9934 27.9559 17.9934 27.9559 17.1538C27.9507 16.599 28.0889 16.0442 28.3572 15.5535C28.3605 15.5471 28.3645 15.541 28.3676 15.5346C29.2358 14.0923 29.19 13.1484 28.8873 12.7782C28.7829 12.6507 28.6422 12.5848 28.4841 12.5848Z" fill="#020202"/>
</g>
<path d="M53.8725 26.9075C52.6308 26.9075 51.573 26.6459 50.6991 26.1228C49.8253 25.5939 49.1555 24.858 48.6899 23.9152C48.23 22.9666 48 21.8657 48 20.6124V20.2933C48 19.0746 48.23 17.9909 48.6899 17.0423C49.1498 16.0937 49.808 15.3492 50.6646 14.8088C51.5212 14.2627 52.5445 13.9896 53.7346 13.9896C54.5682 13.9896 55.3414 14.1132 56.0543 14.3604C56.7671 14.6076 57.388 14.9554 57.9169 15.4039V18.3013H56.2612L56.037 16.3611C55.7553 16.1541 55.4247 15.9931 55.0453 15.8781C54.6659 15.7632 54.2376 15.7057 53.7604 15.7057C53.0073 15.7057 52.3634 15.8954 51.8288 16.2748C51.2941 16.6542 50.8831 17.186 50.5956 17.8701C50.3139 18.5543 50.1731 19.3562 50.1731 20.2761V20.6124C50.1731 22.0439 50.5037 23.1678 51.1648 23.9841C51.8259 24.8005 52.7457 25.2087 53.9243 25.2087C54.3037 25.2087 54.6774 25.1656 55.0453 25.0793C55.419 24.9873 55.7467 24.8695 56.0284 24.7258L56.2612 22.9666H57.8997V25.8468C57.4225 26.163 56.8332 26.4188 56.1319 26.6143C55.4305 26.8098 54.6774 26.9075 53.8725 26.9075Z" fill="white"/>
<path d="M63.6601 26.9075C62.7633 26.9075 61.9929 26.7063 61.349 26.3038C60.7051 25.8957 60.2107 25.3352 59.8658 24.6223C59.5209 23.9094 59.3484 23.0873 59.3484 22.156V21.9749C59.3484 21.0493 59.5209 20.2301 59.8658 19.5172C60.2107 18.8044 60.7051 18.2438 61.349 17.8357C61.9929 17.4275 62.7575 17.2234 63.6429 17.2234C64.5397 17.2234 65.31 17.4275 65.9539 17.8357C66.5978 18.2381 67.0922 18.7986 67.4371 19.5172C67.7821 20.2301 67.9546 21.0493 67.9546 21.9749V22.156C67.9546 23.0931 67.7821 23.918 67.4371 24.6309C67.0922 25.3438 66.5978 25.9014 65.9539 26.3038C65.3158 26.7063 64.5512 26.9075 63.6601 26.9075ZM63.6601 25.2345C64.3787 25.2345 64.9134 24.95 65.2641 24.3808C65.6147 23.8059 65.7901 23.0643 65.7901 22.156V21.9749C65.7901 21.0838 65.6119 20.3508 65.2554 19.7759C64.9047 19.1953 64.3672 18.905 63.6429 18.905C62.9242 18.905 62.3896 19.1953 62.0389 19.7759C61.694 20.3508 61.5215 21.0838 61.5215 21.9749V22.156C61.5215 23.0643 61.694 23.8059 62.0389 24.3808C62.3896 24.95 62.93 25.2345 63.6601 25.2345Z" fill="white"/>
<path d="M69.1015 26.7264V25.3984L70.4036 25.1397V18.9912L69.0325 18.7325V17.3959H72.3956L72.4991 18.6204C72.798 18.1777 73.1775 17.8357 73.6374 17.5942C74.0973 17.347 74.6291 17.2234 75.2327 17.2234C75.8421 17.2234 76.3624 17.3614 76.7935 17.6373C77.2305 17.9075 77.561 18.3186 77.7852 18.8705C78.0727 18.3588 78.4492 17.9564 78.9149 17.6632C79.3863 17.37 79.9382 17.2234 80.5706 17.2234C81.5019 17.2234 82.2378 17.5425 82.7782 18.1806C83.3186 18.8187 83.5888 19.7845 83.5888 21.0781V25.1397L84.8909 25.3984V26.7264H80.1912V25.3984L81.4157 25.1397V21.0608C81.4157 20.279 81.2835 19.7299 81.019 19.4137C80.7546 19.0975 80.3665 18.9395 79.8548 18.9395C79.3777 18.9395 78.9839 19.0918 78.6734 19.3965C78.3687 19.6954 78.1704 20.0835 78.0784 20.5607V25.1397L79.2598 25.3984V26.7264H74.7325V25.3984L75.914 25.1397V21.0608C75.914 20.3077 75.7789 19.7673 75.5087 19.4396C75.2385 19.1062 74.8475 18.9395 74.3359 18.9395C73.9104 18.9395 73.5511 19.0257 73.2579 19.1982C72.9705 19.3706 72.7405 19.615 72.5681 19.9311V25.1397L73.7926 25.3984V26.7264H69.1015Z" fill="white"/>
<path d="M85.8481 26.7264V25.3984L87.1502 25.1397V18.9912L85.7791 18.7325V17.3959H89.1423L89.2457 18.6204C89.5447 18.1777 89.9241 17.8357 90.384 17.5942C90.8439 17.347 91.3757 17.2234 91.9794 17.2234C92.5887 17.2234 93.109 17.3614 93.5402 17.6373C93.9771 17.9075 94.3077 18.3186 94.5319 18.8705C94.8193 18.3588 95.1959 17.9564 95.6615 17.6632C96.133 17.37 96.6849 17.2234 97.3172 17.2234C98.2486 17.2234 98.9844 17.5425 99.5248 18.1806C100.065 18.8187 100.335 19.7845 100.335 21.0781V25.1397L101.638 25.3984V26.7264H96.9378V25.3984L98.1623 25.1397V21.0608C98.1623 20.279 98.0301 19.7299 97.7657 19.4137C97.5012 19.0975 97.1131 18.9395 96.6015 18.9395C96.1243 18.9395 95.7305 19.0918 95.4201 19.3965C95.1154 19.6954 94.9171 20.0835 94.8251 20.5607V25.1397L96.0065 25.3984V26.7264H91.4792V25.3984L92.6606 25.1397V21.0608C92.6606 20.3077 92.5255 19.7673 92.2553 19.4396C91.9851 19.1062 91.5942 18.9395 91.0825 18.9395C90.6571 18.9395 90.2978 19.0257 90.0046 19.1982C89.7171 19.3706 89.4872 19.615 89.3147 19.9311V25.1397L90.5392 25.3984V26.7264H85.8481Z" fill="white"/>
<path d="M106.898 26.9075C106.001 26.9075 105.231 26.7063 104.587 26.3038C103.943 25.8957 103.448 25.3352 103.104 24.6223C102.759 23.9094 102.586 23.0873 102.586 22.156V21.9749C102.586 21.0493 102.759 20.2301 103.104 19.5172C103.448 18.8044 103.943 18.2438 104.587 17.8357C105.231 17.4275 105.995 17.2234 106.881 17.2234C107.777 17.2234 108.548 17.4275 109.192 17.8357C109.836 18.2381 110.33 18.7986 110.675 19.5172C111.02 20.2301 111.192 21.0493 111.192 21.9749V22.156C111.192 23.0931 111.02 23.918 110.675 24.6309C110.33 25.3438 109.836 25.9014 109.192 26.3038C108.554 26.7063 107.789 26.9075 106.898 26.9075ZM106.898 25.2345C107.616 25.2345 108.151 24.95 108.502 24.3808C108.852 23.8059 109.028 23.0643 109.028 22.156V21.9749C109.028 21.0838 108.85 20.3508 108.493 19.7759C108.142 19.1953 107.605 18.905 106.881 18.905C106.162 18.905 105.627 19.1953 105.277 19.7759C104.932 20.3508 104.759 21.0838 104.759 21.9749V22.156C104.759 23.0643 104.932 23.8059 105.277 24.3808C105.627 24.95 106.168 25.2345 106.898 25.2345Z" fill="white"/>
<path d="M112.339 26.7264V25.3984L113.633 25.1397V18.9912L112.27 18.7325V17.3959H115.633L115.745 18.7497C116.056 18.2668 116.441 17.8931 116.901 17.6287C117.367 17.3585 117.893 17.2234 118.479 17.2234C119.439 17.2234 120.186 17.5195 120.721 18.1116C121.256 18.7037 121.523 19.6236 121.523 20.8711V25.1397L122.817 25.3984V26.7264H118.134V25.3984L119.35 25.1397V20.8883C119.35 20.1812 119.209 19.6811 118.927 19.3879C118.646 19.0889 118.226 18.9395 117.668 18.9395C117.255 18.9395 116.889 19.0343 116.573 19.224C116.257 19.408 116.001 19.6667 115.806 20.0001V25.1397L116.987 25.3984V26.7264H112.339Z" fill="white"/>
<path d="M131.424 26.5453L128.501 15.4556L127.31 15.3262V13.9896H131.95V15.3262L130.613 15.5246L132.157 21.9749L132.476 23.2943L132.528 23.3029L132.924 21.9749L135.425 13.9896H137.124L139.694 22.1042L140.073 23.3891H140.125L140.47 22.1042L142.031 15.5246L140.616 15.3262V13.9896H145.17V15.3262L144.057 15.4556L141.168 26.5453H139.168L136.641 18.6376L136.322 17.4993H136.27L135.934 18.6549L133.39 26.5453H131.424Z" fill="white"/>
<path d="M150.154 26.7264C149.269 26.7264 148.501 26.5309 147.851 26.14C147.202 25.7433 146.696 25.1972 146.334 24.5016C145.977 23.8059 145.799 23.0097 145.799 22.1129V21.7507C145.799 20.8423 145.974 20.0346 146.325 19.3275C146.682 18.6146 147.167 18.057 147.782 17.6546C148.403 17.2464 149.113 17.0423 149.912 17.0423C151.171 17.0423 152.129 17.416 152.784 18.1633C153.445 18.9107 153.776 19.9369 153.776 21.2419V22.4837H148.05L148.033 22.5268C148.067 23.2627 148.28 23.8692 148.671 24.3463C149.062 24.8177 149.619 25.0535 150.344 25.0535C150.849 25.0535 151.309 24.9845 151.723 24.8465C152.137 24.7085 152.522 24.5131 152.879 24.2601L153.551 25.6226C153.184 25.9388 152.715 26.2032 152.146 26.4159C151.582 26.6229 150.918 26.7264 150.154 26.7264ZM148.084 20.9573H151.697V20.7331C151.697 20.1237 151.554 19.6293 151.266 19.2499C150.985 18.8705 150.542 18.6807 149.938 18.6807C149.409 18.6807 148.981 18.8935 148.653 19.3189C148.331 19.7443 148.133 20.2761 148.058 20.9142L148.084 20.9573Z" fill="white"/>
<path d="M158.139 26.7264C157.191 26.7264 156.452 26.4821 155.923 25.9934C155.394 25.5047 155.13 24.8321 155.13 23.9755C155.13 23.0959 155.486 22.3831 156.199 21.8369C156.917 21.2908 157.947 21.0177 159.286 21.0177H160.709V20.233C160.709 19.7386 160.559 19.3448 160.261 19.0516C159.967 18.7584 159.539 18.6118 158.976 18.6118C158.654 18.6118 158.369 18.652 158.122 18.7325C157.875 18.8072 157.653 18.9165 157.458 19.0602L157.268 20.3192H155.664L155.647 18.0167C156.101 17.7121 156.61 17.4735 157.173 17.301C157.742 17.1285 158.372 17.0423 159.062 17.0423C160.246 17.0423 161.177 17.3211 161.856 17.8788C162.54 18.4364 162.882 19.2298 162.882 20.2588V24.3722C162.882 24.4987 162.882 24.6223 162.882 24.743C162.888 24.858 162.896 24.9758 162.908 25.0966L163.856 25.2173V26.5453H161.019C160.962 26.3441 160.907 26.1486 160.856 25.9589C160.81 25.7692 160.775 25.5795 160.752 25.3898C160.442 25.7807 160.065 26.1026 159.622 26.3556C159.18 26.6028 158.685 26.7264 158.139 26.7264ZM158.631 25.0448C159.073 25.0448 159.482 24.9442 159.855 24.743C160.235 24.536 160.519 24.2773 160.709 23.9669V22.4061H159.26C158.611 22.4061 158.119 22.5584 157.786 22.8631C157.458 23.162 157.294 23.5127 157.294 23.9152C157.294 24.6683 157.74 25.0448 158.631 25.0448Z" fill="white"/>
<path d="M164.822 26.5453V25.2173L166.124 24.9586V14.6881L164.745 14.4294V13.0928H168.298V24.9586L169.591 25.2173V26.5453H164.822Z" fill="white"/>
<path d="M174.092 26.7091C173.299 26.7091 172.681 26.4878 172.238 26.0451C171.796 25.5967 171.574 24.8839 171.574 23.9065V18.767H170.212V17.2148H171.574V14.9468H173.739V17.2148H175.584V18.767H173.739V23.9065C173.739 24.3032 173.819 24.5907 173.98 24.7689C174.147 24.9471 174.371 25.0362 174.653 25.0362C174.814 25.0362 174.992 25.0247 175.188 25.0017C175.389 24.973 175.553 24.9442 175.679 24.9155L175.895 26.4418C175.648 26.5166 175.36 26.5798 175.032 26.6315C174.705 26.6833 174.391 26.7091 174.092 26.7091Z" fill="white"/>
<path d="M176.74 26.5453V25.2173L178.033 24.9586V14.6881L176.662 14.4294V13.0928H180.198V18.422C180.508 17.9851 180.885 17.6459 181.327 17.4045C181.776 17.163 182.282 17.0423 182.845 17.0423C183.805 17.0423 184.561 17.3499 185.113 17.965C185.665 18.5744 185.941 19.5172 185.941 20.7935V24.9586L187.226 25.2173V26.5453H182.543V25.2173L183.768 24.9586V20.7762C183.768 20.0634 183.624 19.5488 183.337 19.2326C183.049 18.9165 182.627 18.7584 182.069 18.7584C181.672 18.7584 181.313 18.8475 180.991 19.0257C180.669 19.1982 180.405 19.4425 180.198 19.7587V24.9586L181.422 25.2173V26.5453H176.74Z" fill="white"/>
<path d="M187.743 17.7104V17.1633L188.234 17.0601V13.815L187.743 13.7087V13.1584H189.741C190.147 13.1584 190.506 13.2543 190.816 13.4461C191.127 13.6357 191.369 13.8994 191.542 14.237C191.717 14.5726 191.804 14.9582 191.804 15.3938V15.4782C191.804 15.9096 191.718 16.2941 191.545 16.6318C191.374 16.9674 191.134 17.231 190.826 17.4228C190.517 17.6145 190.16 17.7104 189.753 17.7104H187.743ZM189.147 17.0132H189.707C189.959 17.0132 190.172 16.9476 190.347 16.8162C190.525 16.6829 190.659 16.5005 190.751 16.2691C190.842 16.0378 190.888 15.7741 190.888 15.4782V15.3906C190.888 15.0905 190.842 14.8258 190.751 14.5965C190.659 14.3652 190.525 14.1849 190.347 14.0557C190.172 13.9244 189.959 13.8587 189.707 13.8587H189.147V17.0132Z" fill="#FFA801"/>
<path d="M191.967 17.7104V17.1633L192.292 17.1164L193.739 13.1584H194.674L196.112 17.1164L196.438 17.1633V17.7104H194.887V17.1633L195.203 17.107L195.003 16.4817H193.402L193.202 17.107L193.518 17.1633V17.7104H191.967ZM193.618 15.8096H194.787L194.255 14.2495L194.212 14.112H194.193L194.146 14.2589L193.618 15.8096Z" fill="#FFA801"/>
<path d="M198.638 17.776C198.228 17.776 197.868 17.677 197.56 17.479C197.251 17.2789 197.011 17.0049 196.838 16.6568C196.667 16.3087 196.581 15.9127 196.581 15.4688V15.4C196.581 14.9582 196.667 14.5632 196.838 14.2151C197.011 13.8671 197.25 13.593 197.557 13.3929C197.865 13.1928 198.225 13.0928 198.635 13.0928C199.046 13.0928 199.407 13.1928 199.717 13.3929C200.03 13.593 200.273 13.8671 200.445 14.2151C200.621 14.5632 200.708 14.9582 200.708 15.4V15.4688C200.708 15.9127 200.622 16.3087 200.449 16.6568C200.276 17.0049 200.033 17.2789 199.72 17.479C199.41 17.677 199.049 17.776 198.638 17.776ZM198.638 17.0664C199.024 17.0664 199.314 16.9205 199.508 16.6287C199.701 16.3348 199.798 15.9482 199.798 15.4688V15.3938C199.798 15.079 199.755 14.8029 199.667 14.5653C199.58 14.3256 199.449 14.1391 199.276 14.0057C199.105 13.8723 198.892 13.8056 198.635 13.8056C198.252 13.8056 197.965 13.9515 197.776 14.2433C197.588 14.5351 197.494 14.9186 197.494 15.3938V15.4688C197.494 15.9482 197.589 16.3348 197.779 16.6287C197.97 16.9205 198.257 17.0664 198.638 17.0664Z" fill="#FFA801"/>
<defs>
<clipPath id="clip0_56_1311">
<rect width="40" height="40" fill="white"/>
</clipPath>
</defs>
</svg>
