<svg width="200" height="67" viewBox="0 0 200 67" fill="none" xmlns="http://www.w3.org/2000/svg">
<g clip-path="url(#clip0_124_2013)">
<path d="M53.1321 41.3879C48.4 40.2819 39.8655 38.7234 39.8655 38.7234V32.9192H25.4929V38.7234C25.4929 38.7234 16.9693 40.3373 12.2263 41.3879C8.21296 42.3938 7.33972 45.467 6.69824 48.021C14.857 51.7218 23.721 53.6078 32.6792 53.549C41.6374 53.6078 50.5014 51.7218 58.6601 48.021C58.0186 45.4561 57.1339 42.3494 53.1321 41.3879Z" fill="#FFA801"/>
<path d="M53.1323 41.3879C48.4002 40.2819 39.8657 38.7234 39.8657 38.7234V32.9192H25.4931V38.7234L18.5391 40.0721V51.979C21.3786 52.6055 24.2555 53.0486 27.1514 53.3058V40.3597C27.1439 40.0237 27.4095 39.7456 27.7455 39.7377C27.9179 39.7337 28.0834 39.8029 28.202 39.9285L30.7779 42.5044L31.5629 53.56H32.6684C34.1941 53.56 35.6754 53.4937 37.0905 53.394L37.3337 49.9778C37.3462 49.7705 37.5241 49.6125 37.7314 49.6249C37.8236 49.6304 37.9099 49.6698 37.9752 49.7346L41.2144 52.9738C47.2529 52.2526 53.1403 50.5849 58.6603 48.032C58.0188 45.4561 57.1341 42.3494 53.1323 41.3879Z" fill="#FFA801"/>
<path d="M31.0205 51.4374H34.3371C34.9476 51.4374 35.4426 51.9323 35.4426 52.5429V55.3071C35.4426 56.2228 34.7004 56.9654 33.7843 56.9654H31.5733C30.6572 56.9654 29.915 56.2228 29.915 55.3071V52.5429C29.915 51.9323 30.41 51.4374 31.0205 51.4374Z" fill="#724F17"/>
<path d="M33.7846 57.7949H31.5736C30.2019 57.7949 29.0859 56.6785 29.0859 55.3078V52.5435C29.0859 51.4769 29.9542 50.6091 31.0208 50.6091H34.3374C35.404 50.6091 36.2722 51.4769 36.2722 52.5435V55.3078C36.2722 56.6785 35.1558 57.7949 33.7846 57.7949ZM31.0208 52.2674C30.8683 52.2674 30.7442 52.3915 30.7442 52.5435V55.3073C30.7442 55.7643 31.1165 56.1367 31.5736 56.1367H33.7846C34.2412 56.1367 34.614 55.7638 34.614 55.3073V52.5435C34.614 52.3915 34.4894 52.2674 34.3374 52.2674H31.0208Z" fill="#020202"/>
<path d="M28.8096 38.1704L29.9151 53.648H35.4426L36.5481 38.1704H28.8096Z" fill="#724F17"/>
<path d="M35.4429 54.4779H29.9154C29.4803 54.4779 29.1189 54.142 29.088 53.7084L27.9825 38.2302C27.9665 38.0005 28.0458 37.7747 28.2028 37.6062C28.3593 37.4377 28.5796 37.3416 28.8099 37.3416H36.5484C36.7787 37.3416 36.999 37.4377 37.1555 37.6062C37.312 37.7747 37.3918 38.0005 37.3758 38.2302L36.2703 53.7084C36.2389 54.142 35.878 54.4779 35.4429 54.4779ZM30.6874 52.8197H34.6709L35.6577 38.9998H29.7006L30.6874 52.8197Z" fill="#020202"/>
<path d="M29.3623 40.6582H35.9953V42.317H29.3623V40.6582Z" fill="#020202"/>
<path d="M31.2432 44.9141L35.9224 41.4106L36.5853 42.2958L31.9061 45.7998L31.2432 44.9141Z" fill="#020202"/>
<path d="M27.9814 38.2331L29.6357 38.115L30.7402 53.5936L29.0865 53.7117L27.9814 38.2331Z" fill="#020202"/>
<path d="M34.6104 53.5897L35.7213 38.1125L37.3756 38.2317L36.2646 53.7083L34.6104 53.5897Z" fill="#020202"/>
<path d="M30.502 41.9277L31.1649 41.0425L34.1166 43.2535L33.4536 44.1387L30.502 41.9277Z" fill="#020202"/>
<path d="M31.2432 48.2305L35.6682 44.917L36.3311 45.8022L31.9061 49.1157L31.2432 48.2305Z" fill="#020202"/>
<path d="M29.0303 44.1413L29.6937 43.2566L34.1162 46.5731L33.4523 47.4578L29.0303 44.1413Z" fill="#020202"/>
<path d="M30.2469 53.6811L29.583 52.7979L35.287 48.5084L35.9524 49.3916L30.2469 53.6811Z" fill="#020202"/>
<path d="M29.251 47.6208L29.9149 46.7356L34.1156 49.8871L33.4517 50.7718L29.251 47.6208Z" fill="#020202"/>
<path d="M33.0784 54.3789C32.8083 54.3789 32.5386 54.3789 32.2695 54.3789C23.398 54.3789 14.4433 52.445 6.35583 48.7751C5.99048 48.6101 5.79659 48.2074 5.89428 47.8186C6.50236 45.3973 7.42196 41.7368 12.0244 40.583C16.748 39.5378 25.2531 37.9249 25.3389 37.9084C25.786 37.8232 26.2231 38.1193 26.3078 38.5693C26.393 39.0194 26.097 39.4535 25.6474 39.5388C25.5622 39.5552 17.0814 41.1626 12.4052 42.1969C9.33342 42.9679 8.36099 45.0449 7.67815 47.55C15.5044 50.9896 24.1676 52.8183 32.6737 52.7191C41.2481 52.7884 49.8564 50.9896 57.6817 47.55C57.0038 45.0429 56.0329 42.9635 52.9322 42.1914C48.2844 41.1063 39.8017 39.5552 39.7164 39.5398C39.2659 39.4565 38.9668 39.0249 39.0491 38.5748C39.1323 38.1232 39.5619 37.8332 40.014 37.9074C40.0997 37.9239 48.6233 39.4825 53.321 40.5795C57.9484 41.7304 58.8605 45.3948 59.4641 47.8196C59.5613 48.2084 59.3669 48.6101 59.002 48.7751C50.9166 52.444 41.9609 54.3789 33.0784 54.3789Z" fill="#020202"/>
<path d="M39.8655 35.9595V65.257C48.3453 65.257 50.9211 59.4413 50.9211 55.3069V51.4371C51.0288 45.8737 54.8991 41.0923 60.3184 39.8288L50.8768 9.10534C50.7307 8.62187 50.2757 8.29889 49.7713 8.32032H47.8035C39.3512 0.210936 26.0073 0.210936 17.555 8.32032H15.5434C15.0385 8.29889 14.5834 8.62187 14.4374 9.10534L5.04004 39.8288C10.4594 41.0923 14.3297 45.8732 14.4374 51.4371V55.3069C14.4374 59.4084 16.9579 65.257 25.4929 65.257V35.9595H39.8655Z" fill="#FFA801"/>
<path d="M50.8979 9.18286V9.10561C50.7518 8.62213 50.2972 8.29915 49.7923 8.32059C49.1733 8.32059 44.8176 9.42609 44.8176 18.8234V20.7578C46.741 18.5468 50.2235 20.7578 47.0286 26.0092C46.6587 26.6871 46.4683 27.4482 46.4758 28.2207C46.4758 28.7735 46.4758 30.4317 45.0937 30.4317C43.7121 30.4317 43.734 28.7735 43.734 28.7735V26.562C43.734 29.6358 41.4233 33.052 38.7148 35.9593H39.8204V38.7789C44.6182 39.685 50.5001 40.8129 53.0869 41.3876C53.872 41.5745 54.6191 41.892 55.298 42.3277C56.7563 41.119 58.4739 40.2637 60.3176 39.8291L50.8979 9.18286Z" fill="#FFA801"/>
<path d="M23.1375 40.9345H22.6396L23.8338 39.829C23.8343 39.4811 23.5522 39.1985 23.2043 39.198C23.1634 39.198 23.122 39.202 23.0822 39.21C20.5173 39.6745 15.1662 40.7247 12.7782 41.244C12.4453 41.3218 12.2384 41.6547 12.3162 41.9877C12.3421 42.0998 12.3989 42.202 12.4796 42.2833C14.2919 44.1887 15.4767 46.6046 15.8739 49.2044C15.9233 49.5374 16.2114 49.7826 16.5483 49.7791C16.2552 49.7731 16.0125 50.0054 16.0065 50.2984C16.006 50.3059 16.006 50.3134 16.0065 50.3209C16.0728 51.0949 16.0947 51.8466 16.1057 52.5319C16.1177 52.8285 16.3619 53.0627 16.6585 53.0627C16.3574 53.0627 16.1122 53.3035 16.1057 53.6045V55.2737V55.9481C16.1805 56.8577 16.654 57.6876 17.3996 58.2145L17.9299 58.5903C17.5093 58.6122 17.1863 58.9711 17.2082 59.3922C17.2137 59.4979 17.2411 59.6016 17.289 59.6958C17.6139 60.2381 18.0122 60.7325 18.4717 61.1666C18.9283 61.6162 19.5443 61.8669 20.1853 61.8629H23.2257C23.5492 61.8629 23.8119 61.6008 23.8119 61.2768V59.3863C23.8119 58.9591 23.4655 58.6127 23.0378 58.6127C23.0343 58.6127 23.0303 58.6127 23.0268 58.6127H22.4631L23.0488 58.1262C23.5402 57.7335 23.8283 57.1408 23.8338 56.5118V54.3008C23.8383 53.9295 23.6554 53.5806 23.3473 53.3722L22.9052 53.0737H23.2701C23.5816 53.0737 23.8338 52.8215 23.8338 52.51V50.2989C23.8338 49.9994 23.5916 49.7572 23.2925 49.7572H22.9276C23.4864 49.3893 23.8263 48.7678 23.8338 48.0989V46.0758C23.8338 45.4463 23.5392 44.8531 23.0378 44.4723L22.7617 44.2515H23.1041C23.5088 44.2451 23.8338 43.9156 23.8338 43.5109V41.6313C23.8338 41.2465 23.5223 40.9345 23.1375 40.9345Z" fill="#FFA801"/>
<path d="M21.623 26.5626C20.849 15.7278 20.5948 12.0683 17.6322 9.37086C17.3017 9.08078 16.7988 9.11368 16.5087 9.44413C16.4369 9.52588 16.3831 9.62157 16.3497 9.72475C15.9849 10.8303 15.631 12.0574 15.2442 13.3069C15.0927 13.7396 15.293 14.2171 15.7082 14.4124C15.2332 14.4124 14.8684 14.5341 14.7243 14.9981L14.0943 17.0546C14.0146 17.3367 14.1786 17.6298 14.4607 17.7095C14.514 17.7245 14.5693 17.731 14.6247 17.729C14.1766 17.725 13.7798 18.0181 13.6522 18.4477C13.2649 19.6748 12.8782 20.9348 12.4799 22.2063C12.3758 22.6245 12.5726 23.0591 12.9554 23.257C12.4909 23.257 12.1375 23.3672 11.9935 23.8098C11.5404 25.2467 11.828 24.3072 11.3525 25.8992C11.2732 26.1813 11.4372 26.4743 11.7193 26.5536C11.7692 26.5675 11.8205 26.5745 11.8718 26.5735C11.4507 26.576 11.0759 26.8407 10.9323 27.2369L9.74955 31.029C9.61547 31.4641 9.81634 31.9321 10.2246 32.1345C9.74955 32.1345 9.3847 32.2451 9.24066 32.7206C9.17437 32.9085 9.17437 32.9524 8.61065 34.7766C8.5309 35.0587 8.69488 35.3523 8.97699 35.4316C9.03032 35.4465 9.08565 35.4535 9.14097 35.451C8.70734 35.451 8.32106 35.7261 8.17951 36.1368L7.16222 39.4533C7.03413 39.8675 7.2659 40.3071 7.68009 40.4352C7.75236 40.4577 7.82712 40.4696 7.90288 40.4706H24.7073C25.1409 40.4706 25.4923 40.1192 25.4923 39.6856V36.7444C25.4923 36.5236 25.4923 35.9599 26.5978 35.9599C23.9337 33.0521 21.8438 29.6249 21.623 26.5626Z" fill="#FFA801"/>
<path d="M42.2193 40.9345H42.7168L41.523 39.807C41.5225 39.4586 41.8041 39.1765 42.1525 39.176C42.1934 39.176 42.2343 39.18 42.2746 39.188C44.8395 39.6745 50.1906 40.7246 52.5786 41.244C52.9116 41.3217 53.1184 41.6547 53.0406 41.9876C53.0147 42.0998 52.9579 42.202 52.8772 42.2832C51.0644 44.1892 49.8801 46.6046 49.4829 49.2043C49.4335 49.5373 49.1454 49.783 48.8085 49.779C49.1016 49.7731 49.3443 50.0053 49.3503 50.2984V50.3208C49.284 51.0949 49.2621 51.8465 49.2506 52.5318C49.2392 52.8284 48.9949 53.0632 48.6979 53.0627C48.9989 53.0627 49.2446 53.3034 49.2506 53.6044V55.2737V55.948C49.1763 56.8577 48.7023 57.6876 47.9572 58.2144L47.4269 58.5907C47.8475 58.6126 48.1705 58.9715 48.1486 59.3922C48.1431 59.4978 48.1157 59.6015 48.0679 59.6962C47.7424 60.238 47.3446 60.7329 46.8851 61.1666C46.4285 61.6161 45.812 61.8668 45.171 61.8629H42.1087C41.7852 61.8629 41.523 61.6007 41.523 61.2772V59.3867C41.523 58.959 41.8694 58.6126 42.2966 58.6126H42.3075H42.8718L42.2856 58.1262C41.8026 57.7294 41.523 57.1373 41.5225 56.5123V54.3007C41.5185 53.9294 41.7015 53.5805 42.009 53.3722L42.4516 53.0736H42.0867C41.7752 53.0736 41.5225 52.8214 41.5225 52.5099V50.2989C41.5225 49.9998 41.7653 49.7571 42.0643 49.7571H42.4292C41.8699 49.3893 41.53 48.7677 41.5225 48.0988V46.0757C41.5225 45.4462 41.8171 44.8531 42.3185 44.4723L42.5951 44.2515H42.2522C41.8475 44.2455 41.5225 43.9156 41.5225 43.5108V41.6313C41.523 41.2465 41.835 40.9345 42.2193 40.9345Z" fill="#FFA801"/>
<path d="M43.7341 26.5626C44.5081 15.7278 44.7623 12.0683 47.725 9.37086C48.0554 9.08078 48.5583 9.11368 48.8484 9.44413C48.9202 9.52588 48.974 9.62157 49.0074 9.72475C49.3723 10.8303 49.7261 12.0574 50.1129 13.3069C50.2644 13.7396 50.0641 14.2171 49.6489 14.4124C50.1239 14.4124 50.4892 14.5341 50.6328 14.9981L51.2628 17.0546C51.3425 17.3367 51.1786 17.6298 50.8964 17.7095C50.8431 17.7245 50.7878 17.731 50.7325 17.729C51.1806 17.725 51.5773 18.0181 51.7054 18.4477C52.0922 19.6748 52.4789 20.9348 52.8772 22.2063C52.9814 22.6245 52.7845 23.0591 52.4017 23.257C52.8662 23.257 53.2196 23.3672 53.3637 23.8098C53.8167 25.2467 53.5291 24.3072 54.0046 25.8992C54.0844 26.1813 53.9199 26.4743 53.6378 26.5536C53.5879 26.5675 53.5366 26.5745 53.4853 26.5735C53.9064 26.576 54.2813 26.8407 54.4248 27.2369L55.6076 31.029C55.7416 31.4641 55.5408 31.9321 55.1326 32.1345C55.6076 32.1345 55.9724 32.2451 56.1165 32.7206C56.1828 32.9085 56.1828 32.9524 56.7465 34.7766C56.8262 35.0587 56.6622 35.3523 56.3801 35.4316C56.3268 35.4465 56.2715 35.4535 56.2161 35.451C56.6498 35.451 57.0361 35.7261 57.1776 36.1368L58.1949 39.4533C58.323 39.8675 58.0912 40.3071 57.677 40.4352C57.6048 40.4577 57.53 40.4696 57.4542 40.4706H40.6493C40.2162 40.4706 39.8648 40.1192 39.8648 39.6856V36.7444C39.8648 36.5236 39.8648 35.9599 38.7588 35.9599C41.4234 33.0521 43.5128 29.6249 43.7341 26.5626Z" fill="#FFA801"/>
<path d="M53.6844 18.2706H44.8399L43.7344 22.6927H55.3427L53.6844 18.2706Z" fill="#3459A5"/>
<path d="M56.4483 27.115H43.7344L42.0762 31.537H57.5538L56.4483 27.115Z" fill="#3459A5"/>
<path d="M59.2121 35.9595H39.8652V40.3815H60.3181L59.2121 35.9595Z" fill="#3459A5"/>
<path d="M45.3926 13.8479H52.5789L50.7217 8.79589L50.2462 8.40862C48.8721 8.39566 47.6001 9.13333 46.9297 10.3325C46.1412 11.3633 45.6139 12.5695 45.3926 13.8479Z" fill="#3459A5"/>
<path d="M39.8652 38.7231V53.0952C43.6059 52.6696 47.3042 51.9299 50.9208 50.8842C51.1132 47.5209 52.7196 44.3962 55.3428 42.2829C54.664 41.8478 53.9163 41.5303 53.1318 41.3434C48.3998 40.337 39.8652 38.7231 39.8652 38.7231Z" fill="#FFA801"/>
<path d="M13.0215 13.8478H19.9865C19.8095 13.1072 18.9807 9.29323 15.6861 8.3203C15.2121 8.20417 14.7291 8.47481 14.5801 8.93935L13.0215 13.8478Z" fill="#4668BC"/>
<path d="M39.8652 38.7231V53.2393C43.588 52.7334 47.2788 52.0172 50.9208 51.0941C51.0733 48.1279 52.299 45.3183 54.3699 43.1895L41.1033 40.2379C40.3831 40.0908 39.8662 39.4578 39.8652 38.7231Z" fill="#FFA801"/>
<path d="M32.6786 2.79272C24.1989 2.79272 21.623 8.67465 21.623 14.9543V26.5626C21.623 30.0337 24.5747 33.9364 27.7038 37.0655C28.9175 38.5493 30.7637 39.3697 32.6786 39.2765C34.5936 39.3697 36.4397 38.5493 37.6539 37.0655C40.7825 33.9364 43.7342 30.0337 43.7342 26.5626V14.9543C43.7342 8.67465 41.1583 2.79272 32.6786 2.79272Z" fill="#FFA801"/>
<path d="M43.7342 14.9541C43.7342 8.67443 41.1583 2.79251 32.6786 2.79251C30.8608 2.74716 29.0545 3.09406 27.3828 3.8098V30.1885C27.3828 33.1626 29.539 36.4352 32.1258 39.2872H32.6786C34.5935 39.3804 36.4397 38.56 37.6539 37.0762C40.7825 33.9476 43.7342 30.0449 43.7342 26.5734V14.9541Z" fill="#FFA801"/>
<path d="M26.687 20.5587C26.9442 20.8343 27.2951 21.0038 27.6709 21.0342C28.7978 21.1927 29.8401 21.722 30.634 22.538C30.7108 22.6327 30.8499 22.6471 30.9451 22.5703C30.9829 22.5394 31.0094 22.4971 31.0208 22.4492V20.0393C31.0443 19.6511 30.8239 19.2892 30.4681 19.1327C29.5898 18.7484 28.6573 18.5022 27.7043 18.403C26.9901 18.3731 26.3875 18.9274 26.3576 19.6411C26.3436 19.9785 26.4617 20.3075 26.687 20.5587Z" fill="#FFA801"/>
<path d="M40.8819 18.8897C38.6708 18.8234 38.6708 19.9952 38.6708 20.5814C38.6708 20.9348 38.1071 21.0235 37.7532 21.0454C36.9986 21.1192 36.2555 21.2867 35.5422 21.5433C35.0852 21.6774 34.6057 21.4162 34.4716 20.9592C34.4492 20.8829 34.4372 20.8042 34.4367 20.7249V20.0396C34.3948 19.6742 34.5728 19.3189 34.8898 19.133C36.7644 18.2134 38.939 18.1251 40.8819 18.8897Z" fill="#FFA801"/>
<path d="M39.8428 25.0804H37.3886C37.0781 25.056 36.8064 25.2872 36.7815 25.5977C36.7735 25.6974 36.792 25.7976 36.8358 25.8878L37.6762 27.5242C37.8043 27.8143 37.6737 28.1537 37.3831 28.2823C37.3014 28.3187 37.2127 28.3351 37.1234 28.3311H36.1281C35.8111 28.3132 35.5399 28.5559 35.5225 28.8729C35.518 28.9482 35.5285 29.0229 35.5534 29.0937C35.9292 30.0447 36.3384 31.0615 36.6589 31.9128C37.2007 33.1953 38.1073 32.6649 38.4722 32.1894C39.7417 30.5895 40.6952 28.7623 41.2803 26.8054C41.4328 26.0199 40.9199 25.2598 40.1349 25.1073C40.0387 25.0884 39.941 25.0794 39.8428 25.0804Z" fill="#FFA801"/>
<path d="M36.0725 32.1675L35.1439 31.2938C34.6534 30.7998 33.9242 30.6284 33.2648 30.8517C32.8835 30.9738 32.4738 30.9738 32.0925 30.8517C31.4331 30.6284 30.7039 30.7998 30.2135 31.2938L29.2849 32.2223C29.1748 32.3285 29.1718 32.5035 29.2774 32.6131C29.3288 32.6664 29.3991 32.6968 29.4728 32.6978H35.8846C36.0316 32.7497 36.1921 32.6729 36.2439 32.5264C36.2963 32.3798 36.2195 32.2194 36.0725 32.1675Z" fill="#B76C42"/>
<path d="M52.5791 44.804H39.8652V49.2265H50.9208L52.5791 44.804Z" fill="#3459A5"/>
<path d="M39.8652 53.6484H50.9208V58.071H39.8652V53.6484Z" fill="#3459A5"/>
<path d="M48.1565 62.4929H39.8652V65.2572H43.7345L48.1565 62.4929Z" fill="#3459A5"/>
<path d="M44.8398 18.2706H51.6503C52.0924 19.7186 52.5565 21.2004 53.01 22.6927H44.8398V18.8234C44.8398 18.6355 44.8398 18.4585 44.8398 18.2706Z" fill="#2E5599"/>
<path d="M43.7347 27.115H54.3926C54.8566 28.6073 55.3211 30.0891 55.7632 31.537H42.1094C42.9657 30.1983 43.5204 28.6895 43.7347 27.115Z" fill="#2E5599"/>
<path d="M58.5049 40.3815H39.8652V35.9595H57.1342C57.6202 37.5181 58.1066 39.0328 58.5049 40.3815Z" fill="#2E5599"/>
<path d="M50.2906 13.8478H45.3711C45.718 11.7434 46.9177 9.87534 48.6876 8.6851C49.4487 8.31726 50.3563 8.44336 50.9874 9.00558C50.1146 8.9702 49.3784 9.64855 49.343 10.5208C49.3341 10.7396 49.371 10.9574 49.4507 11.1613C49.7268 12.0236 50.0035 12.9192 50.2906 13.8478Z" fill="#2E5599"/>
<path d="M39.8655 66.0861C39.4075 66.0861 39.0361 65.7148 39.0361 65.2572V34.8542C39.0361 34.3962 39.4075 34.0249 39.8655 34.0249C40.3231 34.0249 40.6944 34.3962 40.6944 34.8542V64.4278H41.3025C43.7014 64.3835 45.9298 63.412 47.5881 61.693C49.2464 59.9729 50.1351 57.71 50.0917 55.3221V51.4374C50.2018 45.7693 53.9331 40.8837 59.2742 39.2514L50.1286 9.34731C50.0907 9.2237 49.989 9.13896 49.851 9.14843C49.4308 9.15491 49.0056 8.81399 48.9872 8.35544C48.9677 7.89788 49.3221 7.51111 49.7797 7.49117C50.6584 7.46824 51.4584 8.01801 51.7146 8.86533L61.1104 39.5858C61.1787 39.8061 61.1517 40.0438 61.0371 40.2422C60.9215 40.4421 60.7306 40.5846 60.5058 40.6365C55.4513 41.8143 51.8506 46.2627 51.75 51.4533V55.3066C51.8018 58.1222 50.7471 60.8053 48.7818 62.8438C46.816 64.8819 44.1739 66.0328 41.3423 66.0846L39.8655 66.0861Z" fill="#020202"/>
<path d="M45.67 18.8227H44.0117C44.0117 12.2659 46.0443 9.49963 47.7041 8.33481V7.49048H49.8159C50.2734 7.49048 50.6448 7.8623 50.6448 8.31986C50.6448 8.77741 50.2734 9.14874 49.8159 9.14874C49.7835 9.15123 45.67 9.79221 45.67 18.8227Z" fill="#020202"/>
<path d="M45.3936 13.2952H52.5799V14.4007H45.3936V13.2952Z" fill="#020202"/>
<path d="M44.8408 17.7175H53.6854V18.823H44.8408V17.7175Z" fill="#020202"/>
<path d="M48.1572 22.1396H54.7908V23.2452H48.1572V22.1396Z" fill="#020202"/>
<path d="M46.499 26.562H56.4491V27.6675H46.499V26.562Z" fill="#020202"/>
<path d="M42.0762 30.9839H58.107V32.0894H42.0762V30.9839Z" fill="#020202"/>
<path d="M39.8652 35.407H59.2126V36.5125H39.8652V35.407Z" fill="#020202"/>
<path d="M39.8652 39.8291H59.2126V40.9346H39.8652V39.8291Z" fill="#020202"/>
<path d="M39.8652 44.251H53.1318V45.357H39.8652V44.251Z" fill="#020202"/>
<path d="M39.8652 48.6733H50.9208V49.7789H39.8652V48.6733Z" fill="#020202"/>
<path d="M39.8652 53.0959H50.9208V54.2015H39.8652V53.0959Z" fill="#020202"/>
<path d="M39.8652 57.5183H50.9208V58.6238H39.8652V57.5183Z" fill="#020202"/>
<path d="M39.8652 61.9404H47.6043V63.0459H39.8652V61.9404Z" fill="#020202"/>
<path d="M11.6729 18.2705H20.5175L21.623 22.6925H10.0146L11.6729 18.2705Z" fill="#4668BC"/>
<path d="M13.254 19.6965L12.7785 21.1449C12.6504 21.5461 12.8717 21.9753 13.273 22.1034C13.3492 22.1278 13.4285 22.1403 13.5082 22.1398H20.5176V18.8232H14.4478C13.903 18.8257 13.4215 19.1781 13.254 19.6965Z" fill="#3459A5"/>
<path d="M8.90922 27.115H21.6231L23.2813 31.537H7.80371L8.90922 27.115Z" fill="#4668BC"/>
<path d="M10.6227 30.9843H22.9383C22.3457 29.9565 21.9345 28.8345 21.7221 27.6677H11.6729C11.1251 27.6657 10.6426 28.0266 10.4896 28.5519L10.0146 30.1883C9.9229 30.5242 10.1208 30.8706 10.4567 30.9623C10.5105 30.9768 10.5664 30.9843 10.6227 30.9843Z" fill="#3459A5"/>
<path d="M6.14555 35.9595H25.4929V40.3815H5.04004L6.14555 35.9595Z" fill="#4668BC"/>
<path d="M8.15695 39.8068H25.4922V36.4897H9.31779C8.56466 36.4917 7.90026 36.9852 7.68145 37.7059L7.36097 38.7122C7.22041 39.1543 7.46514 39.6268 7.90774 39.7674C7.98848 39.7928 8.07222 39.8063 8.15695 39.8068Z" fill="#3459A5"/>
<path d="M12.7783 44.804H25.4922V49.2265H14.4366L12.7783 44.804Z" fill="#4668BC"/>
<path d="M23.8339 48.0432V45.9762C23.8339 45.6278 23.5518 45.3457 23.2039 45.3457H15.5974C15.2435 45.3522 14.9614 45.6448 14.9679 45.9986C14.9694 46.0744 14.9843 46.1487 15.0117 46.2194C15.2784 46.8569 15.4927 47.5149 15.6527 48.1872C15.719 48.4703 15.9702 48.6712 16.2608 48.6737H23.2039C23.5453 48.6797 23.8279 48.4075 23.8339 48.0656C23.8339 48.0581 23.8339 48.0507 23.8339 48.0432Z" fill="#3459A5"/>
<path d="M14.4365 53.6484H25.4921V58.071H14.4365V53.6484Z" fill="#4668BC"/>
<path d="M23.0822 54.2012H16.8469C16.4342 54.2072 16.1007 54.5406 16.0947 54.9533V55.3072C16.0982 55.841 16.1501 56.3743 16.2497 56.8992C16.3185 57.253 16.6295 57.5082 16.9904 57.5072H23.0822C23.4973 57.5072 23.8343 57.1713 23.8348 56.7561C23.8348 56.7446 23.8343 56.7332 23.8338 56.7222V54.9533C23.8338 54.5381 23.4973 54.2012 23.0822 54.2012Z" fill="#3459A5"/>
<path d="M17.2002 62.4929H25.492V65.2572H21.6227L17.2002 62.4929Z" fill="#4668BC"/>
<path d="M32.679 2.23999C31.3732 2.26092 30.0693 2.3646 28.7764 2.54951C28.7764 2.54951 30.9874 10.4874 30.9874 15.4627H34.3044C34.3044 10.4874 36.5154 2.54951 36.5154 2.54951C35.2439 2.36759 33.963 2.26391 32.679 2.23999Z" fill="#4668BC"/>
<path d="M42.1092 4.37354C42.1092 4.37354 38.207 9.97883 38.207 15.5069L41.5236 16.0596C41.5236 10.5316 45.3928 6.10955 45.3928 6.10955L42.1092 4.37354Z" fill="#4668BC"/>
<path d="M42.3526 16.0596H40.6943C40.6943 10.2863 44.6025 5.75362 44.769 5.56372L46.018 6.65477C45.9816 6.69664 42.3526 10.9218 42.3526 16.0596Z" fill="#020202"/>
<path d="M39.0362 15.5065H37.3779C37.3779 9.78407 41.2647 4.13691 41.4296 3.89966L42.7903 4.84667C42.7534 4.901 39.0362 10.3114 39.0362 15.5065Z" fill="#020202"/>
<path d="M27.1508 15.5069C27.1508 9.97883 23.2487 4.37354 23.2487 4.37354L19.9316 6.10955C19.9316 6.10955 23.8014 10.5316 23.8014 16.0596L27.1508 15.5069Z" fill="#4668BC"/>
<path d="M16.0952 13.3068H19.8873C19.1027 10.1004 17.7316 9.33779 16.7148 8.69632C15.9537 8.32848 15.046 8.45508 14.415 9.0168C15.2873 8.98141 16.0235 9.65977 16.0593 10.532C16.0683 10.7508 16.0314 10.9691 15.9517 11.173L15.4762 12.4993C15.372 12.8253 15.5514 13.1737 15.8774 13.2778C15.9477 13.3003 16.0215 13.3102 16.0952 13.3068Z" fill="#3459A5"/>
<path d="M30.7108 19.9841C29.1996 19.079 27.4252 18.7161 25.6802 18.9559C24.8244 19.1094 24.0259 19.4917 23.3695 20.0614C22.6956 20.672 22.1698 21.4281 21.8329 22.2729C21.783 22.3811 21.6554 22.4304 21.5458 22.3835C21.4426 22.3337 21.3908 22.2166 21.4241 22.1069C21.7302 21.1739 22.2401 20.3206 22.9164 19.6083C23.6127 18.8592 24.4994 18.3129 25.4813 18.0273C27.4531 17.5847 29.5171 17.8304 31.3299 18.7241C31.6718 18.8866 31.8173 19.2953 31.6548 19.6372C31.4968 19.9697 31.1046 20.1177 30.7662 19.9732L30.7108 19.9841Z" fill="#020202"/>
<path d="M34.0278 18.7682C35.8351 17.8596 37.8996 17.5984 39.8764 18.0276C40.8528 18.2862 41.742 18.8016 42.4522 19.5199C43.1286 20.2321 43.6385 21.0854 43.9445 22.0185C43.9809 22.1346 43.9166 22.2577 43.801 22.2951C43.7003 22.3389 43.5827 22.2931 43.5388 22.1924C43.5378 22.1899 43.5368 22.1869 43.5358 22.1844C43.1989 21.3396 42.673 20.5835 41.9987 19.9734C41.3422 19.4032 40.5443 19.0209 39.6885 18.8674C37.9435 18.6282 36.1686 18.9905 34.6579 19.8957C34.3364 20.0831 33.9232 19.9744 33.7358 19.6529C33.7333 19.6489 33.7313 19.6455 33.7293 19.6415C33.5394 19.314 33.651 18.8943 33.9785 18.7049C33.98 18.7039 33.982 18.7029 33.9835 18.7019L34.0278 18.7682Z" fill="#020202"/>
<path d="M34.0612 35.4073H31.2969C30.9914 35.4073 30.7441 35.1601 30.7441 34.8545C30.7441 34.5485 30.9914 34.3013 31.2969 34.3013H34.0612C34.3667 34.3013 34.6139 34.5485 34.6139 34.8545C34.6139 35.1601 34.3667 35.4073 34.0612 35.4073Z" fill="#C67446"/>
<path d="M47.8024 9.07256C47.6155 9.07256 47.4276 9.00278 47.2821 8.86272C39.0929 1.00604 26.2635 1.00604 18.0748 8.86272C17.7758 9.15081 17.3008 9.14084 17.0117 8.84079C16.7246 8.54124 16.7346 8.06574 17.0341 7.77765C25.8079 -0.639761 39.552 -0.638764 48.3228 7.77765C48.6228 8.06574 48.6328 8.54124 48.3442 8.84079C48.1977 8.99481 47.9998 9.07256 47.8024 9.07256Z" fill="#020202"/>
<path d="M25.4928 66.0867H24.0558C21.1839 66.0338 18.5423 64.883 16.5765 62.8444C14.6107 60.8059 13.557 58.1233 13.6083 55.2923V51.438C13.5082 46.2633 9.90704 41.8153 4.85151 40.6371C4.62821 40.5852 4.43582 40.4427 4.32168 40.2433C4.20704 40.0444 4.18013 39.8067 4.24692 39.5869L13.6442 8.86294C13.8999 8.01911 14.6889 7.45688 15.5786 7.49177C16.0357 7.51171 16.3911 7.89849 16.3716 8.35604C16.3517 8.8136 15.9828 9.17495 15.5073 9.14953C15.4027 9.14455 15.2681 9.2238 15.2312 9.34542L6.08361 39.2519C11.4262 40.8843 15.1575 45.7689 15.2666 51.422V55.3077C15.2227 57.7106 16.1119 59.9735 17.7702 61.6936C19.4285 63.4126 21.6569 64.3841 24.0454 64.4274C24.0748 64.4284 24.1296 64.4319 24.159 64.4349L24.6634 64.4329V34.8548C24.6634 34.3968 25.0352 34.0255 25.4928 34.0255C25.9504 34.0255 26.3217 34.3968 26.3217 34.8548V65.2578C26.3222 65.7154 25.9509 66.0867 25.4928 66.0867Z" fill="#020202"/>
<path d="M21.623 23.2454H24.3868C24.3868 21.7312 25.6249 21.0344 27.1506 21.0344C28.6763 21.0344 29.9148 21.7198 29.9148 23.2454H24.3868" fill="white"/>
<path d="M43.7342 23.2454H40.9704C40.9704 21.7312 39.7323 21.0344 38.2067 21.0344C36.681 21.0344 35.4424 21.7198 35.4424 23.2454H40.9704" fill="white"/>
<path d="M28.2562 22.1398C28.2562 22.7503 27.7608 23.2452 27.1503 23.2452C26.5398 23.2452 26.0449 22.7503 26.0449 22.1398C26.0449 21.5293 26.5398 21.0344 27.1503 21.0344C27.7608 21.0344 28.2562 21.5293 28.2562 22.1398Z" fill="#020202"/>
<path d="M39.3119 22.1398C39.3119 22.7503 38.817 23.2452 38.2065 23.2452C37.596 23.2452 37.1006 22.7503 37.1006 22.1398C37.1006 21.5293 37.596 21.0344 38.2065 21.0344C38.817 21.0344 39.3119 21.5293 39.3119 22.1398Z" fill="#020202"/>
<path d="M19.9648 6.10962C19.9648 6.10962 23.8341 10.5317 23.8341 16.0597L19.9648 6.10962Z" fill="#FFA801"/>
<path d="M24.6635 16.0596H23.0047C23.0047 10.9029 19.3772 6.69714 19.3408 6.65527L20.5889 5.56372C20.7549 5.75362 24.6635 10.2863 24.6635 16.0596Z" fill="#020202"/>
<path d="M23.249 4.37354C23.249 4.37354 27.1512 9.97883 27.1512 15.5069L23.249 4.37354Z" fill="#FFA801"/>
<path d="M27.9798 15.5065H26.3215C26.3215 10.2989 22.6053 4.90149 22.5674 4.84766L23.9291 3.89966C24.0941 4.13691 27.9798 9.78407 27.9798 15.5065Z" fill="#020202"/>
<path d="M36.5811 2.54907C36.5811 2.54907 34.3701 10.487 34.3701 15.4623L36.5811 2.54907Z" fill="#FFA801"/>
<path d="M35.2003 15.4622H33.542C33.542 10.4316 35.6912 2.65511 35.7834 2.32715L37.3809 2.77174C37.3594 2.85 35.2003 10.6593 35.2003 15.4622Z" fill="#020202"/>
<path d="M21.3469 18.8233H19.6887C19.6887 9.85661 15.6335 9.16131 15.5348 9.14985C15.0807 9.14536 14.7139 8.77553 14.7139 8.32047C14.7139 7.8659 15.0792 7.49707 15.5318 7.49158H15.5323H15.5358H15.5383C15.5403 7.49109 15.5408 7.49109 15.5427 7.49158H17.6546V8.33542C19.3138 9.50024 21.3469 12.2665 21.3469 18.8233Z" fill="#020202"/>
<path d="M12.7783 13.2954H19.9646V14.4009H12.7783V13.2954Z" fill="#020202"/>
<path d="M11.6729 17.7178H20.5174V18.8233H11.6729V17.7178Z" fill="#020202"/>
<path d="M10.5674 22.1399H17.2004V23.2454H10.5674V22.1399Z" fill="#020202"/>
<path d="M8.90918 26.5623H18.8593V27.6678H8.90918V26.5623Z" fill="#020202"/>
<path d="M7.25098 30.9844H23.2818V32.0899H7.25098V30.9844Z" fill="#020202"/>
<path d="M6.14551 35.4072H25.4929V36.5127H6.14551V35.4072Z" fill="#020202"/>
<path d="M6.14453 39.8293H25.4919V40.9349H6.14453V39.8293Z" fill="#020202"/>
<path d="M12.2256 44.2512H25.4922V45.3572H12.2256V44.2512Z" fill="#020202"/>
<path d="M14.4365 48.6743H25.4921V49.7798H14.4365V48.6743Z" fill="#020202"/>
<path d="M14.4365 53.0962H25.4921V54.2017H14.4365V53.0962Z" fill="#020202"/>
<path d="M14.4365 57.5186H25.4921V58.6241H14.4365V57.5186Z" fill="#020202"/>
<path d="M17.7539 61.9406H25.4925V63.0461H17.7539V61.9406Z" fill="#020202"/>
<path d="M39.3119 12.7421H26.0449C23.7157 12.7142 21.5486 13.9323 20.3623 15.9375C20.62 17.7283 20.7566 19.5341 20.7715 21.3434C20.763 21.4162 20.8149 21.4825 20.8876 21.4909C20.9465 21.4974 21.0033 21.4645 21.0257 21.4097C23.1041 17.5848 23.8338 16.0591 26.0449 16.0591H39.3119C41.523 16.0591 42.1754 17.4741 44.3311 21.3768C44.359 21.4446 44.4368 21.4765 44.5045 21.4481C44.5594 21.4257 44.5923 21.3693 44.5853 21.3105C44.6037 19.5122 44.7403 17.7174 44.9945 15.9375C43.8112 13.9293 41.6421 12.7097 39.3119 12.7421Z" fill="#FFA801"/>
<path d="M39.312 12.7421H26.8633C25.9472 12.7421 25.2051 13.4847 25.2051 14.4003C25.2051 15.3165 25.9472 16.0591 26.8633 16.0591H39.312C41.523 16.0591 42.1755 17.4741 44.3312 21.3768C44.3591 21.4441 44.4368 21.4765 44.5046 21.4481C44.5594 21.4257 44.5923 21.3693 44.5854 21.3105C44.6038 19.5122 44.7404 17.7174 44.9946 15.937C43.8113 13.9293 41.6422 12.7097 39.312 12.7421Z" fill="#FFA801"/>
<path d="M20.9041 22.3213C20.8662 22.3213 20.8283 22.3193 20.79 22.3143C20.5726 22.2884 20.2861 22.1284 20.15 21.9575C20.0124 21.784 19.9217 21.4655 19.9481 21.2462C19.9277 19.584 19.7926 17.8026 19.5419 16.0561C19.5145 15.8687 19.5524 15.6783 19.6486 15.5158C20.9824 13.2619 23.4127 11.8584 26.0553 11.9137H39.3065C41.8923 11.8743 44.3794 13.2594 45.7087 15.5173C45.8035 15.6793 45.8413 15.8692 45.8144 16.0551C45.5682 17.7856 45.4331 19.5466 45.4137 21.2891C45.4291 21.6823 45.1989 22.0532 44.832 22.2107C44.3351 22.416 43.7684 22.1842 43.5655 21.6958L43.2655 21.162C41.362 17.7049 40.8536 16.8885 39.3115 16.8885H26.0449C24.4848 16.8885 23.9206 17.8101 22.0106 21.3339L21.7544 21.8059C21.6398 22.0945 21.2879 22.3213 20.9041 22.3213ZM20.3234 20.9736C20.298 21.0115 20.2766 21.0518 20.2591 21.0942L20.3234 20.9736ZM45.005 20.8829L45.0568 20.9761C45.0438 20.9432 45.0264 20.9118 45.005 20.8829ZM21.2256 16.1214C21.3467 17.0151 21.4394 17.9157 21.5022 18.8194C22.8664 16.4289 23.8991 15.2302 26.0449 15.2302H39.312C41.4786 15.2302 42.4505 16.3641 43.8561 18.8144C43.9184 17.9137 44.0106 17.0136 44.1312 16.1209C43.0756 14.5155 41.2758 13.5555 39.3239 13.5719C39.3194 13.5719 39.3159 13.5719 39.312 13.5719H26.0449C24.0836 13.561 22.2852 14.5195 21.2256 16.1214Z" fill="#020202"/>
<path d="M36.6921 2.10713C36.7848 2.93294 36.2087 3.6845 35.3873 3.8096C34.5615 3.68949 33.9799 2.93643 34.0721 2.10713C34.0721 1.16768 34.6577 1.4991 35.3873 1.4991C36.117 1.4991 36.6921 1.16768 36.6921 2.10713Z" fill="#FFA801"/>
<path d="M35.3876 4.49509C35.3552 4.49509 35.3218 4.4926 35.2889 4.48811C34.0907 4.31416 33.2568 3.23507 33.3899 2.03137C33.3859 1.92869 33.3859 1.38691 33.7757 1.03601C34.1535 0.696586 34.6195 0.744435 34.9978 0.785804C35.2396 0.810725 35.5341 0.810725 35.7759 0.785804C36.1487 0.744435 36.6127 0.697084 36.9875 1.03452C37.3534 1.36298 37.3758 1.8634 37.3773 2.07075C37.4885 3.25102 36.6666 4.30768 35.4908 4.48711C35.4564 4.4926 35.422 4.49509 35.3876 4.49509ZM34.7536 2.13903C34.7172 2.6235 34.9859 3.0038 35.3851 3.11046C35.7888 2.99931 36.059 2.61054 36.0106 2.18389C36.0091 2.16894 36.0081 2.15448 36.0071 2.14003C35.9772 2.14302 35.9478 2.14601 35.9209 2.149C35.5915 2.18389 35.1857 2.18489 34.8543 2.149C34.8229 2.14601 34.7885 2.14202 34.7536 2.13903ZM37.3773 2.10713H37.3883H37.3773Z" fill="#020202"/>
<path d="M32.745 7.14892V7.23715H37.9964C38.0014 7.20774 38.0014 7.17783 37.9964 7.14892C38.1065 5.74586 37.2976 4.43201 35.9952 3.89819H34.8897C33.533 4.38615 32.6598 5.70947 32.745 7.14892Z" fill="#6F1700"/>
<path d="M33.187 10.5865H37.6095C37.8328 9.493 37.9769 8.3845 38.0407 7.27002H32.7559C32.8251 8.384 32.9692 9.492 33.187 10.5865Z" fill="#9E0C02"/>
<path d="M33.1875 10.5872C33.497 12.3117 33.8509 13.9037 33.8509 13.9037H36.9132C36.9132 13.9037 37.2671 12.2788 37.5766 10.5872H33.1875Z" fill="#84BC9F"/>
<path d="M35.382 15.0895C34.7161 15.0895 34.0502 14.8951 33.4696 14.5064C33.3245 14.4097 33.2223 14.2616 33.183 14.0922C32.6581 11.8358 32.2813 9.5206 32.0625 7.21289C32.0595 4.94157 33.5523 3.14624 35.3875 3.14624C37.2162 3.14624 38.704 4.94157 38.704 7.1481C38.4817 9.5206 38.1049 11.8358 37.5801 14.0917C37.5412 14.2611 37.4385 14.4097 37.294 14.5059C36.7133 14.8946 36.0479 15.0895 35.382 15.0895ZM36.9127 13.9367H36.9236H36.9127ZM34.4525 13.496C35.0376 13.7921 35.7254 13.7921 36.3106 13.496C36.7866 11.3897 37.132 9.23351 37.3363 7.0838C37.3329 5.69718 36.4606 4.51741 35.3875 4.51741C34.3264 4.51741 33.4307 5.7221 33.4307 7.1486C33.631 9.2365 33.976 11.3897 34.4525 13.496Z" fill="#020202"/>
<path d="M32.7451 6.6897H38.019V7.6073H32.7451V6.6897Z" fill="#020202"/>
<path d="M33.1543 10.2827H37.7089V11.2003H33.1543V10.2827Z" fill="#020202"/>
<path d="M27.5488 8.26526H30.4676V12.5991C30.4676 13.3931 29.8236 14.0365 29.0302 14.0365C28.2367 14.0365 27.5927 13.3931 27.5927 12.5991V8.26526H27.5488Z" fill="#FFA801"/>
<path d="M29.0313 14.8101C27.8116 14.8101 26.8193 13.8182 26.8193 12.5991V8.52395C26.7908 8.4432 26.7754 8.35598 26.7754 8.26527C26.7754 7.83762 27.1218 7.49121 27.5494 7.49121H30.4682C30.8959 7.49121 31.2423 7.83811 31.2423 8.26527V12.5991C31.2423 13.8182 30.2499 14.8101 29.0313 14.8101ZM28.3674 9.03932V12.5991C28.3674 12.9644 28.6649 13.262 29.0313 13.262C29.3966 13.262 29.6942 12.9644 29.6942 12.5991V9.03932H28.3674Z" fill="#020202"/>
<path d="M30.9209 3.70984H27.0516L26.4102 6.19748C26.4102 7.62348 27.566 8.77883 28.992 8.77883C30.4175 8.77883 31.5733 7.62348 31.5733 6.19748L30.9209 3.70984Z" fill="#FFA801"/>
<path d="M27.0516 3.70984C27.0516 3.70984 28.8866 5.3241 26.4102 6.19726L27.0516 3.70984Z" fill="#FFA801"/>
<path d="M30.9205 3.70996C30.9205 3.70996 29.0854 5.32422 31.5728 6.19738L30.9205 3.70996Z" fill="#FFA801"/>
<path d="M30.3687 10.5919H27.7929C27.6493 10.5919 27.5332 10.4757 27.5332 10.3322C27.5332 10.1886 27.6493 10.0725 27.7929 10.0725H30.3692C30.5128 10.0725 30.6289 10.1886 30.6289 10.3322C30.6289 10.4757 30.5128 10.5919 30.3687 10.5919Z" fill="#020202"/>
<path d="M30.3687 11.6204H27.7929C27.6493 11.6204 27.5332 11.5043 27.5332 11.3608C27.5332 11.2167 27.6493 11.1006 27.7929 11.1006H30.3692C30.5128 11.1006 30.6289 11.2167 30.6289 11.3608C30.6289 11.5043 30.5128 11.6204 30.3687 11.6204Z" fill="#020202"/>
<path d="M30.3687 12.6485H27.7929C27.6493 12.6485 27.5332 12.5324 27.5332 12.3888C27.5332 12.2448 27.6493 12.1292 27.7929 12.1292H30.3692C30.5128 12.1292 30.6289 12.2448 30.6289 12.3888C30.6289 12.5324 30.5128 12.6485 30.3687 12.6485Z" fill="#020202"/>
<path d="M29.6606 6.97163C30.0673 6.69301 30.5488 6.54249 31.0423 6.5405H31.131C30.6759 5.95036 30.1311 5.43549 29.5166 5.01481C29.1831 4.78803 28.745 4.78803 28.4111 5.01481C27.791 5.42602 27.2547 5.95136 26.8301 6.56243H26.9851C27.4646 6.56641 27.9326 6.70846 28.3338 6.97163C28.5372 7.11069 28.756 7.22583 28.9863 7.31405C29.227 7.2353 29.4543 7.11967 29.6606 6.97163Z" fill="#FFA801"/>
<path d="M28.992 9.42588C27.2121 9.42588 25.7637 7.97746 25.7637 6.19758C25.7637 6.14325 25.7706 6.08942 25.7841 6.03609L26.4256 3.54894C26.4989 3.26335 26.757 3.06348 27.0516 3.06348H30.9209C31.2155 3.06348 31.4721 3.26135 31.5469 3.54595L32.1988 6.0336C32.2128 6.08693 32.2198 6.14225 32.2198 6.19758C32.2198 7.97746 30.7714 9.42588 28.992 9.42588ZM27.0586 6.27384C27.0985 7.30558 27.9503 8.13247 28.992 8.13247C30.0327 8.13247 30.884 7.30608 30.9249 6.27533L30.4225 4.35689H27.5525L27.0586 6.27384Z" fill="#020202"/>
<path d="M32.6706 29.3018C32.2564 29.3018 31.8367 29.2341 31.4379 29.097L30.1884 28.7536C29.8938 28.6723 29.7214 28.3683 29.8021 28.0737C29.8838 27.7792 30.1919 27.6077 30.482 27.688L31.7644 28.0413C32.3545 28.2422 32.9696 28.2437 33.5278 28.0518L34.8796 27.687C35.1786 27.6087 35.4777 27.7827 35.5564 28.0772C35.6362 28.3718 35.4612 28.6753 35.1667 28.7546L33.8508 29.108C33.478 29.2366 33.0763 29.3018 32.6706 29.3018Z" fill="#C67446"/>
<path d="M29.3068 23.798H21.623V22.6925H23.8844C24.1416 21.3323 25.3667 20.4815 27.1506 20.4815C28.458 20.2956 29.7927 21.0612 30.3261 22.3481C30.518 22.9707 30.1945 23.5767 29.6233 23.7512C29.5246 23.7821 29.4164 23.798 29.3068 23.798ZM25.0238 22.6925H29.3068C28.9639 21.9489 28.1145 21.4609 27.2268 21.5815C26.5894 21.5865 25.3563 21.7061 25.0238 22.6925Z" fill="#020202"/>
<path d="M43.7345 23.7979H36.0508C35.9417 23.7979 35.835 23.782 35.7323 23.7501C35.4567 23.6668 35.2299 23.4794 35.0928 23.2242C34.9583 22.969 34.9289 22.676 35.0131 22.3988C35.5648 21.0606 36.9121 20.2945 38.2823 20.4869H38.2962C40.0068 20.4869 41.218 21.3362 41.4727 22.6924H43.7345V23.7979ZM37.9055 21.567C37.0721 21.567 36.3573 22.0355 36.0528 22.7712L40.3368 22.7029C40.0108 21.707 38.7802 21.5869 38.2065 21.5869C38.1053 21.5735 38.0046 21.567 37.9055 21.567Z" fill="#020202"/>
<path d="M18.3066 26.5624C18.6764 27.2403 18.8668 28.0014 18.8593 28.7734C18.8593 29.3262 18.8593 30.9845 20.241 30.9845C21.6231 30.9845 21.6231 29.3262 21.6231 29.3262V24.9037C21.6231 18.0937 14.061 19.5087 18.3066 26.5624Z" fill="#FFA801"/>
<path d="M20.0637 20.9014C18.859 21.4651 18.2395 23.5326 20.2407 26.8491C20.615 27.5254 20.8059 28.2875 20.7934 29.0606C20.7615 29.6123 20.8682 30.1631 21.1029 30.6635C21.4329 30.2957 21.6178 29.8197 21.6228 29.3258V24.9032C21.7698 23.3975 21.1907 21.9112 20.0637 20.9014Z" fill="#FFA801"/>
<path d="M20.2408 31.8245C19.411 31.8245 18.0189 31.4282 18.0189 28.7736C18.0248 28.1441 17.8723 27.5271 17.5763 26.9793C16.0002 24.3516 15.7381 21.9542 16.8775 20.563C17.5802 19.7033 18.6873 19.4087 19.7653 19.7945C21.0692 20.2605 22.4628 21.8475 22.4628 24.9038V29.3264C22.4628 30.3307 21.8712 31.8245 20.2408 31.8245ZM18.8368 21.3112C18.5781 21.3112 18.3483 21.4188 18.1779 21.6272C17.6829 22.2318 17.6082 23.7729 19.0262 26.129C19.0322 26.1394 19.0381 26.1494 19.0436 26.1604C19.4812 26.9623 19.708 27.8695 19.6991 28.7816C19.6991 30.1448 20.0649 30.1448 20.2408 30.1448C20.7672 30.1448 20.7826 29.4101 20.7826 29.3264V24.9038C20.7826 22.7182 19.9298 21.6381 19.2001 21.3775C19.0755 21.3326 18.9529 21.3112 18.8368 21.3112Z" fill="#020202"/>
<path d="M32.9715 40.1017C32.8603 40.1017 32.7497 40.0982 32.6385 40.0927C30.5486 40.1998 28.4368 39.2593 27.0621 37.5781C22.9217 33.4442 20.7939 29.713 20.7939 26.5515V20.2389H22.4522V26.5515C22.4522 29.219 24.4708 32.6482 28.2903 36.4676C29.3883 37.8039 30.9977 38.5197 32.638 38.4369C34.3661 38.5187 35.9695 37.8039 37.0112 36.5289C40.8865 32.6482 42.9051 29.219 42.9051 26.5515V20.2937H44.5634V26.5515C44.5634 29.713 42.4356 33.4442 38.2403 37.6399C36.9898 39.1761 35.0215 40.1017 32.9715 40.1017Z" fill="#020202"/>
<path d="M47.0509 26.5624C46.6811 27.2403 46.4907 28.0014 46.4981 28.7734C46.4981 29.3262 46.4981 30.9845 45.1165 30.9845C43.7344 30.9845 43.7344 29.3262 43.7344 29.3262V24.9037C43.7344 18.0937 51.2965 19.5087 47.0509 26.5624Z" fill="#FFA801"/>
<path d="M45.2935 20.9014C46.4982 21.4651 47.1178 23.5326 45.1166 26.8491C44.7423 27.5254 44.5514 28.2875 44.5638 29.0606C44.5957 29.6123 44.4891 30.1631 44.2543 30.6635C43.9243 30.2957 43.7394 29.8197 43.7344 29.3258V24.9032C43.5874 23.3975 44.1661 21.9112 45.2935 20.9014Z" fill="#FFA801"/>
<path d="M45.1165 31.824C43.4862 31.824 42.8945 30.3302 42.8945 29.3259V24.9034C42.8945 21.847 44.2881 20.26 45.5925 19.794C46.6676 19.4092 47.7766 19.7023 48.4804 20.5626C49.6183 21.9542 49.3571 24.3511 47.7811 26.9793C47.485 27.5256 47.333 28.1431 47.3385 28.7652C47.3385 31.4278 45.9464 31.824 45.1165 31.824ZM46.5211 21.3107C46.4044 21.3107 46.2823 21.3321 46.1572 21.377C45.427 21.6377 44.5742 22.7178 44.5742 24.9034V29.3259C44.5777 29.5128 44.6271 30.1443 45.1165 30.1443C45.2925 30.1443 45.6583 30.1443 45.6583 28.7731C45.6498 27.867 45.8756 26.9609 46.3137 26.1594C46.3192 26.1489 46.3257 26.139 46.3307 26.1285C47.7487 23.7729 47.6739 22.2313 47.1795 21.6267C47.009 21.4184 46.7793 21.3107 46.5211 21.3107Z" fill="#020202"/>
</g>
<path d="M84.4509 27.0159C82.3697 27.0159 80.5968 26.5775 79.1323 25.7007C77.6677 24.8143 76.5453 23.581 75.7648 22.0008C74.994 20.411 74.6086 18.5659 74.6086 16.4654V15.9307C74.6086 13.888 74.994 12.0718 75.7648 10.482C76.5356 8.89219 77.6388 7.64444 79.0745 6.73873C80.5101 5.82339 82.2252 5.36572 84.2197 5.36572C85.6168 5.36572 86.9127 5.57288 88.1074 5.98719C89.3022 6.4015 90.3428 6.98443 91.2292 7.73597V12.5921H88.4543L88.0785 9.34022C87.6064 8.99336 87.0524 8.72357 86.4165 8.53087C85.7806 8.33817 85.0627 8.24182 84.263 8.24182C83.0008 8.24182 81.9217 8.55978 81.0256 9.1957C80.1295 9.83162 79.4406 10.7229 78.9589 11.8695C78.4867 13.016 78.2507 14.3601 78.2507 15.9018V16.4654C78.2507 18.8646 78.8047 20.7482 79.9127 22.1164C81.0208 23.4846 82.5624 24.1687 84.5376 24.1687C85.1735 24.1687 85.7998 24.0965 86.4165 23.9519C87.0428 23.7978 87.592 23.6003 88.0641 23.3594L88.4543 20.411H91.2003V25.2382C90.4006 25.7682 89.413 26.1969 88.2375 26.5245C87.062 26.8521 85.7998 27.0159 84.4509 27.0159Z" fill="white"/>
<path d="M100.855 27.0159C99.3517 27.0159 98.0606 26.6787 96.9814 26.0042C95.9023 25.3201 95.0737 24.3807 94.4955 23.1859C93.9174 21.9912 93.6284 20.6134 93.6284 19.0525V18.749C93.6284 17.1977 93.9174 15.8247 94.4955 14.6299C95.0737 13.4352 95.9023 12.4957 96.9814 11.8116C98.0606 11.1275 99.342 10.7855 100.826 10.7855C102.329 10.7855 103.62 11.1275 104.699 11.8116C105.778 12.4861 106.607 13.4255 107.185 14.6299C107.763 15.8247 108.052 17.1977 108.052 18.749V19.0525C108.052 20.623 107.763 22.0056 107.185 23.2004C106.607 24.3952 105.778 25.3298 104.699 26.0042C103.63 26.6787 102.348 27.0159 100.855 27.0159ZM100.855 24.2121C102.059 24.2121 102.955 23.7351 103.543 22.7813C104.131 21.8177 104.425 20.5748 104.425 19.0525V18.749C104.425 17.2555 104.126 16.027 103.529 15.0635C102.941 14.0904 102.04 13.6038 100.826 13.6038C99.6214 13.6038 98.7254 14.0904 98.1376 15.0635C97.5595 16.027 97.2705 17.2555 97.2705 18.749V19.0525C97.2705 20.5748 97.5595 21.8177 98.1376 22.7813C98.7254 23.7351 99.6311 24.2121 100.855 24.2121Z" fill="white"/>
<path d="M109.974 26.7124V24.4867L112.157 24.0531V13.7483L109.859 13.3147V11.0746H115.495L115.669 13.1268C116.17 12.3849 116.806 11.8116 117.577 11.407C118.347 10.9927 119.239 10.7855 120.25 10.7855C121.272 10.7855 122.144 11.0167 122.866 11.4792C123.599 11.9321 124.153 12.621 124.528 13.546C125.01 12.6884 125.641 12.014 126.422 11.5226C127.212 11.0312 128.137 10.7855 129.197 10.7855C130.757 10.7855 131.991 11.3202 132.896 12.3898C133.802 13.4593 134.255 15.078 134.255 17.2459V24.0531L136.437 24.4867V26.7124H128.561V24.4867L130.613 24.0531V17.217C130.613 15.9066 130.391 14.9864 129.948 14.4565C129.505 13.9266 128.855 13.6616 127.997 13.6616C127.197 13.6616 126.537 13.9169 126.017 14.4276C125.506 14.9286 125.174 15.579 125.02 16.3787V24.0531L127 24.4867V26.7124H119.412V24.4867L121.392 24.0531V17.217C121.392 15.9548 121.166 15.0491 120.713 14.4998C120.26 13.941 119.605 13.6616 118.747 13.6616C118.034 13.6616 117.432 13.8061 116.941 14.0952C116.459 14.3842 116.073 14.7937 115.784 15.3237V24.0531L117.837 24.4867V26.7124H109.974Z" fill="white"/>
<path d="M138.042 26.7124V24.4867L140.224 24.0531V13.7483L137.926 13.3147V11.0746H143.563L143.736 13.1268C144.237 12.3849 144.873 11.8116 145.644 11.407C146.415 10.9927 147.306 10.7855 148.318 10.7855C149.339 10.7855 150.211 11.0167 150.933 11.4792C151.666 11.9321 152.22 12.621 152.596 13.546C153.077 12.6884 153.708 12.014 154.489 11.5226C155.279 11.0312 156.204 10.7855 157.264 10.7855C158.825 10.7855 160.058 11.3202 160.964 12.3898C161.869 13.4593 162.322 15.078 162.322 17.2459V24.0531L164.505 24.4867V26.7124H156.628V24.4867L158.68 24.0531V17.217C158.68 15.9066 158.459 14.9864 158.015 14.4565C157.572 13.9266 156.922 13.6616 156.064 13.6616C155.264 13.6616 154.604 13.9169 154.084 14.4276C153.573 14.9286 153.241 15.579 153.087 16.3787V24.0531L155.067 24.4867V26.7124H147.479V24.4867L149.459 24.0531V17.217C149.459 15.9548 149.233 15.0491 148.78 14.4998C148.327 13.941 147.672 13.6616 146.814 13.6616C146.101 13.6616 145.499 13.8061 145.008 14.0952C144.526 14.3842 144.141 14.7937 143.852 15.3237V24.0531L145.904 24.4867V26.7124H138.042Z" fill="white"/>
<path d="M173.321 27.0159C171.818 27.0159 170.527 26.6787 169.447 26.0042C168.368 25.3201 167.54 24.3807 166.962 23.1859C166.383 21.9912 166.094 20.6134 166.094 19.0525V18.749C166.094 17.1977 166.383 15.8247 166.962 14.6299C167.54 13.4352 168.368 12.4957 169.447 11.8116C170.527 11.1275 171.808 10.7855 173.292 10.7855C174.795 10.7855 176.086 11.1275 177.165 11.8116C178.244 12.4861 179.073 13.4255 179.651 14.6299C180.229 15.8247 180.518 17.1977 180.518 18.749V19.0525C180.518 20.623 180.229 22.0056 179.651 23.2004C179.073 24.3952 178.244 25.3298 177.165 26.0042C176.096 26.6787 174.814 27.0159 173.321 27.0159ZM173.321 24.2121C174.525 24.2121 175.421 23.7351 176.009 22.7813C176.597 21.8177 176.891 20.5748 176.891 19.0525V18.749C176.891 17.2555 176.592 16.027 175.994 15.0635C175.407 14.0904 174.506 13.6038 173.292 13.6038C172.087 13.6038 171.191 14.0904 170.604 15.0635C170.026 16.027 169.736 17.2555 169.736 18.749V19.0525C169.736 20.5748 170.026 21.8177 170.604 22.7813C171.191 23.7351 172.097 24.2121 173.321 24.2121Z" fill="white"/>
<path d="M182.44 26.7124V24.4867L184.608 24.0531V13.7483L182.325 13.3147V11.0746H187.961L188.149 13.3436C188.67 12.5343 189.315 11.908 190.086 11.4648C190.866 11.0119 191.748 10.7855 192.731 10.7855C194.34 10.7855 195.592 11.2817 196.488 12.2741C197.385 13.2665 197.833 14.8082 197.833 16.899V24.0531L200 24.4867V26.7124H192.153V24.4867L194.19 24.0531V16.9279C194.19 15.7428 193.954 14.9045 193.482 14.4131C193.01 13.9121 192.307 13.6616 191.372 13.6616C190.678 13.6616 190.067 13.8206 189.537 14.1385C189.007 14.4469 188.578 14.8804 188.25 15.4393V24.0531L190.23 24.4867V26.7124H182.44Z" fill="white"/>
<path d="M81.3002 61.1743L76.4007 42.5881L74.4062 42.3713V40.1312H82.1818V42.3713L79.9416 42.7037L82.5287 53.5144L83.0634 55.7257L83.1502 55.7401L83.815 53.5144L88.0063 40.1312H90.8535L95.1604 53.7312L95.7963 55.8846H95.883L96.4611 53.7312L99.0771 42.7037L96.7068 42.3713V40.1312H104.338V42.3713L102.473 42.5881L97.6318 61.1743H94.2788L90.0441 47.9212L89.5094 46.0134H89.4226L88.859 47.9501L84.5954 61.1743H81.3002Z" fill="white"/>
<path d="M112.692 61.4778C111.208 61.4778 109.921 61.1502 108.833 60.4951C107.744 59.8302 106.896 58.9149 106.289 57.749C105.692 56.5832 105.393 55.2487 105.393 53.7456V53.1386C105.393 51.6163 105.687 50.2625 106.275 49.0774C106.872 47.8826 107.686 46.948 108.717 46.2736C109.758 45.5895 110.948 45.2474 112.287 45.2474C114.397 45.2474 116.001 45.8737 117.1 47.1263C118.208 48.3788 118.762 50.0987 118.762 52.2859V54.3671H109.165L109.136 54.4394C109.194 55.6727 109.55 56.6892 110.206 57.4889C110.861 58.279 111.795 58.674 113.009 58.674C113.857 58.674 114.628 58.5584 115.322 58.3271C116.016 58.0959 116.661 57.7683 117.259 57.3444L118.386 59.6279C117.769 60.1578 116.984 60.601 116.03 60.9575C115.086 61.3044 113.973 61.4778 112.692 61.4778ZM109.223 51.809H115.279V51.4332C115.279 50.4119 115.038 49.5832 114.556 48.9473C114.084 48.3114 113.342 47.9934 112.33 47.9934C111.444 47.9934 110.726 48.3499 110.177 49.0629C109.637 49.7759 109.305 50.6672 109.18 51.7367L109.223 51.809Z" fill="white"/>
<path d="M126.075 61.4778C124.485 61.4778 123.247 61.0683 122.36 60.2494C121.474 59.4304 121.031 58.3031 121.031 56.8674C121.031 55.3932 121.628 54.1985 122.823 53.2831C124.027 52.3678 125.752 51.9101 127.997 51.9101H130.382V50.5949C130.382 49.7663 130.131 49.1063 129.63 48.6149C129.139 48.1235 128.421 47.8778 127.477 47.8778C126.937 47.8778 126.46 47.9453 126.046 48.0802C125.632 48.2054 125.261 48.3885 124.933 48.6294L124.615 50.7395H121.927L121.898 46.8806C122.659 46.3699 123.512 45.9701 124.456 45.681C125.41 45.3919 126.465 45.2474 127.621 45.2474C129.606 45.2474 131.167 45.7147 132.304 46.6493C133.45 47.5839 134.024 48.9136 134.024 50.6383V57.5322C134.024 57.7442 134.024 57.9514 134.024 58.1537C134.033 58.3464 134.048 58.5439 134.067 58.7463L135.657 58.9486V61.1743H130.902C130.806 60.8371 130.714 60.5095 130.627 60.1915C130.55 59.8736 130.492 59.5556 130.454 59.2377C129.934 59.8929 129.303 60.4324 128.561 60.8564C127.819 61.2707 126.99 61.4778 126.075 61.4778ZM126.899 58.6596C127.64 58.6596 128.325 58.4909 128.951 58.1537C129.587 57.8068 130.064 57.3733 130.382 56.853V54.237H127.954C126.865 54.237 126.041 54.4924 125.482 55.003C124.933 55.504 124.658 56.0918 124.658 56.7662C124.658 58.0285 125.405 58.6596 126.899 58.6596Z" fill="white"/>
<path d="M137.276 61.1743V58.9486L139.458 58.515V41.3018L137.146 40.8682V38.6281H143.1V58.515L145.268 58.9486V61.1743H137.276Z" fill="white"/>
<path d="M152.812 61.4489C151.483 61.4489 150.447 61.078 149.705 60.3361C148.963 59.5845 148.592 58.3898 148.592 56.7518V48.138H146.309V45.5365H148.592V41.7354H152.22V45.5365H155.313V48.138H152.22V56.7518C152.22 57.4166 152.355 57.8984 152.624 58.1971C152.904 58.4958 153.28 58.6451 153.752 58.6451C154.022 58.6451 154.32 58.6258 154.648 58.5873C154.985 58.5391 155.26 58.4909 155.472 58.4428L155.833 61.0009C155.419 61.1262 154.937 61.2321 154.388 61.3189C153.838 61.4056 153.313 61.4489 152.812 61.4489Z" fill="white"/>
<path d="M157.249 61.1743V58.9486L159.417 58.515V41.3018L157.119 40.8682V38.6281H163.045V47.5599C163.565 46.8276 164.196 46.2591 164.938 45.8544C165.69 45.4498 166.538 45.2474 167.482 45.2474C169.091 45.2474 170.358 45.7629 171.283 46.7939C172.208 47.8152 172.67 49.3954 172.67 51.5344V58.515L174.824 58.9486V61.1743H166.976V58.9486L169.028 58.515V51.5055C169.028 50.3107 168.787 49.4483 168.306 48.9184C167.824 48.3885 167.116 48.1235 166.181 48.1235C165.516 48.1235 164.914 48.2729 164.375 48.5715C163.835 48.8606 163.392 49.2701 163.045 49.8V58.515L165.097 58.9486V61.1743H157.249Z" fill="white"/>
<path d="M178.595 46.0852V45.1819L179.405 45.0116V39.6538L178.595 39.4783V38.5698H181.893C182.564 38.5698 183.156 38.7281 183.669 39.0447C184.181 39.3578 184.581 39.7931 184.866 40.3506C185.155 40.9046 185.3 41.5412 185.3 42.2604V42.3998C185.3 43.1121 185.157 43.747 184.871 44.3045C184.589 44.8585 184.193 45.2938 183.684 45.6104C183.175 45.9269 182.585 46.0852 181.914 46.0852H178.595ZM180.912 44.9342H181.836C182.253 44.9342 182.605 44.8258 182.894 44.609C183.187 44.3888 183.409 44.0877 183.56 43.7057C183.712 43.3237 183.787 42.8884 183.787 42.3998V42.2553C183.787 41.7597 183.712 41.3227 183.56 40.9442C183.409 40.5622 183.187 40.2646 182.894 40.0512C182.605 39.8344 182.253 39.726 181.836 39.726H180.912V44.9342Z" fill="#FFA801"/>
<path d="M185.568 46.0852V45.1819L186.105 45.1045L188.495 38.5698H190.038L192.413 45.1045L192.949 45.1819V46.0852H190.389V45.1819L190.911 45.089L190.58 44.0567H187.937L187.607 45.089L188.128 45.1819V46.0852H185.568ZM188.294 42.9469H190.224L189.347 40.3713L189.274 40.1441H189.243L189.166 40.3867L188.294 42.9469Z" fill="#FFA801"/>
<path d="M196.583 46.1936C195.905 46.1936 195.312 46.0302 194.802 45.7033C194.293 45.3729 193.896 44.9204 193.61 44.3458C193.328 43.7711 193.187 43.1173 193.187 42.3843V42.2708C193.187 41.5412 193.328 40.8891 193.61 40.3145C193.896 39.7398 194.291 39.2873 194.797 38.9569C195.307 38.6266 195.9 38.4614 196.578 38.4614C197.256 38.4614 197.851 38.6266 198.364 38.9569C198.88 39.2873 199.281 39.7398 199.567 40.3145C199.856 40.8891 200 41.5412 200 42.2708V42.3843C200 43.1173 199.857 43.7711 199.572 44.3458C199.286 44.9204 198.885 45.3729 198.369 45.7033C197.856 46.0302 197.261 46.1936 196.583 46.1936ZM196.583 45.0219C197.22 45.0219 197.698 44.7811 198.018 44.2993C198.338 43.8141 198.498 43.1758 198.498 42.3843V42.2604C198.498 41.7408 198.426 41.2849 198.281 40.8926C198.137 40.4969 197.922 40.1889 197.636 39.9686C197.354 39.7484 197.001 39.6383 196.578 39.6383C195.945 39.6383 195.472 39.8792 195.159 40.3609C194.849 40.8427 194.694 41.4759 194.694 42.2604V42.3843C194.694 43.1758 194.851 43.8141 195.164 44.2993C195.48 44.7811 195.953 45.0219 196.583 45.0219Z" fill="#FFA801"/>
<defs>
<clipPath id="clip0_124_2013">
<rect width="65.3297" height="65.3297" fill="white" transform="translate(0 0.756836)"/>
</clipPath>
</defs>
</svg>
