<svg width="24" height="24" viewBox="0 0 24 24" fill="none" xmlns="http://www.w3.org/2000/svg">
<g opacity="0.89">
<path fill-rule="evenodd" clip-rule="evenodd" d="M5 2H19C20.6569 2 22 3.34315 22 5V19C22 20.6569 20.6569 22 19 22H5C3.34315 22 2 20.6569 2 19V5C2 3.34315 3.34315 2 5 2ZM5 4C4.44772 4 4 4.44772 4 5V19C4 19.5523 4.44772 20 5 20H19C19.5523 20 20 19.5523 20 19V5C20 4.44772 19.5523 4 19 4H5ZM12.0005 6.75736C12.5527 6.75736 13.0005 7.20507 13.0005 7.75736V11H16.2426C16.7949 11 17.2426 11.4477 17.2426 12C17.2426 12.5523 16.7949 13 16.2426 13H13.0005V16.2426C13.0005 16.7949 12.5527 17.2426 12.0005 17.2426C11.4482 17.2426 11.0005 16.7949 11.0005 16.2426V13H7.75736C7.20507 13 6.75736 12.5523 6.75736 12C6.75736 11.4477 7.20507 11 7.75736 11H11.0005V7.75736C11.0005 7.20507 11.4482 6.75736 12.0005 6.75736Z" fill="#FFA801"/>
</g>
</svg>
