<svg width="24" height="24" viewBox="0 0 24 24" fill="none" xmlns="http://www.w3.org/2000/svg">
<path d="M13.6945 3.46905C12.749 2.83723 11.6372 2.5 10.5 2.5C8.97501 2.5 7.51247 3.1058 6.43414 4.18414C5.35581 5.26247 4.75 6.72501 4.75 8.25C4.75 9.38724 5.08723 10.4989 5.71905 11.4445C6.35087 12.3901 7.2489 13.1271 8.29957 13.5623C9.35025 13.9975 10.5064 14.1114 11.6218 13.8895C12.7372 13.6677 13.7617 13.12 14.5659 12.3159C15.37 11.5117 15.9177 10.4872 16.1395 9.37177C16.3614 8.25638 16.2475 7.10024 15.8123 6.04957C15.3771 4.99889 14.6401 4.10087 13.6945 3.46905ZM7.02769 3.05331C8.0555 2.36656 9.26387 2 10.5 2C12.1576 2 13.7473 2.65848 14.9194 3.83058C16.0915 5.00268 16.75 6.5924 16.75 8.25C16.75 9.48613 16.3834 10.6945 15.6967 11.7223C15.0099 12.7501 14.0338 13.5512 12.8918 14.0242C11.7497 14.4973 10.4931 14.6211 9.28069 14.3799C8.06831 14.1388 6.95466 13.5435 6.08059 12.6694C5.20651 11.7953 4.61125 10.6817 4.3701 9.46931C4.12894 8.25693 4.25271 7.00027 4.72576 5.85823C5.1988 4.71619 5.99988 3.74007 7.02769 3.05331Z" fill="white" stroke="white"/>
<path d="M11 18.75V18.2496L10.4996 18.25C9.18658 18.251 7.88629 17.9927 6.67343 17.4897C5.70065 17.0862 4.79949 16.5318 4.0026 15.8483C3.90059 15.7608 3.87717 15.5799 4.00957 15.4475C4.07448 15.3826 4.20743 15.3634 4.31394 15.4546C6.03267 16.9265 8.25814 17.755 10.5315 17.7476C13.0465 17.7394 15.4555 16.7338 17.2299 14.9514C19.0043 13.169 19.9991 10.7555 19.9961 8.24047C19.9933 5.9908 19.1923 3.82433 17.7503 2.11969C17.6331 1.98118 17.6535 1.80362 17.7447 1.71239C17.8499 1.60718 17.9896 1.62863 18.0555 1.70448C18.7585 2.51319 19.3274 3.43119 19.7392 4.42378C20.2423 5.63634 20.5008 6.93633 20.5 8.24909C20.4957 10.6514 19.6274 12.972 18.0536 14.7871C16.4799 16.6021 14.3057 17.7905 11.9283 18.1352L11.5 18.1972V18.63V21V21.5H12H14.25C14.3881 21.5 14.5 21.6119 14.5 21.75C14.5 21.8881 14.3881 22 14.25 22H8.25C8.11193 22 8 21.8881 8 21.75C8 21.6119 8.11193 21.5 8.25 21.5H10.5H11V21V18.75Z" fill="white" stroke="white"/>
</svg>
