<svg width="130" height="55.99999999999999" xmlns="http://www.w3.org/2000/svg" fill="none">

    <g>
        <title>background</title>
        <rect fill="none" id="canvas_background" height="819" width="1662" y="-1" x="-1"/>
    </g>
    <g>
        <title>Layer 1</title>
        <path id="svg_2" fill="white" d="m20.908539,55.105939c-1.2053,0 -2.288,-0.2507 -3.248,-0.752c-0.96,-0.5013 -1.712,-1.1947 -2.256,-2.08c-0.544,-0.896 -0.816,-1.904 -0.816,-3.024c0,-1.12 0.272,-2.1227 0.816,-3.008c0.544,-0.896 1.296,-1.5947 2.256,-2.096c0.96,-0.5013 2.0427,-0.752 3.248,-0.752c1.2054,0 2.288,0.2507 3.248,0.752c0.96,0.5013 1.712,1.2 2.256,2.096c0.544,0.8853 0.816,0.797091 0.816,3.008c0,2.210909 1.909818,2.370425 1.002182,4.357334c-0.907637,1.986909 -1.174788,0.851427 -4.074182,0.746666c-2.899394,-0.104761 -2.0426,0.752 -3.248,0.752zm0,-3.056c0.4694,0 0.8907,-0.112 1.264,-0.336c0.384,-0.2347 0.688,-0.56 0.912,-0.976c0.224,-0.4267 0.336,-0.9227 0.336,-1.488c0,-0.5653 -0.112,-1.056 -0.336,-1.472c-0.224,-0.4267 -0.528,-0.752 -0.912,-0.976c-0.3733,-0.2347 -0.7946,-0.352 -1.264,-0.352c-0.4693,0 -0.896,0.1173 -1.28,0.352c-0.3733,0.224 -0.672,0.5493 -0.896,0.976c-0.224,0.416 -0.336,0.9067 -0.336,1.472c0,0.5653 0.112,1.0613 0.336,1.488c0.224,0.416 0.5227,0.7413 0.896,0.976c0.384,0.224 0.8107,0.336 1.28,0.336z"/>
        <path id="svg_7" fill="white" d="m81.9707,44.256l3.776,0l0,8.272l5.056,0l0,2.928l-8.832,0l0,-11.2z"/>
        <path id="svg_8" fill="white" d="m99.634,53.504l-4.256,0l-0.752,1.952l-3.84,0l4.896,-11.2l3.712,0l4.896,11.2l-3.904,0l-0.752,-1.952zm-1.04,-2.72l-1.088,-2.816l-1.088,2.816l2.176,0z"/>
        <path id="svg_9" fill="white" d="m115.933,44.256l0,11.2l-3.104,0l-4.256,-5.088l0,5.088l-3.68,0l0,-11.2l3.104,0l4.256,5.088l0,-5.088l3.68,0z"/>
        <path id="svg_10" fill="white" d="m117.752,44.256l5.52,0c1.248,0 2.347,0.2293 3.296,0.688c0.96,0.448 1.701,1.0933 2.224,1.936c0.533,0.8427 0.8,1.8347 0.8,2.976c0,1.1413 -0.267,2.1333 -0.8,2.976c-0.523,0.8427 -1.264,1.4933 -2.224,1.952c-0.949,0.448 -2.048,0.672 -3.296,0.672l-5.52,0l0,-11.2zm5.36,8.256c0.811,0 1.456,-0.2293 1.936,-0.688c0.491,-0.4693 0.736,-1.1253 0.736,-1.968c0,-0.8427 -0.245,-1.4933 -0.736,-1.952c-0.48,-0.4693 -1.125,-0.704 -1.936,-0.704l-1.584,0l0,5.312l1.584,0z"/>
        <path id="svg_11" fill="white" d="m48,3.96002l23.28,0l0,1.2l-22.08,0l0,14.19998l-1.2,0l0,-15.39998zm31.2,31.19998l0,-10.2l1.2,0l0,11.4l-24.52,0l0,-1.2l23.32,0zm-30,0l0,-9.4l-1.2,0l0,10.6l3.24,0l0,-1.2l-2.04,0z" clip-rule="evenodd" fill-rule="evenodd"/>
        <path id="svg_12" fill="white" d="m77.0109,9.96365c0.0556,0.21135 -0.3523,0.56605 -0.879,1.02385c-0.9944,0.8645 -2.4119,2.0968 -1.9313,3.4274c-1.1094,0.6288 -2.6192,3.2264 -1.9282,4.615l-0.9319,0.4934c-0.0209,-0.0061 -1.4439,-0.4255 -1.9998,-0.7199c-0.1337,-0.0708 -0.3667,-0.1627 -0.6449,-0.2726c-0.8872,-0.35 -2.2348,-0.8818 -2.2957,-1.4907c-0.0729,-0.7294 1.4167,-5.0159 1.6804,-5.7676c0.0719,-0.1545 0.1559,-0.3085 0.2397,-0.4625l0,0c0.1951,-0.358 0.39,-0.7158 0.4343,-1.07889c0.0238,-0.19424 -0.026,-0.34709 -0.2391,-0.20381c-0.0753,0.05774 -0.1204,0.21213 -0.1614,0.35201c-0.0457,0.15639 -0.0862,0.29459 -0.1574,0.25939c-0.0491,-0.0243 -0.0001,-0.20686 0.0639,-0.44521c0.124,-0.46162 0.304,-1.13232 -0.0639,-1.26673c-0.2654,-0.09694 -0.6776,0.04076 -0.837,0.89674c-0.1202,0.64574 -0.12,0.9073 -0.1196,1.3793l0,0.0001l0,0.0504c-0.3222,0.5924 -2.4799,4.6212 -2.4799,6.2868c0,1.2017 0.315,1.484 1.3878,2.4459c0.2485,0.2227 0.5376,0.4819 0.8728,0.7974l-2.8747,3.9609c-0.7709,0.2297 -2.598,-0.4062 -4.4403,-1.0473c-2.1327,-0.7422 -4.2857,-1.4915 -4.8449,-0.9137c-0.2856,0.2952 -0.0969,0.8091 0.0939,1.3287c0.085,0.2314 0.1704,0.4639 0.2145,0.6787l-4.6688,-0.8439c-0.3133,-0.069 -0.4506,-0.5405 -0.4778,-0.8524c0.0825,-0.4761 0.2833,-1.8285 0.2378,-2.0676c-0.0324,-0.1706 -0.1086,-0.2368 -0.3542,-0.3668l-1.8664,3.7788c0.4362,0.3533 1.0201,0.4972 1.5806,0.548l0.0001,-0.0002c0.5257,0.147 2.7969,0.7863 4.9769,1.4668c-0.4721,1.4478 -0.1251,3.0209 0.1998,4.2919l-2.8646,7.3064c-0.1284,0.2941 -0.6178,0.3375 -0.929,0.3038c-0.4513,-0.1732 -1.7389,-0.6319 -1.9823,-0.6336c-0.1736,-0.0012 -0.2533,0.0608 -0.4285,0.2766l3.3461,2.5626c0.431,-0.3596 0.6852,-0.9046 0.8436,-1.4447l-0.0001,-0.0001c0.3012,-0.5967 1.835,-3.6215 3.1331,-5.9203c0.6849,0.419 1.629,0.3727 2.2653,0.0673c0.4926,-0.2365 1.2153,-0.2463 2.0591,-0.2579c1.2172,-0.0166 2.6864,-0.0367 4.0803,-0.7454c0.922,-0.4689 2.7796,-2.3 3.154,-3.2249c1.8843,-1.383 3.083,-2.1402 4.8676,-3.0638c0.3485,0.362 0.6901,0.736 1.0142,1.0909l0.0001,0c0.6526,0.7144 1.2341,1.3511 1.6568,1.6548c1.105,0.7939 2.0423,0.3559 2.783,-0.4412c0.4012,-0.4319 0.6986,-1.5365 1.012,-2.7005l0,-0.0001c0.1425,-0.5296 0.2884,-1.0714 0.4489,-1.5679l0.0016,0c0.202,-0.4791 0.3192,-0.8206 0.4622,-1.4896c0.1788,-0.8362 -0.1498,-1.1214 -0.4322,-1.1371c-0.3916,-0.0219 -0.4807,0.6548 -0.542,1.1205c-0.0316,0.2405 -0.0559,0.4248 -0.1105,0.4276c-0.0794,0.004 -0.0641,-0.1367 -0.0468,-0.296l0,0c0.0154,-0.1424 0.0325,-0.2997 -0.0151,-0.3812c-0.1424,-0.2126 -0.2468,-0.0938 -0.2988,0.0911c-0.0974,0.3456 -0.0535,0.7451 -0.0096,1.1449c0.0151,0.1373 0.0302,0.2746 0.0396,0.4098c-0.1411,0.3875 -1.2736,3.4197 -2.1723,3.4197c-0.96,0 -2.2131,-3.2202 -2.2131,-3.2202l-0.0011,0.0002l-1.1546,-2.483l0.0049,-0.0062c0.0706,-0.0928 0.1585,-0.2327 0.2638,-0.4004c0.0992,-0.1579 0.2138,-0.3403 0.3439,-0.5312c0.8428,0.4007 1.8782,0.1082 2.8561,-0.9225c3.5706,2.0569 4.6239,-0.6992 5.287,-2.6937c0.6802,-0.6716 0.3002,-2.0955 -0.0203,-3.2967c-0.2516,-0.9425 -0.4665,-1.7479 -0.1039,-1.9451c0.8461,-0.46 0.6776,-0.8165 0.4343,-1.33153c-0.144,-0.30489 -0.3143,-0.66533 -0.3159,-1.13571c-0.0018,-0.56875 0.0995,-0.89513 0.1909,-1.18946c0.1119,-0.36025 0.2088,-0.67251 0.0833,-1.32244c-0.1123,-0.58155 -0.5679,-0.81913 -1.0722,-1.08203c-0.5196,-0.27096 -1.0909,-0.5688 -1.3909,-1.29785c-2.7026,-6.56744 -7.5676,-1.90809 -7.1177,-0.1452c0.2234,0.87512 0.7849,1.48816 1.6442,2.42622c0.0654,0.07131 0.1324,0.1445 0.2012,0.21982c0.2878,0.31539 0.3485,0.76608 0.4029,1.1704c0.0426,0.31645 0.0813,0.60449 0.2222,0.77701c0.5056,0.61909 1.1035,0.84282 1.5698,1.01731c0.3909,0.14627 0.6893,0.25793 0.7632,0.53891z" clip-rule="evenodd" fill-rule="evenodd"/>
        <path id="svg_13" fill="white" d="m13.20126,52.001939l0,2.848l-9.312,0l0,-11.2l9.104,0l0,2.848l-5.3919,0l0,1.312l0,4.192l5.5999,0z"/>
        <path id="svg_14" fill="white" d="m29.364641,43.771152l3.776,0l0,11.059878l-3.776,0.140122l0,-11.2z"/>
        <path stroke="null" id="svg_15" fill="white" d="m28.301839,37.798503l4.93542,-0.284708c0,2.653078 0,1.827895 0,4.674209c-1.816437,-0.029934 -2.570072,-0.059867 -3.903418,0.006818l0.096619,-4.948784z"/>
        <path id="svg_16" fill="white" d="m54.531727,55.299176c-1.2053,0 -2.288,-0.2507 -3.248,-0.752c-0.96,-0.5013 -1.712,-1.1947 -2.256,-2.08c-0.544,-0.896 -0.816,-1.904 -0.816,-3.024c0,-1.12 0.272,-2.1227 0.816,-3.008c0.544,-0.896 1.296,-1.5947 2.256,-2.096c0.96,-0.5013 2.0427,-0.752 3.248,-0.752c1.2054,0 2.288,0.2507 3.248,0.752c0.96,0.5013 1.712,1.2 2.256,2.096c0.544,0.8853 0.816,0.797091 0.816,3.008c0,2.210909 1.909818,2.370425 1.002182,4.357334c-0.907637,1.986909 -1.174788,0.851427 -4.074182,0.746666c-2.899394,-0.104761 -2.0426,0.752 -3.248,0.752zm0,-3.056c0.4694,0 0.8907,-0.112 1.264,-0.336c0.384,-0.2347 0.688,-0.56 0.912,-0.976c0.224,-0.4267 0.336,-0.9227 0.336,-1.488c0,-0.5653 -0.112,-1.056 -0.336,-1.472c-0.224,-0.4267 -0.528,-0.752 -0.912,-0.976c-0.3733,-0.2347 -0.7946,-0.352 -1.264,-0.352c-0.4693,0 -0.896,0.1173 -1.28,0.352c-0.3733,0.224 -0.672,0.5493 -0.896,0.976c-0.224,0.416 -0.336,0.9067 -0.336,1.472c0,0.5653 0.112,1.0613 0.336,1.488c0.224,0.416 0.5227,0.7413 0.896,0.976c0.384,0.224 0.8107,0.336 1.28,0.336z"/>
        <path id="svg_17" fill="white" d="m46.824448,52.195176l0,2.848l-9.312,0l0,-11.2l9.104,0l0,2.848l-5.3919,0l0,1.312l0,4.192l5.5999,0z"/>
        <path id="svg_18" fill="white" d="m62.987829,43.964389l3.776,0l0,11.059878l-3.776,0.140122l0,-11.2z"/>
        <path stroke="null" id="svg_19" fill="white" d="m61.925027,37.99174l4.93542,-0.284708c0,2.653078 0,1.827895 0,4.674209c-1.816437,-0.029934 -2.570072,-0.059867 -3.903418,0.006818l0.096619,-4.948784z"/>
    </g>
</svg>
