<svg width="130" height="95" viewBox="0 0 130 95" fill="none" xmlns="http://www.w3.org/2000/svg">
<path fill-rule="evenodd" clip-rule="evenodd" d="M48 3.95996H71.28V5.15996H49.2V19.36H48V3.95996ZM79.2 35.16V24.96H80.4V36.36H55.88V35.16H79.2ZM49.2 35.16V25.76H48V36.36H51.24V35.16H49.2Z" fill="white"/>
<path fill-rule="evenodd" clip-rule="evenodd" d="M77.0111 9.96365C77.0667 10.175 76.6588 10.5297 76.1321 10.9875C75.1377 11.852 73.7201 13.0844 74.2008 14.415C73.0914 15.0438 71.5817 17.6413 72.2727 19.03L71.3406 19.5234L71.3406 19.5234C71.3406 19.5234 69.9006 19.1 69.3406 18.8034C69.2069 18.7326 68.9739 18.6406 68.6957 18.5308L68.6956 18.5308C67.8085 18.1808 66.4609 17.649 66.4 17.04C66.3271 16.3113 67.8142 12.0311 68.0797 11.2743C68.1519 11.1192 68.2361 10.9646 68.3203 10.81C68.5153 10.452 68.7102 10.0942 68.7546 9.73115C68.7784 9.53692 68.7285 9.38406 68.5155 9.52735C68.4402 9.58508 68.395 9.73948 68.3541 9.87936L68.3541 9.87937C68.3084 10.0357 68.2679 10.174 68.1967 10.1388C68.1476 10.1145 68.1966 9.93188 68.2606 9.69354C68.3845 9.23191 68.5646 8.56121 68.1967 8.4268C67.9313 8.32986 67.5191 8.46756 67.3597 9.32354C67.2394 9.96931 67.2397 10.2308 67.2401 10.7029L67.2401 10.7529C66.9185 11.3442 64.76 15.3741 64.76 17.04C64.76 18.2418 65.075 18.5241 66.1478 19.486L66.148 19.4861L66.148 19.4861C66.3964 19.7088 66.6854 19.968 67.0206 20.2834L64.1459 24.2444C63.3749 24.4741 61.5479 23.8382 59.7056 23.1971L59.7055 23.1971C57.5729 22.4549 55.4198 21.7056 54.8606 22.2834C54.575 22.5785 54.7637 23.0925 54.9545 23.6121L54.9545 23.6121C55.0395 23.8435 55.1249 24.0759 55.169 24.2907L50.5007 23.4469C50.1874 23.3778 50.0501 22.9063 50.0228 22.5945C50.1053 22.1184 50.3061 20.766 50.2607 20.5269C50.2283 20.3563 50.1521 20.2901 49.9064 20.1601L48.04 23.9389C48.4763 24.2922 49.0601 24.436 49.6207 24.4869L49.6208 24.4867C50.1464 24.6336 52.4174 25.2729 54.5973 25.9534C54.1251 27.4012 54.4721 28.9745 54.797 30.2455L51.9326 37.5517C51.8042 37.8457 51.3149 37.8892 51.0037 37.8554C50.5524 37.6823 49.2647 37.2236 49.0214 37.2219C48.8477 37.2207 48.768 37.2826 48.5929 37.4984L51.9389 40.061C52.37 39.7014 52.6241 39.1565 52.7826 38.6164L52.7824 38.6162C53.0837 38.0193 54.6173 34.9948 55.9153 32.6961C56.6003 33.1151 57.5443 33.0688 58.1806 32.7634C58.6732 32.5269 59.3959 32.5171 60.2396 32.5055H60.2397H60.2397C61.4569 32.4889 62.9262 32.4688 64.32 31.76C65.242 31.2912 67.0997 29.4601 67.474 28.5351C69.3585 27.152 70.5572 26.3948 72.342 25.4712C72.6904 25.8332 73.0321 26.2072 73.3562 26.5621L73.3563 26.5621C74.0089 27.2766 74.5905 27.9133 75.0132 28.217C76.1181 29.0109 77.0555 28.5729 77.7961 27.7758C78.1973 27.344 78.4947 26.2396 78.808 25.0758L78.8082 25.0753L78.8083 25.0746C78.9508 24.5452 79.0967 24.0036 79.2571 23.5074H79.2587C79.4606 23.0282 79.5779 22.6867 79.7209 22.0178C79.8997 21.1816 79.571 20.8964 79.2886 20.8806C78.8971 20.8587 78.808 21.5354 78.7467 22.0012C78.715 22.2416 78.6908 22.4259 78.6361 22.4287C78.5568 22.4328 78.5721 22.2921 78.5894 22.1329L78.5894 22.1328C78.6048 21.9903 78.6219 21.8331 78.5743 21.7515C78.4319 21.5389 78.3275 21.6577 78.2755 21.8426C78.1781 22.1881 78.222 22.5876 78.2659 22.9872L78.2659 22.9875L78.2661 22.9895C78.2811 23.1262 78.2961 23.2629 78.3054 23.3974C78.1643 23.7852 77.0318 26.817 76.1332 26.817C75.1732 26.817 73.9201 23.5968 73.9201 23.5968L73.9186 23.5971L72.7641 21.1143L72.7692 21.1079C72.8398 21.0151 72.9277 20.8751 73.033 20.7075L73.033 20.7074C73.1322 20.5496 73.2468 20.3671 73.3769 20.1763C74.2197 20.577 75.2551 20.2845 76.233 19.2537C79.8036 21.3106 80.857 18.5545 81.52 16.56C82.2002 15.8884 81.8202 14.4645 81.4997 13.2633C81.2481 12.3208 81.0332 11.5154 81.3958 11.3182C82.2419 10.8582 82.0734 10.5017 81.8301 9.98667C81.6861 9.68178 81.5158 9.32134 81.5142 8.85096C81.5124 8.28221 81.6137 7.95583 81.7051 7.6615C81.817 7.30125 81.9139 6.98899 81.7884 6.33906C81.6761 5.75751 81.2205 5.51993 80.7162 5.25703C80.1966 4.98608 79.6253 4.68823 79.3253 3.95918C76.6227 -2.60826 71.7577 2.05109 72.2076 3.81398C72.431 4.6891 72.9925 5.30214 73.8518 6.2402L73.8526 6.24097L73.8541 6.24262L73.8547 6.2433L73.8565 6.24529L73.8567 6.24548C73.9205 6.31512 73.9859 6.38655 74.053 6.46002C74.3408 6.77541 74.4015 7.2261 74.4559 7.63042C74.4985 7.94687 74.5372 8.23491 74.6781 8.40743C75.1837 9.02652 75.7816 9.25025 76.2479 9.42474C76.6388 9.57101 76.9372 9.68267 77.0111 9.96365Z" fill="white"/>
<g clip-path="url(#clip0_547_8040)">
<path d="M75.4755 13.1149C75.4755 13.1149 78.2017 11.0131 81.2803 13.2915C83.5752 14.9942 83.9238 18.4994 83.0516 20.0847C82.8479 20.455 82.5502 20.1238 82.5502 20.1238C82.5502 20.1238 82.6255 18.7266 81.9478 18.3353C81.3527 17.9918 80.4501 18.6528 80.4501 18.6528C80.4501 18.6528 79.3333 17.9079 77.1083 15.7076C74.8832 13.5073 75.4755 13.1149 75.4755 13.1149Z" fill="url(#paint0_linear_547_8040)"/>
<path d="M80.7158 18.3575C80.8622 18.7806 79.9044 19.9537 79.4698 19.9273C79.2386 19.913 79.2864 18.7093 76.9767 16.4942C75.1412 14.7332 74.1369 14.4339 74.1605 14.2281C74.1841 14.0224 75.0072 12.9578 75.4755 13.1149C77.0748 13.6486 79.9814 16.2354 80.7158 18.3575Z" fill="url(#paint1_linear_547_8040)"/>
<path d="M82.6982 21.4206C83.1702 21.3788 83.5191 20.9623 83.4774 20.4903C83.4357 20.0182 83.0192 19.6694 82.5471 19.7111C82.0751 19.7528 81.7262 20.1693 81.7679 20.6414C81.8096 21.1134 82.2261 21.4623 82.6982 21.4206Z" fill="url(#paint2_linear_547_8040)"/>
</g>
<path d="M18.976 44.256L15.392 55.456H11.344L9.536 49.472L7.632 55.456H3.584L0 44.256H3.888L5.84 50.624L7.904 44.256H11.376L13.328 50.704L15.392 44.256H18.976Z" fill="white"/>
<path d="M25.5146 55.712C24.3093 55.712 23.2266 55.4613 22.2666 54.96C21.3066 54.4587 20.5546 53.7653 20.0106 52.88C19.4666 51.984 19.1946 50.976 19.1946 49.856C19.1946 48.736 19.4666 47.7333 20.0106 46.848C20.5546 45.952 21.3066 45.2533 22.2666 44.752C23.2266 44.2507 24.3093 44 25.5146 44C26.72 44 27.8026 44.2507 28.7626 44.752C29.7226 45.2533 30.4746 45.952 31.0186 46.848C31.5626 47.7333 31.8346 48.736 31.8346 49.856C31.8346 50.976 31.5626 51.984 31.0186 52.88C30.4746 53.7653 29.7226 54.4587 28.7626 54.96C27.8026 55.4613 26.72 55.712 25.5146 55.712ZM25.5146 52.656C25.984 52.656 26.4053 52.544 26.7786 52.32C27.1626 52.0853 27.4666 51.76 27.6906 51.344C27.9146 50.9173 28.0266 50.4213 28.0266 49.856C28.0266 49.2907 27.9146 48.8 27.6906 48.384C27.4666 47.9573 27.1626 47.632 26.7786 47.408C26.4053 47.1733 25.984 47.056 25.5146 47.056C25.0453 47.056 24.6186 47.1733 24.2346 47.408C23.8613 47.632 23.5626 47.9573 23.3386 48.384C23.1146 48.8 23.0026 49.2907 23.0026 49.856C23.0026 50.4213 23.1146 50.9173 23.3386 51.344C23.5626 51.76 23.8613 52.0853 24.2346 52.32C24.6186 52.544 25.0453 52.656 25.5146 52.656Z" fill="white"/>
<path d="M44.2451 44.256V55.456H41.1411L36.8851 50.368V55.456H33.2051V44.256H36.3091L40.5651 49.344V44.256H44.2451Z" fill="white"/>
<path d="M46.0645 44.256H51.5845C52.8325 44.256 53.9312 44.4853 54.8805 44.944C55.8405 45.392 56.5818 46.0373 57.1045 46.88C57.6378 47.7227 57.9045 48.7147 57.9045 49.856C57.9045 50.9973 57.6378 51.9893 57.1045 52.832C56.5818 53.6747 55.8405 54.3253 54.8805 54.784C53.9312 55.232 52.8325 55.456 51.5845 55.456H46.0645V44.256ZM51.4245 52.512C52.2352 52.512 52.8805 52.2827 53.3605 51.824C53.8512 51.3547 54.0965 50.6987 54.0965 49.856C54.0965 49.0133 53.8512 48.3627 53.3605 47.904C52.8805 47.4347 52.2352 47.2 51.4245 47.2H49.8405V52.512H51.4245Z" fill="white"/>
<path d="M68.5952 52.608V55.456H59.2832V44.256H68.3872V47.104H62.9953V48.416H67.7312V51.136H62.9953V52.608H68.5952Z" fill="white"/>
<path d="M74.8489 52.64H73.8249V55.456H70.0489V44.256H75.4409C76.4755 44.256 77.3769 44.4267 78.1449 44.768C78.9129 45.1093 79.5049 45.6 79.9209 46.24C80.3369 46.88 80.5449 47.6267 80.5449 48.48C80.5449 49.28 80.3635 49.9787 80.0009 50.576C79.6382 51.1733 79.1155 51.648 78.4329 52L80.7849 55.456H76.7529L74.8489 52.64ZM76.7369 48.48C76.7369 48.064 76.6089 47.744 76.3529 47.52C76.0969 47.2853 75.7129 47.168 75.2009 47.168H73.8249V49.792H75.2009C75.7129 49.792 76.0969 49.68 76.3529 49.456C76.6089 49.2213 76.7369 48.896 76.7369 48.48Z" fill="white"/>
<path d="M81.9707 44.256H85.7467V52.528H90.8027V55.456H81.9707V44.256Z" fill="white"/>
<path d="M99.634 53.504H95.378L94.626 55.456H90.786L95.682 44.256H99.394L104.29 55.456H100.386L99.634 53.504ZM98.594 50.784L97.506 47.968L96.418 50.784H98.594Z" fill="white"/>
<path d="M115.933 44.256V55.456H112.829L108.573 50.368V55.456H104.893V44.256H107.997L112.253 49.344V44.256H115.933Z" fill="white"/>
<path d="M117.752 44.256H123.272C124.52 44.256 125.619 44.4853 126.568 44.944C127.528 45.392 128.269 46.0373 128.792 46.88C129.325 47.7227 129.592 48.7147 129.592 49.856C129.592 50.9973 129.325 51.9893 128.792 52.832C128.269 53.6747 127.528 54.3253 126.568 54.784C125.619 55.232 124.52 55.456 123.272 55.456H117.752V44.256ZM123.112 52.512C123.923 52.512 124.568 52.2827 125.048 51.824C125.539 51.3547 125.784 50.6987 125.784 49.856C125.784 49.0133 125.539 48.3627 125.048 47.904C124.568 47.4347 123.923 47.2 123.112 47.2H121.528V52.512H123.112Z" fill="white"/>
<path fill-rule="evenodd" clip-rule="evenodd" d="M128.034 45.7997C129.07 46.7038 129.182 48.2827 128.285 49.3263C95.2292 87.7832 41.6866 88.2619 3.99139 55.8725C2.94894 54.9768 2.82427 53.3989 3.71294 52.3482C4.60161 51.2974 6.16711 51.1718 7.20957 52.0675C42.8347 82.6781 93.2664 82.4309 124.536 46.0522C125.433 45.0087 126.999 44.8957 128.034 45.7997Z" fill="url(#paint3_linear_547_8040)"/>
<path fill-rule="evenodd" clip-rule="evenodd" d="M29.2059 57.3826C30.4397 56.7828 31.9224 57.3046 32.5175 58.5482C34.3305 62.3367 36.4999 66.0705 39.0411 69.6529L40.9398 72.3297L37.8723 73.4559C30.946 75.9989 23.3925 77.7121 15.2176 78.3461C13.8518 78.452 12.6594 77.4219 12.5543 76.0453C12.4492 74.6686 13.4712 73.4668 14.837 73.3609C21.3729 72.854 27.471 71.6186 33.135 69.8026C31.2131 66.8372 29.5206 63.7947 28.0495 60.7205C27.4544 59.4769 27.9721 57.9825 29.2059 57.3826Z" fill="url(#paint4_linear_547_8040)"/>
<path fill-rule="evenodd" clip-rule="evenodd" d="M19.4237 50.2824C20.735 49.8829 22.1193 50.6305 22.5156 51.9522C23.9448 56.7186 25.9125 61.4932 28.4213 66.1546L29.9978 69.0839L26.7666 69.7899C22.3294 70.7595 17.6629 71.3579 12.8338 71.5903C11.4655 71.6561 10.3033 70.5915 10.238 69.2124C10.1726 67.8332 11.2289 66.6618 12.5972 66.596C16.0153 66.4315 19.3303 66.0743 22.5172 65.5266C20.571 61.5317 18.9872 57.4678 17.7671 53.3987C17.3708 52.0771 18.1125 50.6818 19.4237 50.2824Z" fill="url(#paint5_linear_547_8040)"/>
<path fill-rule="evenodd" clip-rule="evenodd" d="M37.5415 59.4193C38.7101 58.699 40.2368 59.0699 40.9515 60.2478C43.4071 64.2952 46.342 68.2536 49.7105 72.0227L51.8633 74.4317L49.0045 75.9178C42.5362 79.2805 35.3056 82.0092 27.3773 83.7226C26.0379 84.012 24.7193 83.1523 24.4321 81.8022C24.1449 80.4522 24.9979 79.1232 26.3373 78.8337C32.6705 77.4651 38.5314 75.4094 43.8845 72.8844C41.1996 69.6486 38.8022 66.2892 36.7195 62.8564C36.0048 61.6785 36.3728 60.1397 37.5415 59.4193Z" fill="url(#paint6_linear_547_8040)"/>
<path fill-rule="evenodd" clip-rule="evenodd" d="M48.0373 63.4777C49.0874 62.591 50.6517 62.7303 51.5314 63.7887C54.1842 66.9806 57.1813 70.0413 60.5072 72.9045L62.9485 75.0062L60.3145 76.8566C54.3481 81.0478 47.5607 84.6645 40.0174 87.3916C38.7279 87.8578 37.3078 87.1821 36.8453 85.8825C36.3828 84.5828 37.0532 83.1514 38.3426 82.6852C44.3752 80.5043 49.8891 77.723 54.8488 74.5247C52.27 72.1232 49.8939 69.6047 47.7287 66.9995C46.8491 65.9411 46.9872 64.3643 48.0373 63.4777Z" fill="url(#paint7_linear_547_8040)"/>
<path fill-rule="evenodd" clip-rule="evenodd" d="M57.937 64.852C58.8686 63.8398 60.4379 63.7804 61.4422 64.7194C64.4247 67.5081 67.727 70.1284 71.3505 72.5326L74.0351 74.3137L71.6452 76.4797C66.2438 81.3751 59.9666 85.7495 52.8831 89.4195C51.6648 90.0508 50.1695 89.567 49.5432 88.339C48.917 87.111 49.3969 85.6039 50.6152 84.9726C56.3016 82.0265 61.4178 78.6133 65.9314 74.8463C63.1174 72.8158 60.4962 70.6549 58.0685 68.3851C57.0643 67.4461 57.0054 65.8643 57.937 64.852Z" fill="url(#paint8_linear_547_8040)"/>
<path fill-rule="evenodd" clip-rule="evenodd" d="M66.2213 63.5397C67.0501 62.4403 68.6061 62.2262 69.6968 63.0615C73.4322 65.9222 77.5879 68.5122 82.1184 70.7785L84.9918 72.216L82.8884 74.6572C78.1238 80.1867 72.4221 85.3171 65.9172 89.8664C64.7918 90.6535 63.2463 90.372 62.4654 89.2376C61.6845 88.1032 61.9638 86.5455 63.0893 85.7584C68.3286 82.0942 72.9952 78.0509 77.0208 73.7429C73.3275 71.7201 69.8766 69.4787 66.6957 67.0427C65.605 66.2074 65.3926 64.6391 66.2213 63.5397Z" fill="url(#paint9_linear_547_8040)"/>
<path fill-rule="evenodd" clip-rule="evenodd" d="M77.4713 63.4921C78.1254 62.2789 79.6313 61.8299 80.8349 62.4892C84.46 64.4747 88.383 66.1994 92.5901 67.6282L95.668 68.6735L93.8571 71.3912C89.7962 77.4856 84.7897 83.3168 78.8416 88.6347C77.8168 89.5509 76.2491 89.4563 75.3401 88.4234C74.4311 87.3905 74.525 85.8104 75.5498 84.8942C80.3154 80.6335 84.4325 76.0344 87.9035 71.2441C84.5876 69.9692 81.439 68.5106 78.4664 66.8824C77.2628 66.2232 76.8173 64.7053 77.4713 63.4921Z" fill="url(#paint10_linear_547_8040)"/>
<path fill-rule="evenodd" clip-rule="evenodd" d="M85.0456 60.1334C85.5783 58.8613 87.0331 58.2653 88.2952 58.8021C92.7087 60.6794 97.48 62.177 102.558 63.1661L105.778 63.7933L104.303 66.7454C100.998 73.357 96.6873 79.7588 91.4418 85.7656C90.5367 86.8021 88.9695 86.9027 87.9412 85.9905C86.9129 85.0782 86.8131 83.4985 87.7181 82.4621C91.9292 77.6398 95.4874 72.5711 98.362 67.3677C94.1409 66.3535 90.1331 65.0109 86.3664 63.4087C85.1044 62.8719 84.513 61.4054 85.0456 60.1334Z" fill="url(#paint11_linear_547_8040)"/>
<path fill-rule="evenodd" clip-rule="evenodd" d="M95.3442 57.0778C95.6818 55.7397 97.0317 54.9308 98.3593 55.2711C102.685 56.38 107.283 57.1018 112.094 57.3922L115.383 57.5908L114.284 60.7219C111.806 67.7768 108.318 74.6877 103.829 81.3295C103.058 82.4706 101.515 82.7655 100.383 81.9881C99.2508 81.2108 98.9583 79.6556 99.7295 78.5145C103.333 73.1835 106.241 67.6921 108.461 62.114C104.544 61.7171 100.759 61.0453 97.1367 60.1168C95.8091 59.7765 95.0066 58.4159 95.3442 57.0778Z" fill="url(#paint12_linear_547_8040)"/>
<path fill-rule="evenodd" clip-rule="evenodd" d="M124.23 50.019L123.484 53.3494C122.35 58.4101 120.738 63.4933 118.651 68.5177C118.122 69.7913 116.669 70.3914 115.405 69.8582C114.142 69.3249 113.547 67.8602 114.076 66.5866C115.605 62.9061 116.861 59.1997 117.846 55.5041C116.297 55.5654 114.763 55.5779 113.247 55.5445C111.877 55.5144 110.792 54.3709 110.821 52.9906C110.851 51.6102 111.986 50.5156 113.355 50.5457C115.807 50.5997 118.311 50.5252 120.855 50.3077L124.23 50.019Z" fill="url(#paint13_linear_547_8040)"/>
<ellipse cx="104.197" cy="72" rx="4.96063" ry="5" fill="url(#paint14_radial_547_8040)"/>
<ellipse cx="84.3544" cy="78" rx="4.96063" ry="5" fill="url(#paint15_radial_547_8040)"/>
<ellipse cx="60.5434" cy="80" rx="4.96063" ry="5" fill="url(#paint16_radial_547_8040)"/>
<ellipse cx="72.4489" cy="70.0522" rx="4.96063" ry="5.5" fill="url(#paint17_radial_547_8040)"/>
<ellipse cx="50.622" cy="69.5522" rx="4.96063" ry="5" fill="url(#paint18_radial_547_8040)"/>
<ellipse cx="37.7243" cy="77" rx="4.96063" ry="5" fill="url(#paint19_radial_547_8040)"/>
<ellipse cx="28.7953" cy="63.5522" rx="4.96063" ry="5" fill="url(#paint20_radial_547_8040)"/>
<ellipse cx="93.2834" cy="63.5522" rx="4.96063" ry="5" fill="url(#paint21_radial_547_8040)"/>
<ellipse cx="109.157" cy="57" rx="4.96063" ry="5" fill="url(#paint22_radial_547_8040)"/>
<path d="M117.752 44.2559H123.272C124.52 44.2559 125.619 44.4852 126.568 44.9439C127.528 45.3919 128.269 46.0372 128.792 46.8799C129.325 47.7225 129.592 48.7145 129.592 49.8559C129.592 50.9972 129.325 51.9892 128.792 52.8319C128.269 53.6745 127.528 54.3252 126.568 54.7839C125.619 55.2319 124.52 55.4559 123.272 55.4559H117.752V44.2559ZM123.112 52.5119C123.923 52.5119 124.568 52.2825 125.048 51.8239C125.539 51.3545 125.784 50.6985 125.784 49.8559C125.784 49.0132 125.539 48.3625 125.048 47.9039C124.568 47.4345 123.923 47.1999 123.112 47.1999H121.528V52.5119H123.112Z" fill="white"/>
<path d="M18.976 44.2559L15.392 55.4559H11.344L9.536 49.4719L7.632 55.4559H3.584L0 44.2559H3.888L5.84 50.6239L7.904 44.2559H11.376L13.328 50.7039L15.392 44.2559H18.976Z" fill="white"/>
<defs>
<linearGradient id="paint0_linear_547_8040" x1="81.2165" y1="13.2078" x2="78.5445" y2="17.8359" gradientUnits="userSpaceOnUse">
<stop stop-color="#FF7F7D"/>
<stop offset="1" stop-color="#D90300"/>
</linearGradient>
<linearGradient id="paint1_linear_547_8040" x1="78.4236" y1="14.7275" x2="76.4301" y2="18.1803" gradientUnits="userSpaceOnUse">
<stop stop-color="#C4D1FF"/>
<stop offset="1" stop-color="#DDFBFF"/>
</linearGradient>
<linearGradient id="paint2_linear_547_8040" x1="82.5471" y1="19.7111" x2="82.6982" y2="21.4206" gradientUnits="userSpaceOnUse">
<stop stop-color="#C4D1FF"/>
<stop offset="1" stop-color="#DDFBFF"/>
</linearGradient>
<linearGradient id="paint3_linear_547_8040" x1="6.9686" y1="55.0525" x2="129.502" y2="61.943" gradientUnits="userSpaceOnUse">
<stop stop-color="#5A915A"/>
<stop offset="1" stop-color="#266926"/>
</linearGradient>
<linearGradient id="paint4_linear_547_8040" x1="26.4384" y1="58.6974" x2="26.4384" y2="76.79" gradientUnits="userSpaceOnUse">
<stop stop-color="#5A915A"/>
<stop offset="1" stop-color="#266926"/>
</linearGradient>
<linearGradient id="paint5_linear_547_8040" x1="19.9042" y1="51.753" x2="19.9042" y2="70.0149" gradientUnits="userSpaceOnUse">
<stop stop-color="#5A915A"/>
<stop offset="1" stop-color="#266926"/>
</linearGradient>
<linearGradient id="paint6_linear_547_8040" x1="37.8246" y1="60.8738" x2="37.8246" y2="81.9566" gradientUnits="userSpaceOnUse">
<stop stop-color="#5A915A"/>
<stop offset="1" stop-color="#266926"/>
</linearGradient>
<linearGradient id="paint7_linear_547_8040" x1="49.5418" y1="64.71" x2="49.5418" y2="85.7231" gradientUnits="userSpaceOnUse">
<stop stop-color="#5A915A"/>
<stop offset="1" stop-color="#266926"/>
</linearGradient>
<linearGradient id="paint8_linear_547_8040" x1="61.3857" y1="65.9419" x2="61.3857" y2="87.807" gradientUnits="userSpaceOnUse">
<stop stop-color="#5A915A"/>
<stop offset="1" stop-color="#266926"/>
</linearGradient>
<linearGradient id="paint9_linear_547_8040" x1="73.2606" y1="64.5976" x2="73.2606" y2="88.2671" gradientUnits="userSpaceOnUse">
<stop stop-color="#5A915A"/>
<stop offset="1" stop-color="#266926"/>
</linearGradient>
<linearGradient id="paint10_linear_547_8040" x1="84.9666" y1="64.1807" x2="84.9666" y2="87.2691" gradientUnits="userSpaceOnUse">
<stop stop-color="#5A915A"/>
<stop offset="1" stop-color="#266926"/>
</linearGradient>
<linearGradient id="paint11_linear_547_8040" x1="95.0891" y1="60.6686" x2="95.0891" y2="84.55" gradientUnits="userSpaceOnUse">
<stop stop-color="#5A915A"/>
<stop offset="1" stop-color="#266926"/>
</linearGradient>
<linearGradient id="paint12_linear_547_8040" x1="105.109" y1="57.1997" x2="105.109" y2="80.4158" gradientUnits="userSpaceOnUse">
<stop stop-color="#5A915A"/>
<stop offset="1" stop-color="#266926"/>
</linearGradient>
<linearGradient id="paint13_linear_547_8040" x1="117.381" y1="51.4952" x2="117.381" y2="68.5766" gradientUnits="userSpaceOnUse">
<stop stop-color="#5A915A"/>
<stop offset="1" stop-color="#266926"/>
</linearGradient>
<radialGradient id="paint14_radial_547_8040" cx="0" cy="0" r="1" gradientUnits="userSpaceOnUse" gradientTransform="translate(105.437 72) rotate(76.07) scale(5.1515 5.11566)">
<stop offset="0.537064" stop-color="#FF6D6B"/>
<stop offset="1" stop-color="#FE4543"/>
</radialGradient>
<radialGradient id="paint15_radial_547_8040" cx="0" cy="0" r="1" gradientUnits="userSpaceOnUse" gradientTransform="translate(85.5946 78) rotate(76.07) scale(5.1515 5.11566)">
<stop offset="0.537064" stop-color="#FF6D6B"/>
<stop offset="1" stop-color="#FE4543"/>
</radialGradient>
<radialGradient id="paint16_radial_547_8040" cx="0" cy="0" r="1" gradientUnits="userSpaceOnUse" gradientTransform="translate(61.7835 80) rotate(76.07) scale(5.1515 5.11566)">
<stop offset="0.537064" stop-color="#FF6D6B"/>
<stop offset="1" stop-color="#FE4543"/>
</radialGradient>
<radialGradient id="paint17_radial_547_8040" cx="0" cy="0" r="1" gradientUnits="userSpaceOnUse" gradientTransform="translate(73.6891 70.0522) rotate(77.2933) scale(5.63808 5.14159)">
<stop offset="0.537064" stop-color="#FF6D6B"/>
<stop offset="1" stop-color="#FE4543"/>
</radialGradient>
<radialGradient id="paint18_radial_547_8040" cx="0" cy="0" r="1" gradientUnits="userSpaceOnUse" gradientTransform="translate(51.8622 69.5522) rotate(76.07) scale(5.1515 5.11566)">
<stop offset="0.537064" stop-color="#FF6D6B"/>
<stop offset="1" stop-color="#FE4543"/>
</radialGradient>
<radialGradient id="paint19_radial_547_8040" cx="0" cy="0" r="1" gradientUnits="userSpaceOnUse" gradientTransform="translate(38.9645 77) rotate(76.07) scale(5.1515 5.11566)">
<stop offset="0.537064" stop-color="#FF6D6B"/>
<stop offset="1" stop-color="#FE4543"/>
</radialGradient>
<radialGradient id="paint20_radial_547_8040" cx="0" cy="0" r="1" gradientUnits="userSpaceOnUse" gradientTransform="translate(30.0355 63.5522) rotate(76.07) scale(5.1515 5.11566)">
<stop offset="0.537064" stop-color="#FF6D6B"/>
<stop offset="1" stop-color="#FE4543"/>
</radialGradient>
<radialGradient id="paint21_radial_547_8040" cx="0" cy="0" r="1" gradientUnits="userSpaceOnUse" gradientTransform="translate(94.5235 63.5522) rotate(76.07) scale(5.1515 5.11566)">
<stop offset="0.537064" stop-color="#FF6D6B"/>
<stop offset="1" stop-color="#FE4543"/>
</radialGradient>
<radialGradient id="paint22_radial_547_8040" cx="0" cy="0" r="1" gradientUnits="userSpaceOnUse" gradientTransform="translate(110.398 57) rotate(76.07) scale(5.1515 5.11566)">
<stop offset="0.537064" stop-color="#FF6D6B"/>
<stop offset="1" stop-color="#FE4543"/>
</radialGradient>
<clipPath id="clip0_547_8040">
<rect width="11.3735" height="6.69707" fill="white" transform="matrix(0.866026 0.499999 -0.500001 0.866025 76.3486 10.4001)"/>
</clipPath>
</defs>
</svg>
