<?xml version="1.0" standalone="no"?>
<!DOCTYPE svg PUBLIC "-//W3C//DTD SVG 20010904//EN"
 "http://www.w3.org/TR/2001/REC-SVG-20010904/DTD/svg10.dtd">
<svg version="1.0" xmlns="http://www.w3.org/2000/svg"
 width="864.000000pt" height="864.000000pt" viewBox="0 0 864.000000 864.000000"
 preserveAspectRatio="xMidYMid meet">
<metadata>
Created by potrace 1.14, written by Peter Selinger 2001-2017
</metadata>
<g transform="translate(0.000000,864.000000) scale(0.100000,-0.100000)"
fill="#000000" stroke="none">
<path d="M4305 8628 c-3 -12 -9 -45 -20 -133 -3 -16 -6 -41 -9 -55 -2 -14 -7
-45 -10 -70 -4 -25 -9 -56 -11 -70 -2 -14 -7 -50 -11 -80 -3 -30 -7 -57 -9
-60 -1 -3 -6 -30 -9 -61 -4 -31 -8 -66 -10 -76 -3 -11 -7 -44 -11 -73 -4 -29
-8 -60 -10 -69 -3 -15 -20 -132 -31 -211 -2 -19 -6 -42 -9 -50 -2 -8 -6 -42
-10 -75 -3 -33 -8 -69 -11 -80 -4 -19 -7 -39 -19 -132 -3 -21 -7 -53 -10 -71
-3 -17 -8 -49 -11 -69 -2 -20 -6 -49 -9 -64 -5 -27 -14 -93 -20 -139 -5 -41
-17 -124 -21 -145 -2 -11 -7 -40 -10 -65 -3 -25 -7 -52 -9 -60 -1 -8 -6 -40
-10 -70 -4 -30 -9 -64 -11 -75 -4 -18 -6 -35 -19 -130 -4 -30 -11 -80 -21
-145 -3 -19 -7 -46 -9 -60 -1 -14 -5 -43 -9 -65 -3 -22 -12 -87 -21 -145 -8
-58 -17 -116 -20 -130 -2 -14 -7 -47 -11 -75 -3 -27 -7 -59 -9 -70 -2 -11 -10
-72 -20 -135 -9 -63 -18 -126 -21 -140 -3 -14 -7 -45 -10 -70 -2 -25 -7 -57
-9 -72 -9 -51 -14 -83 -20 -128 -6 -47 -9 -65 -20 -140 -10 -70 -13 -92 -20
-140 -4 -25 -10 -61 -14 -80 -4 -20 -7 -44 -5 -55 2 -10 0 -23 -3 -29 -4 -6
-8 -24 -10 -41 -5 -46 -11 -89 -14 -95 -1 -3 -1 -8 -1 -11 1 -4 -3 -35 -9 -70
-10 -67 -13 -86 -24 -159 -4 -25 -8 -56 -10 -70 -3 -14 -7 -47 -9 -74 -3 -26
-8 -56 -10 -65 -3 -9 -8 -38 -11 -66 -4 -27 -8 -59 -9 -70 -2 -11 -6 -40 -10
-65 -21 -138 -20 -138 -31 -215 -4 -27 -8 -57 -10 -65 -1 -8 -6 -40 -10 -70
-4 -30 -9 -64 -11 -75 -5 -21 -12 -74 -29 -205 -3 -25 -8 -56 -11 -70 -4 -26
-10 -63 -19 -127 -3 -21 -12 -81 -20 -133 -7 -52 -16 -115 -20 -140 -3 -25 -8
-56 -10 -70 -3 -14 -7 -45 -10 -70 -3 -25 -8 -57 -10 -71 -3 -14 -7 -41 -9
-60 -5 -38 -13 -91 -22 -146 -3 -21 -7 -51 -9 -68 -9 -75 -27 -190 -30 -193
-2 -2 32 -120 69 -237 8 -25 18 -51 27 -67 5 -10 9 -26 9 -36 0 -10 3 -22 7
-26 4 -3 8 -14 9 -23 2 -10 7 -26 12 -38 6 -11 20 -47 32 -80 12 -33 26 -69
31 -80 4 -11 22 -56 39 -100 17 -44 35 -89 40 -100 5 -11 21 -49 36 -85 14
-36 37 -89 50 -118 13 -29 24 -55 24 -57 0 -3 23 -53 50 -111 28 -58 50 -108
50 -110 0 -8 212 -455 232 -489 15 -25 52 -98 53 -105 1 -3 15 -32 32 -65 18
-33 56 -107 86 -165 30 -57 60 -106 66 -108 6 -2 17 2 24 10 17 17 387 759
387 776 0 6 5 12 12 12 6 0 9 3 6 6 -3 3 12 41 33 85 21 44 39 81 39 84 0 2
13 32 29 67 16 35 41 92 56 128 15 36 31 72 36 80 5 8 12 22 15 30 3 8 36 89
73 180 36 91 66 167 66 170 1 5 40 112 52 140 3 8 7 17 8 20 1 3 4 12 8 20 15
38 78 228 83 249 3 13 9 31 13 40 8 15 23 82 23 106 1 11 -10 85 -17 125 -3
14 -8 48 -11 75 -8 62 -9 69 -19 130 -5 28 -10 57 -10 65 -2 24 -17 133 -21
155 -5 22 -12 68 -18 118 -9 63 -19 132 -22 152 -9 46 -14 83 -19 125 -2 25
-7 56 -10 70 -3 14 -7 43 -10 65 -2 22 -6 49 -8 60 -3 11 -8 47 -12 80 -4 32
-9 68 -11 80 -2 11 -7 38 -10 60 -2 22 -7 51 -9 65 -2 14 -6 45 -10 70 -3 25
-8 59 -12 75 -3 17 -7 46 -9 65 -1 19 -4 44 -7 55 -3 11 -8 45 -12 75 -4 30
-9 64 -11 75 -3 11 -6 38 -8 60 -3 22 -11 85 -20 140 -9 55 -18 118 -20 140
-3 22 -5 40 -6 40 -3 0 -6 23 -25 170 -2 11 -8 56 -15 100 -7 44 -13 89 -15
100 -1 11 -5 38 -8 60 -4 22 -9 56 -12 75 -2 19 -7 46 -9 60 -5 29 -14 97 -21
155 -3 22 -7 51 -10 65 -3 14 -7 43 -10 65 -2 22 -6 49 -9 60 -2 12 -7 48 -11
80 -4 33 -9 69 -11 80 -2 11 -6 38 -9 60 -3 22 -8 51 -11 65 -3 14 -7 43 -9
65 -2 22 -6 51 -9 65 -2 14 -7 45 -10 70 -12 84 -16 116 -21 140 -3 14 -7 45
-10 70 -3 25 -7 56 -10 70 -8 51 -17 116 -20 140 -1 14 -5 39 -8 55 -3 17 -9
50 -12 75 -3 25 -7 54 -9 65 -2 12 -8 48 -12 80 -8 61 -10 73 -13 78 -1 1 -4
29 -7 62 -3 33 -9 75 -14 93 -5 18 -7 42 -5 52 2 11 1 20 -3 20 -4 0 -7 10 -8
23 0 12 -4 47 -8 77 -4 30 -10 69 -12 85 -2 17 -6 41 -9 55 -5 23 -8 43 -21
140 -2 19 -6 46 -8 60 -2 14 -7 49 -11 79 -4 30 -9 63 -11 75 -2 12 -6 32 -8
46 -3 14 -8 48 -11 75 -3 28 -8 61 -10 75 -3 14 -7 41 -9 60 -2 19 -7 50 -10
69 -4 19 -8 53 -10 77 -2 23 -6 46 -8 50 -2 5 -5 23 -6 39 -2 17 -4 37 -6 45
-1 8 -6 38 -10 65 -4 28 -10 61 -12 75 -2 14 -7 48 -10 75 -5 47 -7 60 -18
118 -4 19 -18 121 -21 152 -10 89 -30 192 -39 197 -16 11 -26 10 -31 -4z"/>
<path d="M2810 7649 c-8 -11 -34 -47 -56 -78 -23 -32 -110 -161 -194 -287 -84
-126 -161 -241 -171 -256 -10 -15 -19 -29 -19 -32 0 -2 -17 -31 -37 -63 -21
-32 -43 -67 -50 -78 -20 -34 -125 -208 -153 -255 -49 -80 -122 -210 -198 -350
-19 -36 -43 -78 -52 -95 -54 -91 -219 -428 -214 -436 9 -15 56 0 189 61 190
88 223 75 175 -66 -11 -32 -23 -72 -26 -88 -3 -17 -10 -36 -16 -43 -6 -7 -7
-13 -3 -13 4 0 3 -6 -3 -12 -6 -7 -11 -16 -11 -20 -1 -5 -1 -9 -2 -10 0 -2 -2
-11 -4 -20 -2 -9 -14 -52 -28 -95 -13 -43 -32 -105 -42 -138 -10 -33 -24 -78
-31 -100 -12 -35 -58 -182 -69 -225 -3 -8 -18 -58 -34 -110 -102 -328 -153
-493 -155 -505 -2 -5 -22 -71 -45 -145 -40 -127 -60 -190 -161 -520 -83 -271
-131 -427 -155 -500 -27 -84 -86 -280 -90 -295 -1 -5 -5 -17 -8 -25 -7 -20
-28 -88 -31 -103 -2 -7 -6 -19 -9 -27 -9 -23 -31 -94 -33 -106 -1 -6 -19 -64
-39 -130 -76 -244 -94 -301 -114 -369 -11 -38 -21 -74 -22 -80 0 -5 -4 -14 -9
-20 -4 -5 -11 -26 -16 -45 -4 -19 -9 -42 -11 -50 -2 -8 -5 -21 -5 -27 -1 -7
-5 -13 -10 -13 -4 0 -8 -6 -8 -14 0 -8 -30 -110 -66 -228 -36 -117 -67 -217
-68 -223 -2 -5 -21 -68 -44 -140 -56 -179 -57 -184 -38 -191 8 -3 36 3 61 15
25 12 64 30 88 41 24 11 47 20 51 20 4 0 36 14 72 30 57 27 109 50 124 55 9 3
54 23 105 46 28 12 52 23 55 23 3 1 11 5 18 9 6 5 12 5 12 0 0 -4 4 -3 8 3 4
6 38 23 76 39 38 15 77 31 85 36 9 5 97 43 196 85 99 42 208 89 243 105 35 16
65 29 67 29 3 0 35 14 72 31 38 17 88 39 113 49 25 10 68 29 95 41 28 13 52
24 55 24 8 2 48 20 192 84 76 33 149 63 163 67 14 3 25 10 25 15 0 5 7 9 14 9
8 0 49 16 92 35 42 19 81 35 87 35 6 0 18 7 27 15 9 8 25 16 36 19 42 9 64 19
64 29 0 6 3 8 6 5 5 -6 79 24 151 60 28 14 32 22 38 71 4 30 8 62 10 71 3 14
11 72 20 143 12 85 23 162 30 197 3 14 7 49 10 79 3 29 7 56 9 60 2 3 7 31 10
61 3 30 8 64 10 75 2 11 7 45 11 75 4 30 9 64 11 75 6 35 13 88 19 135 3 25 8
59 11 75 7 40 11 67 19 143 6 52 4 62 -8 62 -13 0 -65 -21 -211 -84 -133 -58
-225 -96 -231 -96 -3 0 -25 -9 -48 -19 -23 -10 -87 -38 -142 -60 -55 -23 -109
-46 -120 -51 -11 -5 -92 -39 -180 -76 -88 -36 -179 -75 -202 -85 -51 -23 -76
-24 -94 -3 -13 16 -7 69 26 234 5 26 14 78 20 120 2 14 6 34 8 45 5 23 14 75
22 125 5 33 23 133 45 245 5 28 11 66 14 85 3 19 16 96 30 170 13 74 22 138
19 143 -2 4 0 7 4 7 5 0 9 8 9 18 1 9 4 35 8 57 4 22 9 51 11 65 1 14 8 52 14
85 7 33 21 110 31 170 11 61 22 121 24 135 7 34 44 246 51 294 4 21 9 48 11
60 3 11 7 33 9 48 4 29 22 129 30 168 3 14 7 39 10 55 2 17 6 40 9 51 5 22 12
68 22 132 3 20 7 44 9 52 3 8 7 33 11 55 3 22 9 58 14 80 5 22 12 63 16 90 3
28 8 53 10 56 1 3 6 28 10 55 3 27 8 51 9 54 3 5 14 68 20 115 1 11 3 20 5 20
1 0 3 9 4 20 3 20 18 115 21 125 0 3 4 27 9 53 4 27 10 59 12 70 3 12 7 39 10
60 8 49 12 72 14 72 1 0 3 11 5 25 5 47 17 115 21 122 2 3 7 28 10 55 3 26 9
64 14 83 5 19 11 53 14 75 3 22 7 50 10 61 2 12 7 38 10 59 7 42 45 259 51
290 2 11 6 31 9 45 3 14 12 68 21 120 24 142 24 141 33 192 6 31 6 50 -1 57
-15 15 -21 14 -37 -10z"/>
<path d="M5801 7656 c-6 -7 -9 -20 -6 -27 2 -8 7 -27 10 -44 2 -16 9 -55 15
-85 5 -30 12 -71 15 -90 3 -19 8 -46 10 -60 3 -14 7 -36 10 -50 3 -14 7 -36
10 -50 2 -14 7 -41 10 -60 3 -19 12 -73 20 -120 9 -47 17 -96 19 -110 3 -14 5
-25 6 -25 1 0 3 -11 5 -25 2 -14 10 -65 19 -115 9 -49 18 -103 21 -120 3 -16
10 -52 15 -80 16 -88 23 -129 24 -152 1 -13 3 -23 7 -23 3 0 5 -10 6 -22 1
-27 9 -75 28 -173 18 -91 29 -168 27 -177 -1 -5 1 -8 6 -8 4 0 7 -12 8 -27 0
-27 9 -81 19 -127 3 -12 7 -37 10 -56 5 -33 14 -88 30 -170 4 -19 8 -44 10
-55 1 -11 6 -36 9 -55 4 -19 11 -60 16 -90 5 -30 12 -71 16 -90 3 -19 8 -44
10 -55 2 -11 5 -31 8 -45 10 -47 51 -286 61 -355 4 -26 15 -84 40 -215 3 -19
8 -48 10 -65 2 -16 6 -41 9 -55 8 -35 25 -127 31 -175 4 -22 8 -47 11 -56 2
-9 7 -32 9 -50 3 -19 7 -45 10 -59 5 -26 33 -183 41 -235 3 -16 7 -39 9 -50 2
-11 15 -83 29 -160 13 -77 28 -156 31 -175 4 -19 8 -44 10 -55 2 -18 7 -46 20
-115 2 -14 6 -36 9 -50 5 -22 10 -54 22 -130 2 -14 8 -45 13 -70 5 -25 12 -63
15 -85 4 -22 9 -57 13 -77 3 -24 1 -43 -7 -53 -13 -15 -51 -20 -64 -8 -3 4
-21 12 -39 18 -41 15 -342 141 -382 159 -16 8 -70 31 -120 51 -100 42 -140 58
-188 79 -18 8 -68 29 -112 47 -44 17 -100 40 -123 51 -71 31 -190 78 -200 78
-11 0 -23 -36 -14 -45 3 -3 7 -13 8 -23 10 -81 17 -130 20 -147 6 -34 15 -98
19 -140 2 -22 6 -49 8 -60 3 -11 8 -45 13 -75 9 -68 10 -74 13 -80 1 -3 4 -26
6 -51 2 -25 6 -59 9 -75 12 -67 15 -91 20 -134 3 -25 8 -58 11 -75 11 -68 15
-92 20 -140 3 -27 8 -57 10 -65 2 -8 7 -37 10 -65 3 -27 8 -59 10 -70 2 -11 4
-30 4 -41 1 -16 16 -28 64 -49 34 -15 80 -36 102 -46 22 -10 123 -54 225 -98
102 -43 203 -87 225 -97 22 -9 42 -18 45 -18 3 -1 21 -9 40 -18 19 -9 69 -31
110 -48 41 -18 98 -42 125 -55 107 -48 451 -197 460 -199 17 -5 59 -23 115
-50 29 -14 57 -26 61 -26 5 0 36 -13 71 -29 116 -53 206 -93 218 -96 3 0 21
-8 40 -17 69 -31 126 -56 190 -83 36 -15 85 -36 110 -48 25 -11 50 -22 55 -23
6 -1 51 -20 101 -43 50 -22 102 -42 115 -43 21 -3 24 1 22 26 -1 15 -20 85
-42 155 -49 154 -225 722 -232 749 -1 4 -3 12 -5 17 -28 85 -47 145 -67 215
-14 47 -44 146 -67 220 -23 74 -43 142 -45 150 -2 8 -10 34 -19 58 -8 23 -16
46 -17 50 -1 4 -3 12 -5 17 -1 6 -17 57 -34 115 -38 124 -85 277 -106 340 -8
25 -17 54 -19 64 -4 16 -15 55 -30 104 -3 7 -5 14 -5 17 0 3 -6 22 -14 42 -16
44 -67 209 -71 232 -2 9 -4 17 -5 19 -2 1 -3 5 -5 10 -1 4 -4 14 -8 22 -3 8
-20 62 -37 120 -17 58 -43 141 -57 185 -13 44 -25 85 -27 90 -1 6 -5 16 -9 23
-5 6 -6 12 -3 12 3 0 -2 16 -10 35 -8 19 -14 37 -14 40 0 3 -2 10 -4 17 -2 7
-16 54 -31 103 -15 50 -30 101 -35 115 -16 44 -84 265 -86 277 -1 6 -13 47
-27 90 -14 43 -39 125 -57 183 -17 58 -37 121 -45 140 -7 19 -13 40 -14 45 0
6 -15 55 -32 110 -17 55 -46 152 -66 215 -19 63 -47 155 -63 205 -26 83 -27
91 -13 107 25 27 36 25 198 -47 28 -12 66 -28 85 -35 19 -7 39 -17 45 -22 5
-4 17 -8 27 -8 38 0 26 29 -178 420 -16 30 -33 58 -39 62 -5 4 -6 8 -2 8 5 0
0 12 -11 28 -10 15 -22 34 -25 42 -4 8 -23 42 -41 75 -19 33 -49 87 -66 120
-18 32 -40 70 -51 83 -10 14 -19 28 -19 33 0 4 -13 28 -30 52 -16 25 -30 47
-30 51 0 3 -54 92 -120 197 -66 106 -120 194 -120 196 0 2 -12 20 -26 39 -15
19 -34 48 -43 64 -9 15 -24 39 -33 52 -21 27 -159 232 -173 256 -5 9 -13 19
-16 22 -3 3 -24 32 -47 65 -72 104 -72 104 -91 81z"/>
</g>
</svg>
