<?xml version="1.0" standalone="no"?>
<!DOCTYPE svg PUBLIC "-//W3C//DTD SVG 20010904//EN"
 "http://www.w3.org/TR/2001/REC-SVG-20010904/DTD/svg10.dtd">
<svg version="1.0" xmlns="http://www.w3.org/2000/svg"
 width="700.000000pt" height="700.000000pt" viewBox="0 0 700.000000 700.000000"
 preserveAspectRatio="xMidYMid meet">
<metadata>
Created by potrace 1.14, written by Peter Selinger 2001-2017
</metadata>
<g transform="translate(0.000000,700.000000) scale(0.100000,-0.100000)"
fill="#000000" stroke="none">
<path d="M1065 6925 c-54 -76 -225 -334 -278 -420 -21 -33 -42 -67 -47 -75
-137 -216 -369 -648 -485 -900 -31 -69 -68 -149 -81 -177 -41 -89 -164 -401
-164 -417 0 -25 35 -28 102 -7 328 102 332 102 367 74 24 -20 24 -21 12 -97
-7 -43 -15 -94 -17 -114 -3 -20 -7 -48 -9 -62 -3 -14 -7 -46 -10 -71 -3 -25
-7 -54 -9 -65 -5 -27 -15 -92 -21 -144 -3 -25 -8 -52 -10 -60 -2 -8 -7 -37
-10 -65 -3 -27 -12 -90 -20 -140 -18 -119 -24 -158 -30 -202 -3 -21 -8 -54
-11 -73 -13 -80 -15 -99 -18 -191 -6 -172 26 -315 104 -468 115 -228 314 -419
563 -539 81 -39 209 -87 257 -95 14 -3 43 -10 65 -15 22 -6 62 -14 90 -18 27
-3 61 -8 75 -10 44 -6 253 -5 310 1 45 6 174 30 265 50 11 3 54 12 95 21 86
19 126 37 138 62 5 9 17 55 26 102 14 76 66 356 80 435 3 17 8 43 12 58 10 48
-6 56 -83 41 -122 -22 -205 -29 -378 -29 -176 0 -235 5 -344 30 -75 18 -186
61 -223 86 -14 11 -29 19 -32 19 -6 0 -35 24 -82 67 -99 91 -161 259 -158 428
0 33 4 222 8 420 4 198 9 434 11 525 10 475 16 784 20 955 5 222 16 730 20
963 3 149 2 163 -15 172 -31 16 -36 13 -85 -55z"/>
<path d="M3480 6982 c-32 -10 -198 -94 -246 -125 -238 -151 -489 -437 -647
-738 -25 -47 -50 -95 -55 -105 -39 -73 -52 -124 -30 -124 6 0 167 91 356 201
426 249 388 229 423 217 41 -14 41 -19 -5 -228 -13 -63 -27 -126 -30 -140 -2
-14 -11 -57 -20 -95 -8 -39 -17 -82 -20 -95 -2 -14 -14 -70 -26 -125 -12 -55
-24 -111 -26 -125 -8 -40 -64 -301 -75 -350 -6 -25 -13 -56 -15 -70 -4 -19
-53 -250 -99 -465 -2 -11 -6 -31 -9 -45 -3 -14 -12 -56 -20 -95 -9 -38 -17
-81 -20 -95 -2 -14 -18 -88 -35 -165 -17 -77 -33 -149 -35 -160 -18 -88 -78
-377 -86 -405 -5 -19 -11 -48 -13 -65 -3 -16 -19 -93 -36 -170 -18 -77 -34
-156 -37 -175 -3 -19 -11 -60 -19 -90 -7 -30 -21 -91 -29 -135 -20 -98 -19
-92 -52 -243 -28 -133 -28 -139 19 -194 12 -14 42 -50 66 -79 85 -103 421
-432 545 -534 27 -22 54 -45 60 -50 47 -45 229 -185 240 -185 8 0 29 12 48 28
320 265 409 344 573 507 192 191 338 363 330 388 -2 7 -18 80 -35 162 -17 83
-44 211 -60 285 -16 74 -54 254 -85 400 -30 146 -62 294 -70 330 -8 36 -33
153 -55 260 -23 107 -54 256 -70 330 -16 74 -32 146 -34 160 -2 14 -14 69 -26
124 -12 54 -23 106 -25 115 -15 77 -38 182 -45 211 -5 19 -12 51 -15 70 -3 19
-33 161 -66 315 -34 154 -63 291 -65 305 -2 14 -7 36 -10 50 -3 14 -8 35 -10
48 -3 13 -16 76 -30 140 -14 64 -28 128 -30 142 -3 14 -10 45 -16 70 -22 94
-21 117 2 133 12 9 31 14 42 12 15 -3 223 -121 363 -206 17 -10 46 -27 65 -37
19 -10 92 -53 162 -95 140 -83 163 -93 173 -77 10 15 -98 229 -182 362 -196
312 -429 535 -699 671 -91 47 -127 58 -154 49z"/>
<path d="M5847 6979 c-16 -9 -17 -28 -12 -237 11 -503 15 -679 20 -942 3 -151
7 -365 10 -475 2 -110 7 -337 10 -505 4 -168 8 -368 10 -445 13 -541 8 -605
-61 -735 -86 -163 -248 -264 -502 -309 -88 -16 -142 -19 -297 -16 -193 4 -231
7 -342 29 -58 11 -100 6 -89 -12 2 -4 7 -27 10 -52 3 -25 13 -81 21 -124 17
-90 19 -98 39 -221 8 -49 20 -116 25 -149 12 -70 30 -99 68 -114 39 -15 332
-81 390 -88 26 -3 61 -7 78 -10 39 -5 260 -5 305 1 345 45 619 175 837 395
190 192 302 444 306 690 1 96 -8 233 -17 249 -2 3 -7 30 -10 60 -4 30 -13 96
-21 145 -7 50 -17 109 -20 131 -26 175 -35 236 -40 275 -3 25 -8 56 -11 70 -2
14 -6 41 -8 60 -2 19 -6 49 -9 65 -3 17 -13 84 -23 149 l-17 120 23 18 c30 24
51 23 166 -12 54 -17 106 -33 114 -35 8 -2 46 -13 83 -25 69 -21 107 -20 107
5 0 36 -191 487 -305 718 -70 143 -110 220 -222 427 -142 263 -553 902 -583
907 -8 2 -23 -2 -33 -8z"/>
<path d="M2950 1883 c0 -5 -2 -215 -4 -468 -2 -253 -6 -476 -9 -495 -4 -19 -9
-47 -13 -62 -3 -15 -6 -31 -6 -35 0 -5 -14 -46 -30 -93 -84 -238 -214 -411
-453 -604 -89 -72 -115 -96 -115 -107 0 -5 10 -11 23 -14 12 -3 542 -4 1177
-3 1056 3 1155 4 1158 19 2 11 -30 42 -90 89 -306 240 -473 501 -524 820 -4
25 -8 248 -9 495 -2 248 -3 453 -4 458 0 4 -7 7 -13 7 -12 -1 -42 -26 -148
-124 -61 -57 -209 -179 -307 -254 -88 -66 -81 -66 -143 -15 -8 6 -51 40 -96
75 -90 71 -168 137 -256 218 -33 30 -72 64 -86 77 -27 23 -52 30 -52 16z"/>
</g>
</svg>
