<?xml version="1.0" standalone="no"?>
<!DOCTYPE svg PUBLIC "-//W3C//DTD SVG 20010904//EN"
 "http://www.w3.org/TR/2001/REC-SVG-20010904/DTD/svg10.dtd">
<svg version="1.0" xmlns="http://www.w3.org/2000/svg"
 width="200.000000pt" height="200.000000pt" viewBox="0 0 200.000000 200.000000"
 preserveAspectRatio="xMidYMid meet">
<metadata>
Created by potrace 1.16, written by Peter Selinger 2001-2019
</metadata>
<g transform="translate(-10.000000,220.000000) scale(0.10000,-0.100000)"
fill="#000000" stroke="none">
<path d="M522 1921 l-102 -109 116 -109 116 -109 -35 -75 c-49 -103 -67 -187
-67 -308 0 -122 19 -212 64 -305 l34 -70 -119 -121 c-65 -67 -119 -126 -119
-131 0 -5 48 -57 106 -114 l106 -105 121 126 122 126 66 -33 c191 -98 441 -99
629 -4 l62 31 32 -28 c17 -15 75 -70 129 -122 l98 -95 23 25 c12 13 60 64 107
113 l84 88 -125 118 -124 118 37 78 c48 104 67 188 67 305 0 113 -24 217 -70
309 l-31 62 108 112 c59 61 112 114 117 117 5 4 7 11 5 15 -7 17 -206 204
-216 204 -6 0 -60 -51 -120 -114 l-109 -113 -68 34 c-192 97 -438 98 -626 3
l-61 -31 -47 40 c-26 22 -78 71 -117 110 -38 39 -74 71 -81 71 -6 0 -56 -49
-112 -109z m832 -316 c117 -31 212 -113 269 -233 29 -61 32 -76 32 -162 0 -87
-3 -101 -34 -168 -109 -232 -389 -312 -600 -171 -189 126 -237 399 -103 578
107 142 268 200 436 156z"/>
</g>
</svg>
