<svg xmlns="http://www.w3.org/2000/svg" xmlns:xlink="http://www.w3.org/1999/xlink" viewBox="0 0 185.91452 216.21388"><defs><style>.cls-1{isolation:isolate;}.cls-2{fill:#c19742;}.cls-3{fill:#ffc857;}.cls-4{opacity:0.5;mix-blend-mode:overlay;}.cls-5{fill:url(#linear-gradient);}.cls-6{fill:url(#linear-gradient-2);}.cls-7{fill:url(#linear-gradient-3);}</style><linearGradient id="linear-gradient" x1="46.48057" x2="46.48057" y2="216.21388" gradientUnits="userSpaceOnUse"><stop offset="0" stop-color="#fff" stop-opacity="0.5"/><stop offset="0.12588" stop-color="#d1d1d1" stop-opacity="0.58941"/><stop offset="0.4042" stop-color="#777" stop-opacity="0.76577"/><stop offset="0.65263" stop-color="#363636" stop-opacity="0.8937"/><stop offset="0.85972" stop-color="#0e0e0e" stop-opacity="0.97182"/><stop offset="1"/></linearGradient><linearGradient id="linear-gradient-2" x1="152.36121" y1="24.35024" x2="152.36121" y2="189.19719" xlink:href="#linear-gradient"/><linearGradient id="linear-gradient-3" x1="104.95744" x2="104.95744" y2="216.21388" xlink:href="#linear-gradient"/></defs><g class="cls-1"><g id="Layer_2" data-name="Layer 2"><g id="Layer_1-2" data-name="Layer 1"><path class="cls-2" d="M66.3483,129.68331l-29.10971,12.182a1.09759,1.09759,0,0,1-1.50434-1.20962L56.18239,24.99993a.55273.55273,0,0,0-.99257-.41876,349.7171,349.7171,0,0,0-28.72976,47.945.54843.54843,0,0,0,.71338.73662l7.43642-3.16373a1.09867,1.09867,0,0,1,1.48105,1.33381L.02559,188.48441a.5523.5523,0,0,0,.74439.66686l61.38321-26.605a.563.563,0,0,0,.32571-.42652l4.62155-31.84707A.54782.54782,0,0,0,66.3483,129.68331ZM92.41057.46534,68.96927,161.25113a.68073.68073,0,0,0,.00776.21715c.41095,1.56638,5.428,20.25438,23.48783,54.45084a.55842.55842,0,0,0,.49629.29476V0A.53466.53466,0,0,0,92.41057.46534Z"/><path class="cls-3" d="M185.14456,189.15127l-61.38326-26.605a.563.563,0,0,1-.32567-.42652L118.814,130.27264a.54785.54785,0,0,1,.75219-.58933l29.10972,12.182a1.09759,1.09759,0,0,0,1.50434-1.20962L129.7399,24.99993a.54826.54826,0,0,1,.98482-.41876,349.71822,349.71822,0,0,1,28.72976,47.945.54845.54845,0,0,1-.71343.73662l-7.43637-3.16373a1.09872,1.09872,0,0,0-1.48111,1.33381l36.06537,117.05149A.55231.55231,0,0,1,185.14456,189.15127Z"/><path class="cls-3" d="M116.94527,161.25113a.51311.51311,0,0,1-.00776.21715c-.40324,1.56638-5.428,20.25438-23.48784,54.45084a.55546.55546,0,0,1-.48852.29476V0A.53241.53241,0,0,1,93.504.46534Z"/><g class="cls-4"><path class="cls-5" d="M66.3483,129.68331l-29.10971,12.182a1.09759,1.09759,0,0,1-1.50434-1.20962L56.18239,24.99993a.55273.55273,0,0,0-.99257-.41876,349.7171,349.7171,0,0,0-28.72976,47.945.54843.54843,0,0,0,.71338.73662l7.43642-3.16373a1.09867,1.09867,0,0,1,1.48105,1.33381L.02559,188.48441a.5523.5523,0,0,0,.74439.66686l61.38321-26.605a.563.563,0,0,0,.32571-.42652l4.62155-31.84707A.54782.54782,0,0,0,66.3483,129.68331ZM92.41057.46534,68.96927,161.25113a.68073.68073,0,0,0,.00776.21715c.41095,1.56638,5.428,20.25438,23.48783,54.45084a.55842.55842,0,0,0,.49629.29476V0A.53466.53466,0,0,0,92.41057.46534Z"/><path class="cls-6" d="M185.14456,189.15127l-61.38326-26.605a.563.563,0,0,1-.32567-.42652L118.814,130.27264a.54785.54785,0,0,1,.75219-.58933l29.10972,12.182a1.09759,1.09759,0,0,0,1.50434-1.20962L129.7399,24.99993a.54826.54826,0,0,1,.98482-.41876,349.71822,349.71822,0,0,1,28.72976,47.945.54845.54845,0,0,1-.71343.73662l-7.43637-3.16373a1.09872,1.09872,0,0,0-1.48111,1.33381l36.06537,117.05149A.55231.55231,0,0,1,185.14456,189.15127Z"/><path class="cls-7" d="M116.94527,161.25113a.51311.51311,0,0,1-.00776.21715c-.40324,1.56638-5.428,20.25438-23.48784,54.45084a.55546.55546,0,0,1-.48852.29476V0A.53241.53241,0,0,1,93.504.46534Z"/></g></g></g></g></svg>