<?xml version="1.0" standalone="no"?>
<!DOCTYPE svg PUBLIC "-//W3C//DTD SVG 20010904//EN"
 "http://www.w3.org/TR/2001/REC-SVG-20010904/DTD/svg10.dtd">
<svg version="1.0" xmlns="http://www.w3.org/2000/svg"
 width="1200.000000pt" height="1200.000000pt" viewBox="0 0 1200.000000 1200.000000"
 preserveAspectRatio="xMidYMid meet">
<metadata>
Created by potrace 1.16, written by Peter Selinger 2001-2019
</metadata>
<g transform="translate(0.000000,1200.000000) scale(0.100000,-0.100000)"
fill="#000000" stroke="none">
<path d="M5914 9148 c-138 -144 -246 -336 -288 -510 l-6 -28 57 35 c56 34 150
71 158 63 4 -3 15 -514 15 -651 0 -36 3 -46 13 -41 10 6 10 4 0 -7 -10 -10
-13 -76 -13 -259 0 -262 -10 -442 -37 -690 -9 -85 -17 -174 -17 -197 -1 -22
-4 -39 -8 -36 -5 2 -9 -15 -10 -39 -2 -60 -3 -70 -11 -94 -4 -11 -9 -38 -12
-60 -2 -21 -5 -48 -7 -59 -3 -18 3 -20 45 -21 l47 -1 -45 4 c-47 4 -53 11 -33
31 13 13 58 17 58 5 0 -5 27 -8 60 -8 l60 0 2 45 1 45 6 -50 6 -50 10 55 9 55
6 -60 c4 -39 7 3 8 118 1 101 6 177 11 177 5 0 12 8 14 18 3 9 5 -67 6 -170 1
-118 5 -188 11 -188 6 0 11 28 12 63 l1 62 7 -65 c4 -36 7 -60 8 -55 1 6 19 9
42 7 27 -3 40 0 40 8 0 12 14 11 84 -6 27 -6 28 -5 23 17 -12 48 -57 379 -74
549 -15 150 -18 274 -18 857 0 375 3 685 7 689 10 9 111 -30 170 -67 l48 -29
-6 27 c-26 106 -90 248 -162 358 -44 66 -196 235 -212 235 -4 0 -43 -37 -86
-82z"/>
<path d="M4006 8283 c-45 -121 -88 -291 -113 -443 -25 -157 -25 -539 0 -685
41 -238 103 -430 208 -642 91 -186 285 -463 312 -446 6 4 7 1 2 -6 -8 -14 33
-64 46 -56 4 3 10 1 14 -4 3 -5 15 -8 27 -6 11 3 17 1 14 -3 -4 -4 -13 -7 -19
-7 -20 0 -17 -21 8 -45 21 -20 27 -21 42 -9 16 13 17 12 4 -4 -12 -15 -11 -21
9 -42 13 -14 28 -25 34 -25 6 0 17 -9 24 -20 7 -12 18 -18 25 -14 7 4 9 4 5 0
-10 -12 38 -60 51 -52 6 4 9 11 6 16 -3 5 -1 11 4 14 11 7 9 -20 -2 -31 -4 -4
16 -28 45 -54 l53 -47 6 26 c3 15 10 26 17 25 6 -2 17 7 23 20 7 12 25 38 40
58 28 36 39 66 19 54 -5 -3 -10 -2 -10 4 0 16 22 25 30 11 5 -8 9 -7 13 5 5
10 3 14 -4 9 -7 -4 -10 -1 -7 7 3 8 10 13 16 12 5 -1 16 4 23 13 10 13 9 16
-9 21 -12 3 -19 10 -15 16 3 5 1 7 -4 4 -6 -4 -13 0 -17 8 -4 12 -35 15 -183
16 -98 1 -167 4 -153 8 l25 8 -25 5 c-22 5 236 13 268 9 7 -1 3 9 -9 23 -19
21 -25 24 -38 13 -14 -10 -14 -10 -4 4 11 13 10 19 -5 32 -9 8 -20 16 -24 16
-5 1 -9 4 -9 9 -1 4 -26 34 -57 67 -292 315 -464 675 -518 1085 -22 167 -16
463 11 528 17 42 19 44 54 37 43 -8 150 -56 191 -85 17 -12 30 -20 30 -18 0 2
-11 39 -25 82 -56 178 -150 331 -292 477 -53 54 -102 99 -108 99 -7 0 -29 -44
-49 -97z"/>
<path d="M7863 8308 c-145 -141 -255 -315 -317 -502 -14 -43 -26 -80 -26 -82
0 -2 26 12 58 32 57 33 158 74 184 74 7 0 22 -19 32 -42 27 -64 34 -359 12
-528 -55 -411 -226 -770 -520 -1087 -29 -32 -54 -61 -55 -65 0 -5 -3 -7 -5 -5
-9 5 -55 -46 -50 -55 3 -5 1 -7 -4 -6 -6 2 -10 0 -11 -4 -3 -23 1 -29 17 -27
37 3 255 -4 223 -8 -26 -3 -31 -7 -20 -14 9 -5 -45 -9 -144 -9 -131 0 -159 -3
-163 -15 -4 -8 -11 -12 -17 -8 -6 3 -7 1 -3 -5 4 -7 1 -12 -6 -12 -9 0 -9 -3
2 -10 14 -9 7 -14 -13 -11 -5 1 -6 -3 -2 -9 3 -6 11 -8 16 -4 6 3 10 0 8 -7
-1 -8 -1 -21 0 -29 1 -12 4 -11 12 3 8 13 7 22 -1 32 -7 9 -8 15 0 20 5 3 10
1 10 -5 0 -7 7 -9 16 -6 11 4 18 -1 21 -14 3 -11 8 -20 12 -20 4 0 13 -16 21
-35 8 -19 17 -35 22 -35 4 0 8 -5 8 -11 0 -8 -5 -8 -15 1 -8 7 -15 19 -15 26
0 19 -10 18 -26 -3 -12 -16 -13 -13 -9 22 5 35 4 38 -8 23 -8 -10 -17 -15 -20
-12 -10 10 -1 -24 10 -37 6 -8 23 -32 37 -53 26 -39 56 -56 56 -33 0 7 5 4 11
-6 6 -9 15 -14 21 -11 7 4 8 2 4 -4 -4 -6 -13 -9 -21 -5 -8 3 -15 0 -15 -5 0
-24 18 -17 65 25 28 25 45 43 40 40 -6 -3 -11 5 -11 18 0 13 4 21 8 19 5 -3 6
-9 3 -14 -3 -5 0 -12 6 -16 13 -8 61 40 51 51 -4 4 0 5 8 3 8 -2 14 3 12 10
-1 8 2 11 9 7 6 -4 24 5 40 21 28 26 40 52 19 39 -16 -10 -11 1 7 16 11 10 14
10 9 2 -15 -26 13 -12 38 18 25 29 27 57 4 43 -7 -4 -8 -2 -4 5 6 9 11 9 22 0
13 -11 18 -6 15 14 -1 5 3 6 8 3 5 -3 40 31 78 77 164 194 311 453 392 691 81
234 110 400 118 661 9 312 -34 580 -139 863 -17 45 -35 82 -40 82 -6 0 -44
-33 -85 -72z"/>
<path d="M7046 4931 c1 -25 5 -56 9 -67 4 -15 2 -23 -9 -27 -12 -5 -16 0 -16
16 0 20 -2 19 -20 -8 -11 -16 -15 -31 -10 -33 6 -2 6 -11 -1 -24 -6 -11 -17
-17 -24 -14 -7 2 -21 -4 -30 -14 -16 -17 -16 -20 -2 -26 8 -3 18 -13 21 -21 6
-13 4 -14 -9 -3 -9 7 -15 9 -14 4 3 -14 -12 -44 -23 -44 -6 0 -5 7 2 15 10 13
11 18 1 28 -7 7 -12 8 -11 2 5 -24 -1 -27 -16 -9 -9 10 -4 -3 11 -31 15 -27
32 -54 38 -60 7 -7 7 -5 2 5 -8 13 -7 13 9 0 12 -9 14 -16 6 -18 -7 -3 -3 -13
12 -30 13 -14 17 -22 11 -18 -7 4 0 -21 16 -56 67 -150 94 -271 94 -418 -1
-413 -289 -785 -728 -940 -49 -17 -117 -37 -150 -44 -50 -11 -60 -17 -65 -37
l-6 -24 -7 25 c-6 21 -9 22 -17 10 -6 -10 -10 -11 -10 -2 0 6 -8 12 -17 12
-15 0 -16 -2 -3 -10 13 -8 12 -10 -2 -10 -10 0 -18 4 -18 8 0 4 -9 8 -20 9
-20 2 -28 -12 -11 -19 5 -1 3 -9 -5 -16 -12 -11 -14 -9 -14 8 0 12 -4 18 -10
15 -5 -3 -10 0 -10 7 0 10 -2 10 -9 -1 -6 -10 -10 -10 -16 -1 -6 9 -10 9 -16
-1 -5 -8 -9 -9 -9 -3 0 6 -19 11 -42 12 -114 5 -307 64 -438 134 -286 153
-470 382 -541 674 -48 195 -15 444 84 639 19 38 19 39 1 25 -10 -8 -7 -1 7 15
15 17 25 35 22 42 -2 6 1 15 8 19 8 4 9 3 5 -4 -4 -7 -5 -12 -2 -12 11 0 33
56 31 77 -1 19 1 21 14 10 14 -11 14 -10 2 6 -16 21 -31 22 -31 3 0 -8 -5 -16
-11 -18 -9 -3 -9 -9 0 -26 10 -18 9 -21 -4 -16 -9 4 -14 9 -11 12 3 2 0 14 -6
25 -9 17 -7 24 12 39 18 14 20 21 10 32 -6 8 -21 16 -33 18 -13 2 -23 13 -28
30 -7 27 -47 85 -55 81 -5 -4 -6 6 -1 15 2 4 2 1 0 -6 -1 -7 2 -10 7 -7 15 9
12 19 -15 51 l-26 29 11 -28 c13 -38 13 -42 -5 -27 -8 7 -12 17 -8 23 3 6 1 7
-5 3 -9 -5 -9 -13 -2 -26 11 -21 -4 -38 -16 -19 -5 8 -3 9 6 4 9 -5 11 -4 6 4
-4 6 -12 9 -17 5 -6 -3 -8 -8 -5 -11 3 -3 -4 -15 -15 -27 -30 -31 -41 -54 -29
-61 5 -3 10 -12 10 -18 0 -8 -3 -8 -9 1 -6 11 -13 7 -29 -13 -12 -15 -19 -31
-16 -36 3 -5 1 -9 -4 -9 -10 0 -38 -60 -34 -72 1 -5 -2 -8 -7 -8 -15 0 -81
-168 -108 -275 -31 -125 -42 -345 -23 -474 26 -180 113 -390 231 -554 196
-275 549 -493 908 -561 113 -22 389 -22 502 0 502 95 920 439 1082 889 81 227
90 503 24 740 -22 79 -77 214 -93 230 -9 8 -13 15 -10 15 10 0 -51 115 -68
129 -13 11 -16 11 -16 1 0 -8 -3 -10 -6 -7 -4 4 -2 13 5 20 9 11 6 21 -11 43
-12 16 -29 35 -38 42 -10 9 -11 11 -1 6 10 -5 12 -3 7 5 -6 8 -12 9 -20 2 -13
-11 -36 4 -36 24 0 5 7 1 15 -9 8 -11 15 -14 15 -8 0 19 -4 27 -14 24 -5 -2
-6 4 -3 11 3 9 -4 19 -16 24 -21 10 -22 8 -21 -36z"/>
<path d="M5295 4488 c2 -10 -2 -15 -11 -11 -8 3 -12 9 -9 13 3 5 -3 7 -12 6
-13 -2 -18 -12 -18 -39 -1 -41 -18 -67 -30 -46 -5 8 -4 10 3 5 7 -4 12 -3 12
3 0 5 -4 12 -9 16 -6 3 -24 -38 -41 -92 -24 -74 -33 -124 -37 -203 -11 -212
50 -384 203 -572 61 -74 193 -194 179 -163 -22 50 -76 219 -99 310 -56 214
-76 377 -76 600 0 116 -3 165 -10 155 -5 -8 -10 -10 -11 -5 0 6 -6 -5 -13 -24
-10 -27 -14 -31 -19 -18 -3 9 -3 17 2 17 5 0 11 11 13 25 3 13 2 22 -3 20 -4
-3 -9 0 -12 7 -2 7 -3 5 -2 -4z"/>
</g>
</svg>
