<svg xmlns="http://www.w3.org/2000/svg" xmlns:xlink="http://www.w3.org/1999/xlink" viewBox="0 0 187.21 186.58"><defs><linearGradient id="linear-gradient" y1="595.28" x2="1" y2="595.28" gradientTransform="matrix(0, 186.26, 186.26, 0, -110503.4, 204.51)" gradientUnits="userSpaceOnUse"><stop offset="0" stop-color="gray"/><stop offset="0.12" stop-color="#969696"/><stop offset="0.4" stop-color="#c3c3c3"/><stop offset="0.65" stop-color="#e4e4e4"/><stop offset="0.86" stop-color="#f8f8f8"/><stop offset="1" stop-color="#fff"/></linearGradient><linearGradient id="linear-gradient-2" y1="595.28" y2="595.28" gradientTransform="matrix(0, 186.26, 186.26, 0, -110409.93, 204.51)" xlink:href="#linear-gradient"/><clipPath id="clip-path" transform="translate(-327.34 -204.19)"><rect width="841.89" height="595.28" style="fill:none"/></clipPath><clipPath id="clip-path-2" transform="translate(-327.34 -204.19)"><rect x="327.47" y="204.51" width="93.48" height="186.26" style="fill:none"/></clipPath><clipPath id="clip-path-3" transform="translate(-327.34 -204.19)"><path d="M421,204.54V344.67a.84.84,0,0,1-.46-.11c-18.24-14.35-24.51-23.33-25.05-24.12a.15.15,0,0,1,0-.11L415.93,224c.24-1.11-1.21-1.92-2.31-1.29l-18.87,11c-.52.3-1.17-.15-.94-.64,2.49-5.38,10.41-22.16,26.68-28.41a1.78,1.78,0,0,1,.46-.05h0m-30,96.81-.31.07c-3.29.7-33.43,6.21-33.74-15.26h0l1.68-80.8c0-.75-1.35-1.16-1.8-.54-19.55,27.52-27.51,49.76-29.26,54.37-.15.41.66.83,1.25.66l9.48-2.83c1.11-.33,2.62.4,2.49,1.2l-4.49,30.34c-3.09,20.95,19.36,38,43.27,32.88l7.35-1.7a2.55,2.55,0,0,0,2-1.93l2.9-15.67a.7.7,0,0,0-.57-.78.66.66,0,0,0-.28,0m30,89.42V352.12a143.38,143.38,0,0,1-13.9-11.59.54.54,0,0,0-.92.3V362c0,9.06-4.34,17.72-12,24l-4.44,3.62c-.53.42-.17,1.18.55,1.18H421Z" style="fill:none"/></clipPath><mask id="mask" x="0" y="0" width="93.61" height="186.58" maskUnits="userSpaceOnUse"><g transform="translate(-327.34 -204.19)"><rect x="327.34" y="204.19" width="93.61" height="186.58" style="fill:url(#linear-gradient)"/></g></mask><linearGradient id="linear-gradient-3" y1="595.28" x2="1" y2="595.28" gradientTransform="matrix(0, 186.26, 186.26, 0, -110830.73, 0.32)" gradientUnits="userSpaceOnUse"><stop offset="0" stop-color="#fff"/><stop offset="0.06" stop-color="#e9e9e9"/><stop offset="0.26" stop-color="#a3a3a3"/><stop offset="0.45" stop-color="#696969"/><stop offset="0.63" stop-color="#3c3c3c"/><stop offset="0.78" stop-color="#1b1b1b"/><stop offset="0.91" stop-color="#070707"/><stop offset="1"/></linearGradient><clipPath id="clip-path-4" transform="translate(-327.34 -204.19)"><rect x="420.95" y="204.51" width="93.47" height="186.26" style="fill:none"/></clipPath><clipPath id="clip-path-5" transform="translate(-327.34 -204.19)"><path d="M421,204.54h0a1.78,1.78,0,0,1,.46.05c16.26,6.25,24.19,23,26.68,28.41.23.49-.42.94-.94.64l-18.87-11c-1.1-.63-2.55.18-2.31,1.29l20.51,96.37a.15.15,0,0,1,0,.11c-.54.79-6.81,9.77-25,24.12a.84.84,0,0,1-.46.11V204.54h0m29.74,96.81a.7.7,0,0,0-.57.78L453,317.8a2.55,2.55,0,0,0,2,1.93l7.35,1.7c23.91,5.13,46.36-11.93,43.27-32.88l-4.49-30.34c-.13-.8,1.38-1.53,2.49-1.2l9.48,2.83c.59.17,1.4-.25,1.25-.66-1.76-4.61-9.71-26.85-29.26-54.37-.45-.62-1.81-.21-1.8.54l1.68,80.8h0c-.32,21.47-30.45,16-33.75,15.26l-.3-.07a.66.66,0,0,0-.28,0M435.77,362V340.83a.54.54,0,0,0-.92-.3A143.38,143.38,0,0,1,421,352.12v38.65h30.73c.72,0,1.08-.76.55-1.18L447.79,386c-7.67-6.24-12-14.9-12-24" style="fill:none"/></clipPath><mask id="mask-2" x="93.61" y="0" width="93.61" height="186.58" maskUnits="userSpaceOnUse"><g transform="translate(-327.34 -204.19)"><rect x="420.95" y="204.19" width="93.61" height="186.58" style="fill:url(#linear-gradient-2)"/></g></mask><linearGradient id="linear-gradient-4" y1="595.28" y2="595.28" gradientTransform="matrix(0, 186.26, 186.26, 0, -110737.26, 0.32)" xlink:href="#linear-gradient-3"/></defs><title>PSIAsset 1</title><g style="isolation:isolate"><g id="Layer_2" data-name="Layer 2"><g id="Layer_1-2" data-name="Layer 1"><g style="clip-path:url(#clip-path)"><path d="M421,204.54h0a1.78,1.78,0,0,0-.46.05c-16.27,6.25-24.19,23-26.68,28.41-.23.49.42.94.94.64l18.87-11c1.1-.63,2.55.18,2.31,1.3l-20.51,96.36a.15.15,0,0,0,0,.11c.54.79,6.81,9.77,25.05,24.12a.77.77,0,0,0,.46.11V204.54h0" transform="translate(-327.34 -204.19)" style="fill:#c19742"/><path d="M391.2,301.35a.7.7,0,0,1,.57.78l-2.9,15.67a2.55,2.55,0,0,1-2,1.93l-7.35,1.7c-23.91,5.13-46.36-11.93-43.27-32.87l4.49-30.35c.13-.8-1.38-1.53-2.49-1.2l-9.48,2.83c-.59.17-1.4-.25-1.25-.65,1.75-4.62,9.71-26.86,29.26-54.38.45-.62,1.81-.21,1.8.54l-1.68,80.8h0c.31,21.47,30.45,16,33.74,15.26l.31-.07a.66.66,0,0,1,.28,0" transform="translate(-327.34 -204.19)" style="fill:#c19742"/><path d="M421,390.77V352.12a143.38,143.38,0,0,1-13.9-11.59.54.54,0,0,0-.92.3V362c0,9.06-4.35,17.72-12,24l-4.44,3.62c-.53.42-.17,1.18.55,1.18H421Z" transform="translate(-327.34 -204.19)" style="fill:#c19742"/><path d="M421,204.54h0a1.78,1.78,0,0,1,.46.05c16.26,6.25,24.19,23,26.68,28.41.23.49-.42.94-.94.64l-18.87-11c-1.1-.64-2.55.18-2.31,1.29l20.51,96.37a.15.15,0,0,1,0,.11c-.54.79-6.81,9.77-25,24.12a.84.84,0,0,1-.46.11V204.54h0m29.74,96.81a.7.7,0,0,0-.57.78L453,317.8a2.55,2.55,0,0,0,2,1.93l7.35,1.7c23.91,5.13,46.36-11.93,43.27-32.88l-4.49-30.34c-.13-.8,1.38-1.53,2.49-1.2l9.48,2.83c.59.17,1.4-.25,1.25-.65-1.76-4.62-9.71-26.86-29.26-54.38-.45-.62-1.81-.21-1.8.54l1.68,80.8h0c-.31,21.47-30.45,16-33.74,15.26l-.31-.07a.66.66,0,0,0-.28,0M435.77,362V340.83a.54.54,0,0,0-.92-.3A143.38,143.38,0,0,1,421,352.12v38.65h30.73c.73,0,1.08-.76.55-1.19L447.79,386c-7.67-6.23-12-14.89-12-24" transform="translate(-327.34 -204.19)" style="fill:#ffc857"/><g style="opacity:0.5;mix-blend-mode:overlay"><g style="clip-path:url(#clip-path-2)"><g style="clip-path:url(#clip-path-3)"><g style="mask:url(#mask)"><rect width="93.61" height="186.58" style="fill:url(#linear-gradient-3)"/></g></g></g></g><g style="opacity:0.5;mix-blend-mode:overlay"><g style="clip-path:url(#clip-path-4)"><g style="clip-path:url(#clip-path-5)"><g style="mask:url(#mask-2)"><rect x="93.61" width="93.61" height="186.58" style="fill:url(#linear-gradient-4)"/></g></g></g></g></g></g></g></g></svg>