<?xml version="1.0" encoding="utf-8"?>
<!-- Generator: Adobe Illustrator 26.1.0, SVG Export Plug-In . SVG Version: 6.00 Build 0)  -->
<svg version="1.1" id="Layer_1" xmlns="http://www.w3.org/2000/svg" xmlns:xlink="http://www.w3.org/1999/xlink" x="0px" y="0px"
	 viewBox="0 0 700 700" style="enable-background:new 0 0 700 700;" xml:space="preserve">
<style type="text/css">
	.st0{fill:#132217;}
	.st1{fill:#FBE4B9;}
</style>
<g>
	<g>
		<path class="st0" d="M700,700c-233.3,0-466.6,0-700,0C0,466.8,0,233.5,0,0c233.2,0,466.6,0,700,0C700,233.2,700,466.6,700,700z
			 M311.9,514.5c4.9-0.5,9.6-1.3,14.4-1.4c2.8,0,5.5,1.7,8.3,1.7c16.6-0.3,33.2-0.9,49.9-1.2c5.5-0.1,8.2-3.7,6-8.5
			c-1.5-3.2-3.2-6.4-4.6-9.6c-5.8-13.1-8.6-26.7-7.6-41c0.5-7.5,4.9-11.9,11.6-14.5c10.5-4.2,21.7-7.4,31.2-13.2
			c10.5-6.3,19.7-14.9,29-23c3.1-2.7,4.2-9.3,7.3-10c5.9-1.5,7.6-6,10.3-9.7c10.1-13.9,14.2-30.2,17.8-46.7
			c0.8-3.8,1.4-7.7,1.5-11.5c0.2-15.1,0-30.1,0.3-45.2c0.1-6.1,0.5-12.4,2.1-18.3c3.3-12.1,8.1-18.7,19.9-18.9c2.3,0,4.5-0.6,6.8-1
			c10.9-2.2,17.4-11.3,16.4-22.4c-0.3-3.3-0.1-6.8,0.5-10c1.1-6-0.6-8.5-6.6-8.5c-9.1,0-18.2,0.3-27.3,0.3
			c-16.1,0-31.2,2.9-44.7,12.6c-14.1,10.1-21.3,23.5-21.9,40.3c-0.7,17.9-0.2,35.8-0.5,53.7c-0.1,8.4-0.5,16.8-1.6,25.1
			c-1.5,11.2-5.1,21.7-14.2,29.4c-12,10.1-28.7,5.7-33.5-9.1c-1.9-5.8-3.3-12-3.5-18c-0.5-20-0.3-40.1-0.3-60.1
			c0-10.5,0-20.9,0.2-31.4c0.2-18,2.5-35.4,14.3-50.1c1.9-2.3,1.6-5-1.1-6.4c-2.5-1.3-5.4-2.2-8.2-2.3c-22.6-0.2-45.1,0-67.7-0.3
			c-5.3-0.1-8.5,1.5-10.1,6.1c7.2,12.8,13.9,25.5,14.6,40.2c0.8,17.9,1.2,35.8,1.8,53.7c0,0.7-0.3,1.3-0.3,2
			c-0.5,13.6-0.7,27.2-1.4,40.7c-0.4,7.7-0.6,15.5-2.5,22.9c-3,11.7-14.5,20.3-26.5,16.3c-7.3-2.4-13-7.2-16.6-14.1
			c-5.2-10-7-20.9-7.6-32c-0.3-6.6,0-13.2,0.3-19.8c0.3-6.2-3.6-12.3-0.3-18.8c1.1-2.2,0-5.6-0.2-8.5c-0.6-10.4,0.4-21.2-2-31.2
			c-5.2-22.1-21.2-34-42.3-39.9c-17.9-4.9-36.1-1.2-55-2.7c1.1,8.1-2,15,0,22.7c3.6,13.9,6.8,17.5,20.9,19
			c8.6,0.9,15.1,4.2,18.6,12.5c3.1,7.4,5.6,23.7,5.2,31.8c-0.1,2.2,1.5,4.5,2.3,6.7c-0.9,1.8-3.2,4.1-3.2,6.4
			c0.3,12.9,0.6,25.8,2,38.6c1.6,14.2,7.2,27.3,14,39.7c4.4,8,9.9,15.3,17.8,20.5c2.4,1.6,4,4.4,5.8,6.8c1.3,1.7,1.9,4.1,3.5,5.4
			c15.7,13.5,33.7,23,53.4,29.3c7.3,2.4,11.7,6.6,12.3,14.3c1.1,15-2,29.3-8.9,42.8C308.7,502.8,307.3,508.7,311.9,514.5z"/>
		<path class="st1" d="M311.9,514.5c-4.6-5.8-3.2-11.7-0.1-17.8c6.9-13.4,10-27.7,8.9-42.8c-0.5-7.7-4.9-11.9-12.3-14.3
			c-19.6-6.4-37.6-15.8-53.4-29.3c-1.6-1.3-2.2-3.7-3.5-5.4c-1.8-2.4-3.4-5.2-5.8-6.8c-7.9-5.3-13.4-12.5-17.8-20.5
			c-6.8-12.4-12.4-25.5-14-39.7c-1.4-12.8-1.7-25.7-2-38.6c-0.1-2.3,2.2-4.7,3.2-6.4c-0.8-2.2-2.4-4.5-2.3-6.7
			c0.4-8-2.1-24.4-5.2-31.8c-3.5-8.3-10.1-11.6-18.6-12.5c-14.2-1.5-17.4-5.2-20.9-19c-2-7.6,1.2-14.5,0-22.7
			c18.9,1.5,37.1-2.3,55,2.7c21.1,5.8,37.1,17.7,42.3,39.9c2.3,10,1.4,20.8,2,31.2c0.2,2.9,1.3,6.3,0.2,8.5
			c-3.3,6.5,0.6,12.6,0.3,18.8c-0.3,6.6-0.6,13.2-0.3,19.8c0.6,11.1,2.4,22,7.6,32c3.6,6.9,9.3,11.7,16.6,14.1
			c11.9,4,23.5-4.6,26.5-16.3c1.9-7.4,2.1-15.3,2.5-22.9c0.7-13.6,1-27.1,1.4-40.7c0-0.7,0.4-1.3,0.3-2c-0.6-17.9-1-35.8-1.8-53.7
			c-0.7-14.7-7.4-27.4-14.6-40.2c1.6-4.6,4.8-6.1,10.1-6.1c22.6,0.3,45.1,0.1,67.7,0.3c2.7,0,5.7,1,8.2,2.3c2.6,1.4,2.9,4.1,1.1,6.4
			c-11.7,14.7-14,32.1-14.3,50.1c-0.1,10.5-0.2,20.9-0.2,31.4c0,20-0.2,40.1,0.3,60.1c0.1,6,1.6,12.2,3.5,18
			c4.8,14.9,21.5,19.2,33.5,9.1c9.1-7.7,12.7-18.2,14.2-29.4c1.1-8.3,1.5-16.7,1.6-25.1c0.3-17.9-0.2-35.8,0.5-53.7
			c0.6-16.8,7.8-30.2,21.9-40.3c13.6-9.7,28.6-12.6,44.7-12.6c9.1,0,18.2-0.3,27.3-0.3c6,0,7.7,2.5,6.6,8.5c-0.6,3.3-0.8,6.7-0.5,10
			c1,11.1-5.5,20.3-16.4,22.4c-2.2,0.4-4.5,1-6.8,1c-11.8,0.2-16.6,6.7-19.9,18.9c-1.6,5.8-2,12.1-2.1,18.3
			c-0.3,15.1-0.1,30.1-0.3,45.2c-0.1,3.8-0.7,7.7-1.5,11.5c-3.6,16.5-7.7,32.8-17.8,46.7c-2.7,3.7-4.4,8.3-10.3,9.7
			c-3,0.7-4.2,7.3-7.3,10c-9.3,8.1-18.5,16.6-29,23c-9.6,5.8-20.7,9-31.2,13.2c-6.7,2.7-11.1,7.1-11.6,14.5
			c-0.9,14.3,1.8,27.9,7.6,41c1.4,3.2,3.1,6.4,4.6,9.6c2.2,4.8-0.5,8.4-6,8.5c-16.6,0.4-33.2,1-49.9,1.2c-2.8,0-5.5-1.7-8.3-1.7
			C321.6,513.2,316.9,514,311.9,514.5z"/>
	</g>
</g>
</svg>
