<?xml version="1.0" encoding="utf-8"?>
<!-- Generator: Adobe Illustrator 26.1.0, SVG Export Plug-In . SVG Version: 6.00 Build 0)  -->
<svg version="1.1" id="Layer_1" xmlns="http://www.w3.org/2000/svg" xmlns:xlink="http://www.w3.org/1999/xlink" x="0px" y="0px"
	 viewBox="0 0 700 700" style="enable-background:new 0 0 700 700;" xml:space="preserve">
<style type="text/css">
	.st0{fill:#FFFFFF;}
</style>
<g>
	<g>
		<path d="M0,0c233.3,0,466.7,0,700,0c0,233.3,0,466.7,0,700c-233.3,0-466.7,0-700,0C0,466.7,0,233.3,0,0z M215.5,292.9
			c-1,1.7-3.3,3.9-3.3,6c0.2,21.8,0.2,43.6,9.1,64.2c6,13.8,12.9,26.6,25.4,36c4.5,3.4,6.6,9.6,11,13.2
			c14.6,12.2,31.4,20.8,49.4,26.9c11.1,3.7,14.9,9.5,14.2,21.4c-0.9,13.5-3.7,26.4-10.3,38.5c-1.6,3-2.1,7.1-1.6,10.5
			c0.3,1.8,3.7,4,6,4.3c5.6,0.8,11.4,1,17.1,0.8c17-0.4,34-0.8,51-1.8c8.5-0.5,9.4-2.9,5.8-9.8c-7.3-14-11.2-29-11.6-44.8
			c-0.2-10.2,4.3-15.7,14.1-19.1c7.5-2.6,14.8-5.6,22.2-8.6c21.7-8.9,36.2-26.5,51-43.3c9.7-10.9,13.5-24.9,17.6-38.8
			c4.9-16.5,4-33.2,4.6-50c0.4-12.8,0.5-25.8,2.7-38.3c1.6-9.2,7.4-16.7,18.7-16.8c2.7,0,5.4-0.7,8.1-1.2
			c7.1-1.4,12.2-5.1,13.5-12.6c1.2-7.5,2.6-15.1,2.8-22.6c0.1-1.7-3.8-4.9-6.2-5.2c-5.6-0.8-11.3-0.3-17-0.2
			c-14.5,0.3-29,0-42.8,5.6c-20.5,8.3-34.6,27-34.8,47.8c-0.2,20.2,0.2,40.4-0.3,60.6c-0.2,8.8-1.4,17.7-3.4,26.3
			c-1.9,8.5-6,16.2-13.3,21.7c-11.8,9.1-28,4.7-32.6-9.5c-1.9-6-3.4-12.4-3.6-18.7c-0.5-20.1-0.4-40.2-0.3-60.3
			c0.1-15.2,0.4-30.5,1.1-45.7c0.5-11.6,4.8-22.1,10.7-32c1.4-2.5,3.5-6.8,2.5-8c-1.8-2.2-5.7-3.6-8.7-3.7
			c-13.2-0.4-26.4-0.2-39.6-0.2c-10.3,0-20.5-0.1-30.8,0.1c-6.5,0.1-8.1,4-5.4,9.7c4,8.6,8.6,17.3,10.4,26.4
			c2.1,10.3,1.6,21.2,2.1,31.8c0.5,10.8,1.2,21.7,1.3,32.6c0,9.5-0.7,19-1.3,28.5c-0.6,11.5-0.4,23.2-2.3,34.6
			c-2.1,13.1-13.4,20.6-25.1,18.5c-10.8-1.9-21.4-14-23.1-27.6c-1.5-12.3-1.7-24.7-2.7-37c-0.4-4.7-2.1-9.3-2-13.9
			c0.2-10.2,1.9-20.5,1.7-30.7c-0.7-30.1-16.2-49.3-46.4-55.4c-16.7-3.4-34.3-2.4-52.3-3.4c-0.3,5.6-0.8,9.9-0.8,14.1
			c-0.1,16.6,3.8,27.4,20.9,28.2c11,0.6,18,6.2,20.4,16.7c2.1,9,5.5,17.8,3.8,27.4C212.8,288.2,214.7,290.6,215.5,292.9z"/>
		<path class="st0" d="M215.5,292.9c-0.9-2.2-2.7-4.7-2.4-6.7c1.7-9.6-1.8-18.5-3.8-27.4c-2.4-10.5-9.4-16.2-20.4-16.7
			c-17.1-0.9-21-11.6-20.9-28.2c0-4.2,0.5-8.4,0.8-14.1c18,1,35.6,0,52.3,3.4c30.2,6,45.7,25.2,46.4,55.4
			c0.2,10.2-1.5,20.4-1.7,30.7c-0.1,4.6,1.6,9.3,2,13.9c1,12.3,1.3,24.8,2.7,37c1.6,13.6,12.3,25.6,23.1,27.6
			c11.7,2.1,23-5.4,25.1-18.5c1.8-11.4,1.6-23,2.3-34.6c0.5-9.5,1.3-19,1.3-28.5c0-10.9-0.7-21.7-1.3-32.6
			c-0.5-10.6,0-21.5-2.1-31.8c-1.9-9.2-6.4-17.9-10.4-26.4c-2.7-5.6-1-9.6,5.4-9.7c10.2-0.2,20.5-0.1,30.8-0.1
			c13.2,0,26.4-0.2,39.6,0.2c3.1,0.1,6.9,1.5,8.7,3.7c1,1.2-1.1,5.5-2.5,8c-5.8,10-10.1,20.5-10.7,32c-0.7,15.2-1,30.5-1.1,45.7
			c-0.2,20.1-0.2,40.2,0.3,60.3c0.2,6.3,1.7,12.7,3.6,18.7c4.6,14.2,20.8,18.7,32.6,9.5c7.2-5.6,11.4-13.3,13.3-21.7
			c2-8.6,3.1-17.5,3.4-26.3c0.5-20.2,0.1-40.4,0.3-60.6c0.2-20.8,14.2-39.5,34.8-47.8c13.9-5.6,28.4-5.3,42.8-5.6
			c5.7-0.1,11.5-0.5,17,0.2c2.4,0.3,6.3,3.5,6.2,5.2c-0.3,7.6-1.6,15.1-2.8,22.6c-1.2,7.5-6.4,11.2-13.5,12.6
			c-2.7,0.5-5.4,1.2-8.1,1.2c-11.3,0.1-17,7.6-18.7,16.8c-2.2,12.5-2.3,25.5-2.7,38.3c-0.5,16.8,0.3,33.5-4.6,50
			c-4.1,13.9-7.9,27.8-17.6,38.8c-14.9,16.8-29.4,34.4-51,43.3c-7.3,3-14.7,6-22.2,8.6c-9.8,3.4-14.3,8.9-14.1,19.1
			c0.3,15.8,4.2,30.8,11.6,44.8c3.6,6.9,2.6,9.3-5.8,9.8c-17,1-34,1.4-51,1.8c-5.7,0.1-11.5,0-17.1-0.8c-2.3-0.3-5.7-2.6-6-4.3
			c-0.5-3.4,0-7.5,1.6-10.5c6.5-12.1,9.4-25,10.3-38.5c0.8-11.8-3.1-17.6-14.2-21.4c-18-6-34.8-14.7-49.4-26.9
			c-4.3-3.6-6.5-9.9-11-13.2c-12.4-9.4-19.4-22.2-25.4-36c-8.9-20.6-8.9-42.5-9.1-64.2C212.2,296.7,214.5,294.6,215.5,292.9z"/>
	</g>
</g>
</svg>
