<?xml version="1.0" standalone="no"?>
<!DOCTYPE svg PUBLIC "-//W3C//DTD SVG 20010904//EN"
 "http://www.w3.org/TR/2001/REC-SVG-20010904/DTD/svg10.dtd">
<svg version="1.0" xmlns="http://www.w3.org/2000/svg"
 width="200.000000pt" height="200.000000pt" viewBox="0 0 200.000000 200.000000"
 preserveAspectRatio="xMidYMid meet">

<g transform="translate(0.000000,200.000000) scale(0.100000,-0.100000)"
fill="#000000" stroke="none">
<path d="M720 1935 c-36 -8 -86 -22 -112 -32 l-47 -17 29 -18 c80 -48 -8 -179
-172 -259 -27 -13 -48 -27 -48 -31 0 -12 80 -97 101 -108 13 -8 22 -1 44 30
100 145 481 303 725 302 42 -1 88 -6 104 -11 45 -18 21 5 -52 48 -37 22 -110
54 -162 72 -83 28 -111 32 -220 35 -85 3 -146 -1 -190 -11z"/>
<path d="M1375 1265 c-328 -56 -536 -83 -773 -97 -118 -7 -200 -17 -210 -24
-15 -11 -17 -43 -20 -260 l-3 -247 178 6 c229 8 373 25 782 93 254 42 353 55
413 52 l78 -3 0 32 c0 67 -17 67 -456 -6 -156 -26 -285 -46 -287 -44 -2 2 -1
20 2 40 l6 37 285 48 c212 36 306 47 368 45 l82 -2 0 33 c0 65 -27 64 -455 -8
-315 -53 -291 -52 -287 -10 2 19 6 37 8 39 2 2 135 26 296 53 209 35 314 48
366 46 l72 -3 0 33 c0 65 -17 64 -474 -13 -143 -24 -262 -42 -266 -40 -3 2 -4
20 -2 39 3 28 9 36 31 40 202 41 532 90 614 90 l98 1 -3 35 -3 35 -95 2 c-73
1 -152 -8 -345 -42z m-315 -104 c0 -11 -17 -33 -25 -33 -15 0 -23 25 -12 37
12 12 37 9 37 -4z m-127 -27 c-6 -17 -29 -19 -39 -3 -8 14 14 29 32 22 7 -2
10 -11 7 -19z m-126 -13 c0 -9 -9 -17 -19 -17 -19 0 -21 5 -12 30 7 19 33 9
31 -13z m-127 -18 c0 -7 -6 -12 -12 -10 -20 3 -27 19 -15 32 13 14 27 2 27
-22z m-120 1 c0 -17 -26 -19 -36 -3 -7 12 15 31 28 23 4 -3 8 -12 8 -20z
m-126 8 c6 -10 -5 -26 -21 -29 -7 -2 -13 3 -13 10 0 24 23 36 34 19z m559 -22
c-5 -20 -23 -22 -35 -6 -8 12 14 35 28 29 7 -2 10 -13 7 -23z m-125 -13 c2
-10 -3 -17 -12 -17 -18 0 -29 16 -21 31 9 14 29 6 33 -14z m-124 -12 c-9 -22
-34 -27 -34 -6 0 23 8 31 25 24 8 -2 11 -11 9 -18z m-121 -11 c-3 -8 -11 -14
-18 -14 -17 0 -27 28 -12 33 20 7 36 -4 30 -19z m-128 7 c3 -6 -3 -15 -14 -20
-18 -10 -21 -3 -12 27 2 6 20 1 26 -7z m558 -17 c-3 -8 -11 -14 -18 -14 -17 0
-27 28 -12 33 20 7 36 -4 30 -19z m-120 -14 c-5 -20 -23 -22 -35 -5 -9 13 11
35 27 29 7 -3 11 -14 8 -24z m-127 -13 c1 -11 -5 -17 -17 -17 -10 0 -19 6 -19
13 0 31 31 34 36 4z m-123 -13 c-3 -8 -11 -14 -18 -14 -17 0 -27 28 -12 33 20
7 36 -4 30 -19z m-250 -10 c-7 -18 -33 -18 -33 -1 0 19 10 27 25 20 8 -2 11
-11 8 -19z m123 3 c1 -9 -3 -15 -9 -14 -16 3 -27 19 -20 30 8 13 26 3 29 -16z
m437 -13 c-3 -8 -11 -14 -18 -14 -17 0 -27 28 -12 33 20 7 36 -4 30 -19z
m-126 -12 c0 -10 -9 -18 -18 -18 -17 0 -19 12 -6 34 11 16 26 6 24 -16z m-124
-17 c-5 -15 -24 -16 -35 -1 -3 5 -1 15 5 21 15 16 38 0 30 -20z m-123 -12 c0
-15 -21 -13 -32 2 -4 5 -2 15 4 23 9 11 13 11 19 0 5 -7 9 -19 9 -25z m-127 1
c-7 -18 -33 -18 -33 -1 0 19 10 27 25 20 8 -2 11 -11 8 -19z m567 11 c0 -2 -7
-11 -16 -20 -13 -12 -19 -13 -24 -4 -10 15 10 38 27 32 7 -3 13 -7 13 -8z
m-127 -31 c-3 -8 -11 -14 -18 -14 -17 0 -27 28 -12 33 20 7 36 -4 30 -19z
m-123 -5 c0 -4 -9 -13 -20 -19 -17 -9 -20 -8 -20 8 0 10 3 21 6 25 8 8 34 -3
34 -14z m-120 -4 c0 -2 -7 -11 -16 -20 -13 -13 -19 -14 -25 -4 -10 17 8 39 27
32 8 -3 14 -7 14 -8z m-256 -20 c-6 -16 -34 -28 -34 -16 0 22 13 39 25 35 8
-3 11 -12 9 -19z m126 -1 c0 -8 -6 -14 -14 -14 -18 0 -29 27 -13 33 16 6 27
-1 27 -19z m433 -14 c-5 -20 -23 -22 -35 -5 -9 13 11 35 27 29 7 -3 11 -14 8
-24z m-127 -13 c1 -11 -5 -17 -17 -17 -10 0 -19 6 -19 13 0 31 31 34 36 4z
m-123 -13 c-3 -8 -11 -14 -18 -14 -17 0 -27 28 -12 33 20 7 36 -4 30 -19z
m-120 -10 c-3 -8 -11 -14 -18 -14 -17 0 -27 28 -12 33 20 7 36 -4 30 -19z
m430 -10 c-6 -17 -30 -19 -35 -2 -3 7 0 18 6 24 14 15 37 -2 29 -22z m-558 17
c3 -6 -3 -15 -14 -20 -18 -10 -21 -3 -12 27 2 6 20 1 26 -7z m438 -31 c-5 -20
-23 -22 -35 -5 -9 13 11 35 27 29 7 -3 11 -14 8 -24z m-250 -27 c-5 -14 -24
-13 -35 1 -3 5 -1 14 5 21 14 14 37 -3 30 -22z m123 15 c1 -11 -5 -16 -17 -15
-19 1 -25 17 -12 31 11 10 26 2 29 -16z m-249 -17 c-1 -16 -5 -18 -20 -10 -14
8 -16 13 -7 25 15 17 29 10 27 -15z m-123 -5 c-6 -16 -34 -17 -34 -1 0 17 10
24 25 18 8 -2 12 -10 9 -17z m559 -13 c-5 -14 -24 -13 -35 1 -3 5 -1 14 5 21
14 14 37 -3 30 -22z m-125 -5 c2 -8 -6 -18 -16 -20 -15 -4 -19 -1 -17 16 3 28
3 28 18 24 6 -3 13 -12 15 -20z m-124 -13 c-6 -16 -34 -28 -34 -16 0 22 13 39
25 35 8 -3 11 -12 9 -19z m-121 -11 c-5 -15 -25 -19 -36 -7 -11 10 13 32 28
27 8 -3 11 -12 8 -20z m-130 10 c9 -9 -4 -34 -18 -34 -11 0 -13 14 -6 38 2 4
18 2 24 -4z m561 -19 c-9 -22 -32 -25 -37 -5 -5 20 9 30 30 23 6 -3 9 -11 7
-18z m-126 -19 c2 -10 -2 -15 -10 -14 -17 4 -28 20 -21 31 8 13 28 2 31 -17z
m-125 -12 c-7 -18 -33 -18 -33 -1 0 19 10 27 25 20 8 -2 11 -11 8 -19z m-120
-10 c-3 -8 -11 -14 -18 -14 -17 0 -27 28 -12 33 20 7 36 -4 30 -19z m-250 -10
c-7 -18 -33 -18 -33 -1 0 19 10 27 25 20 8 -2 11 -11 8 -19z m123 3 c1 -9 -4
-17 -11 -17 -14 0 -27 25 -17 34 10 10 25 1 28 -17z"/>
<path d="M1675 713 c-16 -2 -163 -26 -325 -53 -350 -59 -592 -87 -816 -96
l-164 -7 0 -34 0 -33 83 0 c198 0 514 35 892 100 301 51 391 62 438 51 l37 -9
0 34 c0 50 -36 62 -145 47z"/>
<path d="M1670 563 c-14 -2 -160 -26 -325 -53 -346 -57 -594 -86 -818 -96
l-157 -7 0 -35 0 -35 158 7 c225 9 473 39 817 98 192 32 332 51 388 51 87 1
87 1 87 27 0 14 -5 31 -12 38 -11 11 -83 14 -138 5z"/>
<path d="M1660 413 c-681 -113 -785 -127 -1085 -144 -110 -7 -201 -13 -203
-14 -6 -5 20 -60 31 -67 17 -11 526 -10 777 2 316 15 544 48 611 87 26 15 29
23 29 68 0 28 -5 56 -12 63 -11 11 -93 14 -148 5z"/>
</g>
</svg>
