<?xml version="1.0" standalone="no"?>
<!DOCTYPE svg PUBLIC "-//W3C//DTD SVG 1.1//EN" "http://www.w3.org/Graphics/SVG/1.1/DTD/svg11.dtd" >
<svg>
<metadata>
Created by FontForge 20090914 at Mon Aug 27 15:03:44 2018
 By www-data
EeveSomepx
</metadata>
<defs>
<font id="FutilePro" horiz-adv-x="640" >
  <font-face 
    font-family="FutilePro"
    font-weight="500"
    font-stretch="normal"
    units-per-em="1024"
    panose-1="2 0 6 3 0 0 0 0 0 0"
    ascent="768"
    descent="-256"
    x-height="512"
    cap-height="576"
    bbox="0 -128 896 768"
    underline-thickness="51"
    underline-position="-103"
    unicode-range="U+0020-U+3000"
  />
<missing-glyph horiz-adv-x="374" 
d="M34 0v682h272v-682h-272zM68 34h204v614h-204v-614z" />
    <glyph glyph-name=".notdef" horiz-adv-x="374" 
d="M34 0v682h272v-682h-272zM68 34h204v614h-204v-614z" />
    <glyph glyph-name="space" unicode=" " horiz-adv-x="320" 
 />
    <glyph glyph-name="exclam" unicode="!" horiz-adv-x="256" 
d="M128 0h-64h-64v64v64h64h64h64v-64v-64h-64zM128 192h-64h-64v64v64v64v64v64v64v64v64v64h64h64h64v-64v-64v-64v-64v-64v-64v-64v-64v-64h-64z" />
    <glyph glyph-name="quotedbl" unicode="&#x22;" horiz-adv-x="448" 
d="M256 576h-64v64h-64v-64h-64h-64v64v64h64v64h64h64v-64h64v64h64h64v-64v-64h-64v-64h-64z" />
    <glyph glyph-name="numbersign" unicode="#" horiz-adv-x="704" 
d="M512 64h-64h-64v64h-64h-64v-64h-64h-64h-64v64h-64v64v64h64v64v64v64h-64v64v64h64v64h64h64h64v-64h64h64v64h64h64h64v-64h64v-64v-64h-64v-64v-64v-64h64v-64v-64h-64v-64h-64zM320 256h64v64v64v64h-64h-64v-64v-64v-64h64z" />
    <glyph glyph-name="dollar" unicode="$" horiz-adv-x="704" 
d="M320 -64h-64v64h-64h-64h-64v64h-64v64v64h64h64h64v-64h64v64v64v64h-64h-64h-64v64h-64v64v64v64v64h64v64h64h64h64v64h64h64v-64h64h64h64v-64v-64h-64h-64h-64v-64v-64h64h64h64v-64h64v-64v-64v-64v-64v-64h-64v-64h-64h-64h-64v-64h-64zM448 128v64v64v64h-64v-64
v-64v-64h64zM256 448v64v64h-64v-64v-64h64z" />
    <glyph glyph-name="percent" unicode="%" horiz-adv-x="512" 
d="M384 0h-64v64v64h64h64v-64v-64h-64zM192 0h-64h-64v64v64v64h64v64v64v64h64v64v64v64h64h64h64v-64v-64v-64h-64v-64v-64v-64h-64v-64v-64v-64h-64zM64 448h-64v64v64h64h64v-64v-64h-64z" />
    <glyph glyph-name="ampersand" unicode="&#x26;" 
d="M512 0h-64v64h-64v-64h-64h-64h-64h-64h-64v64h-64v64v64v64h64h64v64h-64v64h-64v64v64v64h64v64h64h64h64h64h64h64v-64h64v-64v-64v-64h-64h-64h-64v64v64h-64h-64v-64h64v-64h64v-64h64v-64h64v64h64h64v-64v-64h-64v-64h64v-64v-64h-64zM256 128h64v64h-64v64h-64
v-64v-64h64z" />
    <glyph glyph-name="quotesingle" unicode="'" horiz-adv-x="256" 
d="M64 512h-64v64v64h64v64h64h64v-64v-64h-64v-64h-64z" />
    <glyph glyph-name="parenleft" unicode="(" horiz-adv-x="448" 
d="M320 -64h-64h-64h-64v64h-64v64h-64v64v64v64v64v64v64v64v64v64h64v64h64v64h64h64h64h64v-64v-64h-64h-64v-64h-64v-64v-64v-64v-64v-64v-64v-64h64v-64h64h64v-64v-64h-64z" />
    <glyph glyph-name="parenright" unicode=")" horiz-adv-x="448" 
d="M192 -64h-64h-64h-64v64v64h64h64v64h64v64v64v64v64v64v64v64h-64v64h-64h-64v64v64h64h64h64h64v-64h64v-64h64v-64v-64v-64v-64v-64v-64v-64v-64v-64h-64v-64h-64v-64h-64z" />
    <glyph glyph-name="asterisk" unicode="*" horiz-adv-x="448" 
d="M320 128h-64v64h-64h-64v-64h-64h-64v64v64h64v64v64h-64v64v64h64h64v-64h64h64v64h64h64v-64v-64h-64v-64v-64h64v-64v-64h-64z" />
    <glyph glyph-name="plus" unicode="+" horiz-adv-x="448" 
d="M192 128h-64v64v64h-64h-64v64v64h64h64v64v64h64h64v-64v-64h64h64v-64v-64h-64h-64v-64v-64h-64z" />
    <glyph glyph-name="comma" unicode="," horiz-adv-x="320" 
d="M64 -64h-64v64v64h64v64h64h64h64v-64v-64h-64h-64v-64h-64z" />
    <glyph glyph-name="hyphen" unicode="-" horiz-adv-x="448" 
d="M320 256h-64h-64h-64h-64h-64v64v64h64h64h64h64h64h64v-64v-64h-64z" />
    <glyph glyph-name="period" unicode="." horiz-adv-x="256" 
d="M128 0h-64h-64v64v64h64h64h64v-64v-64h-64z" />
    <glyph glyph-name="slash" unicode="/" horiz-adv-x="320" 
d="M128 0h-64h-64v64v64v64v64v64v64h64v64v64v64v64v64h64h64h64v-64v-64v-64v-64v-64v-64v-64h-64v-64v-64v-64v-64h-64z" />
    <glyph glyph-name="zero" unicode="0" 
d="M448 0h-64h-64h-64h-64h-64h-64v64h-64v64v64v64v64v64v64v64v64h64v64h64h64h64h64h64h64h64v-64h64v-64v-64v-64v-64v-64v-64v-64v-64h-64v-64h-64zM320 128h64v64v64v64v64v64v64h-64h-64h-64v-64v-64v-64v-64v-64v-64h64h64z" />
    <glyph glyph-name="one" unicode="1" 
d="M512 0h-64h-64h-64h-64h-64h-64h-64h-64v64v64h64h64h64v64v64v64v64v64v64h-64h-64h-64v64v64h64h64h64h64h64v-64h64v-64v-64v-64v-64v-64v-64v-64h64h64h64v-64v-64h-64z" />
    <glyph glyph-name="two" unicode="2" 
d="M512 0h-64h-64h-64h-64h-64h-64h-64v64h-64v64v64v64v64h64v64h64h64h64h64h64v64v64h-64h-64h-64v-64h-64h-64h-64v64v64h64v64h64h64h64h64h64h64h64v-64h64v-64v-64v-64v-64h-64v-64h-64h-64h-64h-64h-64v-64v-64h64h64h64h64h64h64v-64v-64h-64z" />
    <glyph glyph-name="three" unicode="3" 
d="M448 0h-64h-64h-64h-64h-64h-64v64h-64v64v64h64h64h64v-64h64h64h64v64v64h-64h-64h-64h-64h-64v64v64h64h64h64h64h64v64v64h-64h-64h-64h-64h-64v64v64h64h64h64h64h64h64h64v-64h64v-64v-64v-64h-64v-64h64v-64v-64v-64v-64h-64v-64h-64z" />
    <glyph glyph-name="four" unicode="4" 
d="M512 0h-64h-64v64v64v64h-64h-64h-64h-64h-64v64h-64v64v64v64v64v64v64h64h64h64v-64v-64v-64v-64v-64h64h64h64v64v64v64v64h64v64h64h64v-64v-64v-64v-64v-64v-64v-64v-64v-64v-64h-64z" />
    <glyph glyph-name="five" unicode="5" 
d="M448 0h-64h-64h-64h-64h-64h-64v64h-64v64v64h64h64h64v-64h64h64h64v64v64h-64h-64h-64h-64h-64v64h-64v64v64v64v64h64v64h64h64h64h64h64h64h64v-64v-64h-64h-64h-64h-64h-64v-64v-64h64h64h64h64h64v-64h64v-64v-64v-64v-64h-64v-64h-64z" />
    <glyph glyph-name="six" unicode="6" 
d="M448 0h-64h-64h-64h-64h-64v64h-64v64h-64v64v64v64v64v64v64v64h64v64h64h64h64h64h64h64v-64v-64h-64h-64h-64h-64v-64v-64h64h64h64h64h64v-64h64v-64v-64v-64v-64h-64v-64h-64zM320 128h64v64v64h-64h-64h-64v-64v-64h64h64z" />
    <glyph glyph-name="seven" unicode="7" 
d="M320 0h-64h-64v64v64v64v64v64h64v64h64v64h64v64h-64h-64h-64h-64h-64h-64v64v64h64h64h64h64h64h64h64h64h64v-64v-64v-64h-64v-64h-64v-64h-64v-64v-64v-64v-64v-64h-64z" />
    <glyph glyph-name="eight" unicode="8" 
d="M448 0h-64h-64h-64h-64h-64h-64v64h-64v64v64v64h64v64h-64v64v64v64v64h64v64h64h64h64h64h64h64h64v-64h64v-64v-64v-64h-64v-64h64v-64v-64v-64v-64h-64v-64h-64zM320 128h64v64v64h-64h-64h-64v-64v-64h64h64zM320 384h64v64v64h-64h-64h-64v-64v-64h64h64z" />
    <glyph glyph-name="nine" unicode="9" 
d="M448 0h-64h-64h-64h-64h-64h-64v64h-64v64v64h64h64h64v-64h64h64h64v64v64h-64h-64h-64h-64h-64v64h-64v64v64v64v64h64v64h64h64h64h64h64h64h64v-64h64v-64v-64v-64v-64v-64v-64v-64v-64h-64v-64h-64zM320 384h64v64v64h-64h-64h-64v-64v-64h64h64z" />
    <glyph glyph-name="colon" unicode=":" horiz-adv-x="256" 
d="M128 128h-64h-64v64v64h64h64h64v-64v-64h-64zM128 320h-64h-64v64v64h64h64h64v-64v-64h-64z" />
    <glyph glyph-name="semicolon" unicode=";" horiz-adv-x="320" 
d="M64 -64h-64v64v64h64v64h64h64h64v-64v-64h-64h-64v-64h-64zM192 192h-64h-64v64v64h64h64h64v-64v-64h-64z" />
    <glyph glyph-name="less" unicode="&#x3c;" horiz-adv-x="384" 
d="M256 128h-64h-64v64h-64v64h-64v64v64h64v64h64v64h64h64h64v-64v-64h-64h-64v-64v-64h64h64v-64v-64h-64z" />
    <glyph glyph-name="equal" unicode="=" horiz-adv-x="448" 
d="M320 128h-64h-64h-64h-64h-64v64v64h64h64h64h64h64h64v-64v-64h-64zM320 320h-64h-64h-64h-64h-64v64v64h64h64h64h64h64h64v-64v-64h-64z" />
    <glyph glyph-name="greater" unicode="&#x3e;" horiz-adv-x="384" 
d="M128 128h-64h-64v64v64h64h64v64v64h-64h-64v64v64h64h64h64v-64h64v-64h64v-64v-64h-64v-64h-64v-64h-64z" />
    <glyph glyph-name="question" unicode="?" horiz-adv-x="448" 
d="M256 0h-64h-64v64v64h64h64h64v-64v-64h-64zM256 192h-64h-64v64h-64v64v64v64h64v64h64v64v64h-64v-64h-64h-64v64v64h64v64h64h64h64h64v-64h64v-64v-64v-64h-64v-64h-64v-64v-64h64v-64v-64h-64z" />
    <glyph glyph-name="at" unicode="@" horiz-adv-x="832" 
d="M704 0h-64h-64h-64h-64h-64h-64h-64v64v64v64v64h64v64h64h64h64v-64v-64h-64v-64h64h64v64v64v64v64h-64h-64h-64v64v64h64h64h64v64h-64h-64h-64h-64h-64v-64h-64v-64v-64v-64v-64v-64v-64v-64v-64h-64h-64h-64v64v64v64v64v64v64v64v64v64h64v64h64v64h64h64h64h64h64
h64h64h64h64v-64h64v-64v-64v-64v-64v-64v-64v-64v-64v-64v-64h-64z" />
    <glyph glyph-name="A" unicode="A" 
d="M512 0h-64h-64v64v64v64h-64h-64h-64v-64v-64v-64h-64h-64h-64v64v64v64v64v64v64v64v64h64v64h64h64h64h64h64h64h64v-64h64v-64v-64v-64v-64v-64v-64v-64v-64h-64zM320 320h64v64v64h-64h-64h-64v-64v-64h64h64z" />
    <glyph glyph-name="B" unicode="B" 
d="M448 0h-64h-64h-64h-64h-64h-64h-64v64v64v64v64v64v64v64v64v64h64h64h64h64h64h64h64v-64h64v-64v-64h-64v-64h64v-64h64v-64v-64v-64h-64v-64h-64zM320 128h64v64h-64h-64h-64v-64h64h64zM256 320h64v64v64h-64h-64v-64v-64h64z" />
    <glyph glyph-name="C" unicode="C" 
d="M448 0h-64h-64h-64h-64h-64h-64v64h-64v64v64v64v64v64v64v64h64v64h64h64h64h64h64h64h64v-64h64v-64v-64h-64h-64h-64v64h-64h-64h-64v-64v-64v-64v-64v-64h64h64h64v64h64h64h64v-64v-64h-64v-64h-64z" />
    <glyph glyph-name="D" unicode="D" 
d="M448 0h-64h-64h-64h-64h-64h-64h-64v64v64v64v64v64v64v64v64v64h64h64h64h64h64h64h64v-64h64v-64h64v-64v-64v-64v-64v-64v-64h-64v-64h-64zM320 128h64v64v64v64v64h-64v64h-64h-64v-64v-64v-64v-64v-64h64h64z" />
    <glyph glyph-name="E" unicode="E" horiz-adv-x="576" 
d="M448 0h-64h-64h-64h-64h-64h-64v64h-64v64v64v64v64v64v64v64h64v64h64h64h64h64h64h64h64v-64v-64h-64h-64h-64h-64h-64v-64v-64h64h64h64h64v-64v-64h-64h-64h-64h-64v-64h64h64h64h64h64v-64v-64h-64z" />
    <glyph glyph-name="F" unicode="F" horiz-adv-x="512" 
d="M128 0h-64h-64v64v64v64v64v64v64v64v64h64v64h64h64h64h64h64h64v-64v-64h-64h-64h-64h-64v-64v-64h64h64h64h64v-64v-64h-64h-64h-64h-64v-64v-64v-64h-64z" />
    <glyph glyph-name="G" unicode="G" 
d="M448 0h-64h-64h-64h-64h-64h-64v64h-64v64v64v64v64v64v64v64h64v64h64h64h64h64h64h64h64v-64h64v-64v-64h-64h-64h-64v64h-64h-64h-64v-64v-64v-64v-64v-64h64h64h64v64h-64h-64v64v64h64h64h64h64h64v-64v-64v-64v-64h-64v-64h-64z" />
    <glyph glyph-name="H" unicode="H" 
d="M512 0h-64h-64v64v64v64h-64h-64h-64v-64v-64v-64h-64h-64h-64v64v64v64v64v64v64v64v64h64v64h64h64v-64v-64v-64v-64h64h64h64v64v64v64v64h64h64h64v-64v-64v-64v-64v-64v-64v-64v-64v-64h-64z" />
    <glyph glyph-name="I" unicode="I" horiz-adv-x="512" 
d="M384 0h-64h-64h-64h-64h-64h-64v64v64h64h64v64v64v64v64v64h-64h-64v64v64h64h64h64h64h64h64h64v-64v-64h-64h-64v-64v-64v-64v-64v-64h64h64v-64v-64h-64z" />
    <glyph glyph-name="J" unicode="J" horiz-adv-x="512" 
d="M320 0h-64h-64h-64h-64h-64v64v64h64h64h64h64v64v64v64v64v64v64v64h64h64h64v-64v-64v-64v-64v-64v-64v-64v-64h-64v-64h-64z" />
    <glyph glyph-name="K" unicode="K" 
d="M512 0h-64h-64v64v64v64v64h-64h-64v-64h-64v-64v-64v-64h-64h-64h-64v64v64v64v64v64v64v64v64v64h64h64h64v-64v-64v-64v-64h64v64h64v64v64v64h64h64h64v-64v-64h-64v-64h64v-64h64v-64v-64v-64v-64v-64h-64z" />
    <glyph glyph-name="L" unicode="L" horiz-adv-x="512" 
d="M384 0h-64h-64h-64h-64h-64v64h-64v64v64v64v64v64v64v64h64v64h64h64v-64v-64v-64v-64v-64v-64v-64h64h64h64h64v-64v-64h-64z" />
    <glyph glyph-name="M" unicode="M" horiz-adv-x="704" 
d="M576 0h-64h-64v64v64v64v64v64v64v64h-64v-64v-64h-64h-64v64v64h-64v-64v-64v-64v-64v-64v-64v-64h-64h-64h-64v64v64v64v64v64v64v64v64h64v64h64h64h64v-64h64h64v64h64h64h64v-64h64v-64v-64v-64v-64v-64v-64v-64v-64h-64z" />
    <glyph glyph-name="N" unicode="N" 
d="M512 0h-64h-64v64v64v64v64v64v64h-64v64h-64h-64v-64v-64v-64v-64v-64v-64v-64h-64h-64h-64v64v64v64v64v64v64v64v64v64h64h64h64h64h64h64h64v-64h64v-64h64v-64v-64v-64v-64v-64v-64v-64h-64z" />
    <glyph glyph-name="O" unicode="O" 
d="M448 0h-64h-64h-64h-64h-64h-64v64h-64v64v64v64v64v64v64v64h64v64h64h64h64h64h64h64h64v-64h64v-64v-64v-64v-64v-64v-64v-64h-64v-64h-64zM320 128h64v64v64v64v64v64h-64h-64h-64v-64v-64v-64v-64v-64h64h64z" />
    <glyph glyph-name="P" unicode="P" 
d="M128 0h-64h-64v64v64v64v64v64v64v64v64v64h64h64h64h64h64h64h64h64v-64h64v-64v-64v-64v-64v-64h-64v-64h-64h-64h-64h-64h-64v-64v-64h-64zM320 256h64v64v64v64h-64h-64h-64v-64v-64v-64h64h64z" />
    <glyph glyph-name="Q" unicode="Q" 
d="M512 -128h-64v64h-64v64h-64h-64h-64h-64h-64v64h-64v64v64v64v64v64v64v64h64v64h64h64h64h64h64h64h64v-64h64v-64v-64v-64v-64v-64v-64h-64v-64h64v-64v-64v-64h-64zM320 128h64v64v64v64v64v64h-64h-64h-64v-64v-64v-64v-64v-64h64h64z" />
    <glyph glyph-name="R" unicode="R" 
d="M512 0h-64h-64v64v64v64h-64h-64h-64v-64v-64v-64h-64h-64h-64v64v64v64v64v64v64v64v64v64h64h64h64h64h64h64h64v-64h64v-64v-64v-64h-64v-64h64v-64h64v-64v-64v-64h-64zM256 320h64v64v64h-64h-64v-64v-64h64z" />
    <glyph glyph-name="S" unicode="S" 
d="M448 0h-64h-64h-64h-64h-64h-64v64h-64v64v64h64h64h64v-64h64h64h64v64v64h-64h-64h-64h-64h-64v64h-64v64v64v64h64v64h64h64h64h64h64h64h64v-64v-64h-64h-64h-64h-64h-64v-64h64h64h64h64h64v-64h64v-64v-64v-64v-64h-64v-64h-64z" />
    <glyph glyph-name="T" unicode="T" 
d="M320 0h-64h-64v64v64v64v64v64v64v64h-64h-64h-64v64v64h64h64h64h64h64h64h64h64h64v-64v-64h-64h-64h-64v-64v-64v-64v-64v-64v-64v-64h-64z" />
    <glyph glyph-name="U" unicode="U" 
d="M448 0h-64h-64h-64h-64h-64h-64v64h-64v64v64v64v64v64v64v64v64h64h64h64v-64v-64v-64v-64v-64v-64v-64h64h64h64v64v64v64v64v64v64v64h64h64h64v-64v-64v-64v-64v-64v-64v-64v-64h-64v-64h-64z" />
    <glyph glyph-name="V" unicode="V" 
d="M320 0h-64h-64v64h-64v64h-64v64h-64v64v64v64v64v64v64h64h64h64v-64v-64v-64v-64v-64v-64h64v-64h64v64h64v64v64v64v64v64v64h64h64h64v-64v-64v-64v-64v-64v-64h-64v-64h-64v-64h-64v-64h-64z" />
    <glyph glyph-name="W" unicode="W" horiz-adv-x="704" 
d="M512 0h-64h-64v64h-64h-64v-64h-64h-64h-64v64h-64v64v64v64v64v64v64v64v64h64h64h64v-64v-64v-64v-64v-64v-64v-64h64v64v64h64h64v-64v-64h64v64v64v64v64v64v64v64h64h64h64v-64v-64v-64v-64v-64v-64v-64v-64h-64v-64h-64z" />
    <glyph glyph-name="X" unicode="X" 
d="M512 0h-64h-64v64v64v64h-64v64h-64v-64h-64v-64v-64v-64h-64h-64h-64v64v64v64h64v64h64v64h-64v64h-64v64v64v64h64h64h64v-64v-64v-64h64v-64h64v64h64v64v64v64h64h64h64v-64v-64v-64h-64v-64h-64v-64h64v-64h64v-64v-64v-64h-64z" />
    <glyph glyph-name="Y" unicode="Y" 
d="M448 0h-64h-64h-64h-64h-64h-64v64v64h64h64h64h64h64v64h-64h-64h-64h-64h-64v64h-64v64v64v64v64v64h64h64h64v-64v-64v-64v-64h64h64h64v64v64v64v64h64h64v-64h64v-64v-64v-64v-64v-64v-64v-64h-64v-64h-64z" />
    <glyph glyph-name="Z" unicode="Z" 
d="M448 0h-64h-64h-64h-64h-64h-64h-64v64v64v64v64v64h64v64h64h64h64h64h64v64h-64h-64h-64h-64h-64h-64v64v64h64h64h64h64h64h64h64h64h64v-64v-64v-64v-64h-64v-64h-64h-64h-64h-64h-64v-64v-64h64h64h64v64h64h64h64v-64v-64h-64v-64h-64z" />
    <glyph glyph-name="bracketleft" unicode="[" horiz-adv-x="448" 
d="M320 -64h-64h-64h-64h-64h-64v64v64v64v64v64v64v64v64v64v64v64v64v64h64h64h64h64h64h64v-64v-64h-64h-64h-64v-64v-64v-64v-64v-64v-64v-64v-64v-64h64h64h64v-64v-64h-64z" />
    <glyph glyph-name="backslash" unicode="\" horiz-adv-x="320" 
d="M192 0h-64h-64v64v64v64v64h-64v64v64v64v64v64v64v64h64h64h64v-64v-64v-64v-64v-64h64v-64v-64v-64v-64v-64v-64h-64z" />
    <glyph glyph-name="bracketright" unicode="]" horiz-adv-x="448" 
d="M320 -64h-64h-64h-64h-64h-64v64v64h64h64h64v64v64v64v64v64v64v64v64v64h-64h-64h-64v64v64h64h64h64h64h64h64v-64v-64v-64v-64v-64v-64v-64v-64v-64v-64v-64v-64v-64h-64z" />
    <glyph glyph-name="asciicircum" unicode="^" horiz-adv-x="384" 
d="M256 576h-64v64h-64v-64h-64h-64v64v64h64v64h64h64h64v-64h64v-64v-64h-64z" />
    <glyph glyph-name="underscore" unicode="_" horiz-adv-x="448" 
d="M320 -64h-64h-64h-64h-64h-64v64v64h64h64h64h64h64h64v-64v-64h-64z" />
    <glyph glyph-name="grave" unicode="`" horiz-adv-x="256" 
d="M128 512h-64v64h-64v64v64h64h64v-64h64v-64v-64h-64z" />
    <glyph glyph-name="a" unicode="a" horiz-adv-x="576" 
d="M448 0h-64h-64h-64h-64h-64h-64v64h-64v64v64v64h64v64h64h64h64v-64v-64h-64v-64h64h64v64v64v64v64h-64h-64h-64v64v64h64h64h64h64h64v-64h64v-64v-64v-64v-64v-64v-64v-64h-64z" />
    <glyph glyph-name="b" unicode="b" horiz-adv-x="576" 
d="M384 0h-64h-64h-64h-64v64h-64v64h-64v64v64v64v64v64v64v64v64h64h64h64v-64v-64h64h64h64h64v-64h64v-64v-64v-64v-64v-64v-64h-64v-64h-64zM320 128v64v64v64v64h-64h-64v-64v-64v-64h64v-64h64z" />
    <glyph glyph-name="c" unicode="c" horiz-adv-x="576" 
d="M384 0h-64h-64h-64h-64h-64v64h-64v64v64v64v64v64v64h64v64h64h64h64h64h64h64v-64h64v-64v-64h-64h-64h-64v64h-64h-64v-64v-64v-64v-64h64h64v64h64h64h64v-64v-64h-64v-64h-64z" />
    <glyph glyph-name="d" unicode="d" horiz-adv-x="576" 
d="M320 0h-64h-64h-64h-64v64h-64v64v64v64v64v64v64h64v64h64h64h64h64v64v64h64h64h64v-64v-64v-64v-64v-64v-64v-64v-64h-64v-64h-64v-64h-64zM256 128v64h64v64v64v64h-64h-64v-64v-64v-64v-64h64z" />
    <glyph glyph-name="e" unicode="e" horiz-adv-x="576" 
d="M384 0h-64h-64h-64h-64h-64v64h-64v64v64v64v64v64v64h64v64h64h64h64h64h64h64v-64h64v-64v-64v-64h-64v-64h-64h-64h-64v64v64h64v64h-64h-64v-64v-64v-64v-64h64h64h64h64v-64v-64h-64z" />
    <glyph glyph-name="f" unicode="f" horiz-adv-x="448" 
d="M128 -64h-64h-64v64v64v64v64v64v64v64v64v64h64v64h64v64h64h64h64h64v-64v-64h-64h-64v-64h-64v-64h64h64h64v-64v-64h-64h-64h-64v-64v-64v-64v-64v-64h-64z" />
    <glyph glyph-name="g" unicode="g" horiz-adv-x="576" 
d="M384 -128h-64h-64h-64h-64v64v64h64h64h64v64h-64h-64h-64h-64v64h-64v64v64v64v64v64h64v64h64h64h64h64h64h64v-64h64v-64v-64v-64v-64v-64v-64v-64v-64h-64v-64h-64zM256 192h64v64v64v64h-64h-64v-64v-64v-64h64z" />
    <glyph glyph-name="h" unicode="h" horiz-adv-x="576" 
d="M448 0h-64h-64v64v64v64v64v64v64h-64v-64h-64v-64v-64v-64v-64v-64h-64h-64h-64v64v64v64v64v64v64v64v64v64v64h64h64h64v-64v-64v-64h64v64h64h64h64v-64h64v-64v-64v-64v-64v-64v-64v-64h-64z" />
    <glyph glyph-name="i" unicode="i" horiz-adv-x="256" 
d="M128 0h-64h-64v64v64v64v64v64v64v64v64h64h64h64v-64v-64v-64v-64v-64v-64v-64v-64h-64zM128 576h-64h-64v64v64h64h64h64v-64v-64h-64z" />
    <glyph glyph-name="j" unicode="j" horiz-adv-x="448" 
d="M256 -64h-64h-64h-64h-64v64v64h64h64h64v64v64v64v64v64v64v64h64h64h64v-64v-64v-64v-64v-64v-64v-64v-64h-64v-64h-64zM320 576h-64h-64v64v64h64h64h64v-64v-64h-64z" />
    <glyph glyph-name="k" unicode="k" horiz-adv-x="576" 
d="M448 0h-64h-64v64v64v64v64h-64v-64h-64v-64v-64v-64h-64h-64h-64v64v64v64v64v64v64v64v64v64v64h64h64h64v-64v-64v-64v-64v-64h64v64v64v64h64h64h64v-64v-64h-64v-64h64v-64h64v-64v-64v-64v-64h-64z" />
    <glyph glyph-name="l" unicode="l" horiz-adv-x="256" 
d="M128 0h-64h-64v64v64v64v64v64v64v64v64v64h64v64h64h64v-64v-64v-64v-64v-64v-64v-64v-64v-64v-64h-64z" />
    <glyph glyph-name="m" unicode="m" horiz-adv-x="704" 
d="M576 0h-64h-64v64v64v64v64v64v64h-64v-64v-64h-64h-64v64v64h-64v-64v-64v-64v-64v-64v-64h-64h-64h-64v64v64v64v64v64v64v64h64v64h64h64h64v-64h64h64v64h64h64h64v-64h64v-64v-64v-64v-64v-64v-64v-64h-64z" />
    <glyph glyph-name="n" unicode="n" horiz-adv-x="576" 
d="M448 0h-64h-64v64v64v64v64v64h-64v64h-64v-64v-64v-64v-64v-64v-64h-64h-64h-64v64v64v64v64v64v64v64v64h64h64h64h64h64h64v-64h64v-64h64v-64v-64v-64v-64v-64v-64h-64z" />
    <glyph glyph-name="o" unicode="o" horiz-adv-x="576" 
d="M384 0h-64h-64h-64h-64h-64v64h-64v64v64v64v64v64v64h64v64h64h64h64h64h64h64v-64h64v-64v-64v-64v-64v-64v-64h-64v-64h-64zM256 128h64v64v64v64v64h-64h-64v-64v-64v-64v-64h64z" />
    <glyph glyph-name="p" unicode="p" horiz-adv-x="576" 
d="M128 -128h-64h-64v64v64v64v64v64v64v64v64v64h64v64h64h64h64h64h64h64v-64h64v-64v-64v-64v-64h-64v-64h-64v-64h-64h-64h-64v-64v-64v-64h-64zM256 192v64h64v64v64h-64h-64v-64v-64v-64h64z" />
    <glyph glyph-name="q" unicode="q" horiz-adv-x="576" 
d="M448 -128h-64h-64v64v64v64h-64h-64h-64v64h-64v64h-64v64v64v64v64h64v64h64h64h64h64h64h64v-64h64v-64v-64v-64v-64v-64v-64v-64v-64v-64h-64zM320 192v64v64v64h-64h-64v-64v-64h64v-64h64z" />
    <glyph glyph-name="r" unicode="r" horiz-adv-x="576" 
d="M128 0h-64h-64v64v64v64v64v64v64v64h64v64h64h64h64h64h64h64v-64h64v-64v-64v-64h-64h-64h-64v64v64h-64h-64v-64v-64v-64v-64v-64v-64h-64z" />
    <glyph glyph-name="s" unicode="s" horiz-adv-x="576" 
d="M384 0h-64h-64h-64h-64h-64h-64v64v64h64h64h64h64h64v64h-64h-64h-64h-64v64h-64v64v64v64h64v64h64h64h64h64h64h64v-64v-64h-64h-64h-64h-64v-64h64h64h64h64v-64h64v-64v-64v-64h-64v-64h-64z" />
    <glyph glyph-name="t" unicode="t" horiz-adv-x="448" 
d="M320 0h-64h-64h-64h-64v64h-64v64v64v64v64v64v64v64v64h64v64h64h64v-64v-64h64h64h64v-64v-64h-64h-64h-64v-64v-64v-64v-64h64h64h64v-64v-64h-64z" />
    <glyph glyph-name="u" unicode="u" horiz-adv-x="576" 
d="M384 0h-64h-64h-64h-64h-64v64h-64v64v64v64v64v64v64h64v64h64h64v-64v-64v-64v-64v-64v-64h64h64v64v64v64v64v64v64h64h64h64v-64v-64v-64v-64v-64v-64v-64h-64v-64h-64z" />
    <glyph glyph-name="v" unicode="v" horiz-adv-x="576" 
d="M256 0h-64h-64v64h-64v64h-64v64v64v64v64v64v64h64h64h64v-64v-64v-64v-64v-64v-64h64v64h64v64v64v64v64v64h64h64h64v-64v-64v-64v-64v-64h-64v-64h-64v-64h-64v-64h-64z" />
    <glyph glyph-name="w" unicode="w" horiz-adv-x="704" 
d="M512 0h-64h-64v64h-64h-64v-64h-64h-64h-64v64h-64v64v64v64v64v64v64v64h64h64h64v-64v-64v-64v-64v-64v-64h64v64v64h64h64v-64v-64h64v64v64v64v64v64v64h64h64h64v-64v-64v-64v-64v-64v-64v-64h-64v-64h-64z" />
    <glyph glyph-name="x" unicode="x" horiz-adv-x="576" 
d="M448 0h-64h-64v64v64v64h-64v64h-64v-64v-64v-64v-64h-64h-64h-64v64v64v64h64v64h64v64h-64v64h-64v64v64h64h64h64v-64v-64h64v-64h64v64v64v64h64h64h64v-64v-64h-64v-64h-64v-64h64v-64h64v-64v-64v-64h-64z" />
    <glyph glyph-name="y" unicode="y" horiz-adv-x="576" 
d="M384 -128h-64h-64h-64h-64v64v64h64h64h64v64h-64h-64h-64h-64v64h-64v64v64v64v64v64v64h64h64h64v-64v-64v-64v-64v-64h64h64v64v64v64v64v64h64h64v-64h64v-64v-64v-64v-64v-64v-64v-64v-64h-64v-64h-64z" />
    <glyph glyph-name="z" unicode="z" horiz-adv-x="576" 
d="M448 0h-64h-64h-64h-64h-64h-64h-64v64v64v64v64h64v64h64h64h64h64v64h-64h-64h-64h-64h-64v64v64h64h64h64h64h64h64h64h64v-64v-64v-64v-64h-64v-64h-64h-64h-64h-64v-64h64h64h64h64h64v-64v-64h-64z" />
    <glyph glyph-name="braceleft" unicode="{" horiz-adv-x="448" 
d="M320 -64h-64h-64h-64h-64v64h-64v64v64v64h64v64h-64v64v64v64h64v64h-64v64v64v64h64v64h64h64h64h64h64v-64v-64h-64h-64h-64v-64h64v-64v-64h-64v-64h-64v-64h64v-64h64v-64v-64h-64v-64h64h64h64v-64v-64h-64z" />
    <glyph glyph-name="bar" unicode="|" horiz-adv-x="256" 
d="M128 0h-64h-64v64v64v64v64v64v64v64v64v64v64v64h64h64h64v-64v-64v-64v-64v-64v-64v-64v-64v-64v-64v-64h-64z" />
    <glyph glyph-name="braceright" unicode="}" horiz-adv-x="448" 
d="M256 -64h-64h-64h-64h-64v64v64h64h64h64v64h-64v64v64h64v64h64v64h-64v64h-64v64v64h64v64h-64h-64h-64v64v64h64h64h64h64h64v-64h64v-64v-64v-64h-64v-64h64v-64v-64v-64h-64v-64h64v-64v-64v-64h-64v-64h-64z" />
    <glyph glyph-name="asciitilde" unicode="~" horiz-adv-x="576" 
d="M384 256h-64h-64v64h-64v64h-64v-64h-64h-64v64v64h64v64h64h64h64v-64h64v-64h64v64h64h64v-64v-64h-64v-64h-64z" />
    <glyph glyph-name="uni00A0" unicode="&#xa0;" horiz-adv-x="320" 
 />
    <glyph glyph-name="exclamdown" unicode="&#xa1;" horiz-adv-x="256" 
d="M128 -64h-64h-64v64v64v64v64v64v64v64v64v64h64h64h64v-64v-64v-64v-64v-64v-64v-64v-64v-64h-64zM128 576h-64h-64v64v64h64h64h64v-64v-64h-64z" />
    <glyph glyph-name="cent" unicode="&#xa2;" horiz-adv-x="704" 
d="M320 -64h-64v64h-64h-64h-64v64h-64v64v64v64v64v64v64v64v64h64v64h64h64h64v64h64h64v-64h64h64h64v-64h64v-64v-64h-64h-64h-64v64h-64v-64v-64v-64v-64v-64v-64h64v64h64h64h64v-64v-64h-64v-64h-64h-64h-64v-64h-64zM256 128v64v64v64v64v64v64h-64v-64v-64v-64v-64
v-64v-64h64z" />
    <glyph glyph-name="sterling" unicode="&#xa3;" 
d="M448 0h-64h-64h-64h-64h-64h-64h-64v64v64h64v64v64h-64v64v64h64v64v64v64v64h64v64h64h64h64h64h64h64v-64h64v-64v-64h-64h-64h-64v64h-64h-64v-64v-64v-64h64h64v-64v-64h-64h-64v-64v-64h64h64v64h64h64h64v-64v-64h-64v-64h-64z" />
    <glyph glyph-name="copyright" unicode="&#xa9;" horiz-adv-x="768" 
d="M576 0h-64h-64h-64h-64h-64h-64h-64h-64v64h-64v64v64v64v64v64v64v64v64v64h64v64h64h64h64h64h64h64h64h64h64v-64h64v-64v-64v-64v-64v-64v-64v-64v-64v-64h-64v-64h-64zM512 128h64v64v64v64v64v64v64v64h-64h-64h-64h-64h-64h-64h-64v-64v-64v-64v-64v-64v-64v-64
h64h64h64h64h64h64zM448 192h-64h-64h-64v64h-64v64v64v64h64v64h64h64h64h64v-64v-64h-64h-64h-64v-64h64h64h64v-64v-64h-64z" />
    <glyph glyph-name="registered" unicode="&#xae;" horiz-adv-x="768" 
d="M576 0h-64h-64h-64h-64h-64h-64h-64h-64v64h-64v64v64v64v64v64v64v64v64v64h64v64h64h64h64h64h64h64h64h64h64v-64h64v-64v-64v-64v-64v-64v-64v-64v-64v-64h-64v-64h-64zM512 128h64v64v64v64v64v64v64v64h-64h-64h-64h-64h-64h-64h-64v-64v-64v-64v-64v-64v-64v-64
h64h64h64h64h64h64zM448 192h-64v64v64h-64v-64v-64h-64h-64v64v64v64v64h64v64h64h64h64h64v-64v-64h-64v-64h64v-64v-64h-64zM384 384v64h-64v-64h64z" />
    <glyph glyph-name="degree" unicode="&#xb0;" horiz-adv-x="384" 
d="M192 448h-64h-64v64h-64v64v64h64v64h64h64h64v-64h64v-64v-64h-64v-64h-64zM192 576v64h-64v-64h64z" />
    <glyph glyph-name="questiondown" unicode="&#xbf;" horiz-adv-x="448" 
d="M256 -64h-64h-64h-64v64h-64v64v64v64h64v64h64v64v64h-64v64v64h64h64h64v-64h64v-64v-64v-64h-64v-64h-64v-64v-64h64v64h64h64v-64v-64h-64v-64h-64zM192 576h-64h-64v64v64h64h64h64v-64v-64h-64z" />
    <glyph glyph-name="Agrave" unicode="&#xc0;" 
d="M512 0h-64h-64v64v64v64h-64h-64h-64v-64v-64v-64h-64h-64h-64v64v64v64v64v64v64v64v64h64v64h64h64h64h64h64h64h64v-64h64v-64v-64v-64v-64v-64v-64v-64v-64h-64zM320 320h64v64v64h-64h-64h-64v-64v-64h64h64zM320 640h-64h-64v64h-64v64h64h64h64v-64h64v-64h-64z
" />
    <glyph glyph-name="Aacute" unicode="&#xc1;" 
d="M512 0h-64h-64v64v64v64h-64h-64h-64v-64v-64v-64h-64h-64h-64v64v64v64v64v64v64v64v64h64v64h64h64h64h64h64h64h64v-64h64v-64v-64v-64v-64v-64v-64v-64v-64h-64zM320 320h64v64v64h-64h-64h-64v-64v-64h64h64zM320 640h-64h-64v64h64v64h64h64h64v-64h-64v-64h-64z
" />
    <glyph glyph-name="Acircumflex" unicode="&#xc2;" 
d="M512 0h-64h-64v64v64v64h-64h-64h-64v-64v-64v-64h-64h-64h-64v64v64v64v64v64v64v64v64h64v64h64h64h64h64h64h64h64v-64h64v-64v-64v-64v-64v-64v-64v-64v-64h-64zM320 320h64v64v64h-64h-64h-64v-64v-64h64h64zM384 640h-64v64h-64v-64h-64h-64v64h64v64h64h64h64v-64
h64v-64h-64z" />
    <glyph glyph-name="Atilde" unicode="&#xc3;" 
d="M512 0h-64h-64v64v64v64h-64h-64h-64v-64v-64v-64h-64h-64h-64v64v64v64v64v64v64v64v64h64v64h64h64h64h64h64h64h64v-64h64v-64v-64v-64v-64v-64v-64v-64v-64h-64zM320 320h64v64v64h-64h-64h-64v-64v-64h64h64zM384 640h-64h-64v64h64v64h64h64h64v-64h-64v-64h-64z
M128 640h-64v64h64v64h64h64v-64h-64v-64h-64z" />
    <glyph glyph-name="Adieresis" unicode="&#xc4;" 
d="M512 0h-64h-64v64v64v64h-64h-64h-64v-64v-64v-64h-64h-64h-64v64v64v64v64v64v64v64v64h64v64h64h64h64h64h64h64h64v-64h64v-64v-64v-64v-64v-64v-64v-64v-64h-64zM320 320h64v64v64h-64h-64h-64v-64v-64h64h64zM384 640h-64v64v64h64h64v-64v-64h-64zM192 640h-64v64
v64h64h64v-64v-64h-64z" />
    <glyph glyph-name="Aring" unicode="&#xc5;" 
d="M512 0h-64h-64v64v64v64h-64h-64h-64v-64v-64v-64h-64h-64h-64v64v64v64v64v64v64v64v64h64v64h64h64v64h-64v64h64v64h64h64h64v-64h64v-64h-64v-64h64h64v-64h64v-64v-64v-64v-64v-64v-64v-64v-64h-64zM320 320h64v64v64h-64h-64h-64v-64v-64h64h64zM320 640v64h-64
v-64h64z" />
    <glyph glyph-name="AE" unicode="&#xc6;" horiz-adv-x="960" 
d="M832 0h-64h-64h-64h-64h-64h-64h-64v64v64v64h-64h-64h-64v-64v-64v-64h-64h-64h-64v64v64v64v64v64v64v64v64h64v64h64h64h64h64h64h64h64h64h64h64h64h64h64v-64v-64h-64h-64h-64h-64h-64v-64v-64h64h64h64h64v-64v-64h-64h-64h-64h-64v-64h64h64h64h64h64v-64v-64h-64
zM320 320h64v64v64h-64h-64h-64v-64v-64h64h64z" />
    <glyph glyph-name="Ccedilla" unicode="&#xc7;" 
d="M320 -128h-64h-64v64h64v64h-64h-64h-64v64h-64v64v64v64v64v64v64v64h64v64h64h64h64h64h64h64h64v-64h64v-64v-64h-64h-64h-64v64h-64h-64h-64v-64v-64v-64v-64v-64h64h64h64v64h64h64h64v-64v-64h-64v-64h-64h-64v-64v-64h-64z" />
    <glyph glyph-name="Egrave" unicode="&#xc8;" horiz-adv-x="576" 
d="M448 0h-64h-64h-64h-64h-64h-64v64h-64v64v64v64v64v64v64v64h64v64h64h64h64h64h64h64h64v-64v-64h-64h-64h-64h-64h-64v-64v-64h64h64h64h64v-64v-64h-64h-64h-64h-64v-64h64h64h64h64h64v-64v-64h-64zM320 640h-64h-64v64h-64v64h64h64h64v-64h64v-64h-64z" />
    <glyph glyph-name="Eacute" unicode="&#xc9;" horiz-adv-x="576" 
d="M448 0h-64h-64h-64h-64h-64h-64v64h-64v64v64v64v64v64v64v64h64v64h64h64h64h64h64h64h64v-64v-64h-64h-64h-64h-64h-64v-64v-64h64h64h64h64v-64v-64h-64h-64h-64h-64v-64h64h64h64h64h64v-64v-64h-64zM320 640h-64h-64v64h64v64h64h64h64v-64h-64v-64h-64z" />
    <glyph glyph-name="Ecircumflex" unicode="&#xca;" horiz-adv-x="576" 
d="M448 0h-64h-64h-64h-64h-64h-64v64h-64v64v64v64v64v64v64v64h64v64h64h64h64h64h64h64h64v-64v-64h-64h-64h-64h-64h-64v-64v-64h64h64h64h64v-64v-64h-64h-64h-64h-64v-64h64h64h64h64h64v-64v-64h-64zM384 640h-64v64h-64v-64h-64h-64v64h64v64h64h64h64v-64h64v-64
h-64z" />
    <glyph glyph-name="Edieresis" unicode="&#xcb;" horiz-adv-x="576" 
d="M448 0h-64h-64h-64h-64h-64h-64v64h-64v64v64v64v64v64v64v64h64v64h64h64h64h64h64h64h64v-64v-64h-64h-64h-64h-64h-64v-64v-64h64h64h64h64v-64v-64h-64h-64h-64h-64v-64h64h64h64h64h64v-64v-64h-64zM384 640h-64v64v64h64h64v-64v-64h-64zM192 640h-64v64v64h64h64
v-64v-64h-64z" />
    <glyph glyph-name="Igrave" unicode="&#xcc;" horiz-adv-x="512" 
d="M384 0h-64h-64h-64h-64h-64h-64v64v64h64h64v64v64v64v64v64h-64h-64v64v64h64h64h64h64h64h64h64v-64v-64h-64h-64v-64v-64v-64v-64v-64h64h64v-64v-64h-64zM256 640h-64h-64v64h-64v64h64h64h64v-64h64v-64h-64z" />
    <glyph glyph-name="Iacute" unicode="&#xcd;" horiz-adv-x="512" 
d="M384 0h-64h-64h-64h-64h-64h-64v64v64h64h64v64v64v64v64v64h-64h-64v64v64h64h64h64h64h64h64h64v-64v-64h-64h-64v-64v-64v-64v-64v-64h64h64v-64v-64h-64zM256 640h-64h-64v64h64v64h64h64h64v-64h-64v-64h-64z" />
    <glyph glyph-name="Icircumflex" unicode="&#xce;" horiz-adv-x="512" 
d="M384 0h-64h-64h-64h-64h-64h-64v64v64h64h64v64v64v64v64v64h-64h-64v64v64h64h64h64h64h64h64h64v-64v-64h-64h-64v-64v-64v-64v-64v-64h64h64v-64v-64h-64zM320 640h-64v64h-64v-64h-64h-64v64h64v64h64h64h64v-64h64v-64h-64z" />
    <glyph glyph-name="Idieresis" unicode="&#xcf;" horiz-adv-x="512" 
d="M384 0h-64h-64h-64h-64h-64h-64v64v64h64h64v64v64v64v64v64h-64h-64v64v64h64h64h64h64h64h64h64v-64v-64h-64h-64v-64v-64v-64v-64v-64h64h64v-64v-64h-64zM320 640h-64v64v64h64h64v-64v-64h-64zM128 640h-64v64v64h64h64v-64v-64h-64z" />
    <glyph glyph-name="Eth" unicode="&#xd0;" horiz-adv-x="704" 
d="M512 0h-64h-64h-64h-64h-64h-64h-64v64v64v64h-64v64v64h64v64v64v64v64h64h64h64h64h64h64h64v-64h64v-64h64v-64v-64v-64v-64v-64v-64h-64v-64h-64zM384 128h64v64v64v64v64h-64v64h-64h-64v-64v-64h64h64v-64v-64h-64h-64v-64h64h64z" />
    <glyph glyph-name="Ntilde" unicode="&#xd1;" 
d="M512 0h-64h-64v64v64v64v64v64v64h-64v64h-64h-64v-64v-64v-64v-64v-64v-64v-64h-64h-64h-64v64v64v64v64v64v64v64v64v64h64h64h64h64h64h64h64v-64h64v-64h64v-64v-64v-64v-64v-64v-64v-64h-64zM384 640h-64h-64v64h64v64h64h64h64v-64h-64v-64h-64zM128 640h-64v64h64
v64h64h64v-64h-64v-64h-64z" />
    <glyph glyph-name="Ograve" unicode="&#xd2;" 
d="M448 0h-64h-64h-64h-64h-64h-64v64h-64v64v64v64v64v64v64v64h64v64h64h64h64h64h64h64h64v-64h64v-64v-64v-64v-64v-64v-64v-64h-64v-64h-64zM320 128h64v64v64v64v64v64h-64h-64h-64v-64v-64v-64v-64v-64h64h64zM320 640h-64h-64v64h-64v64h64h64h64v-64h64v-64h-64z
" />
    <glyph glyph-name="Oacute" unicode="&#xd3;" 
d="M448 0h-64h-64h-64h-64h-64h-64v64h-64v64v64v64v64v64v64v64h64v64h64h64h64h64h64h64h64v-64h64v-64v-64v-64v-64v-64v-64v-64h-64v-64h-64zM320 128h64v64v64v64v64v64h-64h-64h-64v-64v-64v-64v-64v-64h64h64zM320 640h-64h-64v64h64v64h64h64h64v-64h-64v-64h-64z
" />
    <glyph glyph-name="Ocircumflex" unicode="&#xd4;" 
d="M448 0h-64h-64h-64h-64h-64h-64v64h-64v64v64v64v64v64v64v64h64v64h64h64h64h64h64h64h64v-64h64v-64v-64v-64v-64v-64v-64v-64h-64v-64h-64zM320 128h64v64v64v64v64v64h-64h-64h-64v-64v-64v-64v-64v-64h64h64zM384 640h-64v64h-64v-64h-64h-64v64h64v64h64h64h64v-64
h64v-64h-64z" />
    <glyph glyph-name="Otilde" unicode="&#xd5;" 
d="M448 0h-64h-64h-64h-64h-64h-64v64h-64v64v64v64v64v64v64v64h64v64h64h64h64h64h64h64h64v-64h64v-64v-64v-64v-64v-64v-64v-64h-64v-64h-64zM320 128h64v64v64v64v64v64h-64h-64h-64v-64v-64v-64v-64v-64h64h64zM384 640h-64h-64v64h64v64h64h64h64v-64h-64v-64h-64z
M128 640h-64v64h64v64h64h64v-64h-64v-64h-64z" />
    <glyph glyph-name="Odieresis" unicode="&#xd6;" 
d="M448 0h-64h-64h-64h-64h-64h-64v64h-64v64v64v64v64v64v64v64h64v64h64h64h64h64h64h64h64v-64h64v-64v-64v-64v-64v-64v-64v-64h-64v-64h-64zM320 128h64v64v64v64v64v64h-64h-64h-64v-64v-64v-64v-64v-64h64h64zM384 640h-64v64v64h64h64v-64v-64h-64zM192 640h-64v64
v64h64h64v-64v-64h-64z" />
    <glyph glyph-name="Oslash" unicode="&#xd8;" 
d="M448 0h-64h-64h-64h-64h-64h-64v64h-64v64v64v64v64v64v64v64h64v64h64h64h64h64h64h64h64v-64h64v-64v-64v-64v-64v-64v-64v-64h-64v-64h-64zM320 128h64v64v64h-64v-64h-64v-64h64zM256 320v64h64v64h-64h-64v-64v-64h64z" />
    <glyph glyph-name="Ugrave" unicode="&#xd9;" 
d="M448 0h-64h-64h-64h-64h-64h-64v64h-64v64v64v64v64v64v64v64v64h64h64h64v-64v-64v-64v-64v-64v-64v-64h64h64h64v64v64v64v64v64v64v64h64h64h64v-64v-64v-64v-64v-64v-64v-64v-64h-64v-64h-64zM320 640h-64h-64v64h-64v64h64h64h64v-64h64v-64h-64z" />
    <glyph glyph-name="Uacute" unicode="&#xda;" 
d="M448 0h-64h-64h-64h-64h-64h-64v64h-64v64v64v64v64v64v64v64v64h64h64h64v-64v-64v-64v-64v-64v-64v-64h64h64h64v64v64v64v64v64v64v64h64h64h64v-64v-64v-64v-64v-64v-64v-64v-64h-64v-64h-64zM320 640h-64h-64v64h64v64h64h64h64v-64h-64v-64h-64z" />
    <glyph glyph-name="Ucircumflex" unicode="&#xdb;" 
d="M448 0h-64h-64h-64h-64h-64h-64v64h-64v64v64v64v64v64v64v64v64h64h64h64v-64v-64v-64v-64v-64v-64v-64h64h64h64v64v64v64v64v64v64v64h64h64h64v-64v-64v-64v-64v-64v-64v-64v-64h-64v-64h-64zM384 640h-64v64h-64v-64h-64h-64v64h64v64h64h64h64v-64h64v-64h-64z" />
    <glyph glyph-name="Udieresis" unicode="&#xdc;" 
d="M448 0h-64h-64h-64h-64h-64h-64v64h-64v64v64v64v64v64v64v64v64h64h64h64v-64v-64v-64v-64v-64v-64v-64h64h64h64v64v64v64v64v64v64v64h64h64h64v-64v-64v-64v-64v-64v-64v-64v-64h-64v-64h-64zM384 640h-64v64v64h64h64v-64v-64h-64zM192 640h-64v64v64h64h64v-64v-64
h-64z" />
    <glyph glyph-name="Yacute" unicode="&#xdd;" 
d="M448 0h-64h-64h-64h-64h-64h-64v64v64h64h64h64h64h64v64h-64h-64h-64h-64h-64v64h-64v64v64v64v64v64h64h64h64v-64v-64v-64v-64h64h64h64v64v64v64v64h64h64v-64h64v-64v-64v-64v-64v-64v-64v-64h-64v-64h-64zM320 640h-64h-64v64h64v64h64h64h64v-64h-64v-64h-64z" />
    <glyph glyph-name="Thorn" unicode="&#xde;" 
d="M128 0h-64h-64v64v64v64v64v64v64v64v64v64h64h64h64v-64h64h64h64h64v-64h64v-64h64v-64v-64v-64v-64h-64v-64h-64h-64h-64h-64h-64v-64h-64zM320 192h64v64v64v64h-64h-64h-64v-64v-64v-64h64h64z" />
    <glyph glyph-name="germandbls" unicode="&#xdf;" 
d="M448 0h-64h-64h-64v64h64v64h64v64h-64h-64v64v64h64v64v64h-64h-64v-64v-64v-64v-64v-64v-64h-64v-64h-64h-64v64v64v64v64v64v64v64h64v64h64v64h64h64h64h64h64v-64h64v-64v-64h-64v-64h64v-64h64v-64v-64v-64h-64v-64h-64z" />
    <glyph glyph-name="agrave" unicode="&#xe0;" horiz-adv-x="576" 
d="M448 0h-64h-64h-64h-64h-64h-64v64h-64v64v64v64h64v64h64h64h64v-64v-64h-64v-64h64h64v64v64v64v64h-64h-64h-64v64v64h64h64h64h64h64v-64h64v-64v-64v-64v-64v-64v-64v-64h-64zM384 576h-64h-64v64h-64v64h64h64h64v-64h64v-64h-64z" />
    <glyph glyph-name="aacute" unicode="&#xe1;" horiz-adv-x="576" 
d="M448 0h-64h-64h-64h-64h-64h-64v64h-64v64v64v64h64v64h64h64h64v-64v-64h-64v-64h64h64v64v64v64v64h-64h-64h-64v64v64h64h64h64h64h64v-64h64v-64v-64v-64v-64v-64v-64v-64h-64zM320 576h-64h-64v64h64v64h64h64h64v-64h-64v-64h-64z" />
    <glyph glyph-name="acircumflex" unicode="&#xe2;" horiz-adv-x="576" 
d="M448 0h-64h-64h-64h-64h-64h-64v64h-64v64v64v64h64v64h64h64h64v-64v-64h-64v-64h64h64v64v64v64v64h-64h-64h-64v64v64h64h64h64h64h64v-64h64v-64v-64v-64v-64v-64v-64v-64h-64zM384 576h-64v64h-64v-64h-64h-64v64h64v64h64h64h64v-64h64v-64h-64z" />
    <glyph glyph-name="atilde" unicode="&#xe3;" horiz-adv-x="576" 
d="M448 0h-64h-64h-64h-64h-64h-64v64h-64v64v64v64h64v64h64h64h64v-64v-64h-64v-64h64h64v64v64v64v64h-64h-64h-64v64v64h64h64h64h64h64v-64h64v-64v-64v-64v-64v-64v-64v-64h-64zM384 576h-64h-64v64h64v64h64h64h64v-64h-64v-64h-64zM128 576h-64v64h64v64h64h64v-64
h-64v-64h-64z" />
    <glyph glyph-name="adieresis" unicode="&#xe4;" horiz-adv-x="576" 
d="M448 0h-64h-64h-64h-64h-64h-64v64h-64v64v64v64h64v64h64h64h64v-64v-64h-64v-64h64h64v64v64v64v64h-64h-64h-64v64v64h64h64h64h64h64v-64h64v-64v-64v-64v-64v-64v-64v-64h-64zM384 576h-64v64v64h64h64v-64v-64h-64zM192 576h-64v64v64h64h64v-64v-64h-64z" />
    <glyph glyph-name="aring" unicode="&#xe5;" horiz-adv-x="576" 
d="M448 0h-64h-64h-64h-64h-64h-64v64h-64v64v64v64h64v64h64h64h64v-64v-64h-64v-64h64h64v64v64v64v64h-64h-64h-64v64v64h64h64h64h64h64v-64h64v-64v-64v-64v-64v-64v-64v-64h-64zM320 576h-64h-64v64h-64v64h64v64h64h64h64v-64h64v-64h-64v-64h-64zM320 640v64h-64
v-64h64z" />
    <glyph glyph-name="ae" unicode="&#xe6;" horiz-adv-x="896" 
d="M704 0h-64h-64h-64h-64h-64h-64h-64h-64h-64h-64v64h-64v64v64v64h64v64h64h64h64v-64v-64h-64v-64h64h64v64v64v64v64h-64h-64h-64v64v64h64h64h64h64h64v-64h64v64h64h64h64h64v-64h64v-64v-64v-64h-64v-64h-64h-64h-64v64v64h64v64h-64h-64v-64v-64v-64v-64h64h64h64
h64v-64v-64h-64z" />
    <glyph glyph-name="ccedilla" unicode="&#xe7;" horiz-adv-x="576" 
d="M256 -128h-64h-64v64h64v64h-64h-64v64h-64v64v64v64v64v64v64h64v64h64h64h64h64h64h64v-64h64v-64v-64h-64h-64h-64v64h-64h-64v-64v-64v-64v-64h64h64v64h64h64h64v-64v-64h-64v-64h-64h-64v-64v-64h-64z" />
    <glyph glyph-name="egrave" unicode="&#xe8;" horiz-adv-x="576" 
d="M384 0h-64h-64h-64h-64h-64v64h-64v64v64v64v64v64v64h64v64h64h64h64h64h64h64v-64h64v-64v-64v-64h-64v-64h-64h-64h-64v64v64h64v64h-64h-64v-64v-64v-64v-64h64h64h64h64v-64v-64h-64zM320 576h-64h-64v64h-64v64h64h64h64v-64h64v-64h-64z" />
    <glyph glyph-name="eacute" unicode="&#xe9;" horiz-adv-x="576" 
d="M384 0h-64h-64h-64h-64h-64v64h-64v64v64v64v64v64v64h64v64h64h64h64h64h64h64v-64h64v-64v-64v-64h-64v-64h-64h-64h-64v64v64h64v64h-64h-64v-64v-64v-64v-64h64h64h64h64v-64v-64h-64zM256 576h-64h-64v64h64v64h64h64h64v-64h-64v-64h-64z" />
    <glyph glyph-name="ecircumflex" unicode="&#xea;" horiz-adv-x="576" 
d="M384 0h-64h-64h-64h-64h-64v64h-64v64v64v64v64v64v64h64v64h64h64h64h64h64h64v-64h64v-64v-64v-64h-64v-64h-64h-64h-64v64v64h64v64h-64h-64v-64v-64v-64v-64h64h64h64h64v-64v-64h-64zM384 576h-64v64h-64v-64h-64h-64v64h64v64h64h64h64v-64h64v-64h-64z" />
    <glyph glyph-name="edieresis" unicode="&#xeb;" horiz-adv-x="576" 
d="M384 0h-64h-64h-64h-64h-64v64h-64v64v64v64v64v64v64h64v64h64h64h64h64h64h64v-64h64v-64v-64v-64h-64v-64h-64h-64h-64v64v64h64v64h-64h-64v-64v-64v-64v-64h64h64h64h64v-64v-64h-64zM320 576h-64v64v64h64h64v-64v-64h-64zM128 576h-64v64v64h64h64v-64v-64h-64z
" />
    <glyph glyph-name="igrave" unicode="&#xec;" horiz-adv-x="256" 
d="M128 0h-64h-64v64v64v64v64v64v64v64v64h64h64h64v-64v-64v-64v-64v-64v-64v-64v-64h-64zM128 576h-64v64h-64v64h64h64v-64h64v-64h-64z" />
    <glyph glyph-name="iacute" unicode="&#xed;" horiz-adv-x="256" 
d="M128 0h-64h-64v64v64v64v64v64v64v64v64h64h64h64v-64v-64v-64v-64v-64v-64v-64v-64h-64zM64 576h-64v64h64v64h64h64v-64h-64v-64h-64z" />
    <glyph glyph-name="icircumflex" unicode="&#xee;" horiz-adv-x="256" 
d="M128 576v64h-64v-64h-64v64v64h64v64h64v-64h64v-64v-64h-64zM128 0h-64h-64v64v64v64v64v64v64v64v64h64h64h64v-64v-64v-64v-64v-64v-64v-64v-64h-64z" />
    <glyph glyph-name="idieresis" unicode="&#xef;" horiz-adv-x="256" 
d="M128 576v64v64h64v-64v-64h-64zM0 576v64v64h64v-64v-64h-64zM128 0h-64h-64v64v64v64v64v64v64v64v64h64h64h64v-64v-64v-64v-64v-64v-64v-64v-64h-64z" />
    <glyph glyph-name="eth" unicode="&#xf0;" horiz-adv-x="576" 
d="M320 0h-64h-64h-64h-64v64h-64v64v64v64v64h64v64h64h64h64h64h64v64h-64v64h-64v-64h-64h-64v64h64v64h-64v64h64h64h64v64h64h64v-64h-64v-64h64v-64h64v-64v-64v-64v-64v-64v-64h-64v-64h-64v-64h-64zM256 128v64h64v64h-64h-64v-64v-64h64z" />
    <glyph glyph-name="ntilde" unicode="&#xf1;" horiz-adv-x="576" 
d="M448 0h-64h-64v64v64v64v64v64h-64v64h-64v-64v-64v-64v-64v-64v-64h-64h-64h-64v64v64v64v64v64v64v64v64h64h64h64h64h64h64v-64h64v-64h64v-64v-64v-64v-64v-64v-64h-64zM384 576h-64h-64v64h64v64h64h64h64v-64h-64v-64h-64zM128 576h-64v64h64v64h64h64v-64h-64v-64
h-64z" />
    <glyph glyph-name="ograve" unicode="&#xf2;" horiz-adv-x="576" 
d="M384 0h-64h-64h-64h-64h-64v64h-64v64v64v64v64v64v64h64v64h64h64h64h64h64h64v-64h64v-64v-64v-64v-64v-64v-64h-64v-64h-64zM256 128h64v64v64v64v64h-64h-64v-64v-64v-64v-64h64zM320 576h-64h-64v64h-64v64h64h64h64v-64h64v-64h-64z" />
    <glyph glyph-name="oacute" unicode="&#xf3;" horiz-adv-x="576" 
d="M384 0h-64h-64h-64h-64h-64v64h-64v64v64v64v64v64v64h64v64h64h64h64h64h64h64v-64h64v-64v-64v-64v-64v-64v-64h-64v-64h-64zM256 128h64v64v64v64v64h-64h-64v-64v-64v-64v-64h64zM256 576h-64h-64v64h64v64h64h64h64v-64h-64v-64h-64z" />
    <glyph glyph-name="ocircumflex" unicode="&#xf4;" horiz-adv-x="576" 
d="M384 0h-64h-64h-64h-64h-64v64h-64v64v64v64v64v64v64h64v64h64h64h64h64h64h64v-64h64v-64v-64v-64v-64v-64v-64h-64v-64h-64zM256 128h64v64v64v64v64h-64h-64v-64v-64v-64v-64h64zM384 576h-64v64h-64v-64h-64h-64v64h64v64h64h64h64v-64h64v-64h-64z" />
    <glyph glyph-name="otilde" unicode="&#xf5;" horiz-adv-x="576" 
d="M384 0h-64h-64h-64h-64h-64v64h-64v64v64v64v64v64v64h64v64h64h64h64h64h64h64v-64h64v-64v-64v-64v-64v-64v-64h-64v-64h-64zM256 128h64v64v64v64v64h-64h-64v-64v-64v-64v-64h64zM384 576h-64h-64v64h64v64h64h64h64v-64h-64v-64h-64zM128 576h-64v64h64v64h64h64
v-64h-64v-64h-64z" />
    <glyph glyph-name="odieresis" unicode="&#xf6;" horiz-adv-x="576" 
d="M384 0h-64h-64h-64h-64h-64v64h-64v64v64v64v64v64v64h64v64h64h64h64h64h64h64v-64h64v-64v-64v-64v-64v-64v-64h-64v-64h-64zM256 128h64v64v64v64v64h-64h-64v-64v-64v-64v-64h64zM384 576h-64v64v64h64h64v-64v-64h-64zM192 576h-64v64v64h64h64v-64v-64h-64z" />
    <glyph glyph-name="oslash" unicode="&#xf8;" horiz-adv-x="576" 
d="M384 0h-64h-64h-64h-64h-64v64h-64v64v64v64v64v64v64h64v64h64h64h64h64h64h64v-64h64v-64v-64v-64v-64v-64v-64h-64v-64h-64zM256 64h64v64v64h-64v-64h-64v-64h64zM256 320v64h64v64h-64h-64v-64v-64h64z" />
    <glyph glyph-name="ugrave" unicode="&#xf9;" horiz-adv-x="576" 
d="M384 0h-64h-64h-64h-64h-64v64h-64v64v64v64v64v64v64h64v64h64h64v-64v-64v-64v-64v-64v-64h64h64v64v64v64v64v64v64h64h64h64v-64v-64v-64v-64v-64v-64v-64h-64v-64h-64zM320 576h-64h-64v64h-64v64h64h64h64v-64h64v-64h-64z" />
    <glyph glyph-name="uacute" unicode="&#xfa;" horiz-adv-x="576" 
d="M384 0h-64h-64h-64h-64h-64v64h-64v64v64v64v64v64v64h64v64h64h64v-64v-64v-64v-64v-64v-64h64h64v64v64v64v64v64v64h64h64h64v-64v-64v-64v-64v-64v-64v-64h-64v-64h-64zM320 576h-64h-64v64h64v64h64h64h64v-64h-64v-64h-64z" />
    <glyph glyph-name="ucircumflex" unicode="&#xfb;" horiz-adv-x="576" 
d="M384 0h-64h-64h-64h-64h-64v64h-64v64v64v64v64v64v64h64v64h64h64v-64v-64v-64v-64v-64v-64h64h64v64v64v64v64v64v64h64h64h64v-64v-64v-64v-64v-64v-64v-64h-64v-64h-64zM384 576h-64v64h-64v-64h-64h-64v64h64v64h64h64h64v-64h64v-64h-64z" />
    <glyph glyph-name="udieresis" unicode="&#xfc;" horiz-adv-x="576" 
d="M384 0h-64h-64h-64h-64h-64v64h-64v64v64v64v64v64v64h64v64h64h64v-64v-64v-64v-64v-64v-64h64h64v64v64v64v64v64v64h64h64h64v-64v-64v-64v-64v-64v-64v-64h-64v-64h-64zM384 576h-64v64v64h64h64v-64v-64h-64zM192 576h-64v64v64h64h64v-64v-64h-64z" />
    <glyph glyph-name="yacute" unicode="&#xfd;" horiz-adv-x="576" 
d="M384 -128h-64h-64h-64h-64v64v64h64h64h64v64h-64h-64h-64h-64v64h-64v64v64v64v64v64v64h64h64h64v-64v-64v-64v-64v-64h64h64v64v64v64v64v64h64h64v-64h64v-64v-64v-64v-64v-64v-64v-64v-64h-64v-64h-64zM320 576h-64h-64v64h64v64h64h64h64v-64h-64v-64h-64z" />
    <glyph glyph-name="thorn" unicode="&#xfe;" 
d="M128 -128h-64h-64v64v64v64v64v64v64v64v64v64v64v64h64h64h64v-64v-64h64h64h64h64v-64h64v-64h64v-64v-64v-64v-64h-64v-64h-64h-64h-64h-64h-64v-64v-64h-64zM320 128h64v64v64v64h-64h-64h-64v-64v-64v-64h64h64z" />
    <glyph glyph-name="ydieresis" unicode="&#xff;" horiz-adv-x="576" 
d="M384 -128h-64h-64h-64h-64v64v64h64h64h64v64h-64h-64h-64h-64v64h-64v64v64v64v64v64v64h64h64h64v-64v-64v-64v-64v-64h64h64v64v64v64v64v64h64h64v-64h64v-64v-64v-64v-64v-64v-64v-64v-64h-64v-64h-64zM384 576h-64v64v64h64h64v-64v-64h-64zM192 576h-64v64v64h64
h64v-64v-64h-64z" />
    <glyph glyph-name="OE" unicode="&#x152;" horiz-adv-x="960" 
d="M832 0h-64h-64h-64h-64h-64h-64h-64h-64h-64h-64h-64h-64v64h-64v64v64v64v64v64v64v64h64v64h64h64h64h64h64h64h64h64h64h64h64h64h64v-64v-64h-64h-64h-64h-64h-64v-64v-64h64h64h64h64v-64v-64h-64h-64h-64h-64v-64h64h64h64h64h64v-64v-64h-64zM320 128h64v64v64v64
v64v64h-64h-64h-64v-64v-64v-64v-64v-64h64h64z" />
    <glyph glyph-name="oe" unicode="&#x153;" horiz-adv-x="896" 
d="M704 0h-64h-64h-64h-64h-64h-64h-64h-64h-64h-64v64h-64v64v64v64v64v64v64h64v64h64h64h64h64h64v-64h64v64h64h64h64h64h64v-64h64v-64v-64v-64h-64v-64h-64h-64h-64v64v64h64v64h-64h-64v-64v-64v-64v-64h64h64h64h64v-64v-64h-64zM256 128h64v64v64v64v64h-64h-64
v-64v-64v-64v-64h64z" />
    <glyph glyph-name="Ydieresis" unicode="&#x178;" horiz-adv-x="576" 
d="M384 -128h-64h-64h-64h-64v64v64h64h64h64v64h-64h-64h-64h-64v64h-64v64v64v64v64v64v64h64h64h64v-64v-64v-64v-64v-64h64h64v64v64v64v64v64h64h64v-64h64v-64v-64v-64v-64v-64v-64v-64v-64h-64v-64h-64zM384 576h-64v64v64h64h64v-64v-64h-64zM192 576h-64v64v64h64
h64v-64v-64h-64z" />
    <glyph glyph-name="Euro" unicode="&#x20ac;" horiz-adv-x="768" 
d="M576 0h-64h-64h-64h-64h-64h-64h-64v64h-64v64v64h-64v64v64h64v64h-64v64v64h64v64v64h64v64h64h64h64h64h64h64h64h64v-64h64v-64v-64h-64h-64h-64v64h-64h-64h-64h-64v-64h64h64h64v-64v-64h-64h-64h-64v-64h64h64h64v-64v-64h-64h-64h-64v-64h64h64h64h64v64h64h64
h64v-64v-64h-64v-64h-64z" />
    <glyph glyph-name="uni3000" unicode="&#x3000;" horiz-adv-x="1024" 
 />
    <glyph glyph-name=".null" horiz-adv-x="0" 
 />
    <glyph glyph-name="nonmarkingreturn" horiz-adv-x="341" 
 />
  </font>
</defs>
</svg>
